<svg width="194" height="21" viewBox="0 0 194 21" fill="none" xmlns="http://www.w3.org/2000/svg">
<path d="M10.293 8.08008V10.5312H0.546875V8.08008H10.293ZM6.75781 4.22266V14.5742H4.0918V4.22266H6.75781ZM14.7559 7.66992H16.2598C16.7415 7.66992 17.1387 7.58854 17.4512 7.42578C17.7637 7.25651 17.9948 7.02214 18.1445 6.72266C18.3008 6.41667 18.3789 6.06185 18.3789 5.6582C18.3789 5.29362 18.3073 4.97135 18.1641 4.69141C18.0273 4.40495 17.8158 4.18359 17.5293 4.02734C17.2428 3.86458 16.8815 3.7832 16.4453 3.7832C16.1003 3.7832 15.7812 3.85156 15.4883 3.98828C15.1953 4.125 14.9609 4.31706 14.7852 4.56445C14.6094 4.81185 14.5215 5.11133 14.5215 5.46289H11.6992C11.6992 4.68164 11.9076 4.0013 12.3242 3.42188C12.7474 2.84245 13.3138 2.38997 14.0234 2.06445C14.7331 1.73893 15.5143 1.57617 16.3672 1.57617C17.3307 1.57617 18.1738 1.73242 18.8965 2.04492C19.6191 2.35091 20.1823 2.80339 20.5859 3.40234C20.9896 4.0013 21.1914 4.74349 21.1914 5.62891C21.1914 6.07812 21.0872 6.51432 20.8789 6.9375C20.6706 7.35417 20.3711 7.73177 19.9805 8.07031C19.5964 8.40234 19.1276 8.66927 18.5742 8.87109C18.0208 9.06641 17.3991 9.16406 16.709 9.16406H14.7559V7.66992ZM14.7559 9.80859V8.35352H16.709C17.4837 8.35352 18.1641 8.44141 18.75 8.61719C19.3359 8.79297 19.8275 9.04688 20.2246 9.37891C20.6217 9.70443 20.9212 10.0918 21.123 10.541C21.3249 10.9837 21.4258 11.4753 21.4258 12.0156C21.4258 12.6797 21.2988 13.2721 21.0449 13.793C20.791 14.3073 20.4329 14.7435 19.9707 15.1016C19.515 15.4596 18.9811 15.7331 18.3691 15.9219C17.7572 16.1042 17.0898 16.1953 16.3672 16.1953C15.7682 16.1953 15.179 16.1139 14.5996 15.9512C14.0267 15.7819 13.5059 15.5312 13.0371 15.1992C12.5749 14.8607 12.2038 14.4375 11.9238 13.9297C11.6504 13.4154 11.5137 12.8066 11.5137 12.1035H14.3359C14.3359 12.4681 14.4271 12.7936 14.6094 13.0801C14.7917 13.3665 15.0423 13.5911 15.3613 13.7539C15.6868 13.9167 16.0482 13.998 16.4453 13.998C16.8945 13.998 17.2786 13.9167 17.5977 13.7539C17.9232 13.5846 18.1706 13.3503 18.3398 13.0508C18.5156 12.7448 18.6035 12.39 18.6035 11.9863C18.6035 11.4655 18.5091 11.0488 18.3203 10.7363C18.1315 10.4173 17.8613 10.1829 17.5098 10.0332C17.1582 9.88346 16.7415 9.80859 16.2598 9.80859H14.7559ZM26.0059 9.52539L23.7598 8.98828L24.5703 1.78125H32.5586V4.05664H26.8848L26.5332 7.21094C26.722 7.10026 27.0085 6.98307 27.3926 6.85938C27.7767 6.72917 28.2064 6.66406 28.6816 6.66406C29.3717 6.66406 29.9837 6.77148 30.5176 6.98633C31.0514 7.20117 31.5039 7.51367 31.875 7.92383C32.2526 8.33398 32.5391 8.83529 32.7344 9.42773C32.9297 10.0202 33.0273 10.6908 33.0273 11.4395C33.0273 12.071 32.9297 12.6732 32.7344 13.2461C32.5391 13.8125 32.2428 14.3203 31.8457 14.7695C31.4486 15.2122 30.9505 15.5605 30.3516 15.8145C29.7526 16.0684 29.043 16.1953 28.2227 16.1953C27.6107 16.1953 27.0182 16.1042 26.4453 15.9219C25.8789 15.7396 25.3678 15.4694 24.9121 15.1113C24.4629 14.7533 24.1016 14.3203 23.8281 13.8125C23.5612 13.2982 23.4212 12.7122 23.4082 12.0547H26.2012C26.2402 12.4583 26.3444 12.8066 26.5137 13.0996C26.6895 13.3861 26.9206 13.6074 27.207 13.7637C27.4935 13.9199 27.8288 13.998 28.2129 13.998C28.571 13.998 28.877 13.9297 29.1309 13.793C29.3848 13.6562 29.5898 13.4674 29.7461 13.2266C29.9023 12.9792 30.0163 12.6927 30.0879 12.3672C30.166 12.0352 30.2051 11.6771 30.2051 11.293C30.2051 10.9089 30.1595 10.5605 30.0684 10.248C29.9772 9.93555 29.8372 9.66536 29.6484 9.4375C29.4596 9.20964 29.2188 9.03385 28.9258 8.91016C28.6393 8.78646 28.304 8.72461 27.9199 8.72461C27.3991 8.72461 26.9954 8.80599 26.709 8.96875C26.429 9.13151 26.1947 9.31706 26.0059 9.52539ZM44.4238 12.1035C44.4238 12.9954 44.2155 13.7474 43.7988 14.3594C43.3822 14.9648 42.8092 15.4238 42.0801 15.7363C41.3574 16.0423 40.5371 16.1953 39.6191 16.1953C38.7012 16.1953 37.8776 16.0423 37.1484 15.7363C36.4193 15.4238 35.8431 14.9648 35.4199 14.3594C34.9967 13.7474 34.7852 12.9954 34.7852 12.1035C34.7852 11.5046 34.9056 10.9642 35.1465 10.4824C35.3874 9.99414 35.7227 9.57747 36.1523 9.23242C36.5885 8.88086 37.0996 8.61393 37.6855 8.43164C38.2715 8.24284 38.9095 8.14844 39.5996 8.14844C40.5241 8.14844 41.3509 8.3112 42.0801 8.63672C42.8092 8.96224 43.3822 9.42122 43.7988 10.0137C44.2155 10.6061 44.4238 11.3027 44.4238 12.1035ZM41.5918 11.918C41.5918 11.4818 41.5072 11.1074 41.3379 10.7949C41.1751 10.4759 40.944 10.2318 40.6445 10.0625C40.3451 9.89323 39.9967 9.80859 39.5996 9.80859C39.2025 9.80859 38.8542 9.89323 38.5547 10.0625C38.2552 10.2318 38.0208 10.4759 37.8516 10.7949C37.6888 11.1074 37.6074 11.4818 37.6074 11.918C37.6074 12.3477 37.6888 12.7188 37.8516 13.0312C38.0208 13.3438 38.2552 13.5846 38.5547 13.7539C38.8607 13.9167 39.2155 13.998 39.6191 13.998C40.0228 13.998 40.3711 13.9167 40.6641 13.7539C40.9635 13.5846 41.1914 13.3438 41.3477 13.0312C41.5104 12.7188 41.5918 12.3477 41.5918 11.918ZM44.1211 5.55078C44.1211 6.27344 43.929 6.91471 43.5449 7.47461C43.1608 8.02799 42.627 8.46094 41.9434 8.77344C41.2663 9.08594 40.4915 9.24219 39.6191 9.24219C38.7402 9.24219 37.959 9.08594 37.2754 8.77344C36.5918 8.46094 36.0579 8.02799 35.6738 7.47461C35.2897 6.91471 35.0977 6.27344 35.0977 5.55078C35.0977 4.69141 35.2897 3.96875 35.6738 3.38281C36.0645 2.79036 36.5983 2.34115 37.2754 2.03516C37.959 1.72917 38.7337 1.57617 39.5996 1.57617C40.4785 1.57617 41.2565 1.72917 41.9336 2.03516C42.6172 2.34115 43.151 2.79036 43.5352 3.38281C43.9258 3.96875 44.1211 4.69141 44.1211 5.55078ZM41.3086 5.67773C41.3086 5.29362 41.2402 4.96159 41.1035 4.68164C40.9668 4.39518 40.7715 4.17383 40.5176 4.01758C40.2702 3.86133 39.9642 3.7832 39.5996 3.7832C39.248 3.7832 38.9453 3.85807 38.6914 4.00781C38.444 4.15755 38.252 4.37565 38.1152 4.66211C37.985 4.94206 37.9199 5.2806 37.9199 5.67773C37.9199 6.06185 37.985 6.40039 38.1152 6.69336C38.252 6.97982 38.4473 7.20443 38.7012 7.36719C38.9551 7.52995 39.2611 7.61133 39.6191 7.61133C39.9772 7.61133 40.2799 7.52995 40.5273 7.36719C40.7812 7.20443 40.9733 6.97982 41.1035 6.69336C41.2402 6.40039 41.3086 6.06185 41.3086 5.67773ZM51.5527 10.4336V10.2188C51.5527 8.84505 51.696 7.59831 51.9824 6.47852C52.2754 5.35872 52.6595 4.37565 53.1348 3.5293C53.6165 2.67643 54.1406 1.97005 54.707 1.41016C55.2734 0.85026 55.8366 0.446615 56.3965 0.199219L56.9336 1.68359C56.5625 1.95703 56.1979 2.33464 55.8398 2.81641C55.4818 3.29167 55.1562 3.8776 54.8633 4.57422C54.5768 5.26432 54.3457 6.07812 54.1699 7.01562C53.9941 7.94661 53.9062 9.00781 53.9062 10.1992V10.4531C53.9062 11.6445 53.9941 12.709 54.1699 13.6465C54.3457 14.5775 54.5768 15.3913 54.8633 16.0879C55.1562 16.791 55.4818 17.3835 55.8398 17.8652C56.1979 18.347 56.5625 18.7279 56.9336 19.0078L56.3965 20.4531C55.8366 20.2057 55.2734 19.8021 54.707 19.2422C54.1406 18.6888 53.6165 17.9857 53.1348 17.1328C52.6595 16.2865 52.2754 15.3034 51.9824 14.1836C51.696 13.0573 51.5527 11.8073 51.5527 10.4336ZM67.8711 7.64062V10.1016C67.8711 11.1693 67.7572 12.0905 67.5293 12.8652C67.3014 13.6335 66.9727 14.265 66.543 14.7598C66.1198 15.248 65.6152 15.6094 65.0293 15.8438C64.4434 16.0781 63.7923 16.1953 63.0762 16.1953C62.5033 16.1953 61.9694 16.1237 61.4746 15.9805C60.9798 15.8307 60.5339 15.5996 60.1367 15.2871C59.7461 14.9746 59.4076 14.5807 59.1211 14.1055C58.8411 13.6237 58.6263 13.0508 58.4766 12.3867C58.3268 11.7227 58.252 10.9609 58.252 10.1016V7.64062C58.252 6.57292 58.3659 5.6582 58.5938 4.89648C58.8281 4.12826 59.1569 3.5 59.5801 3.01172C60.0098 2.52344 60.5176 2.16536 61.1035 1.9375C61.6895 1.70312 62.3405 1.58594 63.0566 1.58594C63.6296 1.58594 64.1602 1.66081 64.6484 1.81055C65.1432 1.95378 65.5892 2.17839 65.9863 2.48438C66.3835 2.79036 66.722 3.18424 67.002 3.66602C67.2819 4.14128 67.4967 4.71094 67.6465 5.375C67.7962 6.03255 67.8711 6.78776 67.8711 7.64062ZM65.0488 10.4727V7.25977C65.0488 6.74544 65.0195 6.29622 64.9609 5.91211C64.9089 5.52799 64.8275 5.20247 64.7168 4.93555C64.6061 4.66211 64.4694 4.44076 64.3066 4.27148C64.1439 4.10221 63.9583 3.97852 63.75 3.90039C63.5417 3.82227 63.3105 3.7832 63.0566 3.7832C62.7376 3.7832 62.4544 3.84505 62.207 3.96875C61.9661 4.09245 61.7611 4.29102 61.5918 4.56445C61.4225 4.83138 61.2923 5.18945 61.2012 5.63867C61.1165 6.08138 61.0742 6.62174 61.0742 7.25977V10.4727C61.0742 10.987 61.1003 11.4395 61.1523 11.8301C61.2109 12.2207 61.2956 12.556 61.4062 12.8359C61.5234 13.1094 61.6602 13.334 61.8164 13.5098C61.9792 13.679 62.1647 13.8027 62.373 13.8809C62.5879 13.959 62.8223 13.998 63.0762 13.998C63.3887 13.998 63.6654 13.9362 63.9062 13.8125C64.1536 13.6823 64.362 13.4805 64.5312 13.207C64.707 12.9271 64.8372 12.5625 64.9219 12.1133C65.0065 11.6641 65.0488 11.1172 65.0488 10.4727ZM74.7363 10.2188V10.4336C74.7363 11.7617 74.5866 12.9857 74.2871 14.1055C73.9876 15.2188 73.5905 16.2051 73.0957 17.0645C72.6074 17.9303 72.0703 18.6497 71.4844 19.2227C70.9049 19.7956 70.3255 20.2057 69.7461 20.4531L69.1992 19.0078C69.5703 18.7344 69.9316 18.3568 70.2832 17.875C70.6413 17.3932 70.9668 16.8008 71.2598 16.0977C71.5527 15.401 71.7839 14.584 71.9531 13.6465C72.1289 12.709 72.2168 11.6445 72.2168 10.4531V10.1992C72.2168 9.00781 72.1289 7.94336 71.9531 7.00586C71.7773 6.06836 71.5397 5.2513 71.2402 4.55469C70.9473 3.85156 70.6217 3.26237 70.2637 2.78711C69.9121 2.30534 69.5573 1.92773 69.1992 1.6543L69.7461 0.199219C70.3255 0.446615 70.9049 0.860026 71.4844 1.43945C72.0703 2.01237 72.6074 2.72852 73.0957 3.58789C73.5905 4.44727 73.9876 5.43685 74.2871 6.55664C74.5866 7.66992 74.7363 8.89062 74.7363 10.2188ZM91.7578 10.6875V12.8945H81.5137L81.377 11.1855L87.3047 1.78125H89.541L87.1191 5.83398L84.1699 10.6875H91.7578ZM90.1465 1.78125V16H87.334V1.78125H90.1465ZM102.852 7.64062V10.1016C102.852 11.1693 102.738 12.0905 102.51 12.8652C102.282 13.6335 101.953 14.265 101.523 14.7598C101.1 15.248 100.596 15.6094 100.01 15.8438C99.4238 16.0781 98.7728 16.1953 98.0566 16.1953C97.4837 16.1953 96.9499 16.1237 96.4551 15.9805C95.9603 15.8307 95.5143 15.5996 95.1172 15.2871C94.7266 14.9746 94.388 14.5807 94.1016 14.1055C93.8216 13.6237 93.6068 13.0508 93.457 12.3867C93.3073 11.7227 93.2324 10.9609 93.2324 10.1016V7.64062C93.2324 6.57292 93.3464 5.6582 93.5742 4.89648C93.8086 4.12826 94.1374 3.5 94.5605 3.01172C94.9902 2.52344 95.498 2.16536 96.084 1.9375C96.6699 1.70312 97.321 1.58594 98.0371 1.58594C98.61 1.58594 99.1406 1.66081 99.6289 1.81055C100.124 1.95378 100.57 2.17839 100.967 2.48438C101.364 2.79036 101.702 3.18424 101.982 3.66602C102.262 4.14128 102.477 4.71094 102.627 5.375C102.777 6.03255 102.852 6.78776 102.852 7.64062ZM100.029 10.4727V7.25977C100.029 6.74544 100 6.29622 99.9414 5.91211C99.8893 5.52799 99.8079 5.20247 99.6973 4.93555C99.5866 4.66211 99.4499 4.44076 99.2871 4.27148C99.1243 4.10221 98.9388 3.97852 98.7305 3.90039C98.5221 3.82227 98.291 3.7832 98.0371 3.7832C97.7181 3.7832 97.4349 3.84505 97.1875 3.96875C96.9466 4.09245 96.7415 4.29102 96.5723 4.56445C96.403 4.83138 96.2728 5.18945 96.1816 5.63867C96.097 6.08138 96.0547 6.62174 96.0547 7.25977V10.4727C96.0547 10.987 96.0807 11.4395 96.1328 11.8301C96.1914 12.2207 96.276 12.556 96.3867 12.8359C96.5039 13.1094 96.6406 13.334 96.7969 13.5098C96.9596 13.679 97.1452 13.8027 97.3535 13.8809C97.5684 13.959 97.8027 13.998 98.0566 13.998C98.3691 13.998 98.6458 13.9362 98.8867 13.8125C99.1341 13.6823 99.3424 13.4805 99.5117 13.207C99.6875 12.9271 99.8177 12.5625 99.9023 12.1133C99.987 11.6641 100.029 11.1172 100.029 10.4727ZM119.404 1.78125V3.29492L113.906 16H110.938L116.436 3.97852H109.355V1.78125H119.404ZM124.111 7.66992H125.615C126.097 7.66992 126.494 7.58854 126.807 7.42578C127.119 7.25651 127.35 7.02214 127.5 6.72266C127.656 6.41667 127.734 6.06185 127.734 5.6582C127.734 5.29362 127.663 4.97135 127.52 4.69141C127.383 4.40495 127.171 4.18359 126.885 4.02734C126.598 3.86458 126.237 3.7832 125.801 3.7832C125.456 3.7832 125.137 3.85156 124.844 3.98828C124.551 4.125 124.316 4.31706 124.141 4.56445C123.965 4.81185 123.877 5.11133 123.877 5.46289H121.055C121.055 4.68164 121.263 4.0013 121.68 3.42188C122.103 2.84245 122.669 2.38997 123.379 2.06445C124.089 1.73893 124.87 1.57617 125.723 1.57617C126.686 1.57617 127.529 1.73242 128.252 2.04492C128.975 2.35091 129.538 2.80339 129.941 3.40234C130.345 4.0013 130.547 4.74349 130.547 5.62891C130.547 6.07812 130.443 6.51432 130.234 6.9375C130.026 7.35417 129.727 7.73177 129.336 8.07031C128.952 8.40234 128.483 8.66927 127.93 8.87109C127.376 9.06641 126.755 9.16406 126.064 9.16406H124.111V7.66992ZM124.111 9.80859V8.35352H126.064C126.839 8.35352 127.52 8.44141 128.105 8.61719C128.691 8.79297 129.183 9.04688 129.58 9.37891C129.977 9.70443 130.277 10.0918 130.479 10.541C130.68 10.9837 130.781 11.4753 130.781 12.0156C130.781 12.6797 130.654 13.2721 130.4 13.793C130.146 14.3073 129.788 14.7435 129.326 15.1016C128.87 15.4596 128.337 15.7331 127.725 15.9219C127.113 16.1042 126.445 16.1953 125.723 16.1953C125.124 16.1953 124.535 16.1139 123.955 15.9512C123.382 15.7819 122.861 15.5312 122.393 15.1992C121.93 14.8607 121.559 14.4375 121.279 13.9297C121.006 13.4154 120.869 12.8066 120.869 12.1035H123.691C123.691 12.4681 123.783 12.7936 123.965 13.0801C124.147 13.3665 124.398 13.5911 124.717 13.7539C125.042 13.9167 125.404 13.998 125.801 13.998C126.25 13.998 126.634 13.9167 126.953 13.7539C127.279 13.5846 127.526 13.3503 127.695 13.0508C127.871 12.7448 127.959 12.39 127.959 11.9863C127.959 11.4655 127.865 11.0488 127.676 10.7363C127.487 10.4173 127.217 10.1829 126.865 10.0332C126.514 9.88346 126.097 9.80859 125.615 9.80859H124.111ZM142.295 12.1035C142.295 12.9954 142.087 13.7474 141.67 14.3594C141.253 14.9648 140.68 15.4238 139.951 15.7363C139.229 16.0423 138.408 16.1953 137.49 16.1953C136.572 16.1953 135.749 16.0423 135.02 15.7363C134.29 15.4238 133.714 14.9648 133.291 14.3594C132.868 13.7474 132.656 12.9954 132.656 12.1035C132.656 11.5046 132.777 10.9642 133.018 10.4824C133.258 9.99414 133.594 9.57747 134.023 9.23242C134.46 8.88086 134.971 8.61393 135.557 8.43164C136.143 8.24284 136.781 8.14844 137.471 8.14844C138.395 8.14844 139.222 8.3112 139.951 8.63672C140.68 8.96224 141.253 9.42122 141.67 10.0137C142.087 10.6061 142.295 11.3027 142.295 12.1035ZM139.463 11.918C139.463 11.4818 139.378 11.1074 139.209 10.7949C139.046 10.4759 138.815 10.2318 138.516 10.0625C138.216 9.89323 137.868 9.80859 137.471 9.80859C137.074 9.80859 136.725 9.89323 136.426 10.0625C136.126 10.2318 135.892 10.4759 135.723 10.7949C135.56 11.1074 135.479 11.4818 135.479 11.918C135.479 12.3477 135.56 12.7188 135.723 13.0312C135.892 13.3438 136.126 13.5846 136.426 13.7539C136.732 13.9167 137.087 13.998 137.49 13.998C137.894 13.998 138.242 13.9167 138.535 13.7539C138.835 13.5846 139.062 13.3438 139.219 13.0312C139.382 12.7188 139.463 12.3477 139.463 11.918ZM141.992 5.55078C141.992 6.27344 141.8 6.91471 141.416 7.47461C141.032 8.02799 140.498 8.46094 139.814 8.77344C139.137 9.08594 138.363 9.24219 137.49 9.24219C136.611 9.24219 135.83 9.08594 135.146 8.77344C134.463 8.46094 133.929 8.02799 133.545 7.47461C133.161 6.91471 132.969 6.27344 132.969 5.55078C132.969 4.69141 133.161 3.96875 133.545 3.38281C133.936 2.79036 134.469 2.34115 135.146 2.03516C135.83 1.72917 136.605 1.57617 137.471 1.57617C138.35 1.57617 139.128 1.72917 139.805 2.03516C140.488 2.34115 141.022 2.79036 141.406 3.38281C141.797 3.96875 141.992 4.69141 141.992 5.55078ZM139.18 5.67773C139.18 5.29362 139.111 4.96159 138.975 4.68164C138.838 4.39518 138.643 4.17383 138.389 4.01758C138.141 3.86133 137.835 3.7832 137.471 3.7832C137.119 3.7832 136.816 3.85807 136.562 4.00781C136.315 4.15755 136.123 4.37565 135.986 4.66211C135.856 4.94206 135.791 5.2806 135.791 5.67773C135.791 6.06185 135.856 6.40039 135.986 6.69336C136.123 6.97982 136.318 7.20443 136.572 7.36719C136.826 7.52995 137.132 7.61133 137.49 7.61133C137.848 7.61133 138.151 7.52995 138.398 7.36719C138.652 7.20443 138.844 6.97982 138.975 6.69336C139.111 6.40039 139.18 6.06185 139.18 5.67773ZM156.035 1.75195V16H153.223V4.99414L149.844 6.06836V3.85156L155.732 1.75195H156.035ZM170.234 7.64062V10.1016C170.234 11.1693 170.12 12.0905 169.893 12.8652C169.665 13.6335 169.336 14.265 168.906 14.7598C168.483 15.248 167.979 15.6094 167.393 15.8438C166.807 16.0781 166.156 16.1953 165.439 16.1953C164.867 16.1953 164.333 16.1237 163.838 15.9805C163.343 15.8307 162.897 15.5996 162.5 15.2871C162.109 14.9746 161.771 14.5807 161.484 14.1055C161.204 13.6237 160.99 13.0508 160.84 12.3867C160.69 11.7227 160.615 10.9609 160.615 10.1016V7.64062C160.615 6.57292 160.729 5.6582 160.957 4.89648C161.191 4.12826 161.52 3.5 161.943 3.01172C162.373 2.52344 162.881 2.16536 163.467 1.9375C164.053 1.70312 164.704 1.58594 165.42 1.58594C165.993 1.58594 166.523 1.66081 167.012 1.81055C167.507 1.95378 167.952 2.17839 168.35 2.48438C168.747 2.79036 169.085 3.18424 169.365 3.66602C169.645 4.14128 169.86 4.71094 170.01 5.375C170.16 6.03255 170.234 6.78776 170.234 7.64062ZM167.412 10.4727V7.25977C167.412 6.74544 167.383 6.29622 167.324 5.91211C167.272 5.52799 167.191 5.20247 167.08 4.93555C166.969 4.66211 166.833 4.44076 166.67 4.27148C166.507 4.10221 166.322 3.97852 166.113 3.90039C165.905 3.82227 165.674 3.7832 165.42 3.7832C165.101 3.7832 164.818 3.84505 164.57 3.96875C164.329 4.09245 164.124 4.29102 163.955 4.56445C163.786 4.83138 163.656 5.18945 163.564 5.63867C163.48 6.08138 163.438 6.62174 163.438 7.25977V10.4727C163.438 10.987 163.464 11.4395 163.516 11.8301C163.574 12.2207 163.659 12.556 163.77 12.8359C163.887 13.1094 164.023 13.334 164.18 13.5098C164.342 13.679 164.528 13.8027 164.736 13.8809C164.951 13.959 165.186 13.998 165.439 13.998C165.752 13.998 166.029 13.9362 166.27 13.8125C166.517 13.6823 166.725 13.4805 166.895 13.207C167.07 12.9271 167.201 12.5625 167.285 12.1133C167.37 11.6641 167.412 11.1172 167.412 10.4727ZM181.719 7.64062V10.1016C181.719 11.1693 181.605 12.0905 181.377 12.8652C181.149 13.6335 180.82 14.265 180.391 14.7598C179.967 15.248 179.463 15.6094 178.877 15.8438C178.291 16.0781 177.64 16.1953 176.924 16.1953C176.351 16.1953 175.817 16.1237 175.322 15.9805C174.827 15.8307 174.382 15.5996 173.984 15.2871C173.594 14.9746 173.255 14.5807 172.969 14.1055C172.689 13.6237 172.474 13.0508 172.324 12.3867C172.174 11.7227 172.1 10.9609 172.1 10.1016V7.64062C172.1 6.57292 172.214 5.6582 172.441 4.89648C172.676 4.12826 173.005 3.5 173.428 3.01172C173.857 2.52344 174.365 2.16536 174.951 1.9375C175.537 1.70312 176.188 1.58594 176.904 1.58594C177.477 1.58594 178.008 1.66081 178.496 1.81055C178.991 1.95378 179.437 2.17839 179.834 2.48438C180.231 2.79036 180.57 3.18424 180.85 3.66602C181.13 4.14128 181.344 4.71094 181.494 5.375C181.644 6.03255 181.719 6.78776 181.719 7.64062ZM178.896 10.4727V7.25977C178.896 6.74544 178.867 6.29622 178.809 5.91211C178.757 5.52799 178.675 5.20247 178.564 4.93555C178.454 4.66211 178.317 4.44076 178.154 4.27148C177.992 4.10221 177.806 3.97852 177.598 3.90039C177.389 3.82227 177.158 3.7832 176.904 3.7832C176.585 3.7832 176.302 3.84505 176.055 3.96875C175.814 4.09245 175.609 4.29102 175.439 4.56445C175.27 4.83138 175.14 5.18945 175.049 5.63867C174.964 6.08138 174.922 6.62174 174.922 7.25977V10.4727C174.922 10.987 174.948 11.4395 175 11.8301C175.059 12.2207 175.143 12.556 175.254 12.8359C175.371 13.1094 175.508 13.334 175.664 13.5098C175.827 13.679 176.012 13.8027 176.221 13.8809C176.436 13.959 176.67 13.998 176.924 13.998C177.236 13.998 177.513 13.9362 177.754 13.8125C178.001 13.6823 178.21 13.4805 178.379 13.207C178.555 12.9271 178.685 12.5625 178.77 12.1133C178.854 11.6641 178.896 11.1172 178.896 10.4727ZM193.291 1.78125V3.29492L187.793 16H184.824L190.322 3.97852H183.242V1.78125H193.291Z" fill="white"/>
</svg>
