<svg width="32" height="39" xmlns="http://www.w3.org/2000/svg" xmlns:xlink="http://www.w3.org/1999/xlink" xml:space="preserve" overflow="hidden"><g transform="translate(-288 -269)"><g><g><g><g><path d="M11.074 37.4157C9.48418 37.4157 7.87196 37.0394 6.37194 36.246 5.80141 35.9429 5.26135 35.5857 4.76292 35.1852 4.1283 34.6738 4.02733 33.7426 4.53856 33.1081 5.04979 32.4751 5.9793 32.3725 6.61553 32.8837 6.96812 33.169 7.35274 33.4206 7.75499 33.6354 11.2102 35.4624 15.4971 34.1593 17.3609 30.7394 18.26 28.3981 19.6976 26.2538 21.5229 24.5358 21.563 24.4989 21.6046 24.4621 21.6495 24.43 22.9909 23.4236 24.1784 22.2344 25.1832 20.8947 26.2153 19.1639 26.8035 17.0373 26.8019 14.8705 26.8003 11.6845 25.5567 8.69089 23.3034 6.44083 21.0517 4.19238 18.0597 2.95519 14.8785 2.95519L14.8689 2.95519C8.29344 2.96 2.94878 8.31427 2.95519 14.8881 2.95519 15.7039 2.29492 16.3657 1.4792 16.3673L1.4776 16.3673C0.661879 16.3673 0.0016062 15.7071 3.36025e-06 14.8914-0.00320232 10.9169 1.5417 7.17965 4.34944 4.36708 7.1572 1.55452 10.8929 0.00480852 14.8657 0L14.8785 0C18.8482 0 22.5806 1.54491 25.39 4.34944 28.2026 7.1572 29.7523 10.8929 29.7571 14.8673 29.7587 17.5725 29.0231 20.2264 27.6304 22.5421 26.3932 24.2057 25.0278 25.5775 23.4909 26.741 21.9941 28.1657 20.8194 29.9397 20.0886 31.8741 20.0678 31.9318 20.0421 31.9895 20.0133 32.044 18.2039 35.4624 14.6958 37.4157 11.074 37.4157Z" fill="#FFFFFF" fill-rule="nonzero" fill-opacity="1" transform="matrix(1 0 0 1.01562 289.121 270)"/><path d="M18.7072 20.579C18.3017 20.579 17.8978 20.4123 17.6062 20.087 17.0629 19.478 17.1142 18.5453 17.7216 18.0004 18.6398 17.1799 19.1575 16.002 19.1431 14.7696 19.1158 12.4346 17.2071 10.5547 14.8801 10.5547 14.8625 10.5547 14.8449 10.5547 14.8272 10.5563 13.6862 10.5691 12.6205 11.0259 11.824 11.84 11.0291 12.6557 10.598 13.7327 10.6124 14.8721 10.622 15.6878 9.96815 16.3561 9.15245 16.3673 8.32872 16.4026 7.66843 15.7231 7.65721 14.9074 7.63479 12.9794 8.36397 11.1573 9.71177 9.77746 11.058 8.39603 12.8641 7.62357 14.792 7.60113L14.8817 7.60113C16.7776 7.60113 18.5629 8.32869 19.9219 9.65407 21.3017 11.0018 22.0742 12.8064 22.0983 14.7343 22.1223 16.8193 21.2457 18.8129 19.6928 20.2024 19.4107 20.454 19.0581 20.579 18.7072 20.579Z" fill="#FFFFFF" fill-rule="nonzero" fill-opacity="1" transform="matrix(1 0 0 1.01562 289.121 270)"/></g></g></g></g></g></svg>