<svg width="112" height="17" viewBox="0 0 112 17" fill="none" xmlns="http://www.w3.org/2000/svg">
<path opacity="0.65" d="M3.28906 10.8125L5.04688 4.54688H6.47656L6.01562 7.00781L4.25781 13H3.0625L3.28906 10.8125ZM2.39844 4.54688L3.65625 10.8047L3.77344 13H2.36719L0.226562 4.54688H2.39844ZM8.08594 10.7031L9.3125 4.54688H11.4922L9.35156 13H7.95312L8.08594 10.7031ZM6.67188 4.54688L8.42188 10.7656L8.66406 13H7.46094L5.70312 7.01562L5.25781 4.54688H6.67188ZM15.0391 10.8125L16.7969 4.54688H18.2266L17.7656 7.00781L16.0078 13H14.8125L15.0391 10.8125ZM14.1484 4.54688L15.4062 10.8047L15.5234 13H14.1172L11.9766 4.54688H14.1484ZM19.8359 10.7031L21.0625 4.54688H23.2422L21.1016 13H19.7031L19.8359 10.7031ZM18.4219 4.54688L20.1719 10.7656L20.4141 13H19.2109L17.4531 7.01562L17.0078 4.54688H18.4219ZM26.7891 10.8125L28.5469 4.54688H29.9766L29.5156 7.00781L27.7578 13H26.5625L26.7891 10.8125ZM25.8984 4.54688L27.1562 10.8047L27.2734 13H25.8672L23.7266 4.54688H25.8984ZM31.5859 10.7031L32.8125 4.54688H34.9922L32.8516 13H31.4531L31.5859 10.7031ZM30.1719 4.54688L31.9219 10.7656L32.1641 13H30.9609L29.2031 7.01562L28.7578 4.54688H30.1719ZM35.2656 11.9141C35.2656 11.5807 35.3802 11.3021 35.6094 11.0781C35.8438 10.8542 36.1536 10.7422 36.5391 10.7422C36.9245 10.7422 37.2318 10.8542 37.4609 11.0781C37.6953 11.3021 37.8125 11.5807 37.8125 11.9141C37.8125 12.2474 37.6953 12.526 37.4609 12.75C37.2318 12.974 36.9245 13.0859 36.5391 13.0859C36.1536 13.0859 35.8438 12.974 35.6094 12.75C35.3802 12.526 35.2656 12.2474 35.2656 11.9141ZM43.9375 4.54688V6.14062H39.0156V4.54688H43.9375ZM40.2344 2.46094H42.4844V10.4531C42.4844 10.6979 42.5156 10.8854 42.5781 11.0156C42.6458 11.1458 42.7448 11.237 42.875 11.2891C43.0052 11.3359 43.1693 11.3594 43.3672 11.3594C43.5078 11.3594 43.6328 11.3542 43.7422 11.3438C43.8568 11.3281 43.9531 11.3125 44.0312 11.2969L44.0391 12.9531C43.8464 13.0156 43.638 13.0651 43.4141 13.1016C43.1901 13.138 42.9427 13.1562 42.6719 13.1562C42.1771 13.1562 41.7448 13.0755 41.375 12.9141C41.0104 12.7474 40.7292 12.4818 40.5312 12.1172C40.3333 11.7526 40.2344 11.2734 40.2344 10.6797V2.46094ZM47.4141 1V13H45.1641V1H47.4141ZM47.0938 8.47656H46.4766C46.4818 7.88802 46.5599 7.34635 46.7109 6.85156C46.862 6.35156 47.0781 5.91927 47.3594 5.55469C47.6406 5.1849 47.9766 4.89844 48.3672 4.69531C48.763 4.49219 49.2005 4.39062 49.6797 4.39062C50.0964 4.39062 50.474 4.45052 50.8125 4.57031C51.1562 4.6849 51.4505 4.8724 51.6953 5.13281C51.9453 5.38802 52.138 5.72396 52.2734 6.14062C52.4089 6.55729 52.4766 7.0625 52.4766 7.65625V13H50.2109V7.64062C50.2109 7.26562 50.1562 6.97135 50.0469 6.75781C49.9427 6.53906 49.7891 6.38542 49.5859 6.29688C49.388 6.20312 49.1432 6.15625 48.8516 6.15625C48.5286 6.15625 48.2526 6.21615 48.0234 6.33594C47.7995 6.45573 47.6198 6.6224 47.4844 6.83594C47.349 7.04427 47.25 7.28906 47.1875 7.57031C47.125 7.85156 47.0938 8.15365 47.0938 8.47656ZM58.0781 13.1562C57.4219 13.1562 56.8333 13.0521 56.3125 12.8438C55.7917 12.6302 55.349 12.3359 54.9844 11.9609C54.625 11.5859 54.349 11.151 54.1562 10.6562C53.9635 10.1562 53.8672 9.625 53.8672 9.0625V8.75C53.8672 8.10938 53.9583 7.52344 54.1406 6.99219C54.3229 6.46094 54.5833 6 54.9219 5.60938C55.2656 5.21875 55.6823 4.91927 56.1719 4.71094C56.6615 4.4974 57.2135 4.39062 57.8281 4.39062C58.4271 4.39062 58.9583 4.48958 59.4219 4.6875C59.8854 4.88542 60.2734 5.16667 60.5859 5.53125C60.9036 5.89583 61.1432 6.33333 61.3047 6.84375C61.4661 7.34896 61.5469 7.91146 61.5469 8.53125V9.46875H54.8281V7.96875H59.3359V7.79688C59.3359 7.48438 59.2786 7.20573 59.1641 6.96094C59.0547 6.71094 58.888 6.51302 58.6641 6.36719C58.4401 6.22135 58.1536 6.14844 57.8047 6.14844C57.5078 6.14844 57.2526 6.21354 57.0391 6.34375C56.8255 6.47396 56.651 6.65625 56.5156 6.89062C56.3854 7.125 56.2865 7.40104 56.2188 7.71875C56.1562 8.03125 56.125 8.375 56.125 8.75V9.0625C56.125 9.40104 56.1719 9.71354 56.2656 10C56.3646 10.2865 56.5026 10.5339 56.6797 10.7422C56.862 10.9505 57.0807 11.112 57.3359 11.2266C57.5964 11.3411 57.8906 11.3984 58.2188 11.3984C58.625 11.3984 59.0026 11.3203 59.3516 11.1641C59.7057 11.0026 60.0104 10.7604 60.2656 10.4375L61.3594 11.625C61.1823 11.8802 60.9401 12.125 60.6328 12.3594C60.3307 12.5938 59.9661 12.7865 59.5391 12.9375C59.112 13.0833 58.625 13.1562 58.0781 13.1562ZM65.0781 6.17188V16.25H62.8281V4.54688H64.9141L65.0781 6.17188ZM70.4297 8.67969V8.84375C70.4297 9.45833 70.3568 10.0286 70.2109 10.5547C70.0703 11.0807 69.862 11.5391 69.5859 11.9297C69.3099 12.3151 68.9661 12.6172 68.5547 12.8359C68.1484 13.0495 67.6797 13.1562 67.1484 13.1562C66.6328 13.1562 66.1849 13.0521 65.8047 12.8438C65.4245 12.6354 65.1042 12.3438 64.8438 11.9688C64.5885 11.5885 64.3828 11.1484 64.2266 10.6484C64.0703 10.1484 63.9505 9.61198 63.8672 9.03906V8.60938C63.9505 7.99479 64.0703 7.43229 64.2266 6.92188C64.3828 6.40625 64.5885 5.96094 64.8438 5.58594C65.1042 5.20573 65.4219 4.91146 65.7969 4.70312C66.1771 4.49479 66.6224 4.39062 67.1328 4.39062C67.6693 4.39062 68.1406 4.49219 68.5469 4.69531C68.9583 4.89844 69.3021 5.1901 69.5781 5.57031C69.8594 5.95052 70.0703 6.40365 70.2109 6.92969C70.3568 7.45573 70.4297 8.03906 70.4297 8.67969ZM68.1719 8.84375V8.67969C68.1719 8.32031 68.1406 7.98958 68.0781 7.6875C68.0208 7.38021 67.9271 7.11198 67.7969 6.88281C67.6719 6.65365 67.5052 6.47656 67.2969 6.35156C67.0938 6.22135 66.8464 6.15625 66.5547 6.15625C66.2474 6.15625 65.9844 6.20573 65.7656 6.30469C65.5521 6.40365 65.3776 6.54688 65.2422 6.73438C65.1068 6.92188 65.0052 7.14583 64.9375 7.40625C64.8698 7.66667 64.8281 7.96094 64.8125 8.28906V9.375C64.8385 9.76042 64.9115 10.1068 65.0312 10.4141C65.151 10.7161 65.3359 10.9557 65.5859 11.1328C65.8359 11.3099 66.1641 11.3984 66.5703 11.3984C66.8672 11.3984 67.1172 11.3333 67.3203 11.2031C67.5234 11.0677 67.6875 10.8828 67.8125 10.6484C67.9427 10.4141 68.0339 10.1432 68.0859 9.83594C68.1432 9.52865 68.1719 9.19792 68.1719 8.84375ZM71.4688 8.85938V8.69531C71.4688 8.07552 71.5573 7.50521 71.7344 6.98438C71.9115 6.45833 72.1693 6.0026 72.5078 5.61719C72.8464 5.23177 73.263 4.93229 73.7578 4.71875C74.2526 4.5 74.8203 4.39062 75.4609 4.39062C76.1016 4.39062 76.6719 4.5 77.1719 4.71875C77.6719 4.93229 78.0911 5.23177 78.4297 5.61719C78.7734 6.0026 79.0339 6.45833 79.2109 6.98438C79.388 7.50521 79.4766 8.07552 79.4766 8.69531V8.85938C79.4766 9.47396 79.388 10.0443 79.2109 10.5703C79.0339 11.0911 78.7734 11.5469 78.4297 11.9375C78.0911 12.3229 77.6745 12.6224 77.1797 12.8359C76.6849 13.0495 76.1172 13.1562 75.4766 13.1562C74.8359 13.1562 74.2656 13.0495 73.7656 12.8359C73.2708 12.6224 72.8516 12.3229 72.5078 11.9375C72.1693 11.5469 71.9115 11.0911 71.7344 10.5703C71.5573 10.0443 71.4688 9.47396 71.4688 8.85938ZM73.7188 8.69531V8.85938C73.7188 9.21354 73.75 9.54427 73.8125 9.85156C73.875 10.1589 73.974 10.4297 74.1094 10.6641C74.25 10.8932 74.4323 11.0729 74.6562 11.2031C74.8802 11.3333 75.1536 11.3984 75.4766 11.3984C75.7891 11.3984 76.0573 11.3333 76.2812 11.2031C76.5052 11.0729 76.6849 10.8932 76.8203 10.6641C76.9557 10.4297 77.0547 10.1589 77.1172 9.85156C77.1849 9.54427 77.2188 9.21354 77.2188 8.85938V8.69531C77.2188 8.35156 77.1849 8.02865 77.1172 7.72656C77.0547 7.41927 76.9531 7.14844 76.8125 6.91406C76.6771 6.67448 76.4974 6.48698 76.2734 6.35156C76.0495 6.21615 75.7786 6.14844 75.4609 6.14844C75.1432 6.14844 74.8724 6.21615 74.6484 6.35156C74.4297 6.48698 74.25 6.67448 74.1094 6.91406C73.974 7.14844 73.875 7.41927 73.8125 7.72656C73.75 8.02865 73.7188 8.35156 73.7188 8.69531ZM83.2344 4.54688V13H80.9766V4.54688H83.2344ZM80.8359 2.34375C80.8359 2.01562 80.9505 1.74479 81.1797 1.53125C81.4089 1.31771 81.7161 1.21094 82.1016 1.21094C82.4818 1.21094 82.7865 1.31771 83.0156 1.53125C83.25 1.74479 83.3672 2.01562 83.3672 2.34375C83.3672 2.67188 83.25 2.94271 83.0156 3.15625C82.7865 3.36979 82.4818 3.47656 82.1016 3.47656C81.7161 3.47656 81.4089 3.36979 81.1797 3.15625C80.9505 2.94271 80.8359 2.67188 80.8359 2.34375ZM87.2969 6.35156V13H85.0469V4.54688H87.1562L87.2969 6.35156ZM86.9688 8.47656H86.3594C86.3594 7.85156 86.4401 7.28906 86.6016 6.78906C86.763 6.28385 86.9896 5.85417 87.2812 5.5C87.5729 5.14062 87.9193 4.86719 88.3203 4.67969C88.7266 4.48698 89.1797 4.39062 89.6797 4.39062C90.0755 4.39062 90.4375 4.44792 90.7656 4.5625C91.0938 4.67708 91.375 4.85938 91.6094 5.10938C91.849 5.35938 92.0312 5.6901 92.1562 6.10156C92.2865 6.51302 92.3516 7.01562 92.3516 7.60938V13H90.0859V7.60156C90.0859 7.22656 90.0339 6.9349 89.9297 6.72656C89.8255 6.51823 89.6719 6.3724 89.4688 6.28906C89.2708 6.20052 89.026 6.15625 88.7344 6.15625C88.4323 6.15625 88.1693 6.21615 87.9453 6.33594C87.7266 6.45573 87.5443 6.6224 87.3984 6.83594C87.2578 7.04427 87.151 7.28906 87.0781 7.57031C87.0052 7.85156 86.9688 8.15365 86.9688 8.47656ZM98.2031 4.54688V6.14062H93.2812V4.54688H98.2031ZM94.5 2.46094H96.75V10.4531C96.75 10.6979 96.7812 10.8854 96.8438 11.0156C96.9115 11.1458 97.0104 11.237 97.1406 11.2891C97.2708 11.3359 97.4349 11.3594 97.6328 11.3594C97.7734 11.3594 97.8984 11.3542 98.0078 11.3438C98.1224 11.3281 98.2188 11.3125 98.2969 11.2969L98.3047 12.9531C98.112 13.0156 97.9036 13.0651 97.6797 13.1016C97.4557 13.138 97.2083 13.1562 96.9375 13.1562C96.4427 13.1562 96.0104 13.0755 95.6406 12.9141C95.276 12.7474 94.9948 12.4818 94.7969 12.1172C94.599 11.7526 94.5 11.2734 94.5 10.6797V2.46094ZM99.5938 11.9141C99.5938 11.5807 99.7083 11.3021 99.9375 11.0781C100.172 10.8542 100.482 10.7422 100.867 10.7422C101.253 10.7422 101.56 10.8542 101.789 11.0781C102.023 11.3021 102.141 11.5807 102.141 11.9141C102.141 12.2474 102.023 12.526 101.789 12.75C101.56 12.974 101.253 13.0859 100.867 13.0859C100.482 13.0859 100.172 12.974 99.9375 12.75C99.7083 12.526 99.5938 12.2474 99.5938 11.9141ZM106.938 13H104.68V4.16406C104.68 3.44531 104.826 2.83854 105.117 2.34375C105.414 1.84896 105.836 1.47396 106.383 1.21875C106.935 0.963542 107.602 0.835938 108.383 0.835938C108.826 0.835938 109.255 0.880208 109.672 0.96875C110.089 1.05208 110.518 1.16146 110.961 1.29688L110.633 3.10156C110.346 3.01302 110.039 2.92969 109.711 2.85156C109.383 2.77344 108.987 2.73438 108.523 2.73438C108.003 2.73438 107.607 2.85677 107.336 3.10156C107.07 3.34115 106.938 3.69531 106.938 4.16406V13ZM108.617 4.54688V6.14062H103.422V4.54688H108.617ZM112.008 4.54688V13H109.75V4.54688H112.008Z" fill="white"/>
</svg>
