<svg width="40" height="26" xmlns="http://www.w3.org/2000/svg" xmlns:xlink="http://www.w3.org/1999/xlink" xml:space="preserve" overflow="hidden"><defs><clipPath id="clip0"><rect x="284" y="84" width="40" height="26"/></clipPath><clipPath id="clip1"><rect x="284" y="84" width="40" height="26"/></clipPath></defs><g clip-path="url(#clip0)" transform="translate(-284 -84)"><g clip-path="url(#clip1)"><path d="M20.0003 25.7144C13.9074 25.7144 8.14166 23.133 3.76165 18.4458 3.22307 17.8701 3.25449 16.9658 3.83019 16.4272 4.40736 15.8886 5.31023 15.9201 5.85023 16.4958 9.68309 20.5987 14.7074 22.8573 20.0003 22.8573 26.8046 22.8573 33.0704 19.1358 36.9145 12.8572 33.0718 6.57862 26.8046 2.85715 20.0003 2.85715 12.946 2.85715 6.46879 6.8586 2.67163 13.5615 2.28306 14.2486 1.40877 14.4915 0.724481 14.1001 0.0373347 13.7115-0.202666 12.8401 0.185907 12.1529 4.49593 4.54288 11.9045 0 20.0003 0 28.0975 0 35.5045 4.54288 39.8145 12.1529 40.0617 12.5901 40.0617 13.1243 39.8145 13.5601 35.5045 21.1701 28.0975 25.7144 20.0003 25.7144Z" fill="#FFFFFF" fill-rule="nonzero" fill-opacity="1" transform="matrix(1 0 0 1.01014 284 84.0125)"/><path d="M20.0003 20.0001C16.0617 20.0001 12.8574 16.7958 12.8574 12.8572 12.8574 8.91862 16.0617 5.71433 20.0003 5.71433 23.9389 5.71433 27.1432 8.91862 27.1432 12.8572 27.1432 16.7958 23.9389 20.0001 20.0003 20.0001ZM20.0003 8.57148C17.6374 8.57148 15.7145 10.4943 15.7145 12.8572 15.7145 15.2201 17.6374 17.143 20.0003 17.143 22.3632 17.143 24.286 15.2201 24.286 12.8572 24.286 10.4943 22.3632 8.57148 20.0003 8.57148Z" fill="#FFFFFF" fill-rule="nonzero" fill-opacity="1" transform="matrix(1 0 0 1.01014 284 84.0125)"/></g></g></svg>