<svg width="37" height="37" viewBox="0 0 37 37" fill="none" xmlns="http://www.w3.org/2000/svg">
<path opacity="0.25" fill-rule="evenodd" clip-rule="evenodd" d="M18.5 36C28.165 36 36 28.165 36 18.5C36 8.83502 28.165 1 18.5 1C8.83502 1 1 8.83502 1 18.5C1 28.165 8.83502 36 18.5 36Z" stroke="white" stroke-width="1.5"/>
<path d="M20.0933 14.0206H21.7017C21.8497 14.0206 21.9698 13.9074 21.9698 13.768V12.2524C21.9698 12.113 21.8497 11.9998 21.7017 11.9998H20.0933C18.4678 11.9998 17.1446 13.2461 17.1446 14.7784V16.5466H15.2682C15.1202 16.5466 15.0001 16.6597 15.0001 16.7992V18.3148C15.0001 18.4542 15.1202 18.5674 15.2682 18.5674H17.1446V23.8719C17.1446 24.0114 17.2647 24.1245 17.4127 24.1245H19.0211C19.169 24.1245 19.2891 24.0114 19.2891 23.8719V18.5674H21.1656C21.2808 18.5674 21.3832 18.4976 21.4202 18.3946L21.9564 16.879C21.9837 16.8022 21.9698 16.7173 21.9194 16.6512C21.8684 16.5855 21.788 16.5466 21.7017 16.5466H19.2891V14.7784C19.2891 14.3606 19.6499 14.0206 20.0933 14.0206Z" fill="white"/>
</svg>
