<svg width="685" height="464" viewBox="0 0 685 464" fill="none" xmlns="http://www.w3.org/2000/svg">
<g clip-path="url(#clip0_315_37)">
<path d="M440.18 86.1497H410.852V343.772H440.18V86.1497Z" fill="white"/>
<path d="M440.18 344.338H410.852C410.539 344.338 410.286 344.085 410.286 343.772V86.1498C410.286 85.8372 410.539 85.5842 410.852 85.5842H440.18C440.492 85.5842 440.745 85.8372 440.745 86.1498V343.772C440.745 344.085 440.492 344.338 440.18 344.338ZM411.417 343.207H439.614V86.7153H411.417V343.207Z" fill="#301551"/>
<path d="M439.332 322.067C439.193 322.067 439.055 322.017 438.946 321.915L410.296 295.151C410.07 294.94 410.055 294.586 410.264 294.357L438.688 263.147L410.306 234.304C410.09 234.084 410.09 233.731 410.306 233.511L438.932 204.424L410.699 176.194C410.593 176.088 410.534 175.945 410.534 175.795C410.534 175.644 410.593 175.501 410.699 175.395L438.442 147.655L410.451 119.668C410.24 119.456 410.23 119.117 410.428 118.893L439.756 85.7749C439.963 85.5419 440.32 85.5198 440.554 85.7263C440.788 85.9334 440.81 86.2908 440.603 86.5249L411.628 119.244L439.642 147.256C439.748 147.362 439.808 147.505 439.808 147.655C439.808 147.806 439.748 147.949 439.642 148.055L411.899 175.795L440.129 204.021C440.348 204.241 440.35 204.596 440.132 204.817L411.503 233.908L439.869 262.735C440.08 262.949 440.087 263.29 439.884 263.512L411.476 294.706L439.718 321.088C439.946 321.302 439.958 321.66 439.745 321.888C439.634 322.007 439.483 322.067 439.332 322.067Z" fill="#301551"/>
<path d="M367.022 19.6279H31.2182C27.668 19.6279 24.79 22.5056 24.79 26.0553V457.007C24.79 460.557 27.668 463.434 31.2182 463.434H367.022C370.573 463.434 373.451 460.557 373.451 457.007V26.0553C373.451 22.5056 370.573 19.6279 367.022 19.6279Z" fill="white"/>
<path d="M367.023 464H31.2184C27.3619 464 24.2246 460.863 24.2246 457.007V26.0556C24.2246 22.1996 27.3619 19.0626 31.2184 19.0626H367.023C370.879 19.0626 374.016 22.1996 374.016 26.055V457.007C374.016 460.863 370.879 464 367.023 464ZM31.2184 20.1937C27.9858 20.1937 25.3558 22.8231 25.3558 26.0556V457.007C25.3558 460.24 27.9858 462.869 31.2184 462.869H367.023C370.255 462.869 372.885 460.24 372.885 457.007V26.055C372.885 22.8231 370.255 20.1937 367.023 20.1937H31.2184Z" fill="#301551"/>
<path d="M355.325 445.876H42.9162C42.6038 445.876 42.3506 445.622 42.3506 445.31V37.7517C42.3506 37.4391 42.6038 37.1862 42.9162 37.1862H355.325C355.637 37.1862 355.89 37.4391 355.89 37.7517V445.31C355.89 445.622 355.637 445.876 355.325 445.876ZM43.4818 444.745H354.759V38.3172H43.4818V444.745Z" fill="#301551"/>
<path d="M283.284 143.5H119.411C114.982 143.5 111.392 139.91 111.392 135.482C111.392 131.053 114.982 127.463 119.411 127.463H283.284C287.713 127.463 291.303 131.053 291.303 135.482C291.303 139.91 287.713 143.5 283.284 143.5Z" fill="#FEC432"/>
<path d="M327.05 251.431H248.565C248.252 251.431 247.999 251.179 247.999 250.866C247.999 250.553 248.252 250.3 248.565 250.3H327.05C327.362 250.3 327.615 250.553 327.615 250.866C327.615 251.179 327.362 251.431 327.05 251.431Z" fill="#301551"/>
<path d="M233.442 251.431H157.913C157.601 251.431 157.348 251.179 157.348 250.866C157.348 250.553 157.601 250.3 157.913 250.3H233.442C233.755 250.3 234.008 250.553 234.008 250.866C234.008 251.179 233.755 251.431 233.442 251.431Z" fill="#301551"/>
<path d="M142.791 251.431H89.924C89.6117 251.431 89.3584 251.179 89.3584 250.866C89.3584 250.553 89.6117 250.3 89.924 250.3H142.791C143.103 250.3 143.356 250.553 143.356 250.866C143.356 251.179 143.103 251.431 142.791 251.431Z" fill="#301551"/>
<path d="M311.928 266.551H282.067C281.754 266.551 281.501 266.298 281.501 265.986C281.501 265.673 281.754 265.42 282.067 265.42H311.928C312.24 265.42 312.493 265.673 312.493 265.986C312.493 266.298 312.24 266.551 311.928 266.551Z" fill="#301551"/>
<path d="M266.944 266.551H137.549C137.237 266.551 136.983 266.298 136.983 265.986C136.983 265.673 137.237 265.42 137.549 265.42H266.944C267.256 265.42 267.509 265.673 267.509 265.986C267.509 266.298 267.256 266.551 266.944 266.551Z" fill="#301551"/>
<path d="M122.427 266.551H74.8019C74.4896 266.551 74.2363 266.298 74.2363 265.986C74.2363 265.673 74.4896 265.42 74.8019 265.42H122.427C122.739 265.42 122.993 265.673 122.993 265.986C122.993 266.298 122.739 266.551 122.427 266.551Z" fill="#301551"/>
<path d="M327.05 281.67H201.269C200.956 281.67 200.703 281.417 200.703 281.105C200.703 280.792 200.956 280.539 201.269 280.539H327.05C327.363 280.539 327.616 280.792 327.616 281.105C327.616 281.417 327.363 281.67 327.05 281.67Z" fill="#301551"/>
<path d="M186.146 281.67H74.8019C74.4896 281.67 74.2363 281.417 74.2363 281.105C74.2363 280.792 74.4896 280.539 74.8019 280.539H186.146C186.458 280.539 186.712 280.792 186.712 281.105C186.712 281.417 186.458 281.67 186.146 281.67Z" fill="#301551"/>
<path d="M327.05 296.79H226.231C225.918 296.79 225.665 296.537 225.665 296.224C225.665 295.911 225.918 295.658 226.231 295.658H327.05C327.363 295.658 327.616 295.911 327.616 296.224C327.616 296.537 327.363 296.79 327.05 296.79Z" fill="#301551"/>
<path d="M211.108 296.79H143.461C143.149 296.79 142.896 296.537 142.896 296.224C142.896 295.911 143.149 295.658 143.461 295.658H211.108C211.42 295.658 211.673 295.911 211.673 296.224C211.673 296.537 211.42 296.79 211.108 296.79Z" fill="#301551"/>
<path d="M128.339 296.79H74.8019C74.4896 296.79 74.2363 296.537 74.2363 296.224C74.2363 295.911 74.4896 295.658 74.8019 295.658H128.339C128.651 295.658 128.905 295.911 128.905 296.224C128.905 296.537 128.651 296.79 128.339 296.79Z" fill="#301551"/>
<path d="M327.05 165.755H248.565C248.252 165.755 247.999 165.503 247.999 165.19C247.999 164.877 248.252 164.624 248.565 164.624H327.05C327.362 164.624 327.615 164.877 327.615 165.19C327.615 165.503 327.362 165.755 327.05 165.755Z" fill="#301551"/>
<path d="M233.442 165.755H157.913C157.601 165.755 157.348 165.503 157.348 165.19C157.348 164.877 157.601 164.624 157.913 164.624H233.442C233.755 164.624 234.008 164.877 234.008 165.19C234.008 165.503 233.755 165.755 233.442 165.755Z" fill="#301551"/>
<path d="M142.791 165.755H89.924C89.6117 165.755 89.3584 165.503 89.3584 165.19C89.3584 164.877 89.6117 164.624 89.924 164.624H142.791C143.103 164.624 143.356 164.877 143.356 165.19C143.356 165.503 143.103 165.755 142.791 165.755Z" fill="#301551"/>
<path d="M311.928 180.875H282.067C281.754 180.875 281.501 180.622 281.501 180.309C281.501 179.996 281.754 179.744 282.067 179.744H311.928C312.24 179.744 312.493 179.996 312.493 180.309C312.493 180.622 312.24 180.875 311.928 180.875Z" fill="#301551"/>
<path d="M266.944 180.875H137.549C137.237 180.875 136.983 180.622 136.983 180.309C136.983 179.996 137.237 179.744 137.549 179.744H266.944C267.256 179.744 267.509 179.996 267.509 180.309C267.509 180.622 267.256 180.875 266.944 180.875Z" fill="#301551"/>
<path d="M122.427 180.875H74.8019C74.4896 180.875 74.2363 180.622 74.2363 180.309C74.2363 179.996 74.4896 179.744 74.8019 179.744H122.427C122.739 179.744 122.993 179.996 122.993 180.309C122.993 180.622 122.739 180.875 122.427 180.875Z" fill="#301551"/>
<path d="M327.05 195.994H201.269C200.956 195.994 200.703 195.741 200.703 195.428C200.703 195.116 200.956 194.863 201.269 194.863H327.05C327.363 194.863 327.616 195.116 327.616 195.428C327.616 195.741 327.363 195.994 327.05 195.994Z" fill="#301551"/>
<path d="M186.146 195.994H74.8019C74.4896 195.994 74.2363 195.741 74.2363 195.428C74.2363 195.116 74.4896 194.863 74.8019 194.863H186.146C186.458 194.863 186.712 195.116 186.712 195.428C186.712 195.741 186.458 195.994 186.146 195.994Z" fill="#301551"/>
<path d="M327.05 211.113H226.231C225.918 211.113 225.665 210.861 225.665 210.548C225.665 210.235 225.918 209.982 226.231 209.982H327.05C327.363 209.982 327.616 210.235 327.616 210.548C327.616 210.861 327.363 211.113 327.05 211.113Z" fill="#301551"/>
<path d="M211.108 211.113H143.461C143.149 211.113 142.896 210.861 142.896 210.548C142.896 210.235 143.149 209.982 143.461 209.982H211.108C211.42 209.982 211.673 210.235 211.673 210.548C211.673 210.861 211.42 211.113 211.108 211.113Z" fill="#301551"/>
<path d="M128.339 211.113H74.8019C74.4896 211.113 74.2363 210.861 74.2363 210.548C74.2363 210.235 74.4896 209.982 74.8019 209.982H128.339C128.651 209.982 128.905 210.235 128.905 210.548C128.905 210.861 128.651 211.113 128.339 211.113Z" fill="#301551"/>
<path d="M236.316 226.233H177.62C177.308 226.233 177.055 225.98 177.055 225.667C177.055 225.355 177.308 225.102 177.62 225.102H236.316C236.629 225.102 236.882 225.355 236.882 225.667C236.882 225.98 236.629 226.233 236.316 226.233Z" fill="#301551"/>
<path d="M162.498 226.233H74.8019C74.4896 226.233 74.2363 225.98 74.2363 225.667C74.2363 225.355 74.4896 225.102 74.8019 225.102H162.498C162.81 225.102 163.063 225.355 163.063 225.667C163.063 225.98 162.81 226.233 162.498 226.233Z" fill="#301551"/>
<path d="M287.082 362.119C285.304 377.065 273.098 386.579 262.733 385.225C249.725 383.525 242.282 367.575 245.813 357.993C247.824 352.536 256.956 349.053 261.908 355.93C269.117 365.94 256.56 387.648 242.511 387.289C230.451 386.98 219.538 370.875 223.528 364.182C225.723 360.498 233.661 360.193 234.578 365.741C235.598 371.907 224.431 387.516 215.686 385.225C209.44 383.589 204.053 373.113 207.432 360.881L287.082 362.119Z" fill="white"/>
<path d="M242.875 387.859C242.749 387.859 242.623 387.857 242.497 387.854C236.966 387.713 231.786 384.358 228.081 380.285C227.643 380.742 227.193 381.182 226.731 381.603C222.83 385.16 218.855 386.638 215.543 385.773C212.917 385.084 210.479 382.984 208.679 379.858C205.64 374.582 204.986 367.61 206.887 360.73C206.971 360.429 207.282 360.252 207.583 360.336C207.884 360.419 208.061 360.731 207.978 361.032C206.157 367.621 206.77 374.277 209.659 379.294C211.307 382.155 213.498 384.068 215.83 384.678C218.759 385.446 222.36 384.057 225.969 380.767C226.434 380.343 226.89 379.895 227.333 379.429C226.178 378.053 225.194 376.619 224.419 375.215C221.938 370.714 221.435 366.588 223.042 363.892C224.339 361.715 227.539 360.494 230.48 361.05C233.036 361.534 234.733 363.209 235.137 365.649C235.691 369.002 232.932 374.862 228.848 379.454C232.367 383.363 237.291 386.589 242.526 386.723C246.673 386.826 250.586 384.933 253.872 382.121C251.596 380.414 249.584 378.18 247.971 375.515C244.438 369.673 243.408 362.885 245.282 357.797C246.435 354.67 249.795 352.137 253.454 351.638C257.012 351.156 260.178 352.56 262.367 355.599C265.577 360.057 265.25 367.219 261.513 374.29C260.136 376.896 258.155 379.667 255.709 382.021C257.901 383.429 260.307 384.338 262.806 384.665C267.278 385.245 272.269 383.698 276.497 380.408C281.988 376.137 285.641 369.447 286.52 362.052C286.557 361.742 286.842 361.518 287.149 361.557C287.459 361.594 287.681 361.875 287.644 362.186C286.729 369.878 282.919 376.846 277.192 381.301C272.728 384.775 267.429 386.41 262.66 385.786C259.899 385.425 257.247 384.4 254.851 382.812C251.525 385.747 247.433 387.859 242.875 387.859ZM254.767 352.68C254.335 352.68 253.943 352.713 253.606 352.759C250.345 353.204 247.358 355.436 246.344 358.188C244.612 362.888 245.631 369.459 248.939 374.929C250.519 377.54 252.496 379.714 254.732 381.35C257.104 379.129 259.093 376.447 260.513 373.762C264.048 367.073 264.407 360.367 261.449 356.26C259.326 353.312 256.661 352.68 254.767 352.68ZM229.047 362.049C226.956 362.049 224.891 362.999 224.013 364.471C222.639 366.778 223.161 370.59 225.41 374.669C226.13 375.975 227.039 377.308 228.1 378.589C231.882 374.287 234.514 368.815 234.02 365.833C233.581 363.172 231.481 362.391 230.269 362.162C229.867 362.085 229.456 362.049 229.047 362.049Z" fill="#301551"/>
<path d="M273.583 422.624C273.271 422.624 273.018 422.372 273.018 422.059C273.018 421.746 273.271 421.493 273.583 421.493C301.524 421.493 324.255 398.766 324.255 370.831C324.255 362.644 322.257 354.511 318.476 347.311C318.331 347.035 318.437 346.693 318.714 346.548C318.99 346.403 319.332 346.509 319.477 346.786C323.343 354.147 325.387 362.462 325.387 370.831C325.387 399.39 302.148 422.624 273.583 422.624Z" fill="#301551"/>
<path d="M246.465 414.87C246.363 414.87 246.259 414.842 246.166 414.784C230.896 405.243 221.779 388.812 221.779 370.831C221.779 342.272 245.018 319.037 273.583 319.037C285.068 319.037 295.946 322.717 305.042 329.679C305.29 329.869 305.338 330.223 305.148 330.471C304.958 330.72 304.603 330.767 304.355 330.577C295.458 323.768 284.817 320.169 273.583 320.169C245.642 320.169 222.91 342.895 222.91 370.831C222.91 388.419 231.828 404.491 246.766 413.825C247.031 413.99 247.111 414.339 246.946 414.604C246.838 414.775 246.654 414.87 246.465 414.87Z" fill="#301551"/>
<path d="M273.583 407.021C253.624 407.021 237.386 390.786 237.386 370.831C237.386 370.518 237.639 370.265 237.951 370.265C238.264 370.265 238.517 370.518 238.517 370.831C238.517 390.163 254.247 405.89 273.583 405.89C292.919 405.89 308.649 390.163 308.649 370.831C308.649 351.499 292.918 335.772 273.583 335.772C265.791 335.772 258.413 338.273 252.248 343.005C252 343.196 251.646 343.149 251.455 342.901C251.265 342.653 251.312 342.298 251.559 342.108C257.924 337.223 265.539 334.641 273.583 334.641C293.542 334.641 309.78 350.876 309.78 370.831C309.78 390.786 293.542 407.021 273.583 407.021Z" fill="#301551"/>
<path d="M357.441 59.2057C373.557 59.2057 386.622 46.1424 386.622 30.0279C386.622 13.9134 373.557 0.850098 357.441 0.850098C341.325 0.850098 328.26 13.9134 328.26 30.0279C328.26 46.1424 341.325 59.2057 357.441 59.2057Z" fill="#ED8A0A"/>
<path d="M357.503 42.8757C357.347 42.8757 357.196 42.8111 357.089 42.6951L345.69 30.413C345.478 30.1838 345.491 29.8259 345.72 29.6133C345.948 29.4007 346.306 29.4139 346.519 29.6431L357.376 41.342L368.402 20.5333C368.548 20.2571 368.89 20.1516 369.167 20.298C369.443 20.4444 369.548 20.7868 369.402 21.0624L358.003 42.5747C357.917 42.7365 357.758 42.847 357.577 42.8707C357.552 42.874 357.527 42.8757 357.503 42.8757Z" fill="white"/>
<path d="M561.03 257.104L538.613 219.696L511.895 217.498L508.776 231.602L526.128 268.215L561.03 257.104Z" fill="white"/>
<path d="M525.617 268.457L508.265 231.844C508.212 231.731 508.197 231.603 508.224 231.48L511.343 217.375C511.404 217.1 511.658 216.915 511.942 216.933L538.659 219.132C538.841 219.148 539.004 219.249 539.098 219.405L561.515 256.813C561.604 256.961 561.62 257.141 561.559 257.303C561.498 257.465 561.366 257.59 561.201 257.642L526.299 268.754C526.243 268.772 526.185 268.781 526.128 268.781C525.914 268.781 525.712 268.659 525.617 268.457ZM538.277 220.236L512.341 218.102L509.371 231.536L526.427 267.527L560.177 256.781L538.277 220.236Z" fill="#301551"/>
<path d="M491.586 181.091L485 231.602C485 231.602 517.372 243.417 519.736 233.052C522.101 222.688 527.905 196.293 527.905 196.293L491.586 181.091Z" fill="white"/>
<path d="M484.806 232.134C484.558 232.043 484.405 231.792 484.439 231.53L491.025 181.018C491.048 180.843 491.151 180.689 491.304 180.601C491.457 180.513 491.642 180.501 491.805 180.569L528.124 195.771C528.376 195.876 528.517 196.147 528.458 196.414C528.4 196.678 522.626 222.93 520.288 233.178C519.949 234.66 519.045 235.811 517.6 236.597C515.922 237.51 513.593 237.874 510.94 237.874C500.683 237.874 485.602 232.424 484.806 232.134ZM492.051 181.899L485.62 231.223C488.884 232.367 509.914 239.492 517.059 235.604C518.223 234.97 518.918 234.095 519.185 232.926C521.35 223.434 526.466 200.2 527.252 196.632L492.051 181.899Z" fill="#301551"/>
<path d="M556.616 203.479C556.63 198.174 551.983 193.284 546.684 193.029C550.59 183.284 546.442 171.48 538.354 164.786C530.267 158.092 519.057 156.036 508.646 157.386C502.871 158.135 497.128 159.901 492.395 163.292C487.661 166.682 484.021 171.827 483.225 177.594C482.429 183.361 484.808 189.653 489.69 192.828C490.366 190.976 491.042 189.125 491.718 187.274C493.889 192.763 498.868 196.763 504.304 199.065C509.741 201.368 515.67 202.19 521.519 202.991C520.379 206.524 520.332 210.301 519.816 213.977C519.3 217.653 518.183 221.469 515.44 223.971C511.625 227.453 505.727 227.432 500.755 226.029C495.783 224.627 491.156 222.074 486.084 221.091C484.336 225.184 482.571 229.341 481.988 233.753C481.405 238.166 482.145 242.944 484.961 246.39C489.222 251.602 496.748 252.415 503.467 252.833C508.8 253.166 514.432 253.439 519.186 251C525.116 247.956 528.341 241.324 529.81 234.823C531.28 228.322 531.41 221.549 533.228 215.136C536.257 215.019 539.286 214.902 542.314 214.785C545.082 214.677 546.783 214.502 549.103 213.428C553.194 211.534 556.602 208.355 556.616 203.479Z" fill="#8F502D"/>
<path d="M532.305 212.711C532.305 212.711 538.333 197.89 547.562 208.423C556.792 218.957 541.122 234.847 530.855 223.362L532.305 212.711Z" fill="white"/>
<path d="M530.434 223.738C530.323 223.615 530.273 223.449 530.295 223.285L531.745 212.635C531.751 212.588 531.763 212.542 531.781 212.498C531.905 212.193 534.876 205.024 540.01 204.161C542.653 203.718 545.337 205.025 547.988 208.05C552.978 213.746 550.973 220.976 546.553 224.887C544.462 226.736 541.772 227.933 538.941 227.933C536.092 227.933 533.099 226.72 530.434 223.738ZM540.2 205.276C535.92 205.994 533.153 212.168 532.855 212.861L531.452 223.176C536.216 228.325 542.074 227.339 545.803 224.04C549.915 220.401 551.694 213.996 547.137 208.796C545.048 206.412 542.99 205.209 541.007 205.209C540.737 205.209 540.467 205.231 540.2 205.276Z" fill="#301551"/>
<path d="M536.429 221.693C536.658 221.693 536.873 221.553 536.959 221.326C538.033 218.461 540.545 216.22 543.515 215.481C543.818 215.405 544.003 215.098 543.927 214.795C543.851 214.492 543.545 214.31 543.241 214.383C539.916 215.212 537.102 217.72 535.899 220.929C535.79 221.221 535.938 221.547 536.231 221.657C536.296 221.681 536.363 221.693 536.429 221.693Z" fill="#301551"/>
<path d="M504.914 220.239C502.862 219.765 501.16 218.369 500.12 216.31C499.098 214.286 498.839 211.855 499.392 209.466C499.944 207.077 501.244 205.007 503.052 203.637C504.891 202.243 507.033 201.737 509.084 202.212C513.279 203.182 515.756 208.015 514.606 212.985C513.593 217.364 510.098 220.411 506.412 220.41C505.914 220.41 505.413 220.355 504.914 220.239ZM503.735 204.538C502.138 205.749 500.987 207.589 500.494 209.721C500.001 211.852 500.227 214.012 501.13 215.801C502.016 217.555 503.45 218.74 505.169 219.137C508.752 219.97 512.494 217.093 513.504 212.73C514.513 208.368 512.416 204.144 508.829 203.314C508.414 203.218 507.994 203.171 507.573 203.171C506.251 203.171 504.923 203.638 503.735 204.538Z" fill="#301551"/>
<path d="M481.637 205.359C480.556 210.033 482.627 214.504 486.262 215.344C489.898 216.185 493.722 213.078 494.803 208.405C495.884 203.731 493.814 199.26 490.178 198.419C486.542 197.578 482.719 200.686 481.637 205.359Z" fill="white"/>
<path d="M486.135 215.896C482.201 214.985 479.937 210.202 481.086 205.232C482.236 200.262 486.371 196.959 490.306 197.868C494.239 198.778 496.504 203.562 495.354 208.532C494.803 210.915 493.557 212.992 491.847 214.381C490.498 215.478 488.984 216.049 487.477 216.049C487.027 216.049 486.579 215.998 486.135 215.896ZM482.188 205.487C481.179 209.849 483.064 214.024 486.39 214.793C487.974 215.162 489.659 214.702 491.134 213.504C492.65 212.272 493.757 210.416 494.252 208.277C495.261 203.915 493.376 199.74 490.051 198.971C489.692 198.888 489.332 198.847 488.972 198.847C485.995 198.847 483.089 201.594 482.188 205.487Z" fill="#301551"/>
<path d="M499.943 210.159C500.07 210.159 500.198 210.115 500.304 210.028C500.543 209.829 500.577 209.474 500.379 209.233C499.461 208.122 497.055 206.418 494.516 207.917C494.247 208.076 494.157 208.423 494.316 208.692C494.475 208.961 494.822 209.05 495.091 208.892C497.429 207.51 499.424 209.854 499.507 209.955C499.619 210.089 499.78 210.159 499.943 210.159Z" fill="#301551"/>
<path d="M514.054 213.423C514.066 213.423 514.078 213.422 514.09 213.422L532.339 212.295C532.651 212.276 532.888 212.008 532.869 211.696C532.85 211.385 532.577 211.149 532.27 211.166L514.02 212.293C513.708 212.312 513.471 212.581 513.49 212.892C513.509 213.192 513.758 213.423 514.054 213.423Z" fill="#301551"/>
<path d="M409.954 365.098L406.12 345.594C418.573 326.931 430.799 310.035 441.576 295.167C453.156 279.193 467.309 265.337 486.979 263.764C522.256 260.944 571.28 260.021 607.141 259.75C638.057 259.517 665.419 279.997 673.63 309.801C684.344 348.693 684.797 386.411 685 414.1C685.241 447.072 637.796 444.679 637.796 444.679H495.715L482.056 389.2L457.486 423.054C445.793 439.164 424.599 441.938 406.68 433.266C402.62 431.302 398.677 428.764 394.879 425.799C407.87 394.425 409.954 365.098 409.954 365.098Z" fill="#674C81"/>
<path d="M348.129 349.874L391.217 368.703C396.17 360.725 401.162 353.023 406.12 345.594L409.953 365.098C409.953 365.098 441.167 415.919 394.878 425.799C369.636 406.093 350.892 367.336 348.129 349.874Z" fill="white"/>
<path d="M394.878 426.364C395.046 426.364 395.213 426.29 395.324 426.147C395.516 425.901 395.473 425.545 395.226 425.353C368.957 404.845 351.231 365.852 348.688 349.786C348.639 349.477 348.344 349.266 348.041 349.316C347.732 349.364 347.522 349.654 347.571 349.962C349.059 359.37 354.812 373.668 362.583 387.276C371.906 403.6 383.252 417.44 394.53 426.245C394.634 426.325 394.756 426.364 394.878 426.364Z" fill="#301551"/>
<path d="M646.795 391.832C646.971 391.832 647.144 391.751 647.254 391.598C647.437 391.345 647.381 390.991 647.127 390.808C634.228 381.478 619.454 373.924 605.167 366.618C602.089 365.045 598.907 363.418 595.826 361.814C595.548 361.669 595.207 361.778 595.063 362.054C594.919 362.332 595.027 362.673 595.304 362.817C598.388 364.423 601.572 366.051 604.652 367.626C618.901 374.911 633.636 382.446 646.465 391.725C646.564 391.797 646.68 391.832 646.795 391.832Z" fill="#301551"/>
<path d="M621.234 374.123C621.26 374.123 621.287 374.121 621.314 374.117C621.623 374.074 621.838 373.788 621.795 373.478L615.94 331.996C615.897 331.686 615.608 331.471 615.301 331.515C614.992 331.558 614.776 331.844 614.82 332.154L620.675 373.636C620.714 373.919 620.957 374.123 621.234 374.123Z" fill="#301551"/>
<path d="M482.055 389.766C482.095 389.766 482.136 389.762 482.177 389.753C482.482 389.685 482.675 389.384 482.608 389.079C480.621 380.056 476.662 365.497 472.833 351.416C470.928 344.41 469.128 337.792 467.589 331.931C467.51 331.629 467.2 331.448 466.899 331.528C466.597 331.607 466.416 331.916 466.495 332.218C468.035 338.084 469.836 344.704 471.741 351.713C475.567 365.78 479.523 380.326 481.503 389.322C481.561 389.586 481.795 389.766 482.055 389.766Z" fill="#301551"/>
<path d="M641.041 445.216C642.481 445.216 643.935 445.175 645.405 445.09C645.717 445.073 645.955 444.805 645.937 444.493C645.919 444.182 645.645 443.94 645.34 443.962C622.604 445.261 603.366 435.934 591.231 427.875C578.069 419.135 570.206 409.982 570.128 409.89C569.925 409.652 569.569 409.623 569.331 409.826C569.093 410.029 569.064 410.385 569.267 410.623C569.346 410.716 577.313 419.99 590.605 428.817C602.101 436.452 619.905 445.216 641.041 445.216Z" fill="#301551"/>
<path d="M383.409 411.582C383.447 411.582 383.486 411.578 383.524 411.57C394.409 409.312 403.559 400.128 405.774 389.235C405.836 388.929 405.638 388.631 405.332 388.569C405.025 388.506 404.727 388.704 404.665 389.01C402.538 399.472 393.75 408.294 383.295 410.463C382.989 410.526 382.792 410.825 382.856 411.131C382.911 411.399 383.147 411.582 383.409 411.582Z" fill="#301551"/>
<path d="M393.749 415.612C393.749 413.849 395.183 412.416 396.946 412.416C398.709 412.416 400.143 413.849 400.143 415.612C400.143 417.375 398.709 418.809 396.946 418.809C395.183 418.809 393.749 417.375 393.749 415.612ZM394.88 415.612C394.88 416.751 395.807 417.678 396.946 417.678C398.085 417.678 399.012 416.751 399.012 415.612C399.012 414.473 398.085 413.547 396.946 413.547C395.807 413.547 394.88 414.473 394.88 415.612Z" fill="#301551"/>
<path d="M525.144 261.559L534.46 279.158L525.977 295.065C525.977 295.065 538.936 347.124 538.477 346.772C538.018 346.42 514.055 346.774 514.055 346.774L521.397 295.065L516.164 279.158L525.144 261.559Z" fill="#301551"/>
<path d="M559.181 242.856L525.978 258.49L518.477 252.856L506.999 267.526L516.164 287.678L526.129 268.215L534.904 290.08L572.485 260.978L559.181 242.856Z" fill="white"/>
<path d="M511.667 262.125C511.835 262.125 512.001 262.05 512.113 261.908L518.581 253.641L525.638 258.942C525.806 259.067 526.03 259.09 526.219 259.001L559 243.566L572.029 261.313C572.214 261.564 572.568 261.619 572.82 261.434C573.072 261.249 573.126 260.895 572.941 260.643L559.637 242.521C559.477 242.304 559.185 242.229 558.94 242.345L526.045 257.833L518.816 252.403C518.57 252.219 518.221 252.265 518.031 252.507L511.222 261.211C511.029 261.456 511.073 261.812 511.319 262.005C511.422 262.085 511.545 262.125 511.667 262.125Z" fill="#301551"/>
<path d="M593.725 362.023C593.725 362.023 579.964 395.649 569.698 410.256C569.698 410.256 531.578 387.585 516.049 368.062C516.049 368.062 506.999 385.236 502.162 379.275C502.162 379.275 495.379 384.41 491.361 377.175C491.361 377.175 485.413 375.695 483.78 369.212C482.147 362.729 485.761 356.254 485.761 356.254C485.761 356.254 476.582 368.506 472.737 366.042C468.891 363.577 476.685 348.85 483.212 342.58C489.739 336.311 500.175 325.323 526.273 331.489C550.12 337.124 593.725 362.023 593.725 362.023Z" fill="white"/>
<path d="M501.418 379.087C501.724 379.087 501.976 378.843 501.983 378.535C502.217 369.144 504.955 359.958 509.901 351.971C510.065 351.705 509.983 351.357 509.718 351.192C509.452 351.028 509.104 351.11 508.939 351.375C503.888 359.534 501.091 368.916 500.853 378.508C500.845 378.82 501.092 379.079 501.404 379.087H501.418Z" fill="#301551"/>
<path d="M491.111 376.331C491.128 376.331 491.146 376.331 491.163 376.329C491.475 376.3 491.703 376.024 491.674 375.713C490.735 365.594 493.601 355.059 499.539 346.811C499.721 346.557 499.663 346.204 499.41 346.022C499.156 345.839 498.803 345.897 498.621 346.15C492.526 354.617 489.584 365.43 490.548 375.818C490.575 376.112 490.822 376.331 491.111 376.331Z" fill="#301551"/>
<path d="M486.118 356.601C486.375 356.601 486.607 356.424 486.668 356.164C487.712 351.695 489.875 347.52 492.922 344.088C493.129 343.855 493.108 343.497 492.874 343.29C492.64 343.083 492.283 343.104 492.076 343.337C488.904 346.909 486.654 351.256 485.567 355.906C485.496 356.211 485.685 356.514 485.989 356.586C486.032 356.596 486.075 356.601 486.118 356.601Z" fill="#301551"/>
<path d="M517.064 366.955C517.249 366.955 517.429 366.865 517.538 366.7L522.343 359.369C522.514 359.107 522.442 358.757 522.18 358.586C521.919 358.414 521.568 358.488 521.397 358.749L516.592 366.08C516.42 366.341 516.493 366.692 516.755 366.863C516.85 366.925 516.958 366.955 517.064 366.955Z" fill="#301551"/>
<path d="M549.678 394.991C549.864 394.991 550.046 394.898 550.154 394.73C558.998 380.915 565.626 365.876 569.855 350.03C569.936 349.728 569.756 349.418 569.454 349.338C569.151 349.255 568.843 349.436 568.762 349.738C564.563 365.471 557.982 380.404 549.202 394.12C549.033 394.383 549.11 394.733 549.373 394.901C549.468 394.962 549.573 394.991 549.678 394.991Z" fill="#301551"/>
<path d="M560.683 400.325C558.875 399.621 557.884 397.41 558.562 395.592C559.24 393.775 561.435 392.754 563.264 393.403C563.298 393.416 563.33 393.431 563.36 393.448C563.395 393.456 563.429 393.466 563.462 393.481C565.249 394.237 566.176 396.476 565.446 398.272C564.88 399.667 563.413 400.557 561.94 400.557C561.514 400.557 561.088 400.482 560.683 400.325ZM562.884 394.469C561.639 394.025 560.084 394.749 559.622 395.987C559.16 397.226 559.861 398.791 561.093 399.271C562.324 399.751 563.9 399.072 564.398 397.847C564.896 396.622 564.24 395.038 563.022 394.522C562.999 394.513 562.977 394.502 562.956 394.49C562.932 394.484 562.908 394.478 562.884 394.469Z" fill="#301551"/>
<path d="M330.221 317.21H392.04C393.358 317.21 394.604 317.815 395.418 318.851L445.253 382.251C447.468 385.069 445.461 389.2 441.876 389.2H382.195C380.908 389.2 379.689 388.624 378.873 387.628L326.899 324.227C324.6 321.424 326.595 317.21 330.221 317.21Z" fill="#301551"/>
<path d="M357.554 325.368C358.28 324.686 359.315 324.018 360.183 324.496C360.939 324.912 361.077 325.941 361.127 326.817C361.608 335.401 362.089 343.985 362.57 352.569C362.469 344.892 364.419 336.951 369.279 331.101C370.476 329.661 372.589 328.304 374.004 329.52C374.855 330.252 374.921 331.55 374.872 332.687C374.456 342.324 370.685 352.284 373.997 361.315C374.587 355.574 375.922 349.913 377.955 344.528C378.788 342.322 379.821 340.054 381.704 338.682C383.587 337.31 386.554 337.228 387.963 339.104C389.459 341.094 388.534 343.933 387.711 346.299C385.327 353.158 384.316 360.513 384.759 367.778C385.674 362.101 386.814 355.98 390.954 352.086C392.167 350.944 393.663 350.026 395.305 349.888C396.948 349.75 398.729 350.541 399.439 352.062C400.221 353.736 399.575 355.699 399.052 357.474C397.035 364.319 397.08 371.759 399.039 378.611C400.508 383.75 406.803 390.668 400.144 394.68C397.858 396.057 395.039 396.164 392.413 395.779C384.997 394.691 378.549 390.11 372.752 385.254C366.832 380.296 361.212 374.853 356.893 368.392C352.575 361.931 348.47 354.367 348.251 346.543C348.032 338.72 351.914 330.657 357.554 325.368Z" fill="white"/>
<path d="M55.8695 0.564209H16.8465C7.85416 0.564209 0.564453 7.85309 0.564453 16.8444V63.6392C0.564453 72.6305 7.85416 79.9194 16.8465 79.9194H254.169C263.162 79.9194 270.451 72.6305 270.451 63.6392V16.8443C270.451 7.85309 263.162 0.564209 254.169 0.564209H55.8695Z" fill="white"/>
<path d="M254.169 80.4835H16.8463C7.55718 80.4835 0 72.9272 0 63.639V16.8446C0 7.55632 7.55718 0 16.8463 0H254.169C263.458 0 271.015 7.55632 271.015 16.8446V63.639C271.015 72.9272 263.458 80.4835 254.169 80.4835ZM16.8463 1.1282C8.17948 1.1282 1.12831 8.17881 1.12831 16.8446V63.639C1.12831 72.3047 8.17948 79.3553 16.8463 79.3553H254.169C262.836 79.3553 269.887 72.3047 269.887 63.639V16.8446C269.887 8.17881 262.836 1.1282 254.169 1.1282H16.8463Z" fill="#492B7C"/>
<path d="M241.5 40.2618C241.511 33.5013 236.034 28.0119 229.268 28.0009C222.501 27.9899 217.007 33.4614 216.996 40.2219C216.985 46.9824 222.461 52.4718 229.228 52.4828C235.995 52.4938 241.489 47.0223 241.5 40.2618Z" fill="#ED8A0A"/>
<path d="M41.7669 52.483H186.214C192.981 52.483 198.466 47.0025 198.466 40.242C198.466 33.4815 192.981 28.0011 186.214 28.0011H41.7669C35.0001 28.0011 29.5146 33.4815 29.5146 40.242C29.5146 47.0024 35.0001 52.483 41.7669 52.483Z" fill="#A495BD"/>
</g>
<defs>
<clipPath id="clip0_315_37">
<rect width="685" height="464" fill="white"/>
</clipPath>
</defs>
</svg>
