<svg width="294" height="19" viewBox="0 0 294 19" fill="none" xmlns="http://www.w3.org/2000/svg">
<path d="M7.53906 10.3359H8.73438C8.73438 11.1536 8.5 11.7682 8.03125 12.1797C7.5625 12.5859 6.92708 12.7891 6.125 12.7891C5.56771 12.7891 5.08594 12.6615 4.67969 12.4062C4.27344 12.151 3.95833 11.7969 3.73438 11.3438C3.51562 10.8906 3.40625 10.3646 3.40625 9.76562V8.85156C3.40625 8.2526 3.51562 7.72656 3.73438 7.27344C3.95833 6.82031 4.27344 6.46615 4.67969 6.21094C5.08594 5.95573 5.56771 5.82812 6.125 5.82812C6.92708 5.82812 7.5625 6.03125 8.03125 6.4375C8.50521 6.84375 8.74219 7.45573 8.74219 8.27344H7.54688C7.54688 7.76823 7.42708 7.40625 7.1875 7.1875C6.94792 6.96875 6.59375 6.85938 6.125 6.85938C5.78646 6.85938 5.5026 6.94531 5.27344 7.11719C5.04948 7.28385 4.8776 7.51562 4.75781 7.8125C4.64323 8.10938 4.58594 8.45312 4.58594 8.84375V9.76562C4.58594 10.1562 4.64323 10.5026 4.75781 10.8047C4.8776 11.1016 5.04948 11.3359 5.27344 11.5078C5.5026 11.6745 5.78646 11.7578 6.125 11.7578C6.59375 11.7578 6.94531 11.6484 7.17969 11.4297C7.41927 11.2109 7.53906 10.8464 7.53906 10.3359ZM1.625 9.30469C1.625 9.99219 1.74219 10.6328 1.97656 11.2266C2.21615 11.8203 2.54688 12.3411 2.96875 12.7891C3.39583 13.2318 3.88802 13.5781 4.44531 13.8281C5.0026 14.0729 5.59896 14.1953 6.23438 14.1953C6.86979 14.1953 7.46354 14.0729 8.01562 13.8281C8.57292 13.5781 9.0625 13.2318 9.48438 12.7891C9.91146 12.3411 10.2422 11.8203 10.4766 11.2266C10.7161 10.6328 10.8359 9.99219 10.8359 9.30469C10.8359 8.61198 10.7161 7.97135 10.4766 7.38281C10.2422 6.78906 9.91146 6.27083 9.48438 5.82812C9.0625 5.38542 8.57292 5.04167 8.01562 4.79688C7.46354 4.55208 6.86979 4.42969 6.23438 4.42969C5.59896 4.42969 5.0026 4.55208 4.44531 4.79688C3.88802 5.04167 3.39583 5.38542 2.96875 5.82812C2.54688 6.27083 2.21615 6.78906 1.97656 7.38281C1.74219 7.97135 1.625 8.61198 1.625 9.30469ZM0.6875 9.30469C0.6875 8.47656 0.830729 7.70833 1.11719 7C1.40365 6.29167 1.80208 5.67448 2.3125 5.14844C2.82292 4.61719 3.41146 4.20573 4.07812 3.91406C4.75 3.61719 5.46875 3.46875 6.23438 3.46875C7 3.46875 7.71615 3.61719 8.38281 3.91406C9.05469 4.20573 9.64323 4.61719 10.1484 5.14844C10.6589 5.67448 11.0573 6.29167 11.3438 7C11.6354 7.70833 11.7812 8.47656 11.7812 9.30469C11.7812 10.1328 11.6354 10.901 11.3438 11.6094C11.0573 12.3177 10.6589 12.9375 10.1484 13.4688C9.64323 14 9.05469 14.4141 8.38281 14.7109C7.71615 15.0078 7 15.1562 6.23438 15.1562C5.46875 15.1562 4.75 15.0078 4.07812 14.7109C3.41146 14.4141 2.82292 14 2.3125 13.4688C1.80208 12.9375 1.40365 12.3177 1.11719 11.6094C0.830729 10.901 0.6875 10.1328 0.6875 9.30469ZM25.125 13.2422V15H17.3438V13.5L21.0234 9.55469C21.3932 9.14323 21.6849 8.78125 21.8984 8.46875C22.112 8.15104 22.2656 7.86719 22.3594 7.61719C22.4583 7.36198 22.5078 7.11979 22.5078 6.89062C22.5078 6.54688 22.4505 6.2526 22.3359 6.00781C22.2214 5.75781 22.0521 5.5651 21.8281 5.42969C21.6094 5.29427 21.3385 5.22656 21.0156 5.22656C20.6719 5.22656 20.375 5.3099 20.125 5.47656C19.8802 5.64323 19.6927 5.875 19.5625 6.17188C19.4375 6.46875 19.375 6.80469 19.375 7.17969H17.1172C17.1172 6.5026 17.2786 5.88281 17.6016 5.32031C17.9245 4.7526 18.3802 4.30208 18.9688 3.96875C19.5573 3.63021 20.2552 3.46094 21.0625 3.46094C21.8594 3.46094 22.5312 3.59115 23.0781 3.85156C23.6302 4.10677 24.0469 4.47656 24.3281 4.96094C24.6146 5.4401 24.7578 6.01302 24.7578 6.67969C24.7578 7.05469 24.6979 7.42188 24.5781 7.78125C24.4583 8.13542 24.2865 8.48958 24.0625 8.84375C23.8438 9.19271 23.5781 9.54688 23.2656 9.90625C22.9531 10.2656 22.6068 10.638 22.2266 11.0234L20.25 13.2422H25.125ZM34.1875 8.3125V10.2812C34.1875 11.1354 34.0964 11.8724 33.9141 12.4922C33.7318 13.1068 33.4688 13.612 33.125 14.0078C32.7865 14.3984 32.3828 14.6875 31.9141 14.875C31.4453 15.0625 30.9245 15.1562 30.3516 15.1562C29.8932 15.1562 29.4661 15.099 29.0703 14.9844C28.6745 14.8646 28.3177 14.6797 28 14.4297C27.6875 14.1797 27.4167 13.8646 27.1875 13.4844C26.9635 13.099 26.7917 12.6406 26.6719 12.1094C26.5521 11.5781 26.4922 10.9688 26.4922 10.2812V8.3125C26.4922 7.45833 26.5833 6.72656 26.7656 6.11719C26.9531 5.5026 27.2161 5 27.5547 4.60938C27.8984 4.21875 28.3047 3.93229 28.7734 3.75C29.2422 3.5625 29.763 3.46875 30.3359 3.46875C30.7943 3.46875 31.2188 3.52865 31.6094 3.64844C32.0052 3.76302 32.362 3.94271 32.6797 4.1875C32.9974 4.43229 33.2682 4.7474 33.4922 5.13281C33.7161 5.51302 33.888 5.96875 34.0078 6.5C34.1276 7.02604 34.1875 7.63021 34.1875 8.3125ZM31.9297 10.5781V8.00781C31.9297 7.59635 31.9062 7.23698 31.8594 6.92969C31.8177 6.6224 31.7526 6.36198 31.6641 6.14844C31.5755 5.92969 31.4661 5.7526 31.3359 5.61719C31.2057 5.48177 31.0573 5.38281 30.8906 5.32031C30.724 5.25781 30.5391 5.22656 30.3359 5.22656C30.0807 5.22656 29.8542 5.27604 29.6562 5.375C29.4635 5.47396 29.2995 5.63281 29.1641 5.85156C29.0286 6.0651 28.9245 6.35156 28.8516 6.71094C28.7839 7.0651 28.75 7.4974 28.75 8.00781V10.5781C28.75 10.9896 28.7708 11.3516 28.8125 11.6641C28.8594 11.9766 28.9271 12.2448 29.0156 12.4688C29.1094 12.6875 29.2188 12.8672 29.3438 13.0078C29.474 13.1432 29.6224 13.2422 29.7891 13.3047C29.9609 13.3672 30.1484 13.3984 30.3516 13.3984C30.6016 13.3984 30.8229 13.349 31.0156 13.25C31.2135 13.1458 31.3802 12.9844 31.5156 12.7656C31.6562 12.5417 31.7604 12.25 31.8281 11.8906C31.8958 11.5312 31.9297 11.0938 31.9297 10.5781ZM43.5 13.2422V15H35.7188V13.5L39.3984 9.55469C39.7682 9.14323 40.0599 8.78125 40.2734 8.46875C40.487 8.15104 40.6406 7.86719 40.7344 7.61719C40.8333 7.36198 40.8828 7.11979 40.8828 6.89062C40.8828 6.54688 40.8255 6.2526 40.7109 6.00781C40.5964 5.75781 40.4271 5.5651 40.2031 5.42969C39.9844 5.29427 39.7135 5.22656 39.3906 5.22656C39.0469 5.22656 38.75 5.3099 38.5 5.47656C38.2552 5.64323 38.0677 5.875 37.9375 6.17188C37.8125 6.46875 37.75 6.80469 37.75 7.17969H35.4922C35.4922 6.5026 35.6536 5.88281 35.9766 5.32031C36.2995 4.7526 36.7552 4.30208 37.3438 3.96875C37.9323 3.63021 38.6302 3.46094 39.4375 3.46094C40.2344 3.46094 40.9062 3.59115 41.4531 3.85156C42.0052 4.10677 42.4219 4.47656 42.7031 4.96094C42.9896 5.4401 43.1328 6.01302 43.1328 6.67969C43.1328 7.05469 43.0729 7.42188 42.9531 7.78125C42.8333 8.13542 42.6615 8.48958 42.4375 8.84375C42.2188 9.19271 41.9531 9.54688 41.6406 9.90625C41.3281 10.2656 40.9818 10.638 40.6016 11.0234L38.625 13.2422H43.5ZM52.875 10.75V12.5156H44.6797L44.5703 11.1484L49.3125 3.625H51.1016L49.1641 6.86719L46.8047 10.75H52.875ZM51.5859 3.625V15H49.3359V3.625H51.5859ZM62.9766 3.625V15H60.6406V3.625H62.9766ZM66.4766 3.625V5.46094H57.1953V3.625H66.4766ZM70.8281 15.1562C70.1719 15.1562 69.5833 15.0521 69.0625 14.8438C68.5417 14.6302 68.099 14.3359 67.7344 13.9609C67.375 13.5859 67.099 13.151 66.9062 12.6562C66.7135 12.1562 66.6172 11.625 66.6172 11.0625V10.75C66.6172 10.1094 66.7083 9.52344 66.8906 8.99219C67.0729 8.46094 67.3333 8 67.6719 7.60938C68.0156 7.21875 68.4323 6.91927 68.9219 6.71094C69.4115 6.4974 69.9635 6.39062 70.5781 6.39062C71.1771 6.39062 71.7083 6.48958 72.1719 6.6875C72.6354 6.88542 73.0234 7.16667 73.3359 7.53125C73.6536 7.89583 73.8932 8.33333 74.0547 8.84375C74.2161 9.34896 74.2969 9.91146 74.2969 10.5312V11.4688H67.5781V9.96875H72.0859V9.79688C72.0859 9.48438 72.0286 9.20573 71.9141 8.96094C71.8047 8.71094 71.638 8.51302 71.4141 8.36719C71.1901 8.22135 70.9036 8.14844 70.5547 8.14844C70.2578 8.14844 70.0026 8.21354 69.7891 8.34375C69.5755 8.47396 69.401 8.65625 69.2656 8.89062C69.1354 9.125 69.0365 9.40104 68.9688 9.71875C68.9062 10.0312 68.875 10.375 68.875 10.75V11.0625C68.875 11.401 68.9219 11.7135 69.0156 12C69.1146 12.2865 69.2526 12.5339 69.4297 12.7422C69.612 12.9505 69.8307 13.112 70.0859 13.2266C70.3464 13.3411 70.6406 13.3984 70.9688 13.3984C71.375 13.3984 71.7526 13.3203 72.1016 13.1641C72.4557 13.0026 72.7604 12.7604 73.0156 12.4375L74.1094 13.625C73.9323 13.8802 73.6901 14.125 73.3828 14.3594C73.0807 14.5938 72.7161 14.7865 72.2891 14.9375C71.862 15.0833 71.375 15.1562 70.8281 15.1562ZM79.0703 13.3984C79.3464 13.3984 79.5911 13.3464 79.8047 13.2422C80.0182 13.1328 80.1849 12.9818 80.3047 12.7891C80.4297 12.5911 80.4948 12.3594 80.5 12.0938H82.6172C82.612 12.6875 82.4531 13.2161 82.1406 13.6797C81.8281 14.138 81.4089 14.5 80.8828 14.7656C80.3568 15.026 79.7682 15.1562 79.1172 15.1562C78.4609 15.1562 77.888 15.0469 77.3984 14.8281C76.9141 14.6094 76.5104 14.3073 76.1875 13.9219C75.8646 13.5312 75.6224 13.0781 75.4609 12.5625C75.2995 12.0417 75.2188 11.4844 75.2188 10.8906V10.6641C75.2188 10.0651 75.2995 9.50781 75.4609 8.99219C75.6224 8.47135 75.8646 8.01823 76.1875 7.63281C76.5104 7.24219 76.9141 6.9375 77.3984 6.71875C77.8828 6.5 78.4505 6.39062 79.1016 6.39062C79.7943 6.39062 80.401 6.52344 80.9219 6.78906C81.4479 7.05469 81.8594 7.4349 82.1562 7.92969C82.4583 8.41927 82.612 9 82.6172 9.67188H80.5C80.4948 9.39062 80.4349 9.13542 80.3203 8.90625C80.2109 8.67708 80.0495 8.49479 79.8359 8.35938C79.6276 8.21875 79.3698 8.14844 79.0625 8.14844C78.7344 8.14844 78.4661 8.21875 78.2578 8.35938C78.0495 8.49479 77.888 8.68229 77.7734 8.92188C77.6589 9.15625 77.5781 9.42448 77.5312 9.72656C77.4896 10.0234 77.4688 10.3359 77.4688 10.6641V10.8906C77.4688 11.2188 77.4896 11.5339 77.5312 11.8359C77.5729 12.138 77.651 12.4062 77.7656 12.6406C77.8854 12.875 78.0495 13.0599 78.2578 13.1953C78.4661 13.3307 78.737 13.3984 79.0703 13.3984ZM86.1172 3V15H83.8672V3H86.1172ZM85.7969 10.4766H85.1797C85.1849 9.88802 85.263 9.34635 85.4141 8.85156C85.5651 8.35156 85.7812 7.91927 86.0625 7.55469C86.3438 7.1849 86.6797 6.89844 87.0703 6.69531C87.4661 6.49219 87.9036 6.39062 88.3828 6.39062C88.7995 6.39062 89.1771 6.45052 89.5156 6.57031C89.8594 6.6849 90.1536 6.8724 90.3984 7.13281C90.6484 7.38802 90.8411 7.72396 90.9766 8.14062C91.112 8.55729 91.1797 9.0625 91.1797 9.65625V15H88.9141V9.64062C88.9141 9.26562 88.8594 8.97135 88.75 8.75781C88.6458 8.53906 88.4922 8.38542 88.2891 8.29688C88.0911 8.20312 87.8464 8.15625 87.5547 8.15625C87.2318 8.15625 86.9557 8.21615 86.7266 8.33594C86.5026 8.45573 86.3229 8.6224 86.1875 8.83594C86.0521 9.04427 85.9531 9.28906 85.8906 9.57031C85.8281 9.85156 85.7969 10.1536 85.7969 10.4766ZM97.8828 13.1562V3H100.148V15H98.1094L97.8828 13.1562ZM92.5391 10.875V10.7109C92.5391 10.0651 92.612 9.47917 92.7578 8.95312C92.9036 8.42188 93.1172 7.96615 93.3984 7.58594C93.6797 7.20573 94.026 6.91146 94.4375 6.70312C94.849 6.49479 95.3177 6.39062 95.8438 6.39062C96.3385 6.39062 96.7708 6.49479 97.1406 6.70312C97.5156 6.91146 97.8333 7.20833 98.0938 7.59375C98.3594 7.97396 98.5729 8.42448 98.7344 8.94531C98.8958 9.46094 99.013 10.026 99.0859 10.6406V11C99.013 11.5885 98.8958 12.1354 98.7344 12.6406C98.5729 13.1458 98.3594 13.5885 98.0938 13.9688C97.8333 14.3438 97.5156 14.6354 97.1406 14.8438C96.7656 15.0521 96.3281 15.1562 95.8281 15.1562C95.3021 15.1562 94.8333 15.0495 94.4219 14.8359C94.0156 14.6224 93.6719 14.3229 93.3906 13.9375C93.1146 13.5521 92.9036 13.099 92.7578 12.5781C92.612 12.0573 92.5391 11.4896 92.5391 10.875ZM94.7891 10.7109V10.875C94.7891 11.224 94.8151 11.5495 94.8672 11.8516C94.9245 12.1536 95.0156 12.4219 95.1406 12.6562C95.2708 12.8854 95.4375 13.0651 95.6406 13.1953C95.849 13.3203 96.1016 13.3828 96.3984 13.3828C96.7839 13.3828 97.1016 13.2969 97.3516 13.125C97.6016 12.9479 97.7917 12.7057 97.9219 12.3984C98.0573 12.0911 98.1354 11.737 98.1562 11.3359V10.3125C98.1406 9.98438 98.0938 9.6901 98.0156 9.42969C97.9427 9.16406 97.8333 8.9375 97.6875 8.75C97.5469 8.5625 97.3698 8.41667 97.1562 8.3125C96.9479 8.20833 96.7005 8.15625 96.4141 8.15625C96.1224 8.15625 95.8724 8.22396 95.6641 8.35938C95.4557 8.48958 95.2865 8.66927 95.1562 8.89844C95.0312 9.1276 94.9375 9.39844 94.875 9.71094C94.8177 10.0182 94.7891 10.3516 94.7891 10.7109ZM106.469 13.0938V9.32812C106.469 9.05729 106.424 8.82552 106.336 8.63281C106.247 8.4349 106.109 8.28125 105.922 8.17188C105.74 8.0625 105.503 8.00781 105.211 8.00781C104.961 8.00781 104.745 8.05208 104.562 8.14062C104.38 8.22396 104.24 8.34635 104.141 8.50781C104.042 8.66406 103.992 8.84896 103.992 9.0625H101.742C101.742 8.70312 101.826 8.36198 101.992 8.03906C102.159 7.71615 102.401 7.43229 102.719 7.1875C103.036 6.9375 103.414 6.74219 103.852 6.60156C104.294 6.46094 104.789 6.39062 105.336 6.39062C105.992 6.39062 106.576 6.5 107.086 6.71875C107.596 6.9375 107.997 7.26562 108.289 7.70312C108.586 8.14062 108.734 8.6875 108.734 9.34375V12.9609C108.734 13.4245 108.763 13.8047 108.82 14.1016C108.878 14.3932 108.961 14.6484 109.07 14.8672V15H106.797C106.688 14.7708 106.604 14.4844 106.547 14.1406C106.495 13.7917 106.469 13.4427 106.469 13.0938ZM106.766 9.85156L106.781 11.125H105.523C105.227 11.125 104.969 11.1589 104.75 11.2266C104.531 11.2943 104.352 11.3906 104.211 11.5156C104.07 11.6354 103.966 11.776 103.898 11.9375C103.836 12.099 103.805 12.276 103.805 12.4688C103.805 12.6615 103.849 12.8359 103.938 12.9922C104.026 13.1432 104.154 13.263 104.32 13.3516C104.487 13.4349 104.682 13.4766 104.906 13.4766C105.245 13.4766 105.539 13.4089 105.789 13.2734C106.039 13.138 106.232 12.9714 106.367 12.7734C106.508 12.5755 106.581 12.388 106.586 12.2109L107.18 13.1641C107.096 13.3776 106.982 13.599 106.836 13.8281C106.695 14.0573 106.516 14.2734 106.297 14.4766C106.078 14.6745 105.815 14.8385 105.508 14.9688C105.201 15.0938 104.836 15.1562 104.414 15.1562C103.878 15.1562 103.391 15.0495 102.953 14.8359C102.521 14.6172 102.177 14.3177 101.922 13.9375C101.672 13.5521 101.547 13.1146 101.547 12.625C101.547 12.1823 101.63 11.7891 101.797 11.4453C101.964 11.1016 102.208 10.8125 102.531 10.5781C102.859 10.3385 103.268 10.1589 103.758 10.0391C104.247 9.91406 104.815 9.85156 105.461 9.85156H106.766ZM114.609 6.54688V8.14062H109.688V6.54688H114.609ZM110.906 4.46094H113.156V12.4531C113.156 12.6979 113.188 12.8854 113.25 13.0156C113.318 13.1458 113.417 13.237 113.547 13.2891C113.677 13.3359 113.841 13.3594 114.039 13.3594C114.18 13.3594 114.305 13.3542 114.414 13.3438C114.529 13.3281 114.625 13.3125 114.703 13.2969L114.711 14.9531C114.518 15.0156 114.31 15.0651 114.086 15.1016C113.862 15.138 113.615 15.1562 113.344 15.1562C112.849 15.1562 112.417 15.0755 112.047 14.9141C111.682 14.7474 111.401 14.4818 111.203 14.1172C111.005 13.7526 110.906 13.2734 110.906 12.6797V4.46094ZM120.453 13.0938V9.32812C120.453 9.05729 120.409 8.82552 120.32 8.63281C120.232 8.4349 120.094 8.28125 119.906 8.17188C119.724 8.0625 119.487 8.00781 119.195 8.00781C118.945 8.00781 118.729 8.05208 118.547 8.14062C118.365 8.22396 118.224 8.34635 118.125 8.50781C118.026 8.66406 117.977 8.84896 117.977 9.0625H115.727C115.727 8.70312 115.81 8.36198 115.977 8.03906C116.143 7.71615 116.385 7.43229 116.703 7.1875C117.021 6.9375 117.398 6.74219 117.836 6.60156C118.279 6.46094 118.773 6.39062 119.32 6.39062C119.977 6.39062 120.56 6.5 121.07 6.71875C121.581 6.9375 121.982 7.26562 122.273 7.70312C122.57 8.14062 122.719 8.6875 122.719 9.34375V12.9609C122.719 13.4245 122.747 13.8047 122.805 14.1016C122.862 14.3932 122.945 14.6484 123.055 14.8672V15H120.781C120.672 14.7708 120.589 14.4844 120.531 14.1406C120.479 13.7917 120.453 13.4427 120.453 13.0938ZM120.75 9.85156L120.766 11.125H119.508C119.211 11.125 118.953 11.1589 118.734 11.2266C118.516 11.2943 118.336 11.3906 118.195 11.5156C118.055 11.6354 117.951 11.776 117.883 11.9375C117.82 12.099 117.789 12.276 117.789 12.4688C117.789 12.6615 117.833 12.8359 117.922 12.9922C118.01 13.1432 118.138 13.263 118.305 13.3516C118.471 13.4349 118.667 13.4766 118.891 13.4766C119.229 13.4766 119.523 13.4089 119.773 13.2734C120.023 13.138 120.216 12.9714 120.352 12.7734C120.492 12.5755 120.565 12.388 120.57 12.2109L121.164 13.1641C121.081 13.3776 120.966 13.599 120.82 13.8281C120.68 14.0573 120.5 14.2734 120.281 14.4766C120.062 14.6745 119.799 14.8385 119.492 14.9688C119.185 15.0938 118.82 15.1562 118.398 15.1562C117.862 15.1562 117.375 15.0495 116.938 14.8359C116.505 14.6172 116.161 14.3177 115.906 13.9375C115.656 13.5521 115.531 13.1146 115.531 12.625C115.531 12.1823 115.615 11.7891 115.781 11.4453C115.948 11.1016 116.193 10.8125 116.516 10.5781C116.844 10.3385 117.253 10.1589 117.742 10.0391C118.232 9.91406 118.799 9.85156 119.445 9.85156H120.75ZM127.32 15H125.055V5.89844C125.055 5.23698 125.193 4.67969 125.469 4.22656C125.745 3.76823 126.143 3.42188 126.664 3.1875C127.185 2.95312 127.812 2.83594 128.547 2.83594C128.854 2.83594 129.237 2.85156 129.695 2.88281C130.159 2.90885 130.63 2.94271 131.109 2.98438C131.594 3.02083 132.018 3.0599 132.383 3.10156L131.445 4.875C130.977 4.79167 130.526 4.72656 130.094 4.67969C129.661 4.63281 129.25 4.60938 128.859 4.60938C128.526 4.60938 128.245 4.65885 128.016 4.75781C127.786 4.85677 127.612 5.0026 127.492 5.19531C127.378 5.38281 127.32 5.61719 127.32 5.89844V15ZM130.133 15V3.10156H132.383V15H130.133ZM129.008 6.54688V8.14062H123.797V6.54688H129.008ZM133.906 10.8594V10.6953C133.906 10.0755 133.995 9.50521 134.172 8.98438C134.349 8.45833 134.607 8.0026 134.945 7.61719C135.284 7.23177 135.701 6.93229 136.195 6.71875C136.69 6.5 137.258 6.39062 137.898 6.39062C138.539 6.39062 139.109 6.5 139.609 6.71875C140.109 6.93229 140.529 7.23177 140.867 7.61719C141.211 8.0026 141.471 8.45833 141.648 8.98438C141.826 9.50521 141.914 10.0755 141.914 10.6953V10.8594C141.914 11.474 141.826 12.0443 141.648 12.5703C141.471 13.0911 141.211 13.5469 140.867 13.9375C140.529 14.3229 140.112 14.6224 139.617 14.8359C139.122 15.0495 138.555 15.1562 137.914 15.1562C137.273 15.1562 136.703 15.0495 136.203 14.8359C135.708 14.6224 135.289 14.3229 134.945 13.9375C134.607 13.5469 134.349 13.0911 134.172 12.5703C133.995 12.0443 133.906 11.474 133.906 10.8594ZM136.156 10.6953V10.8594C136.156 11.2135 136.188 11.5443 136.25 11.8516C136.312 12.1589 136.411 12.4297 136.547 12.6641C136.688 12.8932 136.87 13.0729 137.094 13.2031C137.318 13.3333 137.591 13.3984 137.914 13.3984C138.227 13.3984 138.495 13.3333 138.719 13.2031C138.943 13.0729 139.122 12.8932 139.258 12.6641C139.393 12.4297 139.492 12.1589 139.555 11.8516C139.622 11.5443 139.656 11.2135 139.656 10.8594V10.6953C139.656 10.3516 139.622 10.0286 139.555 9.72656C139.492 9.41927 139.391 9.14844 139.25 8.91406C139.115 8.67448 138.935 8.48698 138.711 8.35156C138.487 8.21615 138.216 8.14844 137.898 8.14844C137.581 8.14844 137.31 8.21615 137.086 8.35156C136.867 8.48698 136.688 8.67448 136.547 8.91406C136.411 9.14844 136.312 9.41927 136.25 9.72656C136.188 10.0286 136.156 10.3516 136.156 10.6953ZM145.711 12.8125L147.469 6.54688H148.898L148.438 9.00781L146.68 15H145.484L145.711 12.8125ZM144.82 6.54688L146.078 12.8047L146.195 15H144.789L142.648 6.54688H144.82ZM150.508 12.7031L151.734 6.54688H153.914L151.773 15H150.375L150.508 12.7031ZM149.094 6.54688L150.844 12.7656L151.086 15H149.883L148.125 9.01562L147.68 6.54688H149.094ZM154.188 13.9141C154.188 13.5807 154.302 13.3021 154.531 13.0781C154.766 12.8542 155.076 12.7422 155.461 12.7422C155.846 12.7422 156.154 12.8542 156.383 13.0781C156.617 13.3021 156.734 13.5807 156.734 13.9141C156.734 14.2474 156.617 14.526 156.383 14.75C156.154 14.974 155.846 15.0859 155.461 15.0859C155.076 15.0859 154.766 14.974 154.531 14.75C154.302 14.526 154.188 14.2474 154.188 13.9141ZM167.469 5.57031L164.375 15H161.883L166.109 3.625H167.695L167.469 5.57031ZM170.039 15L166.938 5.57031L166.688 3.625H168.289L172.539 15H170.039ZM169.898 10.7656V12.6016H163.891V10.7656H169.898ZM175.828 3V15H173.57V3H175.828ZM180.062 3V15H177.805V3H180.062ZM188.156 8.39062V15H185.906V6.54688H188.023L188.156 8.39062ZM190.703 6.49219L190.664 8.57812C190.555 8.5625 190.422 8.54948 190.266 8.53906C190.115 8.52344 189.977 8.51562 189.852 8.51562C189.534 8.51562 189.258 8.55729 189.023 8.64062C188.794 8.71875 188.602 8.83594 188.445 8.99219C188.294 9.14844 188.18 9.33854 188.102 9.5625C188.029 9.78646 187.987 10.0417 187.977 10.3281L187.523 10.1875C187.523 9.64062 187.578 9.13802 187.688 8.67969C187.797 8.21615 187.956 7.8125 188.164 7.46875C188.378 7.125 188.638 6.85938 188.945 6.67188C189.253 6.48438 189.604 6.39062 190 6.39062C190.125 6.39062 190.253 6.40104 190.383 6.42188C190.513 6.4375 190.62 6.46094 190.703 6.49219ZM194.141 6.54688V15H191.883V6.54688H194.141ZM191.742 4.34375C191.742 4.01562 191.857 3.74479 192.086 3.53125C192.315 3.31771 192.622 3.21094 193.008 3.21094C193.388 3.21094 193.693 3.31771 193.922 3.53125C194.156 3.74479 194.273 4.01562 194.273 4.34375C194.273 4.67188 194.156 4.94271 193.922 5.15625C193.693 5.36979 193.388 5.47656 193.008 5.47656C192.622 5.47656 192.315 5.36979 192.086 5.15625C191.857 4.94271 191.742 4.67188 191.742 4.34375ZM201.352 6.54688H203.391V14.7188C203.391 15.4896 203.219 16.1432 202.875 16.6797C202.536 17.2214 202.062 17.6302 201.453 17.9062C200.844 18.1875 200.135 18.3281 199.328 18.3281C198.974 18.3281 198.599 18.2812 198.203 18.1875C197.812 18.0938 197.438 17.9479 197.078 17.75C196.724 17.5521 196.427 17.3021 196.188 17L197.18 15.6719C197.44 15.974 197.742 16.2083 198.086 16.375C198.43 16.5469 198.81 16.6328 199.227 16.6328C199.633 16.6328 199.977 16.5573 200.258 16.4062C200.539 16.2604 200.755 16.0443 200.906 15.7578C201.057 15.4766 201.133 15.1354 201.133 14.7344V8.5L201.352 6.54688ZM195.664 10.875V10.7109C195.664 10.0651 195.742 9.47917 195.898 8.95312C196.06 8.42188 196.286 7.96615 196.578 7.58594C196.875 7.20573 197.234 6.91146 197.656 6.70312C198.078 6.49479 198.555 6.39062 199.086 6.39062C199.648 6.39062 200.12 6.49479 200.5 6.70312C200.88 6.91146 201.193 7.20833 201.438 7.59375C201.682 7.97396 201.872 8.42448 202.008 8.94531C202.148 9.46094 202.258 10.026 202.336 10.6406V11C202.258 11.5885 202.141 12.1354 201.984 12.6406C201.828 13.1458 201.622 13.5885 201.367 13.9688C201.112 14.3438 200.794 14.6354 200.414 14.8438C200.039 15.0521 199.591 15.1562 199.07 15.1562C198.549 15.1562 198.078 15.0495 197.656 14.8359C197.24 14.6224 196.883 14.3229 196.586 13.9375C196.289 13.5521 196.06 13.099 195.898 12.5781C195.742 12.0573 195.664 11.4896 195.664 10.875ZM197.914 10.7109V10.875C197.914 11.224 197.948 11.5495 198.016 11.8516C198.083 12.1536 198.188 12.4219 198.328 12.6562C198.474 12.8854 198.654 13.0651 198.867 13.1953C199.086 13.3203 199.344 13.3828 199.641 13.3828C200.052 13.3828 200.388 13.2969 200.648 13.125C200.909 12.9479 201.104 12.7057 201.234 12.3984C201.365 12.0911 201.44 11.737 201.461 11.3359V10.3125C201.451 9.98438 201.406 9.6901 201.328 9.42969C201.25 9.16406 201.141 8.9375 201 8.75C200.859 8.5625 200.677 8.41667 200.453 8.3125C200.229 8.20833 199.964 8.15625 199.656 8.15625C199.359 8.15625 199.102 8.22396 198.883 8.35938C198.669 8.48958 198.49 8.66927 198.344 8.89844C198.203 9.1276 198.096 9.39844 198.023 9.71094C197.951 10.0182 197.914 10.3516 197.914 10.7109ZM207.336 3V15H205.086V3H207.336ZM207.016 10.4766H206.398C206.404 9.88802 206.482 9.34635 206.633 8.85156C206.784 8.35156 207 7.91927 207.281 7.55469C207.562 7.1849 207.898 6.89844 208.289 6.69531C208.685 6.49219 209.122 6.39062 209.602 6.39062C210.018 6.39062 210.396 6.45052 210.734 6.57031C211.078 6.6849 211.372 6.8724 211.617 7.13281C211.867 7.38802 212.06 7.72396 212.195 8.14062C212.331 8.55729 212.398 9.0625 212.398 9.65625V15H210.133V9.64062C210.133 9.26562 210.078 8.97135 209.969 8.75781C209.865 8.53906 209.711 8.38542 209.508 8.29688C209.31 8.20312 209.065 8.15625 208.773 8.15625C208.451 8.15625 208.174 8.21615 207.945 8.33594C207.721 8.45573 207.542 8.6224 207.406 8.83594C207.271 9.04427 207.172 9.28906 207.109 9.57031C207.047 9.85156 207.016 10.1536 207.016 10.4766ZM218.25 6.54688V8.14062H213.328V6.54688H218.25ZM214.547 4.46094H216.797V12.4531C216.797 12.6979 216.828 12.8854 216.891 13.0156C216.958 13.1458 217.057 13.237 217.188 13.2891C217.318 13.3359 217.482 13.3594 217.68 13.3594C217.82 13.3594 217.945 13.3542 218.055 13.3438C218.169 13.3281 218.266 13.3125 218.344 13.2969L218.352 14.9531C218.159 15.0156 217.951 15.0651 217.727 15.1016C217.503 15.138 217.255 15.1562 216.984 15.1562C216.49 15.1562 216.057 15.0755 215.688 14.9141C215.323 14.7474 215.042 14.4818 214.844 14.1172C214.646 13.7526 214.547 13.2734 214.547 12.6797V4.46094ZM224.102 12.6641C224.102 12.5026 224.055 12.3568 223.961 12.2266C223.867 12.0964 223.693 11.9766 223.438 11.8672C223.188 11.7526 222.826 11.6484 222.352 11.5547C221.924 11.4609 221.526 11.3438 221.156 11.2031C220.792 11.0573 220.474 10.8828 220.203 10.6797C219.938 10.4766 219.729 10.237 219.578 9.96094C219.427 9.67969 219.352 9.35938 219.352 9C219.352 8.64583 219.427 8.3125 219.578 8C219.734 7.6875 219.956 7.41146 220.242 7.17188C220.534 6.92708 220.888 6.73698 221.305 6.60156C221.727 6.46094 222.201 6.39062 222.727 6.39062C223.461 6.39062 224.091 6.50781 224.617 6.74219C225.148 6.97656 225.555 7.29948 225.836 7.71094C226.122 8.11719 226.266 8.58073 226.266 9.10156H224.016C224.016 8.88281 223.969 8.6875 223.875 8.51562C223.786 8.33854 223.646 8.20052 223.453 8.10156C223.266 7.9974 223.021 7.94531 222.719 7.94531C222.469 7.94531 222.253 7.98958 222.07 8.07812C221.888 8.16146 221.747 8.27604 221.648 8.42188C221.555 8.5625 221.508 8.71875 221.508 8.89062C221.508 9.02083 221.534 9.13802 221.586 9.24219C221.643 9.34115 221.734 9.43229 221.859 9.51562C221.984 9.59896 222.146 9.67708 222.344 9.75C222.547 9.81771 222.797 9.88021 223.094 9.9375C223.703 10.0625 224.247 10.2266 224.727 10.4297C225.206 10.6276 225.586 10.8984 225.867 11.2422C226.148 11.5807 226.289 12.026 226.289 12.5781C226.289 12.9531 226.206 13.2969 226.039 13.6094C225.872 13.9219 225.633 14.1953 225.32 14.4297C225.008 14.6589 224.633 14.8385 224.195 14.9688C223.763 15.0938 223.276 15.1562 222.734 15.1562C221.948 15.1562 221.281 15.0156 220.734 14.7344C220.193 14.4531 219.781 14.0964 219.5 13.6641C219.224 13.2266 219.086 12.7786 219.086 12.3203H221.219C221.229 12.6276 221.307 12.875 221.453 13.0625C221.604 13.25 221.794 13.3854 222.023 13.4688C222.258 13.5521 222.51 13.5938 222.781 13.5938C223.073 13.5938 223.315 13.5547 223.508 13.4766C223.701 13.3932 223.846 13.2839 223.945 13.1484C224.049 13.0078 224.102 12.8464 224.102 12.6641ZM233.984 8.39062V15H231.734V6.54688H233.852L233.984 8.39062ZM236.531 6.49219L236.492 8.57812C236.383 8.5625 236.25 8.54948 236.094 8.53906C235.943 8.52344 235.805 8.51562 235.68 8.51562C235.362 8.51562 235.086 8.55729 234.852 8.64062C234.622 8.71875 234.43 8.83594 234.273 8.99219C234.122 9.14844 234.008 9.33854 233.93 9.5625C233.857 9.78646 233.815 10.0417 233.805 10.3281L233.352 10.1875C233.352 9.64062 233.406 9.13802 233.516 8.67969C233.625 8.21615 233.784 7.8125 233.992 7.46875C234.206 7.125 234.466 6.85938 234.773 6.67188C235.081 6.48438 235.432 6.39062 235.828 6.39062C235.953 6.39062 236.081 6.40104 236.211 6.42188C236.341 6.4375 236.448 6.46094 236.531 6.49219ZM241.328 15.1562C240.672 15.1562 240.083 15.0521 239.562 14.8438C239.042 14.6302 238.599 14.3359 238.234 13.9609C237.875 13.5859 237.599 13.151 237.406 12.6562C237.214 12.1562 237.117 11.625 237.117 11.0625V10.75C237.117 10.1094 237.208 9.52344 237.391 8.99219C237.573 8.46094 237.833 8 238.172 7.60938C238.516 7.21875 238.932 6.91927 239.422 6.71094C239.911 6.4974 240.464 6.39062 241.078 6.39062C241.677 6.39062 242.208 6.48958 242.672 6.6875C243.135 6.88542 243.523 7.16667 243.836 7.53125C244.154 7.89583 244.393 8.33333 244.555 8.84375C244.716 9.34896 244.797 9.91146 244.797 10.5312V11.4688H238.078V9.96875H242.586V9.79688C242.586 9.48438 242.529 9.20573 242.414 8.96094C242.305 8.71094 242.138 8.51302 241.914 8.36719C241.69 8.22135 241.404 8.14844 241.055 8.14844C240.758 8.14844 240.503 8.21354 240.289 8.34375C240.076 8.47396 239.901 8.65625 239.766 8.89062C239.635 9.125 239.536 9.40104 239.469 9.71875C239.406 10.0312 239.375 10.375 239.375 10.75V11.0625C239.375 11.401 239.422 11.7135 239.516 12C239.615 12.2865 239.753 12.5339 239.93 12.7422C240.112 12.9505 240.331 13.112 240.586 13.2266C240.846 13.3411 241.141 13.3984 241.469 13.3984C241.875 13.3984 242.253 13.3203 242.602 13.1641C242.956 13.0026 243.26 12.7604 243.516 12.4375L244.609 13.625C244.432 13.8802 244.19 14.125 243.883 14.3594C243.581 14.5938 243.216 14.7865 242.789 14.9375C242.362 15.0833 241.875 15.1562 241.328 15.1562ZM250.648 12.6641C250.648 12.5026 250.602 12.3568 250.508 12.2266C250.414 12.0964 250.24 11.9766 249.984 11.8672C249.734 11.7526 249.372 11.6484 248.898 11.5547C248.471 11.4609 248.073 11.3438 247.703 11.2031C247.339 11.0573 247.021 10.8828 246.75 10.6797C246.484 10.4766 246.276 10.237 246.125 9.96094C245.974 9.67969 245.898 9.35938 245.898 9C245.898 8.64583 245.974 8.3125 246.125 8C246.281 7.6875 246.503 7.41146 246.789 7.17188C247.081 6.92708 247.435 6.73698 247.852 6.60156C248.273 6.46094 248.747 6.39062 249.273 6.39062C250.008 6.39062 250.638 6.50781 251.164 6.74219C251.695 6.97656 252.102 7.29948 252.383 7.71094C252.669 8.11719 252.812 8.58073 252.812 9.10156H250.562C250.562 8.88281 250.516 8.6875 250.422 8.51562C250.333 8.33854 250.193 8.20052 250 8.10156C249.812 7.9974 249.568 7.94531 249.266 7.94531C249.016 7.94531 248.799 7.98958 248.617 8.07812C248.435 8.16146 248.294 8.27604 248.195 8.42188C248.102 8.5625 248.055 8.71875 248.055 8.89062C248.055 9.02083 248.081 9.13802 248.133 9.24219C248.19 9.34115 248.281 9.43229 248.406 9.51562C248.531 9.59896 248.693 9.67708 248.891 9.75C249.094 9.81771 249.344 9.88021 249.641 9.9375C250.25 10.0625 250.794 10.2266 251.273 10.4297C251.753 10.6276 252.133 10.8984 252.414 11.2422C252.695 11.5807 252.836 12.026 252.836 12.5781C252.836 12.9531 252.753 13.2969 252.586 13.6094C252.419 13.9219 252.18 14.1953 251.867 14.4297C251.555 14.6589 251.18 14.8385 250.742 14.9688C250.31 15.0938 249.823 15.1562 249.281 15.1562C248.495 15.1562 247.828 15.0156 247.281 14.7344C246.74 14.4531 246.328 14.0964 246.047 13.6641C245.771 13.2266 245.633 12.7786 245.633 12.3203H247.766C247.776 12.6276 247.854 12.875 248 13.0625C248.151 13.25 248.341 13.3854 248.57 13.4688C248.805 13.5521 249.057 13.5938 249.328 13.5938C249.62 13.5938 249.862 13.5547 250.055 13.4766C250.247 13.3932 250.393 13.2839 250.492 13.1484C250.596 13.0078 250.648 12.8464 250.648 12.6641ZM258.188 15.1562C257.531 15.1562 256.943 15.0521 256.422 14.8438C255.901 14.6302 255.458 14.3359 255.094 13.9609C254.734 13.5859 254.458 13.151 254.266 12.6562C254.073 12.1562 253.977 11.625 253.977 11.0625V10.75C253.977 10.1094 254.068 9.52344 254.25 8.99219C254.432 8.46094 254.693 8 255.031 7.60938C255.375 7.21875 255.792 6.91927 256.281 6.71094C256.771 6.4974 257.323 6.39062 257.938 6.39062C258.536 6.39062 259.068 6.48958 259.531 6.6875C259.995 6.88542 260.383 7.16667 260.695 7.53125C261.013 7.89583 261.253 8.33333 261.414 8.84375C261.576 9.34896 261.656 9.91146 261.656 10.5312V11.4688H254.938V9.96875H259.445V9.79688C259.445 9.48438 259.388 9.20573 259.273 8.96094C259.164 8.71094 258.997 8.51302 258.773 8.36719C258.549 8.22135 258.263 8.14844 257.914 8.14844C257.617 8.14844 257.362 8.21354 257.148 8.34375C256.935 8.47396 256.76 8.65625 256.625 8.89062C256.495 9.125 256.396 9.40104 256.328 9.71875C256.266 10.0312 256.234 10.375 256.234 10.75V11.0625C256.234 11.401 256.281 11.7135 256.375 12C256.474 12.2865 256.612 12.5339 256.789 12.7422C256.971 12.9505 257.19 13.112 257.445 13.2266C257.706 13.3411 258 13.3984 258.328 13.3984C258.734 13.3984 259.112 13.3203 259.461 13.1641C259.815 13.0026 260.12 12.7604 260.375 12.4375L261.469 13.625C261.292 13.8802 261.049 14.125 260.742 14.3594C260.44 14.5938 260.076 14.7865 259.648 14.9375C259.221 15.0833 258.734 15.1562 258.188 15.1562ZM265.188 8.39062V15H262.938V6.54688H265.055L265.188 8.39062ZM267.734 6.49219L267.695 8.57812C267.586 8.5625 267.453 8.54948 267.297 8.53906C267.146 8.52344 267.008 8.51562 266.883 8.51562C266.565 8.51562 266.289 8.55729 266.055 8.64062C265.826 8.71875 265.633 8.83594 265.477 8.99219C265.326 9.14844 265.211 9.33854 265.133 9.5625C265.06 9.78646 265.018 10.0417 265.008 10.3281L264.555 10.1875C264.555 9.64062 264.609 9.13802 264.719 8.67969C264.828 8.21615 264.987 7.8125 265.195 7.46875C265.409 7.125 265.669 6.85938 265.977 6.67188C266.284 6.48438 266.635 6.39062 267.031 6.39062C267.156 6.39062 267.284 6.40104 267.414 6.42188C267.544 6.4375 267.651 6.46094 267.734 6.49219ZM271.812 13.3594L273.688 6.54688H276.039L273.188 15H271.766L271.812 13.3594ZM270.523 6.54688L272.406 13.3672L272.445 15H271.016L268.164 6.54688H270.523ZM280.828 15.1562C280.172 15.1562 279.583 15.0521 279.062 14.8438C278.542 14.6302 278.099 14.3359 277.734 13.9609C277.375 13.5859 277.099 13.151 276.906 12.6562C276.714 12.1562 276.617 11.625 276.617 11.0625V10.75C276.617 10.1094 276.708 9.52344 276.891 8.99219C277.073 8.46094 277.333 8 277.672 7.60938C278.016 7.21875 278.432 6.91927 278.922 6.71094C279.411 6.4974 279.964 6.39062 280.578 6.39062C281.177 6.39062 281.708 6.48958 282.172 6.6875C282.635 6.88542 283.023 7.16667 283.336 7.53125C283.654 7.89583 283.893 8.33333 284.055 8.84375C284.216 9.34896 284.297 9.91146 284.297 10.5312V11.4688H277.578V9.96875H282.086V9.79688C282.086 9.48438 282.029 9.20573 281.914 8.96094C281.805 8.71094 281.638 8.51302 281.414 8.36719C281.19 8.22135 280.904 8.14844 280.555 8.14844C280.258 8.14844 280.003 8.21354 279.789 8.34375C279.576 8.47396 279.401 8.65625 279.266 8.89062C279.135 9.125 279.036 9.40104 278.969 9.71875C278.906 10.0312 278.875 10.375 278.875 10.75V11.0625C278.875 11.401 278.922 11.7135 279.016 12C279.115 12.2865 279.253 12.5339 279.43 12.7422C279.612 12.9505 279.831 13.112 280.086 13.2266C280.346 13.3411 280.641 13.3984 280.969 13.3984C281.375 13.3984 281.753 13.3203 282.102 13.1641C282.456 13.0026 282.76 12.7604 283.016 12.4375L284.109 13.625C283.932 13.8802 283.69 14.125 283.383 14.3594C283.081 14.5938 282.716 14.7865 282.289 14.9375C281.862 15.0833 281.375 15.1562 280.828 15.1562ZM290.57 13.1562V3H292.836V15H290.797L290.57 13.1562ZM285.227 10.875V10.7109C285.227 10.0651 285.299 9.47917 285.445 8.95312C285.591 8.42188 285.805 7.96615 286.086 7.58594C286.367 7.20573 286.714 6.91146 287.125 6.70312C287.536 6.49479 288.005 6.39062 288.531 6.39062C289.026 6.39062 289.458 6.49479 289.828 6.70312C290.203 6.91146 290.521 7.20833 290.781 7.59375C291.047 7.97396 291.26 8.42448 291.422 8.94531C291.583 9.46094 291.701 10.026 291.773 10.6406V11C291.701 11.5885 291.583 12.1354 291.422 12.6406C291.26 13.1458 291.047 13.5885 290.781 13.9688C290.521 14.3438 290.203 14.6354 289.828 14.8438C289.453 15.0521 289.016 15.1562 288.516 15.1562C287.99 15.1562 287.521 15.0495 287.109 14.8359C286.703 14.6224 286.359 14.3229 286.078 13.9375C285.802 13.5521 285.591 13.099 285.445 12.5781C285.299 12.0573 285.227 11.4896 285.227 10.875ZM287.477 10.7109V10.875C287.477 11.224 287.503 11.5495 287.555 11.8516C287.612 12.1536 287.703 12.4219 287.828 12.6562C287.958 12.8854 288.125 13.0651 288.328 13.1953C288.536 13.3203 288.789 13.3828 289.086 13.3828C289.471 13.3828 289.789 13.2969 290.039 13.125C290.289 12.9479 290.479 12.7057 290.609 12.3984C290.745 12.0911 290.823 11.737 290.844 11.3359V10.3125C290.828 9.98438 290.781 9.6901 290.703 9.42969C290.63 9.16406 290.521 8.9375 290.375 8.75C290.234 8.5625 290.057 8.41667 289.844 8.3125C289.635 8.20833 289.388 8.15625 289.102 8.15625C288.81 8.15625 288.56 8.22396 288.352 8.35938C288.143 8.48958 287.974 8.66927 287.844 8.89844C287.719 9.1276 287.625 9.39844 287.562 9.71094C287.505 10.0182 287.477 10.3516 287.477 10.7109Z" fill="white"/>
</svg>
