<svg width="37" height="40" xmlns="http://www.w3.org/2000/svg" xmlns:xlink="http://www.w3.org/1999/xlink" xml:space="preserve" overflow="hidden"><g transform="translate(-285 -364)"><g><g><g><g><path d="M14.1367 2.3986C15.1303 2.3986 15.9357 3.20401 15.9357 4.19754L15.9357 19.1887C15.9357 19.8511 16.4726 20.3881 17.135 20.3881 17.7973 20.3881 18.3342 19.8511 18.3342 19.1887L18.3342 13.1131 18.5405 13.1035C19.3009 13.0748 20.0684 13.0843 20.4978 13.1683 20.8192 13.2331 21.203 13.3985 21.5724 13.6048 21.757 13.7056 21.9321 13.9574 21.9321 14.358L21.9321 19.1887C21.9321 19.8511 22.4691 20.3881 23.1315 20.3881 23.7938 20.3881 24.3308 19.8511 24.3308 19.1887L24.3308 15.435 24.585 15.411C25.343 15.3534 25.9858 15.387 26.2832 15.5069 26.5662 15.6173 27.0028 16.0034 27.4489 16.5383 27.6432 16.7686 27.8087 16.9941 27.9286 17.1595L27.9286 20.3881C27.9286 21.0504 28.4656 21.5874 29.1279 21.5874 29.7903 21.5874 30.3272 21.0504 30.3272 20.3881L30.3272 17.9895 31.1476 17.9895C32.4723 17.9894 33.5462 19.0633 33.5462 20.3881 33.5462 20.4681 33.5422 20.5482 33.5342 20.6279L32.8841 27.1401C32.8002 27.977 32.5411 28.7869 32.1238 29.5171L28.7777 35.3746C28.5643 35.748 28.167 35.9788 27.7367 35.9791L12.6208 35.9791C12.1669 35.9788 11.7519 35.7226 11.5486 35.317L8.59354 29.4044 2.56829 19.3663C2.21746 18.7781 2.40988 18.0168 2.99807 17.666 3.48511 17.3755 4.10711 17.4524 4.50876 17.8528L10.2894 23.6334C10.7571 24.1023 11.5165 24.1033 11.9854 23.6355 12.2109 23.4106 12.3377 23.1052 12.3378 22.7867L12.3378 4.19754C12.3378 3.20401 13.1432 2.39859 14.1367 2.39859ZM18.3342 10.7121 18.3342 4.19754C18.3342 1.8793 16.455 0 14.1367 0 11.8185 0 9.93919 1.8793 9.93919 4.19754L9.93919 19.8916 6.20456 16.1569C4.77966 14.7399 2.47579 14.7462 1.05873 16.1712-0.112971 17.3493-0.337682 19.1716 0.512697 20.5991L6.48759 30.5605 9.4019 36.3891C10.0116 37.6082 11.2578 38.378 12.6208 38.3774L27.7367 38.3774C29.0277 38.377 30.2194 37.6851 30.8597 36.5643L34.2056 30.7092C34.7908 29.6858 35.1537 28.5506 35.2706 27.3776L35.9208 20.8654C36.1844 18.2291 34.2609 15.8783 31.6247 15.6147 31.4661 15.5988 31.3069 15.5909 31.1476 15.5909L29.754 15.5909C29.6042 15.3878 29.4482 15.1895 29.2862 14.996 28.8281 14.4467 28.0629 13.6336 27.1755 13.2786 26.3024 12.9284 25.1463 12.962 24.3979 13.0196L24.0813 13.0484C23.8259 12.3947 23.351 11.8502 22.7381 11.5085 22.1862 11.1902 21.5895 10.9573 20.9679 10.8176 20.2244 10.6689 19.1954 10.6786 18.4494 10.7073L18.3343 10.7121Z" fill="#FFFFFF" fill-rule="nonzero" fill-opacity="1" transform="matrix(1 0 0 1.01622 286.028 364)"/></g></g></g></g></g></svg>