<svg width="890" height="220" viewBox="0 0 890 220" fill="none" xmlns="http://www.w3.org/2000/svg">
<path d="M14.125 2.5V48H3.1875V2.5H14.125ZM33.8888 21.3438V48H23.3575V14.1875H33.2325L33.8888 21.3438ZM32.6075 29.9375L30.2013 30C30.2013 27.625 30.4825 25.4375 31.045 23.4375C31.6075 21.4375 32.4408 19.6979 33.545 18.2188C34.6492 16.7396 36.0033 15.5938 37.6075 14.7812C39.2325 13.9688 41.1075 13.5625 43.2325 13.5625C44.7117 13.5625 46.0554 13.7917 47.2638 14.25C48.4721 14.6875 49.5138 15.3854 50.3888 16.3438C51.2638 17.2812 51.9304 18.5104 52.3888 20.0312C52.8679 21.5312 53.1075 23.3333 53.1075 25.4375V48H42.5763V26.7812C42.5763 25.3438 42.4096 24.2604 42.0763 23.5312C41.7638 22.8021 41.3054 22.3125 40.7013 22.0625C40.0971 21.8125 39.3575 21.6875 38.4825 21.6875C37.5658 21.6875 36.7429 21.8958 36.0138 22.3125C35.2846 22.7292 34.6596 23.3125 34.1388 24.0625C33.6388 24.7917 33.2533 25.6562 32.9825 26.6562C32.7325 27.6562 32.6075 28.75 32.6075 29.9375ZM51.92 29.9375L48.9825 30C48.9825 27.625 49.2429 25.4375 49.7638 23.4375C50.3054 21.4375 51.1075 19.6979 52.17 18.2188C53.2533 16.7396 54.5971 15.5938 56.2013 14.7812C57.8054 13.9688 59.67 13.5625 61.795 13.5625C63.3367 13.5625 64.7533 13.7917 66.045 14.25C67.3367 14.7083 68.4513 15.4479 69.3888 16.4688C70.3263 17.4896 71.0554 18.8438 71.5763 20.5312C72.0971 22.1979 72.3575 24.2604 72.3575 26.7188V48H61.795V26.7188C61.795 25.3229 61.6283 24.2708 61.295 23.5625C60.9825 22.8333 60.5242 22.3438 59.92 22.0938C59.3158 21.8229 58.5971 21.6875 57.7638 21.6875C56.7638 21.6875 55.8992 21.8958 55.17 22.3125C54.4408 22.7292 53.8263 23.3125 53.3263 24.0625C52.8471 24.7917 52.4929 25.6562 52.2638 26.6562C52.0346 27.6562 51.92 28.75 51.92 29.9375ZM97.8712 39.5V25.5625C97.8712 24.6042 97.7358 23.7812 97.465 23.0938C97.1942 22.4062 96.7671 21.875 96.1837 21.5C95.6004 21.1042 94.8192 20.9062 93.84 20.9062C93.0483 20.9062 92.3712 21.0417 91.8087 21.3125C91.2462 21.5833 90.8192 21.9896 90.5275 22.5312C90.2358 23.0729 90.09 23.7604 90.09 24.5938H79.5587C79.5587 23.0312 79.9025 21.5833 80.59 20.25C81.2983 18.8958 82.2983 17.7188 83.59 16.7188C84.9025 15.7188 86.465 14.9479 88.2775 14.4062C90.1108 13.8438 92.1525 13.5625 94.4025 13.5625C97.09 13.5625 99.4858 14.0104 101.59 14.9062C103.715 15.8021 105.392 17.1458 106.621 18.9375C107.85 20.7083 108.465 22.9375 108.465 25.625V39.4688C108.465 41.6771 108.59 43.3542 108.84 44.5C109.09 45.625 109.444 46.6146 109.902 47.4688V48H99.34C98.84 46.9583 98.465 45.6875 98.215 44.1875C97.9858 42.6667 97.8712 41.1042 97.8712 39.5ZM99.1525 27.3438L99.215 32.9688H94.5587C93.5796 32.9688 92.7462 33.1042 92.0587 33.375C91.3921 33.6458 90.8504 34.0208 90.4337 34.5C90.0379 34.9583 89.7462 35.4792 89.5587 36.0625C89.3921 36.6458 89.3087 37.2604 89.3087 37.9062C89.3087 38.5312 89.4546 39.0938 89.7462 39.5938C90.0587 40.0729 90.4754 40.4479 90.9962 40.7188C91.5171 40.9896 92.1004 41.125 92.7462 41.125C93.9129 41.125 94.9025 40.9062 95.715 40.4688C96.5483 40.0104 97.1837 39.4583 97.6212 38.8125C98.0587 38.1667 98.2775 37.5625 98.2775 37L100.59 41.3125C100.173 42.1458 99.6942 42.9896 99.1525 43.8438C98.6317 44.6979 97.9754 45.4896 97.1837 46.2188C96.4129 46.9271 95.465 47.5104 94.34 47.9688C93.215 48.4062 91.8504 48.625 90.2462 48.625C88.1629 48.625 86.2462 48.1979 84.4962 47.3438C82.7671 46.4896 81.3817 45.3021 80.34 43.7812C79.2983 42.2396 78.7775 40.4688 78.7775 38.4688C78.7775 36.7188 79.09 35.1562 79.715 33.7812C80.3608 32.4062 81.3296 31.2396 82.6212 30.2812C83.9129 29.3229 85.5587 28.5938 87.5587 28.0938C89.5587 27.5938 91.9129 27.3438 94.6212 27.3438H99.1525ZM137.479 14.1875H147.041V46.6875C147.041 49.8125 146.323 52.4583 144.885 54.625C143.448 56.8125 141.437 58.4688 138.854 59.5938C136.291 60.7396 133.291 61.3125 129.854 61.3125C128.333 61.3125 126.781 61.1146 125.198 60.7188C123.614 60.3438 122.135 59.7812 120.76 59.0312C119.385 58.2812 118.229 57.3542 117.291 56.25L121.698 50.0625C122.552 51.0208 123.625 51.8333 124.916 52.5C126.208 53.1875 127.729 53.5312 129.479 53.5312C131 53.5312 132.27 53.2604 133.291 52.7188C134.333 52.1771 135.125 51.3854 135.666 50.3438C136.208 49.3229 136.479 48.0833 136.479 46.625V22.1875L137.479 14.1875ZM115.01 31.5V30.8438C115.01 28.2812 115.323 25.9479 115.948 23.8438C116.593 21.7188 117.51 19.8958 118.698 18.375C119.906 16.8333 121.364 15.6458 123.073 14.8125C124.781 13.9792 126.708 13.5625 128.854 13.5625C131.166 13.5625 133.062 14.0104 134.541 14.9062C136.041 15.7812 137.239 17.0104 138.135 18.5938C139.052 20.1771 139.76 22.0312 140.26 24.1562C140.781 26.2604 141.218 28.5312 141.573 30.9688V31.75C141.218 34.0417 140.729 36.2083 140.104 38.25C139.5 40.2708 138.708 42.0625 137.729 43.625C136.75 45.1875 135.52 46.4167 134.041 47.3125C132.583 48.1875 130.833 48.625 128.791 48.625C126.666 48.625 124.75 48.1979 123.041 47.3438C121.354 46.4896 119.906 45.2917 118.698 43.75C117.51 42.2083 116.593 40.3958 115.948 38.3125C115.323 36.2292 115.01 33.9583 115.01 31.5ZM125.541 30.8438V31.5C125.541 32.7708 125.656 33.9479 125.885 35.0312C126.135 36.1146 126.51 37.0729 127.01 37.9062C127.51 38.7188 128.125 39.3542 128.854 39.8125C129.604 40.2708 130.479 40.5 131.479 40.5C133 40.5 134.229 40.1771 135.166 39.5312C136.104 38.8854 136.781 37.9688 137.198 36.7812C137.614 35.5938 137.791 34.1979 137.729 32.5938V30.125C137.77 28.75 137.677 27.5417 137.448 26.5C137.218 25.4375 136.854 24.5521 136.354 23.8438C135.875 23.1354 135.229 22.6042 134.416 22.25C133.625 21.875 132.666 21.6875 131.541 21.6875C130.562 21.6875 129.698 21.9167 128.948 22.375C128.198 22.8333 127.573 23.4792 127.073 24.3125C126.573 25.125 126.187 26.0938 125.916 27.2188C125.666 28.3229 125.541 29.5312 125.541 30.8438ZM166.149 14.1875V48H155.586V14.1875H166.149ZM154.961 5.46875C154.961 3.96875 155.503 2.73958 156.586 1.78125C157.67 0.822917 159.076 0.34375 160.805 0.34375C162.534 0.34375 163.94 0.822917 165.024 1.78125C166.107 2.73958 166.649 3.96875 166.649 5.46875C166.649 6.96875 166.107 8.19792 165.024 9.15625C163.94 10.1146 162.534 10.5938 160.805 10.5938C159.076 10.5938 157.67 10.1146 156.586 9.15625C155.503 8.19792 154.961 6.96875 154.961 5.46875ZM184.913 21.4062V48H174.381V14.1875H184.256L184.913 21.4062ZM183.663 29.9375L181.194 30C181.194 27.4167 181.506 25.1146 182.131 23.0938C182.756 21.0521 183.642 19.3229 184.788 17.9062C185.933 16.4896 187.298 15.4167 188.881 14.6875C190.485 13.9375 192.267 13.5625 194.225 13.5625C195.788 13.5625 197.215 13.7917 198.506 14.25C199.819 14.7083 200.944 15.4479 201.881 16.4688C202.84 17.4896 203.569 18.8438 204.069 20.5312C204.59 22.1979 204.85 24.2604 204.85 26.7188V48H194.256V26.6875C194.256 25.3333 194.069 24.3021 193.694 23.5938C193.319 22.8646 192.777 22.3646 192.069 22.0938C191.36 21.8229 190.496 21.6875 189.475 21.6875C188.392 21.6875 187.475 21.8958 186.725 22.3125C185.975 22.7292 185.371 23.3125 184.913 24.0625C184.475 24.7917 184.152 25.6562 183.944 26.6562C183.756 27.6562 183.663 28.75 183.663 29.9375ZM228.989 48.625C226.239 48.625 223.78 48.1979 221.614 47.3438C219.447 46.4688 217.614 45.2708 216.114 43.75C214.635 42.2292 213.499 40.4792 212.708 38.5C211.937 36.5208 211.551 34.4271 211.551 32.2188V31.0312C211.551 28.5521 211.895 26.2604 212.583 24.1562C213.27 22.0312 214.291 20.1771 215.645 18.5938C216.999 17.0104 218.697 15.7812 220.739 14.9062C222.78 14.0104 225.155 13.5625 227.864 13.5625C230.26 13.5625 232.405 13.9479 234.301 14.7188C236.197 15.4896 237.801 16.5938 239.114 18.0312C240.447 19.4688 241.458 21.2083 242.145 23.25C242.853 25.2917 243.208 27.5833 243.208 30.125V34.4062H215.583V27.8125H232.926V27C232.947 25.875 232.749 24.9167 232.333 24.125C231.937 23.3333 231.353 22.7292 230.583 22.3125C229.812 21.8958 228.874 21.6875 227.77 21.6875C226.624 21.6875 225.676 21.9375 224.926 22.4375C224.197 22.9375 223.624 23.625 223.208 24.5C222.812 25.3542 222.53 26.3438 222.364 27.4688C222.197 28.5938 222.114 29.7812 222.114 31.0312V32.2188C222.114 33.4688 222.28 34.6042 222.614 35.625C222.968 36.6458 223.468 37.5208 224.114 38.25C224.78 38.9583 225.572 39.5104 226.489 39.9062C227.426 40.3021 228.489 40.5 229.676 40.5C231.114 40.5 232.53 40.2292 233.926 39.6875C235.322 39.1458 236.52 38.25 237.52 37L242.301 42.6875C241.614 43.6667 240.635 44.6146 239.364 45.5312C238.114 46.4479 236.614 47.1979 234.864 47.7812C233.114 48.3438 231.155 48.625 228.989 48.625ZM284.829 39.5V25.5625C284.829 24.6042 284.693 23.7812 284.422 23.0938C284.152 22.4062 283.725 21.875 283.141 21.5C282.558 21.1042 281.777 20.9062 280.797 20.9062C280.006 20.9062 279.329 21.0417 278.766 21.3125C278.204 21.5833 277.777 21.9896 277.485 22.5312C277.193 23.0729 277.047 23.7604 277.047 24.5938H266.516C266.516 23.0312 266.86 21.5833 267.547 20.25C268.256 18.8958 269.256 17.7188 270.547 16.7188C271.86 15.7188 273.422 14.9479 275.235 14.4062C277.068 13.8438 279.11 13.5625 281.36 13.5625C284.047 13.5625 286.443 14.0104 288.547 14.9062C290.672 15.8021 292.35 17.1458 293.579 18.9375C294.808 20.7083 295.422 22.9375 295.422 25.625V39.4688C295.422 41.6771 295.547 43.3542 295.797 44.5C296.047 45.625 296.402 46.6146 296.86 47.4688V48H286.297C285.797 46.9583 285.422 45.6875 285.172 44.1875C284.943 42.6667 284.829 41.1042 284.829 39.5ZM286.11 27.3438L286.172 32.9688H281.516C280.537 32.9688 279.704 33.1042 279.016 33.375C278.35 33.6458 277.808 34.0208 277.391 34.5C276.995 34.9583 276.704 35.4792 276.516 36.0625C276.35 36.6458 276.266 37.2604 276.266 37.9062C276.266 38.5312 276.412 39.0938 276.704 39.5938C277.016 40.0729 277.433 40.4479 277.954 40.7188C278.475 40.9896 279.058 41.125 279.704 41.125C280.87 41.125 281.86 40.9062 282.672 40.4688C283.506 40.0104 284.141 39.4583 284.579 38.8125C285.016 38.1667 285.235 37.5625 285.235 37L287.547 41.3125C287.131 42.1458 286.652 42.9896 286.11 43.8438C285.589 44.6979 284.933 45.4896 284.141 46.2188C283.37 46.9271 282.422 47.5104 281.297 47.9688C280.172 48.4062 278.808 48.625 277.204 48.625C275.12 48.625 273.204 48.1979 271.454 47.3438C269.725 46.4896 268.339 45.3021 267.297 43.7812C266.256 42.2396 265.735 40.4688 265.735 38.4688C265.735 36.7188 266.047 35.1562 266.672 33.7812C267.318 32.4062 268.287 31.2396 269.579 30.2812C270.87 29.3229 272.516 28.5938 274.516 28.0938C276.516 27.5938 278.87 27.3438 281.579 27.3438H286.11ZM331.325 37.9375L337.575 14.1875H344.169L341.825 26.0938L335.638 48H330.356L331.325 37.9375ZM328.856 14.1875L332.731 37.75L333.169 48H326.763L318.763 14.1875H328.856ZM349.731 37.25L353.638 14.1875H363.731L355.794 48H349.388L349.731 37.25ZM344.919 14.1875L351.231 37.875L352.2 48H346.856L340.794 26.1562L338.544 14.1875H344.919ZM368.151 31.4375V30.7812C368.151 28.3021 368.505 26.0208 369.214 23.9375C369.922 21.8333 370.964 20.0104 372.339 18.4688C373.714 16.9271 375.412 15.7292 377.432 14.875C379.453 14 381.787 13.5625 384.432 13.5625C387.099 13.5625 389.443 14 391.464 14.875C393.505 15.7292 395.214 16.9271 396.589 18.4688C397.964 20.0104 399.005 21.8333 399.714 23.9375C400.422 26.0208 400.776 28.3021 400.776 30.7812V31.4375C400.776 33.8958 400.422 36.1771 399.714 38.2812C399.005 40.3646 397.964 42.1875 396.589 43.75C395.214 45.2917 393.516 46.4896 391.495 47.3438C389.474 48.1979 387.141 48.625 384.495 48.625C381.849 48.625 379.505 48.1979 377.464 47.3438C375.422 46.4896 373.714 45.2917 372.339 43.75C370.964 42.1875 369.922 40.3646 369.214 38.2812C368.505 36.1771 368.151 33.8958 368.151 31.4375ZM378.682 30.7812V31.4375C378.682 32.7083 378.776 33.8958 378.964 35C379.151 36.1042 379.464 37.0729 379.901 37.9062C380.339 38.7188 380.932 39.3542 381.682 39.8125C382.432 40.2708 383.37 40.5 384.495 40.5C385.599 40.5 386.516 40.2708 387.245 39.8125C387.995 39.3542 388.589 38.7188 389.026 37.9062C389.464 37.0729 389.776 36.1042 389.964 35C390.151 33.8958 390.245 32.7083 390.245 31.4375V30.7812C390.245 29.5521 390.151 28.3958 389.964 27.3125C389.776 26.2083 389.464 25.2396 389.026 24.4062C388.589 23.5521 387.995 22.8854 387.245 22.4062C386.495 21.9271 385.557 21.6875 384.432 21.6875C383.328 21.6875 382.401 21.9271 381.651 22.4062C380.922 22.8854 380.339 23.5521 379.901 24.4062C379.464 25.2396 379.151 26.2083 378.964 27.3125C378.776 28.3958 378.682 29.5521 378.682 30.7812ZM418.009 22.5625V48H407.478V14.1875H417.321L418.009 22.5625ZM428.009 13.9375L427.821 23.7188C427.405 23.6771 426.842 23.625 426.134 23.5625C425.425 23.5 424.832 23.4688 424.353 23.4688C423.123 23.4688 422.061 23.6146 421.165 23.9062C420.29 24.1771 419.561 24.5938 418.978 25.1562C418.415 25.6979 417.998 26.3854 417.728 27.2188C417.478 28.0521 417.363 29.0208 417.384 30.125L415.478 28.875C415.478 26.6042 415.696 24.5417 416.134 22.6875C416.592 20.8125 417.238 19.1979 418.071 17.8438C418.905 16.4688 419.915 15.4167 421.103 14.6875C422.29 13.9375 423.623 13.5625 425.103 13.5625C425.623 13.5625 426.134 13.5938 426.634 13.6562C427.155 13.7188 427.613 13.8125 428.009 13.9375ZM444.679 0V48H434.116V0H444.679ZM472.536 40.25V0H483.13V48H473.63L472.536 40.25ZM451.786 31.5V30.8438C451.786 28.2812 452.068 25.9479 452.63 23.8438C453.193 21.7188 454.026 19.8958 455.13 18.375C456.234 16.8333 457.609 15.6458 459.255 14.8125C460.901 13.9792 462.797 13.5625 464.943 13.5625C466.859 13.5625 468.536 14.0104 469.974 14.9062C471.411 15.7812 472.64 17.0104 473.661 18.5938C474.682 20.1771 475.515 22.0312 476.161 24.1562C476.807 26.2604 477.297 28.5312 477.63 30.9688V31.75C477.297 34.0417 476.807 36.2083 476.161 38.25C475.515 40.2708 474.682 42.0625 473.661 43.625C472.64 45.1875 471.401 46.4167 469.943 47.3125C468.505 48.1875 466.818 48.625 464.88 48.625C462.734 48.625 460.838 48.1979 459.193 47.3438C457.568 46.4896 456.203 45.2917 455.099 43.75C454.015 42.2083 453.193 40.3958 452.63 38.3125C452.068 36.2292 451.786 33.9583 451.786 31.5ZM462.318 30.8438V31.5C462.318 32.7708 462.401 33.9479 462.568 35.0312C462.734 36.1146 463.015 37.0729 463.411 37.9062C463.828 38.7188 464.37 39.3542 465.036 39.8125C465.724 40.2708 466.568 40.5 467.568 40.5C468.922 40.5 470.036 40.1771 470.911 39.5312C471.807 38.8854 472.463 37.9688 472.88 36.7812C473.318 35.5938 473.505 34.1979 473.443 32.5938V30.125C473.484 28.75 473.39 27.5417 473.161 26.5C472.932 25.4375 472.568 24.5521 472.068 23.8438C471.588 23.1354 470.974 22.6042 470.224 22.25C469.495 21.875 468.63 21.6875 467.63 21.6875C466.651 21.6875 465.818 21.9167 465.13 22.375C464.463 22.8333 463.922 23.4792 463.505 24.3125C463.088 25.125 462.786 26.0938 462.599 27.2188C462.411 28.3229 462.318 29.5312 462.318 30.8438ZM519.158 37.9375L525.408 14.1875H532.001L529.658 26.0938L523.47 48H518.189L519.158 37.9375ZM516.689 14.1875L520.564 37.75L521.001 48H514.595L506.595 14.1875H516.689ZM537.564 37.25L541.47 14.1875H551.564L543.626 48H537.22L537.564 37.25ZM532.751 14.1875L539.064 37.875L540.033 48H534.689L528.626 26.1562L526.376 14.1875H532.751ZM567.609 0V48H557.078V0H567.609ZM566.359 29.9375L563.89 30C563.89 27.625 564.182 25.4375 564.765 23.4375C565.348 21.4375 566.182 19.6979 567.265 18.2188C568.348 16.7396 569.65 15.5938 571.171 14.7812C572.692 13.9688 574.38 13.5625 576.234 13.5625C577.9 13.5625 579.421 13.8021 580.796 14.2812C582.192 14.7604 583.39 15.5312 584.39 16.5938C585.411 17.6562 586.192 19.0417 586.734 20.75C587.296 22.4583 587.578 24.5417 587.578 27V48H576.984V26.9375C576.984 25.5625 576.786 24.5 576.39 23.75C576.015 22.9792 575.473 22.4479 574.765 22.1562C574.057 21.8438 573.192 21.6875 572.171 21.6875C570.942 21.6875 569.942 21.8958 569.171 22.3125C568.4 22.7292 567.807 23.3125 567.39 24.0625C566.994 24.7917 566.723 25.6562 566.578 26.6562C566.432 27.6562 566.359 28.75 566.359 29.9375ZM611.716 48.625C608.966 48.625 606.508 48.1979 604.341 47.3438C602.175 46.4688 600.341 45.2708 598.841 43.75C597.362 42.2292 596.227 40.4792 595.435 38.5C594.664 36.5208 594.279 34.4271 594.279 32.2188V31.0312C594.279 28.5521 594.622 26.2604 595.31 24.1562C595.997 22.0312 597.018 20.1771 598.372 18.5938C599.727 17.0104 601.425 15.7812 603.466 14.9062C605.508 14.0104 607.883 13.5625 610.591 13.5625C612.987 13.5625 615.133 13.9479 617.029 14.7188C618.925 15.4896 620.529 16.5938 621.841 18.0312C623.175 19.4688 624.185 21.2083 624.872 23.25C625.581 25.2917 625.935 27.5833 625.935 30.125V34.4062H598.31V27.8125H615.654V27C615.675 25.875 615.477 24.9167 615.06 24.125C614.664 23.3333 614.081 22.7292 613.31 22.3125C612.539 21.8958 611.602 21.6875 610.497 21.6875C609.352 21.6875 608.404 21.9375 607.654 22.4375C606.925 22.9375 606.352 23.625 605.935 24.5C605.539 25.3542 605.258 26.3438 605.091 27.4688C604.925 28.5938 604.841 29.7812 604.841 31.0312V32.2188C604.841 33.4688 605.008 34.6042 605.341 35.625C605.695 36.6458 606.195 37.5208 606.841 38.25C607.508 38.9583 608.3 39.5104 609.216 39.9062C610.154 40.3021 611.216 40.5 612.404 40.5C613.841 40.5 615.258 40.2292 616.654 39.6875C618.05 39.1458 619.247 38.25 620.247 37L625.029 42.6875C624.341 43.6667 623.362 44.6146 622.091 45.5312C620.841 46.4479 619.341 47.1979 617.591 47.7812C615.841 48.3438 613.883 48.625 611.716 48.625ZM642.761 22.5625V48H632.23V14.1875H642.074L642.761 22.5625ZM652.761 13.9375L652.574 23.7188C652.157 23.6771 651.595 23.625 650.886 23.5625C650.178 23.5 649.584 23.4688 649.105 23.4688C647.876 23.4688 646.813 23.6146 645.917 23.9062C645.042 24.1771 644.313 24.5938 643.73 25.1562C643.167 25.6979 642.751 26.3854 642.48 27.2188C642.23 28.0521 642.115 29.0208 642.136 30.125L640.23 28.875C640.23 26.6042 640.449 24.5417 640.886 22.6875C641.345 20.8125 641.99 19.1979 642.824 17.8438C643.657 16.4688 644.667 15.4167 645.855 14.6875C647.042 13.9375 648.376 13.5625 649.855 13.5625C650.376 13.5625 650.886 13.5938 651.386 13.6562C651.907 13.7188 652.365 13.8125 652.761 13.9375ZM674.056 48.625C671.306 48.625 668.848 48.1979 666.681 47.3438C664.515 46.4688 662.681 45.2708 661.181 43.75C659.702 42.2292 658.567 40.4792 657.775 38.5C657.004 36.5208 656.619 34.4271 656.619 32.2188V31.0312C656.619 28.5521 656.963 26.2604 657.65 24.1562C658.338 22.0312 659.358 20.1771 660.713 18.5938C662.067 17.0104 663.765 15.7812 665.806 14.9062C667.848 14.0104 670.223 13.5625 672.931 13.5625C675.327 13.5625 677.473 13.9479 679.369 14.7188C681.265 15.4896 682.869 16.5938 684.181 18.0312C685.515 19.4688 686.525 21.2083 687.213 23.25C687.921 25.2917 688.275 27.5833 688.275 30.125V34.4062H660.65V27.8125H677.994V27C678.015 25.875 677.817 24.9167 677.4 24.125C677.004 23.3333 676.421 22.7292 675.65 22.3125C674.879 21.8958 673.942 21.6875 672.838 21.6875C671.692 21.6875 670.744 21.9375 669.994 22.4375C669.265 22.9375 668.692 23.625 668.275 24.5C667.879 25.3542 667.598 26.3438 667.431 27.4688C667.265 28.5938 667.181 29.7812 667.181 31.0312V32.2188C667.181 33.4688 667.348 34.6042 667.681 35.625C668.035 36.6458 668.535 37.5208 669.181 38.25C669.848 38.9583 670.64 39.5104 671.556 39.9062C672.494 40.3021 673.556 40.5 674.744 40.5C676.181 40.5 677.598 40.2292 678.994 39.6875C680.39 39.1458 681.588 38.25 682.588 37L687.369 42.6875C686.681 43.6667 685.702 44.6146 684.431 45.5312C683.181 46.4479 681.681 47.1979 679.931 47.7812C678.181 48.3438 676.223 48.625 674.056 48.625ZM729.896 39.5V25.5625C729.896 24.6042 729.761 23.7812 729.49 23.0938C729.219 22.4062 728.792 21.875 728.209 21.5C727.625 21.1042 726.844 20.9062 725.865 20.9062C725.073 20.9062 724.396 21.0417 723.834 21.3125C723.271 21.5833 722.844 21.9896 722.552 22.5312C722.261 23.0729 722.115 23.7604 722.115 24.5938H711.584C711.584 23.0312 711.927 21.5833 712.615 20.25C713.323 18.8958 714.323 17.7188 715.615 16.7188C716.927 15.7188 718.49 14.9479 720.302 14.4062C722.136 13.8438 724.177 13.5625 726.427 13.5625C729.115 13.5625 731.511 14.0104 733.615 14.9062C735.74 15.8021 737.417 17.1458 738.646 18.9375C739.875 20.7083 740.49 22.9375 740.49 25.625V39.4688C740.49 41.6771 740.615 43.3542 740.865 44.5C741.115 45.625 741.469 46.6146 741.927 47.4688V48H731.365C730.865 46.9583 730.49 45.6875 730.24 44.1875C730.011 42.6667 729.896 41.1042 729.896 39.5ZM731.177 27.3438L731.24 32.9688H726.584C725.605 32.9688 724.771 33.1042 724.084 33.375C723.417 33.6458 722.875 34.0208 722.459 34.5C722.063 34.9583 721.771 35.4792 721.584 36.0625C721.417 36.6458 721.334 37.2604 721.334 37.9062C721.334 38.5312 721.48 39.0938 721.771 39.5938C722.084 40.0729 722.5 40.4479 723.021 40.7188C723.542 40.9896 724.125 41.125 724.771 41.125C725.938 41.125 726.927 40.9062 727.74 40.4688C728.573 40.0104 729.209 39.4583 729.646 38.8125C730.084 38.1667 730.302 37.5625 730.302 37L732.615 41.3125C732.198 42.1458 731.719 42.9896 731.177 43.8438C730.657 44.6979 730 45.4896 729.209 46.2188C728.438 46.9271 727.49 47.5104 726.365 47.9688C725.24 48.4062 723.875 48.625 722.271 48.625C720.188 48.625 718.271 48.1979 716.521 47.3438C714.792 46.4896 713.407 45.3021 712.365 43.7812C711.323 42.2396 710.802 40.4688 710.802 38.4688C710.802 36.7188 711.115 35.1562 711.74 33.7812C712.386 32.4062 713.355 31.2396 714.646 30.2812C715.938 29.3229 717.584 28.5938 719.584 28.0938C721.584 27.5938 723.938 27.3438 726.646 27.3438H731.177ZM759.379 0V48H748.816V0H759.379ZM778.924 0V48H768.361V0H778.924ZM12.5938 100.344V127H2.0625V93.1875H11.9375L12.5938 100.344ZM11.3125 108.938L8.90625 109C8.90625 106.625 9.1875 104.438 9.75 102.438C10.3125 100.438 11.1458 98.6979 12.25 97.2188C13.3542 95.7396 14.7083 94.5938 16.3125 93.7812C17.9375 92.9688 19.8125 92.5625 21.9375 92.5625C23.4167 92.5625 24.7604 92.7917 25.9688 93.25C27.1771 93.6875 28.2188 94.3854 29.0938 95.3438C29.9688 96.2812 30.6354 97.5104 31.0938 99.0312C31.5729 100.531 31.8125 102.333 31.8125 104.438V127H21.2812V105.781C21.2812 104.344 21.1146 103.26 20.7812 102.531C20.4688 101.802 20.0104 101.312 19.4062 101.062C18.8021 100.812 18.0625 100.688 17.1875 100.688C16.2708 100.688 15.4479 100.896 14.7188 101.312C13.9896 101.729 13.3646 102.312 12.8438 103.062C12.3438 103.792 11.9583 104.656 11.6875 105.656C11.4375 106.656 11.3125 107.75 11.3125 108.938ZM30.625 108.938L27.6875 109C27.6875 106.625 27.9479 104.438 28.4688 102.438C29.0104 100.438 29.8125 98.6979 30.875 97.2188C31.9583 95.7396 33.3021 94.5938 34.9062 93.7812C36.5104 92.9688 38.375 92.5625 40.5 92.5625C42.0417 92.5625 43.4583 92.7917 44.75 93.25C46.0417 93.7083 47.1562 94.4479 48.0938 95.4688C49.0312 96.4896 49.7604 97.8438 50.2812 99.5312C50.8021 101.198 51.0625 103.26 51.0625 105.719V127H40.5V105.719C40.5 104.323 40.3333 103.271 40 102.562C39.6875 101.833 39.2292 101.344 38.625 101.094C38.0208 100.823 37.3021 100.688 36.4688 100.688C35.4688 100.688 34.6042 100.896 33.875 101.312C33.1458 101.729 32.5312 102.312 32.0312 103.062C31.5521 103.792 31.1979 104.656 30.9688 105.656C30.7396 106.656 30.625 107.75 30.625 108.938ZM76.5762 118.5V104.562C76.5762 103.604 76.4408 102.781 76.17 102.094C75.8992 101.406 75.4721 100.875 74.8887 100.5C74.3054 100.104 73.5242 99.9062 72.545 99.9062C71.7533 99.9062 71.0762 100.042 70.5137 100.312C69.9512 100.583 69.5242 100.99 69.2325 101.531C68.9408 102.073 68.795 102.76 68.795 103.594H58.2637C58.2637 102.031 58.6075 100.583 59.295 99.25C60.0033 97.8958 61.0033 96.7188 62.295 95.7188C63.6075 94.7188 65.17 93.9479 66.9825 93.4062C68.8158 92.8438 70.8575 92.5625 73.1075 92.5625C75.795 92.5625 78.1908 93.0104 80.295 93.9062C82.42 94.8021 84.0971 96.1458 85.3262 97.9375C86.5554 99.7083 87.17 101.938 87.17 104.625V118.469C87.17 120.677 87.295 122.354 87.545 123.5C87.795 124.625 88.1492 125.615 88.6075 126.469V127H78.045C77.545 125.958 77.17 124.688 76.92 123.188C76.6908 121.667 76.5762 120.104 76.5762 118.5ZM77.8575 106.344L77.92 111.969H73.2637C72.2846 111.969 71.4512 112.104 70.7637 112.375C70.0971 112.646 69.5554 113.021 69.1387 113.5C68.7429 113.958 68.4512 114.479 68.2637 115.062C68.0971 115.646 68.0137 116.26 68.0137 116.906C68.0137 117.531 68.1596 118.094 68.4512 118.594C68.7637 119.073 69.1804 119.448 69.7012 119.719C70.2221 119.99 70.8054 120.125 71.4512 120.125C72.6179 120.125 73.6075 119.906 74.42 119.469C75.2533 119.01 75.8887 118.458 76.3262 117.812C76.7637 117.167 76.9825 116.562 76.9825 116L79.295 120.312C78.8783 121.146 78.3992 121.99 77.8575 122.844C77.3367 123.698 76.6804 124.49 75.8887 125.219C75.1179 125.927 74.17 126.51 73.045 126.969C71.92 127.406 70.5554 127.625 68.9512 127.625C66.8679 127.625 64.9512 127.198 63.2012 126.344C61.4721 125.49 60.0867 124.302 59.045 122.781C58.0033 121.24 57.4825 119.469 57.4825 117.469C57.4825 115.719 57.795 114.156 58.42 112.781C59.0658 111.406 60.0346 110.24 61.3262 109.281C62.6179 108.323 64.2637 107.594 66.2637 107.094C68.2637 106.594 70.6179 106.344 73.3262 106.344H77.8575ZM105.559 101.562V127H95.0275V93.1875H104.871L105.559 101.562ZM115.559 92.9375L115.371 102.719C114.955 102.677 114.392 102.625 113.684 102.562C112.975 102.5 112.382 102.469 111.902 102.469C110.673 102.469 109.611 102.615 108.715 102.906C107.84 103.177 107.111 103.594 106.527 104.156C105.965 104.698 105.548 105.385 105.277 106.219C105.027 107.052 104.913 108.021 104.934 109.125L103.027 107.875C103.027 105.604 103.246 103.542 103.684 101.688C104.142 99.8125 104.788 98.1979 105.621 96.8438C106.455 95.4688 107.465 94.4167 108.652 93.6875C109.84 92.9375 111.173 92.5625 112.652 92.5625C113.173 92.5625 113.684 92.5938 114.184 92.6562C114.705 92.7188 115.163 92.8125 115.559 92.9375ZM131.729 78.9688V127H121.198V78.9688H131.729ZM153.354 93.1875L138.666 110.406L130.979 118.094L126.385 111.406L132.791 103.062L140.729 93.1875H153.354ZM142.073 127L133.041 111.594L140.823 106.062L154.135 127H142.073ZM173.774 127.625C171.024 127.625 168.565 127.198 166.399 126.344C164.232 125.469 162.399 124.271 160.899 122.75C159.42 121.229 158.284 119.479 157.492 117.5C156.722 115.521 156.336 113.427 156.336 111.219V110.031C156.336 107.552 156.68 105.26 157.367 103.156C158.055 101.031 159.076 99.1771 160.43 97.5938C161.784 96.0104 163.482 94.7812 165.524 93.9062C167.565 93.0104 169.94 92.5625 172.649 92.5625C175.045 92.5625 177.19 92.9479 179.086 93.7188C180.982 94.4896 182.586 95.5938 183.899 97.0312C185.232 98.4688 186.242 100.208 186.93 102.25C187.638 104.292 187.992 106.583 187.992 109.125V113.406H160.367V106.812H177.711V106C177.732 104.875 177.534 103.917 177.117 103.125C176.722 102.333 176.138 101.729 175.367 101.312C174.597 100.896 173.659 100.688 172.555 100.688C171.409 100.688 170.461 100.938 169.711 101.438C168.982 101.938 168.409 102.625 167.992 103.5C167.597 104.354 167.315 105.344 167.149 106.469C166.982 107.594 166.899 108.781 166.899 110.031V111.219C166.899 112.469 167.065 113.604 167.399 114.625C167.753 115.646 168.253 116.521 168.899 117.25C169.565 117.958 170.357 118.51 171.274 118.906C172.211 119.302 173.274 119.5 174.461 119.5C175.899 119.5 177.315 119.229 178.711 118.688C180.107 118.146 181.305 117.25 182.305 116L187.086 121.688C186.399 122.667 185.42 123.615 184.149 124.531C182.899 125.448 181.399 126.198 179.649 126.781C177.899 127.344 175.94 127.625 173.774 127.625ZM212.006 93.1875V100.5H191.631V93.1875H212.006ZM195.913 84.7812H206.444V115.969C206.444 116.865 206.548 117.562 206.756 118.062C206.965 118.542 207.319 118.885 207.819 119.094C208.34 119.281 209.027 119.375 209.881 119.375C210.485 119.375 210.985 119.365 211.381 119.344C211.777 119.302 212.152 119.25 212.506 119.188V126.719C211.61 127.01 210.673 127.229 209.694 127.375C208.715 127.542 207.673 127.625 206.569 127.625C204.319 127.625 202.392 127.271 200.788 126.562C199.204 125.854 197.996 124.74 197.163 123.219C196.329 121.698 195.913 119.719 195.913 117.281V84.7812ZM229.239 93.1875V127H218.676V93.1875H229.239ZM218.051 84.4688C218.051 82.9688 218.593 81.7396 219.676 80.7812C220.76 79.8229 222.166 79.3438 223.895 79.3438C225.624 79.3438 227.03 79.8229 228.114 80.7812C229.197 81.7396 229.739 82.9688 229.739 84.4688C229.739 85.9688 229.197 87.1979 228.114 88.1562C227.03 89.1146 225.624 89.5938 223.895 89.5938C222.166 89.5938 220.76 89.1146 219.676 88.1562C218.593 87.1979 218.051 85.9688 218.051 84.4688ZM248.003 100.406V127H237.471V93.1875H247.346L248.003 100.406ZM246.753 108.938L244.284 109C244.284 106.417 244.596 104.115 245.221 102.094C245.846 100.052 246.732 98.3229 247.878 96.9062C249.023 95.4896 250.388 94.4167 251.971 93.6875C253.575 92.9375 255.357 92.5625 257.315 92.5625C258.878 92.5625 260.305 92.7917 261.596 93.25C262.909 93.7083 264.034 94.4479 264.971 95.4688C265.93 96.4896 266.659 97.8438 267.159 99.5312C267.68 101.198 267.94 103.26 267.94 105.719V127H257.346V105.688C257.346 104.333 257.159 103.302 256.784 102.594C256.409 101.865 255.867 101.365 255.159 101.094C254.45 100.823 253.586 100.688 252.565 100.688C251.482 100.688 250.565 100.896 249.815 101.312C249.065 101.729 248.461 102.312 248.003 103.062C247.565 103.792 247.242 104.656 247.034 105.656C246.846 106.656 246.753 107.75 246.753 108.938ZM296.954 93.1875H306.516V125.688C306.516 128.812 305.797 131.458 304.36 133.625C302.922 135.812 300.912 137.469 298.329 138.594C295.766 139.74 292.766 140.312 289.329 140.312C287.808 140.312 286.256 140.115 284.672 139.719C283.089 139.344 281.61 138.781 280.235 138.031C278.86 137.281 277.704 136.354 276.766 135.25L281.172 129.062C282.027 130.021 283.1 130.833 284.391 131.5C285.683 132.188 287.204 132.531 288.954 132.531C290.475 132.531 291.745 132.26 292.766 131.719C293.808 131.177 294.6 130.385 295.141 129.344C295.683 128.323 295.954 127.083 295.954 125.625V101.188L296.954 93.1875ZM274.485 110.5V109.844C274.485 107.281 274.797 104.948 275.422 102.844C276.068 100.719 276.985 98.8958 278.172 97.375C279.381 95.8333 280.839 94.6458 282.547 93.8125C284.256 92.9792 286.183 92.5625 288.329 92.5625C290.641 92.5625 292.537 93.0104 294.016 93.9062C295.516 94.7812 296.714 96.0104 297.61 97.5938C298.527 99.1771 299.235 101.031 299.735 103.156C300.256 105.26 300.693 107.531 301.047 109.969V110.75C300.693 113.042 300.204 115.208 299.579 117.25C298.975 119.271 298.183 121.062 297.204 122.625C296.225 124.188 294.995 125.417 293.516 126.312C292.058 127.188 290.308 127.625 288.266 127.625C286.141 127.625 284.225 127.198 282.516 126.344C280.829 125.49 279.381 124.292 278.172 122.75C276.985 121.208 276.068 119.396 275.422 117.312C274.797 115.229 274.485 112.958 274.485 110.5ZM285.016 109.844V110.5C285.016 111.771 285.131 112.948 285.36 114.031C285.61 115.115 285.985 116.073 286.485 116.906C286.985 117.719 287.6 118.354 288.329 118.812C289.079 119.271 289.954 119.5 290.954 119.5C292.475 119.5 293.704 119.177 294.641 118.531C295.579 117.885 296.256 116.969 296.672 115.781C297.089 114.594 297.266 113.198 297.204 111.594V109.125C297.245 107.75 297.152 106.542 296.922 105.5C296.693 104.438 296.329 103.552 295.829 102.844C295.35 102.135 294.704 101.604 293.891 101.25C293.1 100.875 292.141 100.688 291.016 100.688C290.037 100.688 289.172 100.917 288.422 101.375C287.672 101.833 287.047 102.479 286.547 103.312C286.047 104.125 285.662 105.094 285.391 106.219C285.141 107.323 285.016 108.531 285.016 109.844ZM349.919 118.5V104.562C349.919 103.604 349.783 102.781 349.513 102.094C349.242 101.406 348.815 100.875 348.231 100.5C347.648 100.104 346.867 99.9062 345.888 99.9062C345.096 99.9062 344.419 100.042 343.856 100.312C343.294 100.583 342.867 100.99 342.575 101.531C342.283 102.073 342.138 102.76 342.138 103.594H331.606C331.606 102.031 331.95 100.583 332.638 99.25C333.346 97.8958 334.346 96.7188 335.638 95.7188C336.95 94.7188 338.513 93.9479 340.325 93.4062C342.158 92.8438 344.2 92.5625 346.45 92.5625C349.138 92.5625 351.533 93.0104 353.638 93.9062C355.763 94.8021 357.44 96.1458 358.669 97.9375C359.898 99.7083 360.513 101.938 360.513 104.625V118.469C360.513 120.677 360.638 122.354 360.888 123.5C361.138 124.625 361.492 125.615 361.95 126.469V127H351.388C350.888 125.958 350.513 124.688 350.263 123.188C350.033 121.667 349.919 120.104 349.919 118.5ZM351.2 106.344L351.263 111.969H346.606C345.627 111.969 344.794 112.104 344.106 112.375C343.44 112.646 342.898 113.021 342.481 113.5C342.085 113.958 341.794 114.479 341.606 115.062C341.44 115.646 341.356 116.26 341.356 116.906C341.356 117.531 341.502 118.094 341.794 118.594C342.106 119.073 342.523 119.448 343.044 119.719C343.565 119.99 344.148 120.125 344.794 120.125C345.96 120.125 346.95 119.906 347.763 119.469C348.596 119.01 349.231 118.458 349.669 117.812C350.106 117.167 350.325 116.562 350.325 116L352.638 120.312C352.221 121.146 351.742 121.99 351.2 122.844C350.679 123.698 350.023 124.49 349.231 125.219C348.46 125.927 347.513 126.51 346.388 126.969C345.263 127.406 343.898 127.625 342.294 127.625C340.21 127.625 338.294 127.198 336.544 126.344C334.815 125.49 333.429 124.302 332.388 122.781C331.346 121.24 330.825 119.469 330.825 117.469C330.825 115.719 331.138 114.156 331.763 112.781C332.408 111.406 333.377 110.24 334.669 109.281C335.96 108.323 337.606 107.594 339.606 107.094C341.606 106.594 343.96 106.344 346.669 106.344H351.2ZM378.62 100.406V127H368.089V93.1875H377.964L378.62 100.406ZM377.37 108.938L374.901 109C374.901 106.417 375.214 104.115 375.839 102.094C376.464 100.052 377.349 98.3229 378.495 96.9062C379.641 95.4896 381.005 94.4167 382.589 93.6875C384.193 92.9375 385.974 92.5625 387.932 92.5625C389.495 92.5625 390.922 92.7917 392.214 93.25C393.526 93.7083 394.651 94.4479 395.589 95.4688C396.547 96.4896 397.276 97.8438 397.776 99.5312C398.297 101.198 398.557 103.26 398.557 105.719V127H387.964V105.688C387.964 104.333 387.776 103.302 387.401 102.594C387.026 101.865 386.485 101.365 385.776 101.094C385.068 100.823 384.203 100.688 383.182 100.688C382.099 100.688 381.182 100.896 380.432 101.312C379.682 101.729 379.078 102.312 378.62 103.062C378.182 103.792 377.86 104.656 377.651 105.656C377.464 106.656 377.37 107.75 377.37 108.938ZM425.759 119.25V79H436.353V127H426.853L425.759 119.25ZM405.009 110.5V109.844C405.009 107.281 405.29 104.948 405.853 102.844C406.415 100.719 407.248 98.8958 408.353 97.375C409.457 95.8333 410.832 94.6458 412.478 93.8125C414.123 92.9792 416.019 92.5625 418.165 92.5625C420.082 92.5625 421.759 93.0104 423.196 93.9062C424.634 94.7812 425.863 96.0104 426.884 97.5938C427.905 99.1771 428.738 101.031 429.384 103.156C430.03 105.26 430.519 107.531 430.853 109.969V110.75C430.519 113.042 430.03 115.208 429.384 117.25C428.738 119.271 427.905 121.062 426.884 122.625C425.863 124.188 424.623 125.417 423.165 126.312C421.728 127.188 420.04 127.625 418.103 127.625C415.957 127.625 414.061 127.198 412.415 126.344C410.79 125.49 409.425 124.292 408.321 122.75C407.238 121.208 406.415 119.396 405.853 117.312C405.29 115.229 405.009 112.958 405.009 110.5ZM415.54 109.844V110.5C415.54 111.771 415.623 112.948 415.79 114.031C415.957 115.115 416.238 116.073 416.634 116.906C417.05 117.719 417.592 118.354 418.259 118.812C418.946 119.271 419.79 119.5 420.79 119.5C422.144 119.5 423.259 119.177 424.134 118.531C425.03 117.885 425.686 116.969 426.103 115.781C426.54 114.594 426.728 113.198 426.665 111.594V109.125C426.707 107.75 426.613 106.542 426.384 105.5C426.155 104.438 425.79 103.552 425.29 102.844C424.811 102.135 424.196 101.604 423.446 101.25C422.717 100.875 421.853 100.688 420.853 100.688C419.873 100.688 419.04 100.917 418.353 101.375C417.686 101.833 417.144 102.479 416.728 103.312C416.311 104.125 416.009 105.094 415.821 106.219C415.634 107.323 415.54 108.531 415.54 109.844ZM479.911 93.1875V100.5H459.536V93.1875H479.911ZM463.818 84.7812H474.349V115.969C474.349 116.865 474.453 117.562 474.661 118.062C474.87 118.542 475.224 118.885 475.724 119.094C476.245 119.281 476.932 119.375 477.786 119.375C478.39 119.375 478.89 119.365 479.286 119.344C479.682 119.302 480.057 119.25 480.411 119.188V126.719C479.515 127.01 478.578 127.229 477.599 127.375C476.62 127.542 475.578 127.625 474.474 127.625C472.224 127.625 470.297 127.271 468.693 126.562C467.109 125.854 465.901 124.74 465.068 123.219C464.234 121.698 463.818 119.719 463.818 117.281V84.7812ZM502.394 127.625C499.644 127.625 497.185 127.198 495.019 126.344C492.852 125.469 491.019 124.271 489.519 122.75C488.04 121.229 486.904 119.479 486.112 117.5C485.342 115.521 484.956 113.427 484.956 111.219V110.031C484.956 107.552 485.3 105.26 485.987 103.156C486.675 101.031 487.696 99.1771 489.05 97.5938C490.404 96.0104 492.102 94.7812 494.144 93.9062C496.185 93.0104 498.56 92.5625 501.269 92.5625C503.665 92.5625 505.81 92.9479 507.706 93.7188C509.602 94.4896 511.206 95.5938 512.519 97.0312C513.852 98.4688 514.862 100.208 515.55 102.25C516.258 104.292 516.612 106.583 516.612 109.125V113.406H488.987V106.812H506.331V106C506.352 104.875 506.154 103.917 505.737 103.125C505.342 102.333 504.758 101.729 503.987 101.312C503.217 100.896 502.279 100.688 501.175 100.688C500.029 100.688 499.081 100.938 498.331 101.438C497.602 101.938 497.029 102.625 496.612 103.5C496.217 104.354 495.935 105.344 495.769 106.469C495.602 107.594 495.519 108.781 495.519 110.031V111.219C495.519 112.469 495.685 113.604 496.019 114.625C496.373 115.646 496.873 116.521 497.519 117.25C498.185 117.958 498.977 118.51 499.894 118.906C500.831 119.302 501.894 119.5 503.081 119.5C504.519 119.5 505.935 119.229 507.331 118.688C508.727 118.146 509.925 117.25 510.925 116L515.706 121.688C515.019 122.667 514.04 123.615 512.769 124.531C511.519 125.448 510.019 126.198 508.269 126.781C506.519 127.344 504.56 127.625 502.394 127.625ZM537.095 119.5C538.074 119.5 538.907 119.323 539.595 118.969C540.303 118.594 540.835 118.073 541.189 117.406C541.564 116.719 541.741 115.896 541.72 114.938H551.626C551.647 117.479 551.022 119.708 549.751 121.625C548.501 123.521 546.793 125 544.626 126.062C542.48 127.104 540.053 127.625 537.345 127.625C534.699 127.625 532.387 127.198 530.407 126.344C528.428 125.469 526.772 124.26 525.439 122.719C524.126 121.156 523.137 119.333 522.47 117.25C521.824 115.167 521.501 112.906 521.501 110.469V109.75C521.501 107.312 521.824 105.052 522.47 102.969C523.137 100.865 524.126 99.0417 525.439 97.5C526.772 95.9375 528.418 94.7292 530.376 93.875C532.355 93 534.657 92.5625 537.282 92.5625C540.095 92.5625 542.574 93.0938 544.72 94.1562C546.887 95.2188 548.585 96.7604 549.814 98.7812C551.043 100.802 551.647 103.25 551.626 106.125H541.72C541.741 105.104 541.585 104.188 541.251 103.375C540.918 102.562 540.397 101.917 539.689 101.438C539.001 100.938 538.116 100.688 537.032 100.688C535.949 100.688 535.074 100.927 534.407 101.406C533.741 101.885 533.23 102.552 532.876 103.406C532.543 104.24 532.314 105.198 532.189 106.281C532.085 107.365 532.032 108.521 532.032 109.75V110.469C532.032 111.719 532.085 112.896 532.189 114C532.314 115.083 532.553 116.042 532.907 116.875C533.262 117.688 533.772 118.333 534.439 118.812C535.105 119.271 535.991 119.5 537.095 119.5ZM568.359 79V127H557.828V79H568.359ZM567.109 108.938L564.64 109C564.64 106.625 564.932 104.438 565.515 102.438C566.098 100.438 566.932 98.6979 568.015 97.2188C569.098 95.7396 570.4 94.5938 571.921 93.7812C573.442 92.9688 575.13 92.5625 576.984 92.5625C578.65 92.5625 580.171 92.8021 581.546 93.2812C582.942 93.7604 584.14 94.5312 585.14 95.5938C586.161 96.6562 586.942 98.0417 587.484 99.75C588.046 101.458 588.328 103.542 588.328 106V127H577.734V105.938C577.734 104.562 577.536 103.5 577.14 102.75C576.765 101.979 576.223 101.448 575.515 101.156C574.807 100.844 573.942 100.688 572.921 100.688C571.692 100.688 570.692 100.896 569.921 101.312C569.15 101.729 568.557 102.312 568.14 103.062C567.744 103.792 567.473 104.656 567.328 105.656C567.182 106.656 567.109 107.75 567.109 108.938ZM606.435 100.406V127H595.904V93.1875H605.779L606.435 100.406ZM605.185 108.938L602.716 109C602.716 106.417 603.029 104.115 603.654 102.094C604.279 100.052 605.164 98.3229 606.31 96.9062C607.456 95.4896 608.82 94.4167 610.404 93.6875C612.008 92.9375 613.789 92.5625 615.747 92.5625C617.31 92.5625 618.737 92.7917 620.029 93.25C621.341 93.7083 622.466 94.4479 623.404 95.4688C624.362 96.4896 625.091 97.8438 625.591 99.5312C626.112 101.198 626.372 103.26 626.372 105.719V127H615.779V105.688C615.779 104.333 615.591 103.302 615.216 102.594C614.841 101.865 614.3 101.365 613.591 101.094C612.883 100.823 612.018 100.688 610.997 100.688C609.914 100.688 608.997 100.896 608.247 101.312C607.497 101.729 606.893 102.312 606.435 103.062C605.997 103.792 605.675 104.656 605.466 105.656C605.279 106.656 605.185 107.75 605.185 108.938ZM645.261 93.1875V127H634.699V93.1875H645.261ZM634.074 84.4688C634.074 82.9688 634.615 81.7396 635.699 80.7812C636.782 79.8229 638.188 79.3438 639.917 79.3438C641.647 79.3438 643.053 79.8229 644.136 80.7812C645.22 81.7396 645.761 82.9688 645.761 84.4688C645.761 85.9688 645.22 87.1979 644.136 88.1562C643.053 89.1146 641.647 89.5938 639.917 89.5938C638.188 89.5938 636.782 89.1146 635.699 88.1562C634.615 87.1979 634.074 85.9688 634.074 84.4688ZM667.963 119.5C668.942 119.5 669.775 119.323 670.463 118.969C671.171 118.594 671.702 118.073 672.056 117.406C672.431 116.719 672.608 115.896 672.588 114.938H682.494C682.515 117.479 681.89 119.708 680.619 121.625C679.369 123.521 677.66 125 675.494 126.062C673.348 127.104 670.921 127.625 668.213 127.625C665.567 127.625 663.254 127.198 661.275 126.344C659.296 125.469 657.64 124.26 656.306 122.719C654.994 121.156 654.004 119.333 653.338 117.25C652.692 115.167 652.369 112.906 652.369 110.469V109.75C652.369 107.312 652.692 105.052 653.338 102.969C654.004 100.865 654.994 99.0417 656.306 97.5C657.64 95.9375 659.285 94.7292 661.244 93.875C663.223 93 665.525 92.5625 668.15 92.5625C670.963 92.5625 673.442 93.0938 675.588 94.1562C677.754 95.2188 679.452 96.7604 680.681 98.7812C681.91 100.802 682.515 103.25 682.494 106.125H672.588C672.608 105.104 672.452 104.188 672.119 103.375C671.785 102.562 671.265 101.917 670.556 101.438C669.869 100.938 668.983 100.688 667.9 100.688C666.817 100.688 665.942 100.927 665.275 101.406C664.608 101.885 664.098 102.552 663.744 103.406C663.41 104.24 663.181 105.198 663.056 106.281C662.952 107.365 662.9 108.521 662.9 109.75V110.469C662.9 111.719 662.952 112.896 663.056 114C663.181 115.083 663.421 116.042 663.775 116.875C664.129 117.688 664.64 118.333 665.306 118.812C665.973 119.271 666.858 119.5 667.963 119.5ZM706.476 118.5V104.562C706.476 103.604 706.341 102.781 706.07 102.094C705.799 101.406 705.372 100.875 704.789 100.5C704.205 100.104 703.424 99.9062 702.445 99.9062C701.653 99.9062 700.976 100.042 700.414 100.312C699.851 100.583 699.424 100.99 699.133 101.531C698.841 102.073 698.695 102.76 698.695 103.594H688.164C688.164 102.031 688.508 100.583 689.195 99.25C689.903 97.8958 690.903 96.7188 692.195 95.7188C693.508 94.7188 695.07 93.9479 696.883 93.4062C698.716 92.8438 700.758 92.5625 703.008 92.5625C705.695 92.5625 708.091 93.0104 710.195 93.9062C712.32 94.8021 713.997 96.1458 715.226 97.9375C716.455 99.7083 717.07 101.938 717.07 104.625V118.469C717.07 120.677 717.195 122.354 717.445 123.5C717.695 124.625 718.049 125.615 718.508 126.469V127H707.945C707.445 125.958 707.07 124.688 706.82 123.188C706.591 121.667 706.476 120.104 706.476 118.5ZM707.758 106.344L707.82 111.969H703.164C702.185 111.969 701.351 112.104 700.664 112.375C699.997 112.646 699.455 113.021 699.039 113.5C698.643 113.958 698.351 114.479 698.164 115.062C697.997 115.646 697.914 116.26 697.914 116.906C697.914 117.531 698.06 118.094 698.351 118.594C698.664 119.073 699.08 119.448 699.601 119.719C700.122 119.99 700.705 120.125 701.351 120.125C702.518 120.125 703.508 119.906 704.32 119.469C705.153 119.01 705.789 118.458 706.226 117.812C706.664 117.167 706.883 116.562 706.883 116L709.195 120.312C708.778 121.146 708.299 121.99 707.758 122.844C707.237 123.698 706.58 124.49 705.789 125.219C705.018 125.927 704.07 126.51 702.945 126.969C701.82 127.406 700.455 127.625 698.851 127.625C696.768 127.625 694.851 127.198 693.101 126.344C691.372 125.49 689.987 124.302 688.945 122.781C687.903 121.24 687.383 119.469 687.383 117.469C687.383 115.719 687.695 114.156 688.32 112.781C688.966 111.406 689.935 110.24 691.226 109.281C692.518 108.323 694.164 107.594 696.164 107.094C698.164 106.594 700.518 106.344 703.226 106.344H707.758ZM735.959 79V127H725.396V79H735.959ZM781.674 119.25V79H792.268V127H782.768L781.674 119.25ZM760.924 110.5V109.844C760.924 107.281 761.205 104.948 761.768 102.844C762.33 100.719 763.163 98.8958 764.268 97.375C765.372 95.8333 766.747 94.6458 768.393 93.8125C770.038 92.9792 771.934 92.5625 774.08 92.5625C775.997 92.5625 777.674 93.0104 779.111 93.9062C780.549 94.7812 781.778 96.0104 782.799 97.5938C783.82 99.1771 784.653 101.031 785.299 103.156C785.945 105.26 786.434 107.531 786.768 109.969V110.75C786.434 113.042 785.945 115.208 785.299 117.25C784.653 119.271 783.82 121.062 782.799 122.625C781.778 124.188 780.538 125.417 779.08 126.312C777.643 127.188 775.955 127.625 774.018 127.625C771.872 127.625 769.976 127.198 768.33 126.344C766.705 125.49 765.34 124.292 764.236 122.75C763.153 121.208 762.33 119.396 761.768 117.312C761.205 115.229 760.924 112.958 760.924 110.5ZM771.455 109.844V110.5C771.455 111.771 771.538 112.948 771.705 114.031C771.872 115.115 772.153 116.073 772.549 116.906C772.965 117.719 773.507 118.354 774.174 118.812C774.861 119.271 775.705 119.5 776.705 119.5C778.059 119.5 779.174 119.177 780.049 118.531C780.945 117.885 781.601 116.969 782.018 115.781C782.455 114.594 782.643 113.198 782.58 111.594V109.125C782.622 107.75 782.528 106.542 782.299 105.5C782.07 104.438 781.705 103.552 781.205 102.844C780.726 102.135 780.111 101.604 779.361 101.25C778.632 100.875 777.768 100.688 776.768 100.688C775.788 100.688 774.955 100.917 774.268 101.375C773.601 101.833 773.059 102.479 772.643 103.312C772.226 104.125 771.924 105.094 771.736 106.219C771.549 107.323 771.455 108.531 771.455 109.844ZM817.719 118.5V104.562C817.719 103.604 817.583 102.781 817.312 102.094C817.042 101.406 816.615 100.875 816.031 100.5C815.448 100.104 814.667 99.9062 813.688 99.9062C812.896 99.9062 812.219 100.042 811.656 100.312C811.094 100.583 810.667 100.99 810.375 101.531C810.083 102.073 809.938 102.76 809.938 103.594H799.406C799.406 102.031 799.75 100.583 800.438 99.25C801.146 97.8958 802.146 96.7188 803.438 95.7188C804.75 94.7188 806.312 93.9479 808.125 93.4062C809.958 92.8438 812 92.5625 814.25 92.5625C816.938 92.5625 819.333 93.0104 821.438 93.9062C823.562 94.8021 825.24 96.1458 826.469 97.9375C827.698 99.7083 828.312 101.938 828.312 104.625V118.469C828.312 120.677 828.438 122.354 828.688 123.5C828.938 124.625 829.292 125.615 829.75 126.469V127H819.188C818.688 125.958 818.312 124.688 818.062 123.188C817.833 121.667 817.719 120.104 817.719 118.5ZM819 106.344L819.062 111.969H814.406C813.427 111.969 812.594 112.104 811.906 112.375C811.24 112.646 810.698 113.021 810.281 113.5C809.885 113.958 809.594 114.479 809.406 115.062C809.24 115.646 809.156 116.26 809.156 116.906C809.156 117.531 809.302 118.094 809.594 118.594C809.906 119.073 810.323 119.448 810.844 119.719C811.365 119.99 811.948 120.125 812.594 120.125C813.76 120.125 814.75 119.906 815.562 119.469C816.396 119.01 817.031 118.458 817.469 117.812C817.906 117.167 818.125 116.562 818.125 116L820.438 120.312C820.021 121.146 819.542 121.99 819 122.844C818.479 123.698 817.823 124.49 817.031 125.219C816.26 125.927 815.312 126.51 814.188 126.969C813.062 127.406 811.698 127.625 810.094 127.625C808.01 127.625 806.094 127.198 804.344 126.344C802.615 125.49 801.229 124.302 800.188 122.781C799.146 121.24 798.625 119.469 798.625 117.469C798.625 115.719 798.938 114.156 799.562 112.781C800.208 111.406 801.177 110.24 802.469 109.281C803.76 108.323 805.406 107.594 807.406 107.094C809.406 106.594 811.76 106.344 814.469 106.344H819ZM853.889 93.1875V100.5H833.514V93.1875H853.889ZM837.795 84.7812H848.326V115.969C848.326 116.865 848.43 117.562 848.639 118.062C848.847 118.542 849.201 118.885 849.701 119.094C850.222 119.281 850.91 119.375 851.764 119.375C852.368 119.375 852.868 119.365 853.264 119.344C853.66 119.302 854.035 119.25 854.389 119.188V126.719C853.493 127.01 852.555 127.229 851.576 127.375C850.597 127.542 849.555 127.625 848.451 127.625C846.201 127.625 844.274 127.271 842.67 126.562C841.087 125.854 839.878 124.74 839.045 123.219C838.212 121.698 837.795 119.719 837.795 117.281V84.7812ZM877.559 118.5V104.562C877.559 103.604 877.423 102.781 877.153 102.094C876.882 101.406 876.455 100.875 875.871 100.5C875.288 100.104 874.507 99.9062 873.528 99.9062C872.736 99.9062 872.059 100.042 871.496 100.312C870.934 100.583 870.507 100.99 870.215 101.531C869.923 102.073 869.778 102.76 869.778 103.594H859.246C859.246 102.031 859.59 100.583 860.278 99.25C860.986 97.8958 861.986 96.7188 863.278 95.7188C864.59 94.7188 866.153 93.9479 867.965 93.4062C869.798 92.8438 871.84 92.5625 874.09 92.5625C876.778 92.5625 879.173 93.0104 881.278 93.9062C883.403 94.8021 885.08 96.1458 886.309 97.9375C887.538 99.7083 888.153 101.938 888.153 104.625V118.469C888.153 120.677 888.278 122.354 888.528 123.5C888.778 124.625 889.132 125.615 889.59 126.469V127H879.028C878.528 125.958 878.153 124.688 877.903 123.188C877.673 121.667 877.559 120.104 877.559 118.5ZM878.84 106.344L878.903 111.969H874.246C873.267 111.969 872.434 112.104 871.746 112.375C871.08 112.646 870.538 113.021 870.121 113.5C869.725 113.958 869.434 114.479 869.246 115.062C869.08 115.646 868.996 116.26 868.996 116.906C868.996 117.531 869.142 118.094 869.434 118.594C869.746 119.073 870.163 119.448 870.684 119.719C871.205 119.99 871.788 120.125 872.434 120.125C873.6 120.125 874.59 119.906 875.403 119.469C876.236 119.01 876.871 118.458 877.309 117.812C877.746 117.167 877.965 116.562 877.965 116L880.278 120.312C879.861 121.146 879.382 121.99 878.84 122.844C878.319 123.698 877.663 124.49 876.871 125.219C876.1 125.927 875.153 126.51 874.028 126.969C872.903 127.406 871.538 127.625 869.934 127.625C867.85 127.625 865.934 127.198 864.184 126.344C862.455 125.49 861.069 124.302 860.028 122.781C858.986 121.24 858.465 119.469 858.465 117.469C858.465 115.719 858.778 114.156 859.403 112.781C860.048 111.406 861.017 110.24 862.309 109.281C863.6 108.323 865.246 107.594 867.246 107.094C869.246 106.594 871.6 106.344 874.309 106.344H878.84ZM19.5312 197.5V183.562C19.5312 182.604 19.3958 181.781 19.125 181.094C18.8542 180.406 18.4271 179.875 17.8438 179.5C17.2604 179.104 16.4792 178.906 15.5 178.906C14.7083 178.906 14.0312 179.042 13.4688 179.312C12.9062 179.583 12.4792 179.99 12.1875 180.531C11.8958 181.073 11.75 181.76 11.75 182.594H1.21875C1.21875 181.031 1.5625 179.583 2.25 178.25C2.95833 176.896 3.95833 175.719 5.25 174.719C6.5625 173.719 8.125 172.948 9.9375 172.406C11.7708 171.844 13.8125 171.562 16.0625 171.562C18.75 171.562 21.1458 172.01 23.25 172.906C25.375 173.802 27.0521 175.146 28.2812 176.938C29.5104 178.708 30.125 180.938 30.125 183.625V197.469C30.125 199.677 30.25 201.354 30.5 202.5C30.75 203.625 31.1042 204.615 31.5625 205.469V206H21C20.5 204.958 20.125 203.688 19.875 202.188C19.6458 200.667 19.5312 199.104 19.5312 197.5ZM20.8125 185.344L20.875 190.969H16.2188C15.2396 190.969 14.4062 191.104 13.7188 191.375C13.0521 191.646 12.5104 192.021 12.0938 192.5C11.6979 192.958 11.4062 193.479 11.2188 194.062C11.0521 194.646 10.9688 195.26 10.9688 195.906C10.9688 196.531 11.1146 197.094 11.4062 197.594C11.7188 198.073 12.1354 198.448 12.6562 198.719C13.1771 198.99 13.7604 199.125 14.4062 199.125C15.5729 199.125 16.5625 198.906 17.375 198.469C18.2083 198.01 18.8438 197.458 19.2812 196.812C19.7188 196.167 19.9375 195.562 19.9375 195L22.25 199.312C21.8333 200.146 21.3542 200.99 20.8125 201.844C20.2917 202.698 19.6354 203.49 18.8438 204.219C18.0729 204.927 17.125 205.51 16 205.969C14.875 206.406 13.5104 206.625 11.9062 206.625C9.82292 206.625 7.90625 206.198 6.15625 205.344C4.42708 204.49 3.04167 203.302 2 201.781C0.958333 200.24 0.4375 198.469 0.4375 196.469C0.4375 194.719 0.75 193.156 1.375 191.781C2.02083 190.406 2.98958 189.24 4.28125 188.281C5.57292 187.323 7.21875 186.594 9.21875 186.094C11.2188 185.594 13.5729 185.344 16.2812 185.344H20.8125ZM48.5137 180.562V206H37.9825V172.188H47.8262L48.5137 180.562ZM58.5137 171.938L58.3262 181.719C57.9096 181.677 57.3471 181.625 56.6387 181.562C55.9304 181.5 55.3367 181.469 54.8575 181.469C53.6283 181.469 52.5658 181.615 51.67 181.906C50.795 182.177 50.0658 182.594 49.4825 183.156C48.92 183.698 48.5033 184.385 48.2325 185.219C47.9825 186.052 47.8679 187.021 47.8887 188.125L45.9825 186.875C45.9825 184.604 46.2012 182.542 46.6387 180.688C47.0971 178.812 47.7429 177.198 48.5762 175.844C49.4096 174.469 50.42 173.417 51.6075 172.688C52.795 171.938 54.1283 171.562 55.6075 171.562C56.1283 171.562 56.6387 171.594 57.1387 171.656C57.6596 171.719 58.1179 171.812 58.5137 171.938ZM79.8088 206.625C77.0588 206.625 74.6004 206.198 72.4338 205.344C70.2671 204.469 68.4338 203.271 66.9338 201.75C65.4546 200.229 64.3192 198.479 63.5275 196.5C62.7567 194.521 62.3713 192.427 62.3713 190.219V189.031C62.3713 186.552 62.715 184.26 63.4025 182.156C64.09 180.031 65.1108 178.177 66.465 176.594C67.8192 175.01 69.5171 173.781 71.5588 172.906C73.6004 172.01 75.9754 171.562 78.6838 171.562C81.0796 171.562 83.2254 171.948 85.1213 172.719C87.0171 173.49 88.6213 174.594 89.9338 176.031C91.2671 177.469 92.2775 179.208 92.965 181.25C93.6733 183.292 94.0275 185.583 94.0275 188.125V192.406H66.4025V185.812H83.7463V185C83.7671 183.875 83.5692 182.917 83.1525 182.125C82.7567 181.333 82.1733 180.729 81.4025 180.312C80.6317 179.896 79.6942 179.688 78.59 179.688C77.4442 179.688 76.4963 179.938 75.7463 180.438C75.0171 180.938 74.4442 181.625 74.0275 182.5C73.6317 183.354 73.3504 184.344 73.1838 185.469C73.0171 186.594 72.9338 187.781 72.9338 189.031V190.219C72.9338 191.469 73.1004 192.604 73.4338 193.625C73.7879 194.646 74.2879 195.521 74.9338 196.25C75.6004 196.958 76.3921 197.51 77.3088 197.906C78.2463 198.302 79.3088 198.5 80.4963 198.5C81.9338 198.5 83.3504 198.229 84.7463 197.688C86.1421 197.146 87.34 196.25 88.34 195L93.1213 200.688C92.4338 201.667 91.4546 202.615 90.1838 203.531C88.9338 204.448 87.4338 205.198 85.6838 205.781C83.9338 206.344 81.9754 206.625 79.8088 206.625ZM135.805 196.5C135.805 195.917 135.607 195.417 135.211 195C134.836 194.562 134.17 194.167 133.211 193.812C132.253 193.438 130.909 193.062 129.18 192.688C127.534 192.333 125.982 191.865 124.524 191.281C123.086 190.698 121.826 189.99 120.743 189.156C119.659 188.323 118.805 187.333 118.18 186.188C117.576 185.042 117.274 183.729 117.274 182.25C117.274 180.812 117.576 179.458 118.18 178.188C118.805 176.896 119.711 175.76 120.899 174.781C122.107 173.781 123.576 173 125.305 172.438C127.034 171.854 129.003 171.562 131.211 171.562C134.253 171.562 136.878 172.031 139.086 172.969C141.295 173.885 142.993 175.177 144.18 176.844C145.388 178.49 145.993 180.396 145.993 182.562H135.461C135.461 181.708 135.315 180.979 135.024 180.375C134.753 179.771 134.305 179.312 133.68 179C133.055 178.667 132.222 178.5 131.18 178.5C130.451 178.5 129.784 178.635 129.18 178.906C128.597 179.177 128.128 179.552 127.774 180.031C127.42 180.51 127.243 181.073 127.243 181.719C127.243 182.177 127.347 182.594 127.555 182.969C127.784 183.323 128.128 183.656 128.586 183.969C129.045 184.26 129.628 184.531 130.336 184.781C131.045 185.01 131.899 185.219 132.899 185.406C135.17 185.823 137.295 186.417 139.274 187.188C141.253 187.958 142.857 189.052 144.086 190.469C145.336 191.885 145.961 193.792 145.961 196.188C145.961 197.688 145.618 199.073 144.93 200.344C144.243 201.594 143.253 202.698 141.961 203.656C140.67 204.594 139.118 205.323 137.305 205.844C135.493 206.365 133.451 206.625 131.18 206.625C127.951 206.625 125.222 206.052 122.993 204.906C120.763 203.74 119.076 202.281 117.93 200.531C116.805 198.76 116.243 196.969 116.243 195.156H126.055C126.097 196.198 126.347 197.052 126.805 197.719C127.284 198.385 127.92 198.875 128.711 199.188C129.503 199.5 130.42 199.656 131.461 199.656C132.42 199.656 133.211 199.521 133.836 199.25C134.482 198.979 134.972 198.615 135.305 198.156C135.638 197.677 135.805 197.125 135.805 196.5ZM169.194 206.625C166.444 206.625 163.985 206.198 161.819 205.344C159.652 204.469 157.819 203.271 156.319 201.75C154.84 200.229 153.704 198.479 152.913 196.5C152.142 194.521 151.756 192.427 151.756 190.219V189.031C151.756 186.552 152.1 184.26 152.788 182.156C153.475 180.031 154.496 178.177 155.85 176.594C157.204 175.01 158.902 173.781 160.944 172.906C162.985 172.01 165.36 171.562 168.069 171.562C170.465 171.562 172.61 171.948 174.506 172.719C176.402 173.49 178.006 174.594 179.319 176.031C180.652 177.469 181.663 179.208 182.35 181.25C183.058 183.292 183.413 185.583 183.413 188.125V192.406H155.788V185.812H173.131V185C173.152 183.875 172.954 182.917 172.538 182.125C172.142 181.333 171.558 180.729 170.788 180.312C170.017 179.896 169.079 179.688 167.975 179.688C166.829 179.688 165.881 179.938 165.131 180.438C164.402 180.938 163.829 181.625 163.413 182.5C163.017 183.354 162.735 184.344 162.569 185.469C162.402 186.594 162.319 187.781 162.319 189.031V190.219C162.319 191.469 162.485 192.604 162.819 193.625C163.173 194.646 163.673 195.521 164.319 196.25C164.985 196.958 165.777 197.51 166.694 197.906C167.631 198.302 168.694 198.5 169.881 198.5C171.319 198.5 172.735 198.229 174.131 197.688C175.527 197.146 176.725 196.25 177.725 195L182.506 200.688C181.819 201.667 180.84 202.615 179.569 203.531C178.319 204.448 176.819 205.198 175.069 205.781C173.319 206.344 171.36 206.625 169.194 206.625ZM207.176 197.5V183.562C207.176 182.604 207.041 181.781 206.77 181.094C206.499 180.406 206.072 179.875 205.489 179.5C204.905 179.104 204.124 178.906 203.145 178.906C202.353 178.906 201.676 179.042 201.114 179.312C200.551 179.583 200.124 179.99 199.833 180.531C199.541 181.073 199.395 181.76 199.395 182.594H188.864C188.864 181.031 189.208 179.583 189.895 178.25C190.603 176.896 191.603 175.719 192.895 174.719C194.208 173.719 195.77 172.948 197.583 172.406C199.416 171.844 201.458 171.562 203.708 171.562C206.395 171.562 208.791 172.01 210.895 172.906C213.02 173.802 214.697 175.146 215.926 176.938C217.155 178.708 217.77 180.938 217.77 183.625V197.469C217.77 199.677 217.895 201.354 218.145 202.5C218.395 203.625 218.749 204.615 219.208 205.469V206H208.645C208.145 204.958 207.77 203.688 207.52 202.188C207.291 200.667 207.176 199.104 207.176 197.5ZM208.458 185.344L208.52 190.969H203.864C202.885 190.969 202.051 191.104 201.364 191.375C200.697 191.646 200.155 192.021 199.739 192.5C199.343 192.958 199.051 193.479 198.864 194.062C198.697 194.646 198.614 195.26 198.614 195.906C198.614 196.531 198.76 197.094 199.051 197.594C199.364 198.073 199.78 198.448 200.301 198.719C200.822 198.99 201.405 199.125 202.051 199.125C203.218 199.125 204.208 198.906 205.02 198.469C205.853 198.01 206.489 197.458 206.926 196.812C207.364 196.167 207.583 195.562 207.583 195L209.895 199.312C209.478 200.146 208.999 200.99 208.458 201.844C207.937 202.698 207.28 203.49 206.489 204.219C205.718 204.927 204.77 205.51 203.645 205.969C202.52 206.406 201.155 206.625 199.551 206.625C197.468 206.625 195.551 206.198 193.801 205.344C192.072 204.49 190.687 203.302 189.645 201.781C188.603 200.24 188.083 198.469 188.083 196.469C188.083 194.719 188.395 193.156 189.02 191.781C189.666 190.406 190.635 189.24 191.926 188.281C193.218 187.323 194.864 186.594 196.864 186.094C198.864 185.594 201.218 185.344 203.926 185.344H208.458ZM236.159 179.344V206H225.628V172.188H235.503L236.159 179.344ZM234.878 187.938L232.471 188C232.471 185.625 232.753 183.438 233.315 181.438C233.878 179.438 234.711 177.698 235.815 176.219C236.919 174.74 238.273 173.594 239.878 172.781C241.503 171.969 243.378 171.562 245.503 171.562C246.982 171.562 248.325 171.792 249.534 172.25C250.742 172.688 251.784 173.385 252.659 174.344C253.534 175.281 254.2 176.51 254.659 178.031C255.138 179.531 255.378 181.333 255.378 183.438V206H244.846V184.781C244.846 183.344 244.68 182.26 244.346 181.531C244.034 180.802 243.575 180.312 242.971 180.062C242.367 179.812 241.628 179.688 240.753 179.688C239.836 179.688 239.013 179.896 238.284 180.312C237.555 180.729 236.93 181.312 236.409 182.062C235.909 182.792 235.523 183.656 235.253 184.656C235.003 185.656 234.878 186.75 234.878 187.938ZM254.19 187.938L251.253 188C251.253 185.625 251.513 183.438 252.034 181.438C252.575 179.438 253.378 177.698 254.44 176.219C255.523 174.74 256.867 173.594 258.471 172.781C260.075 171.969 261.94 171.562 264.065 171.562C265.607 171.562 267.023 171.792 268.315 172.25C269.607 172.708 270.721 173.448 271.659 174.469C272.596 175.49 273.325 176.844 273.846 178.531C274.367 180.198 274.628 182.26 274.628 184.719V206H264.065V184.719C264.065 183.323 263.898 182.271 263.565 181.562C263.253 180.833 262.794 180.344 262.19 180.094C261.586 179.823 260.867 179.688 260.034 179.688C259.034 179.688 258.169 179.896 257.44 180.312C256.711 180.729 256.096 181.312 255.596 182.062C255.117 182.792 254.763 183.656 254.534 184.656C254.305 185.656 254.19 186.75 254.19 187.938ZM293.704 158V206H283.141V158H293.704ZM318.499 206.625C315.749 206.625 313.29 206.198 311.124 205.344C308.957 204.469 307.124 203.271 305.624 201.75C304.145 200.229 303.009 198.479 302.217 196.5C301.447 194.521 301.061 192.427 301.061 190.219V189.031C301.061 186.552 301.405 184.26 302.092 182.156C302.78 180.031 303.801 178.177 305.155 176.594C306.509 175.01 308.207 173.781 310.249 172.906C312.29 172.01 314.665 171.562 317.374 171.562C319.77 171.562 321.915 171.948 323.811 172.719C325.707 173.49 327.311 174.594 328.624 176.031C329.957 177.469 330.967 179.208 331.655 181.25C332.363 183.292 332.717 185.583 332.717 188.125V192.406H305.092V185.812H322.436V185C322.457 183.875 322.259 182.917 321.842 182.125C321.447 181.333 320.863 180.729 320.092 180.312C319.322 179.896 318.384 179.688 317.28 179.688C316.134 179.688 315.186 179.938 314.436 180.438C313.707 180.938 313.134 181.625 312.717 182.5C312.322 183.354 312.04 184.344 311.874 185.469C311.707 186.594 311.624 187.781 311.624 189.031V190.219C311.624 191.469 311.79 192.604 312.124 193.625C312.478 194.646 312.978 195.521 313.624 196.25C314.29 196.958 315.082 197.51 315.999 197.906C316.936 198.302 317.999 198.5 319.186 198.5C320.624 198.5 322.04 198.229 323.436 197.688C324.832 197.146 326.03 196.25 327.03 195L331.811 200.688C331.124 201.667 330.145 202.615 328.874 203.531C327.624 204.448 326.124 205.198 324.374 205.781C322.624 206.344 320.665 206.625 318.499 206.625ZM356.638 196.5C356.638 195.917 356.44 195.417 356.044 195C355.669 194.562 355.002 194.167 354.044 193.812C353.085 193.438 351.742 193.062 350.013 192.688C348.367 192.333 346.815 191.865 345.356 191.281C343.919 190.698 342.658 189.99 341.575 189.156C340.492 188.323 339.638 187.333 339.013 186.188C338.408 185.042 338.106 183.729 338.106 182.25C338.106 180.812 338.408 179.458 339.013 178.188C339.638 176.896 340.544 175.76 341.731 174.781C342.94 173.781 344.408 173 346.138 172.438C347.867 171.854 349.835 171.562 352.044 171.562C355.085 171.562 357.71 172.031 359.919 172.969C362.127 173.885 363.825 175.177 365.013 176.844C366.221 178.49 366.825 180.396 366.825 182.562H356.294C356.294 181.708 356.148 180.979 355.856 180.375C355.585 179.771 355.138 179.312 354.513 179C353.888 178.667 353.054 178.5 352.013 178.5C351.283 178.5 350.617 178.635 350.013 178.906C349.429 179.177 348.96 179.552 348.606 180.031C348.252 180.51 348.075 181.073 348.075 181.719C348.075 182.177 348.179 182.594 348.388 182.969C348.617 183.323 348.96 183.656 349.419 183.969C349.877 184.26 350.46 184.531 351.169 184.781C351.877 185.01 352.731 185.219 353.731 185.406C356.002 185.823 358.127 186.417 360.106 187.188C362.085 187.958 363.69 189.052 364.919 190.469C366.169 191.885 366.794 193.792 366.794 196.188C366.794 197.688 366.45 199.073 365.763 200.344C365.075 201.594 364.085 202.698 362.794 203.656C361.502 204.594 359.95 205.323 358.138 205.844C356.325 206.365 354.283 206.625 352.013 206.625C348.783 206.625 346.054 206.052 343.825 204.906C341.596 203.74 339.908 202.281 338.763 200.531C337.638 198.76 337.075 196.969 337.075 195.156H346.888C346.929 196.198 347.179 197.052 347.638 197.719C348.117 198.385 348.752 198.875 349.544 199.188C350.335 199.5 351.252 199.656 352.294 199.656C353.252 199.656 354.044 199.521 354.669 199.25C355.315 198.979 355.804 198.615 356.138 198.156C356.471 197.677 356.638 197.125 356.638 196.5ZM391.37 196.5C391.37 195.917 391.172 195.417 390.776 195C390.401 194.562 389.735 194.167 388.776 193.812C387.818 193.438 386.474 193.062 384.745 192.688C383.099 192.333 381.547 191.865 380.089 191.281C378.651 190.698 377.391 189.99 376.307 189.156C375.224 188.323 374.37 187.333 373.745 186.188C373.141 185.042 372.839 183.729 372.839 182.25C372.839 180.812 373.141 179.458 373.745 178.188C374.37 176.896 375.276 175.76 376.464 174.781C377.672 173.781 379.141 173 380.87 172.438C382.599 171.854 384.568 171.562 386.776 171.562C389.818 171.562 392.443 172.031 394.651 172.969C396.86 173.885 398.557 175.177 399.745 176.844C400.953 178.49 401.557 180.396 401.557 182.562H391.026C391.026 181.708 390.88 180.979 390.589 180.375C390.318 179.771 389.87 179.312 389.245 179C388.62 178.667 387.787 178.5 386.745 178.5C386.016 178.5 385.349 178.635 384.745 178.906C384.162 179.177 383.693 179.552 383.339 180.031C382.985 180.51 382.807 181.073 382.807 181.719C382.807 182.177 382.912 182.594 383.12 182.969C383.349 183.323 383.693 183.656 384.151 183.969C384.61 184.26 385.193 184.531 385.901 184.781C386.61 185.01 387.464 185.219 388.464 185.406C390.735 185.823 392.86 186.417 394.839 187.188C396.818 187.958 398.422 189.052 399.651 190.469C400.901 191.885 401.526 193.792 401.526 196.188C401.526 197.688 401.182 199.073 400.495 200.344C399.807 201.594 398.818 202.698 397.526 203.656C396.235 204.594 394.682 205.323 392.87 205.844C391.057 206.365 389.016 206.625 386.745 206.625C383.516 206.625 380.787 206.052 378.557 204.906C376.328 203.74 374.641 202.281 373.495 200.531C372.37 198.76 371.807 196.969 371.807 195.156H381.62C381.662 196.198 381.912 197.052 382.37 197.719C382.849 198.385 383.485 198.875 384.276 199.188C385.068 199.5 385.985 199.656 387.026 199.656C387.985 199.656 388.776 199.521 389.401 199.25C390.047 198.979 390.537 198.615 390.87 198.156C391.203 197.677 391.37 197.125 391.37 196.5ZM419.509 158V206H408.946V158H419.509ZM438.304 202.031L447.054 172.188H458.366L444.772 211.031C444.481 211.885 444.095 212.802 443.616 213.781C443.137 214.781 442.481 215.729 441.647 216.625C440.814 217.521 439.741 218.25 438.429 218.812C437.137 219.375 435.533 219.656 433.616 219.656C432.595 219.656 431.845 219.604 431.366 219.5C430.908 219.417 430.2 219.26 429.241 219.031V211.5C429.512 211.5 429.741 211.5 429.929 211.5C430.137 211.5 430.366 211.5 430.616 211.5C431.741 211.5 432.637 211.385 433.304 211.156C433.991 210.927 434.512 210.594 434.866 210.156C435.241 209.719 435.533 209.188 435.741 208.562L438.304 202.031ZM436.085 172.188L442.741 195.844L443.897 207H436.835L424.804 172.188H436.085ZM495.175 198.5C496.154 198.5 496.987 198.323 497.675 197.969C498.383 197.594 498.915 197.073 499.269 196.406C499.644 195.719 499.821 194.896 499.8 193.938H509.706C509.727 196.479 509.102 198.708 507.831 200.625C506.581 202.521 504.873 204 502.706 205.062C500.56 206.104 498.133 206.625 495.425 206.625C492.779 206.625 490.467 206.198 488.487 205.344C486.508 204.469 484.852 203.26 483.519 201.719C482.206 200.156 481.217 198.333 480.55 196.25C479.904 194.167 479.581 191.906 479.581 189.469V188.75C479.581 186.312 479.904 184.052 480.55 181.969C481.217 179.865 482.206 178.042 483.519 176.5C484.852 174.938 486.498 173.729 488.456 172.875C490.435 172 492.737 171.562 495.362 171.562C498.175 171.562 500.654 172.094 502.8 173.156C504.967 174.219 506.665 175.76 507.894 177.781C509.123 179.802 509.727 182.25 509.706 185.125H499.8C499.821 184.104 499.665 183.188 499.331 182.375C498.998 181.562 498.477 180.917 497.769 180.438C497.081 179.938 496.196 179.688 495.112 179.688C494.029 179.688 493.154 179.927 492.487 180.406C491.821 180.885 491.31 181.552 490.956 182.406C490.623 183.24 490.394 184.198 490.269 185.281C490.165 186.365 490.112 187.521 490.112 188.75V189.469C490.112 190.719 490.165 191.896 490.269 193C490.394 194.083 490.633 195.042 490.987 195.875C491.342 196.688 491.852 197.333 492.519 197.812C493.185 198.271 494.071 198.5 495.175 198.5ZM514.814 189.438V188.781C514.814 186.302 515.168 184.021 515.876 181.938C516.585 179.833 517.626 178.01 519.001 176.469C520.376 174.927 522.074 173.729 524.095 172.875C526.116 172 528.449 171.562 531.095 171.562C533.762 171.562 536.105 172 538.126 172.875C540.168 173.729 541.876 174.927 543.251 176.469C544.626 178.01 545.668 179.833 546.376 181.938C547.085 184.021 547.439 186.302 547.439 188.781V189.438C547.439 191.896 547.085 194.177 546.376 196.281C545.668 198.365 544.626 200.188 543.251 201.75C541.876 203.292 540.178 204.49 538.157 205.344C536.137 206.198 533.803 206.625 531.157 206.625C528.512 206.625 526.168 206.198 524.126 205.344C522.085 204.49 520.376 203.292 519.001 201.75C517.626 200.188 516.585 198.365 515.876 196.281C515.168 194.177 514.814 191.896 514.814 189.438ZM525.345 188.781V189.438C525.345 190.708 525.439 191.896 525.626 193C525.814 194.104 526.126 195.073 526.564 195.906C527.001 196.719 527.595 197.354 528.345 197.812C529.095 198.271 530.032 198.5 531.157 198.5C532.262 198.5 533.178 198.271 533.907 197.812C534.657 197.354 535.251 196.719 535.689 195.906C536.126 195.073 536.439 194.104 536.626 193C536.814 191.896 536.907 190.708 536.907 189.438V188.781C536.907 187.552 536.814 186.396 536.626 185.312C536.439 184.208 536.126 183.24 535.689 182.406C535.251 181.552 534.657 180.885 533.907 180.406C533.157 179.927 532.22 179.688 531.095 179.688C529.991 179.688 529.064 179.927 528.314 180.406C527.585 180.885 527.001 181.552 526.564 182.406C526.126 183.24 525.814 184.208 525.626 185.312C525.439 186.396 525.345 187.552 525.345 188.781ZM564.39 179.406V206H553.859V172.188H563.734L564.39 179.406ZM563.14 187.938L560.671 188C560.671 185.417 560.984 183.115 561.609 181.094C562.234 179.052 563.119 177.323 564.265 175.906C565.411 174.49 566.775 173.417 568.359 172.688C569.963 171.938 571.744 171.562 573.703 171.562C575.265 171.562 576.692 171.792 577.984 172.25C579.296 172.708 580.421 173.448 581.359 174.469C582.317 175.49 583.046 176.844 583.546 178.531C584.067 180.198 584.328 182.26 584.328 184.719V206H573.734V184.688C573.734 183.333 573.546 182.302 573.171 181.594C572.796 180.865 572.255 180.365 571.546 180.094C570.838 179.823 569.973 179.688 568.953 179.688C567.869 179.688 566.953 179.896 566.203 180.312C565.453 180.729 564.848 181.312 564.39 182.062C563.953 182.792 563.63 183.656 563.421 184.656C563.234 185.656 563.14 186.75 563.14 187.938ZM602.435 179.406V206H591.904V172.188H601.779L602.435 179.406ZM601.185 187.938L598.716 188C598.716 185.417 599.029 183.115 599.654 181.094C600.279 179.052 601.164 177.323 602.31 175.906C603.456 174.49 604.82 173.417 606.404 172.688C608.008 171.938 609.789 171.562 611.747 171.562C613.31 171.562 614.737 171.792 616.029 172.25C617.341 172.708 618.466 173.448 619.404 174.469C620.362 175.49 621.091 176.844 621.591 178.531C622.112 180.198 622.372 182.26 622.372 184.719V206H611.779V184.688C611.779 183.333 611.591 182.302 611.216 181.594C610.841 180.865 610.3 180.365 609.591 180.094C608.883 179.823 608.018 179.688 606.997 179.688C605.914 179.688 604.997 179.896 604.247 180.312C603.497 180.729 602.893 181.312 602.435 182.062C601.997 182.792 601.675 183.656 601.466 184.656C601.279 185.656 601.185 186.75 601.185 187.938ZM646.511 206.625C643.761 206.625 641.303 206.198 639.136 205.344C636.97 204.469 635.136 203.271 633.636 201.75C632.157 200.229 631.022 198.479 630.23 196.5C629.459 194.521 629.074 192.427 629.074 190.219V189.031C629.074 186.552 629.417 184.26 630.105 182.156C630.792 180.031 631.813 178.177 633.167 176.594C634.522 175.01 636.22 173.781 638.261 172.906C640.303 172.01 642.678 171.562 645.386 171.562C647.782 171.562 649.928 171.948 651.824 172.719C653.72 173.49 655.324 174.594 656.636 176.031C657.97 177.469 658.98 179.208 659.667 181.25C660.376 183.292 660.73 185.583 660.73 188.125V192.406H633.105V185.812H650.449V185C650.47 183.875 650.272 182.917 649.855 182.125C649.459 181.333 648.876 180.729 648.105 180.312C647.334 179.896 646.397 179.688 645.292 179.688C644.147 179.688 643.199 179.938 642.449 180.438C641.72 180.938 641.147 181.625 640.73 182.5C640.334 183.354 640.053 184.344 639.886 185.469C639.72 186.594 639.636 187.781 639.636 189.031V190.219C639.636 191.469 639.803 192.604 640.136 193.625C640.49 194.646 640.99 195.521 641.636 196.25C642.303 196.958 643.095 197.51 644.011 197.906C644.949 198.302 646.011 198.5 647.199 198.5C648.636 198.5 650.053 198.229 651.449 197.688C652.845 197.146 654.042 196.25 655.042 195L659.824 200.688C659.136 201.667 658.157 202.615 656.886 203.531C655.636 204.448 654.136 205.198 652.386 205.781C650.636 206.344 648.678 206.625 646.511 206.625ZM681.213 198.5C682.192 198.5 683.025 198.323 683.713 197.969C684.421 197.594 684.952 197.073 685.306 196.406C685.681 195.719 685.858 194.896 685.838 193.938H695.744C695.765 196.479 695.14 198.708 693.869 200.625C692.619 202.521 690.91 204 688.744 205.062C686.598 206.104 684.171 206.625 681.463 206.625C678.817 206.625 676.504 206.198 674.525 205.344C672.546 204.469 670.89 203.26 669.556 201.719C668.244 200.156 667.254 198.333 666.588 196.25C665.942 194.167 665.619 191.906 665.619 189.469V188.75C665.619 186.312 665.942 184.052 666.588 181.969C667.254 179.865 668.244 178.042 669.556 176.5C670.89 174.938 672.535 173.729 674.494 172.875C676.473 172 678.775 171.562 681.4 171.562C684.213 171.562 686.692 172.094 688.838 173.156C691.004 174.219 692.702 175.76 693.931 177.781C695.16 179.802 695.765 182.25 695.744 185.125H685.838C685.858 184.104 685.702 183.188 685.369 182.375C685.035 181.562 684.515 180.917 683.806 180.438C683.119 179.938 682.233 179.688 681.15 179.688C680.067 179.688 679.192 179.927 678.525 180.406C677.858 180.885 677.348 181.552 676.994 182.406C676.66 183.24 676.431 184.198 676.306 185.281C676.202 186.365 676.15 187.521 676.15 188.75V189.469C676.15 190.719 676.202 191.896 676.306 193C676.431 194.083 676.671 195.042 677.025 195.875C677.379 196.688 677.89 197.333 678.556 197.812C679.223 198.271 680.108 198.5 681.213 198.5ZM719.976 172.188V179.5H699.601V172.188H719.976ZM703.883 163.781H714.414V194.969C714.414 195.865 714.518 196.562 714.726 197.062C714.935 197.542 715.289 197.885 715.789 198.094C716.31 198.281 716.997 198.375 717.851 198.375C718.455 198.375 718.955 198.365 719.351 198.344C719.747 198.302 720.122 198.25 720.476 198.188V205.719C719.58 206.01 718.643 206.229 717.664 206.375C716.685 206.542 715.643 206.625 714.539 206.625C712.289 206.625 710.362 206.271 708.758 205.562C707.174 204.854 705.966 203.74 705.133 202.219C704.299 200.698 703.883 198.719 703.883 196.281V163.781ZM742.459 206.625C739.709 206.625 737.25 206.198 735.084 205.344C732.917 204.469 731.084 203.271 729.584 201.75C728.105 200.229 726.969 198.479 726.177 196.5C725.407 194.521 725.021 192.427 725.021 190.219V189.031C725.021 186.552 725.365 184.26 726.052 182.156C726.74 180.031 727.761 178.177 729.115 176.594C730.469 175.01 732.167 173.781 734.209 172.906C736.25 172.01 738.625 171.562 741.334 171.562C743.73 171.562 745.875 171.948 747.771 172.719C749.667 173.49 751.271 174.594 752.584 176.031C753.917 177.469 754.927 179.208 755.615 181.25C756.323 183.292 756.677 185.583 756.677 188.125V192.406H729.052V185.812H746.396V185C746.417 183.875 746.219 182.917 745.802 182.125C745.407 181.333 744.823 180.729 744.052 180.312C743.282 179.896 742.344 179.688 741.24 179.688C740.094 179.688 739.146 179.938 738.396 180.438C737.667 180.938 737.094 181.625 736.677 182.5C736.282 183.354 736 184.344 735.834 185.469C735.667 186.594 735.584 187.781 735.584 189.031V190.219C735.584 191.469 735.75 192.604 736.084 193.625C736.438 194.646 736.938 195.521 737.584 196.25C738.25 196.958 739.042 197.51 739.959 197.906C740.896 198.302 741.959 198.5 743.146 198.5C744.584 198.5 746 198.229 747.396 197.688C748.792 197.146 749.99 196.25 750.99 195L755.771 200.688C755.084 201.667 754.105 202.615 752.834 203.531C751.584 204.448 750.084 205.198 748.334 205.781C746.584 206.344 744.625 206.625 742.459 206.625ZM782.316 198.25V158H792.91V206H783.41L782.316 198.25ZM761.566 189.5V188.844C761.566 186.281 761.847 183.948 762.41 181.844C762.972 179.719 763.806 177.896 764.91 176.375C766.014 174.833 767.389 173.646 769.035 172.812C770.681 171.979 772.577 171.562 774.722 171.562C776.639 171.562 778.316 172.01 779.754 172.906C781.191 173.781 782.42 175.01 783.441 176.594C784.462 178.177 785.295 180.031 785.941 182.156C786.587 184.26 787.077 186.531 787.41 188.969V189.75C787.077 192.042 786.587 194.208 785.941 196.25C785.295 198.271 784.462 200.062 783.441 201.625C782.42 203.188 781.181 204.417 779.722 205.312C778.285 206.188 776.597 206.625 774.66 206.625C772.514 206.625 770.618 206.198 768.972 205.344C767.347 204.49 765.983 203.292 764.879 201.75C763.795 200.208 762.972 198.396 762.41 196.312C761.847 194.229 761.566 191.958 761.566 189.5ZM772.097 188.844V189.5C772.097 190.771 772.181 191.948 772.347 193.031C772.514 194.115 772.795 195.073 773.191 195.906C773.608 196.719 774.15 197.354 774.816 197.812C775.504 198.271 776.347 198.5 777.347 198.5C778.702 198.5 779.816 198.177 780.691 197.531C781.587 196.885 782.243 195.969 782.66 194.781C783.097 193.594 783.285 192.198 783.222 190.594V188.125C783.264 186.75 783.17 185.542 782.941 184.5C782.712 183.438 782.347 182.552 781.847 181.844C781.368 181.135 780.754 180.604 780.004 180.25C779.275 179.875 778.41 179.688 777.41 179.688C776.431 179.688 775.597 179.917 774.91 180.375C774.243 180.833 773.702 181.479 773.285 182.312C772.868 183.125 772.566 184.094 772.379 185.219C772.191 186.323 772.097 187.531 772.097 188.844ZM801.486 201.062C801.486 199.562 802.028 198.312 803.111 197.312C804.195 196.292 805.59 195.781 807.299 195.781C809.028 195.781 810.424 196.292 811.486 197.312C812.57 198.312 813.111 199.562 813.111 201.062C813.111 202.562 812.57 203.823 811.486 204.844C810.424 205.844 809.028 206.344 807.299 206.344C805.59 206.344 804.195 205.844 803.111 204.844C802.028 203.823 801.486 202.562 801.486 201.062Z" fill="white"/>
</svg>
