<svg width="280" height="18" viewBox="0 0 280 18" fill="none" xmlns="http://www.w3.org/2000/svg">
<path d="M7.91895 10.6777C7.91895 10.4316 7.88086 10.2119 7.80469 10.0186C7.73438 9.81934 7.60254 9.64062 7.40918 9.48242C7.22168 9.31836 6.95508 9.16016 6.60938 9.00781C6.26953 8.84961 5.83008 8.68555 5.29102 8.51562C4.69336 8.32812 4.13672 8.11719 3.62109 7.88281C3.10547 7.64844 2.65137 7.37598 2.25879 7.06543C1.87207 6.75488 1.57031 6.39746 1.35352 5.99316C1.13672 5.58301 1.02832 5.1084 1.02832 4.56934C1.02832 4.04199 1.13965 3.56152 1.3623 3.12793C1.59082 2.69434 1.91309 2.32227 2.3291 2.01172C2.74512 1.69531 3.23438 1.45215 3.79688 1.28223C4.36523 1.1123 4.99219 1.02734 5.67773 1.02734C6.62695 1.02734 7.44727 1.2002 8.13867 1.5459C8.83594 1.8916 9.375 2.36035 9.75586 2.95215C10.1367 3.54395 10.3271 4.20898 10.3271 4.94727H7.91895C7.91895 4.54883 7.83398 4.19727 7.66406 3.89258C7.5 3.58789 7.24805 3.34766 6.9082 3.17188C6.57422 2.99609 6.15234 2.9082 5.64258 2.9082C5.15039 2.9082 4.74023 2.98145 4.41211 3.12793C4.08984 3.27441 3.84668 3.47363 3.68262 3.72559C3.52441 3.97754 3.44531 4.25879 3.44531 4.56934C3.44531 4.80371 3.50098 5.01465 3.6123 5.20215C3.72363 5.38379 3.89062 5.55664 4.11328 5.7207C4.33594 5.87891 4.61133 6.02832 4.93945 6.16895C5.27344 6.30371 5.66016 6.43848 6.09961 6.57324C6.80273 6.78418 7.41797 7.01855 7.94531 7.27637C8.47852 7.53418 8.9209 7.82715 9.27246 8.15527C9.62988 8.4834 9.89648 8.85254 10.0723 9.2627C10.2539 9.67285 10.3447 10.1387 10.3447 10.6602C10.3447 11.2109 10.2363 11.7031 10.0195 12.1367C9.80273 12.5703 9.49219 12.9395 9.08789 13.2441C8.68359 13.5488 8.19727 13.7803 7.62891 13.9385C7.06641 14.0967 6.43652 14.1758 5.73926 14.1758C5.11816 14.1758 4.50293 14.0938 3.89355 13.9297C3.29004 13.7598 2.74219 13.5078 2.25 13.1738C1.75781 12.834 1.36523 12.4062 1.07227 11.8906C0.779297 11.3691 0.632812 10.7598 0.632812 10.0625H3.05859C3.05859 10.4668 3.12305 10.8125 3.25195 11.0996C3.38672 11.3809 3.57422 11.6123 3.81445 11.7939C4.06055 11.9697 4.34766 12.0986 4.67578 12.1807C5.00391 12.2627 5.3584 12.3037 5.73926 12.3037C6.23145 12.3037 6.63574 12.2363 6.95215 12.1016C7.27441 11.9609 7.51465 11.7676 7.67285 11.5215C7.83691 11.2754 7.91895 10.9941 7.91895 10.6777ZM16.5322 4.49023V6.16016H11.083V4.49023H16.5322ZM12.542 2.15234H14.8711V11.2578C14.8711 11.5391 14.9092 11.7559 14.9854 11.9082C15.0615 12.0605 15.1758 12.1631 15.3281 12.2158C15.4805 12.2686 15.6621 12.2949 15.873 12.2949C16.0254 12.2949 16.166 12.2861 16.2949 12.2686C16.4238 12.251 16.5322 12.2334 16.6201 12.2158L16.6289 13.9561C16.4355 14.0205 16.2158 14.0732 15.9697 14.1143C15.7295 14.1553 15.457 14.1758 15.1523 14.1758C14.6309 14.1758 14.1738 14.0879 13.7812 13.9121C13.3887 13.7305 13.084 13.4404 12.8672 13.042C12.6504 12.6377 12.542 12.1045 12.542 11.4424V2.15234ZM23.3174 11.9785V7.59277C23.3174 7.27051 23.2617 6.99219 23.1504 6.75781C23.0391 6.52344 22.8691 6.3418 22.6406 6.21289C22.4121 6.08398 22.1221 6.01953 21.7705 6.01953C21.46 6.01953 21.1875 6.07227 20.9531 6.17773C20.7246 6.2832 20.5488 6.43262 20.4258 6.62598C20.3027 6.81348 20.2412 7.03027 20.2412 7.27637H17.9121C17.9121 6.88379 18.0059 6.51172 18.1934 6.16016C18.3809 5.80273 18.6475 5.48633 18.9932 5.21094C19.3447 4.92969 19.7637 4.70996 20.25 4.55176C20.7422 4.39355 21.293 4.31445 21.9023 4.31445C22.623 4.31445 23.2646 4.4375 23.8271 4.68359C24.3955 4.92383 24.8408 5.28711 25.1631 5.77344C25.4912 6.25977 25.6553 6.87207 25.6553 7.61035V11.7588C25.6553 12.2334 25.6846 12.6406 25.7432 12.9805C25.8076 13.3145 25.9014 13.6045 26.0244 13.8506V14H23.6602C23.5488 13.7598 23.4639 13.4551 23.4053 13.0859C23.3467 12.7109 23.3174 12.3418 23.3174 11.9785ZM23.6426 8.20801L23.6602 9.58789H22.1924C21.8291 9.58789 21.5098 9.62598 21.2344 9.70215C20.959 9.77246 20.7334 9.87793 20.5576 10.0186C20.3818 10.1533 20.25 10.3174 20.1621 10.5107C20.0742 10.6982 20.0303 10.9121 20.0303 11.1523C20.0303 11.3867 20.083 11.5977 20.1885 11.7852C20.2998 11.9727 20.458 12.1221 20.6631 12.2334C20.874 12.3389 21.1201 12.3916 21.4014 12.3916C21.8115 12.3916 22.1689 12.3096 22.4736 12.1455C22.7783 11.9756 23.0156 11.7705 23.1855 11.5303C23.3555 11.29 23.4463 11.0615 23.458 10.8447L24.126 11.8467C24.0439 12.0869 23.9209 12.3418 23.7568 12.6113C23.5928 12.8809 23.3818 13.1328 23.124 13.3672C22.8662 13.6016 22.5557 13.7949 22.1924 13.9473C21.8291 14.0996 21.4072 14.1758 20.9268 14.1758C20.3115 14.1758 19.7607 14.0527 19.2744 13.8066C18.7881 13.5605 18.4043 13.2236 18.123 12.7959C17.8418 12.3682 17.7012 11.8818 17.7012 11.3369C17.7012 10.833 17.7949 10.3877 17.9824 10.001C18.1699 9.61426 18.4482 9.28906 18.8174 9.02539C19.1865 8.75586 19.6436 8.55371 20.1885 8.41895C20.7393 8.27832 21.3691 8.20801 22.0781 8.20801H23.6426ZM30.3926 12.9453L32.9414 4.49023H35.4287L31.6143 15.4414C31.5264 15.6758 31.4121 15.9307 31.2715 16.2061C31.1367 16.4814 30.9551 16.7422 30.7266 16.9883C30.498 17.2402 30.2109 17.4453 29.8652 17.6035C29.5254 17.7617 29.1123 17.8408 28.626 17.8408C28.415 17.8408 28.2275 17.8262 28.0635 17.7969C27.8994 17.7676 27.7266 17.7295 27.5449 17.6826V15.9424C27.6035 15.9482 27.6709 15.9512 27.7471 15.9512C27.8291 15.957 27.8994 15.96 27.958 15.96C28.2979 15.96 28.5791 15.9189 28.8018 15.8369C29.0244 15.7607 29.2031 15.6348 29.3379 15.459C29.4785 15.2891 29.5957 15.0664 29.6895 14.791L30.3926 12.9453ZM29.1357 4.49023L31.2891 11.4951L31.667 13.9473L30.0674 14.2373L26.6309 4.49023H29.1357ZM45.5361 4.49023V6.16016H40.0869V4.49023H45.5361ZM41.5459 2.15234H43.875V11.2578C43.875 11.5391 43.9131 11.7559 43.9893 11.9082C44.0654 12.0605 44.1797 12.1631 44.332 12.2158C44.4844 12.2686 44.666 12.2949 44.877 12.2949C45.0293 12.2949 45.1699 12.2861 45.2988 12.2686C45.4277 12.251 45.5361 12.2334 45.624 12.2158L45.6328 13.9561C45.4395 14.0205 45.2197 14.0732 44.9736 14.1143C44.7334 14.1553 44.4609 14.1758 44.1562 14.1758C43.6348 14.1758 43.1777 14.0879 42.7852 13.9121C42.3926 13.7305 42.0879 13.4404 41.8711 13.042C41.6543 12.6377 41.5459 12.1045 41.5459 11.4424V2.15234ZM52.7432 11.7412V4.49023H55.0811V14H52.8838L52.7432 11.7412ZM53.042 9.77246L53.7627 9.75488C53.7627 10.3936 53.6924 10.9824 53.5518 11.5215C53.4111 12.0605 53.1914 12.5293 52.8926 12.9277C52.5996 13.3203 52.2275 13.6279 51.7764 13.8506C51.3252 14.0674 50.792 14.1758 50.1768 14.1758C49.708 14.1758 49.2803 14.1113 48.8936 13.9824C48.5068 13.8477 48.1729 13.6396 47.8916 13.3584C47.6162 13.0713 47.4023 12.7051 47.25 12.2598C47.0977 11.8086 47.0215 11.2666 47.0215 10.6338V4.49023H49.3418V10.6514C49.3418 10.9678 49.377 11.2314 49.4473 11.4424C49.5234 11.6533 49.626 11.8262 49.7549 11.9609C49.8896 12.0898 50.0449 12.1836 50.2207 12.2422C50.4023 12.2949 50.5957 12.3213 50.8008 12.3213C51.3633 12.3213 51.8057 12.21 52.1279 11.9873C52.4561 11.7588 52.6904 11.4541 52.8311 11.0732C52.9717 10.6865 53.042 10.2529 53.042 9.77246ZM59.4141 6.52051V14H57.0938V4.49023H59.2734L59.4141 6.52051ZM59.0449 8.90234H58.3594C58.3652 8.21094 58.459 7.58398 58.6406 7.02148C58.8223 6.45898 59.0771 5.97559 59.4053 5.57129C59.7393 5.16699 60.1348 4.85645 60.5918 4.63965C61.0488 4.42285 61.5586 4.31445 62.1211 4.31445C62.5781 4.31445 62.9912 4.37891 63.3604 4.50781C63.7295 4.63672 64.0459 4.8418 64.3096 5.12305C64.5791 5.4043 64.7842 5.77344 64.9248 6.23047C65.0713 6.68164 65.1445 7.23828 65.1445 7.90039V14H62.8066V7.88281C62.8066 7.44922 62.7422 7.10645 62.6133 6.85449C62.4902 6.60254 62.3086 6.42383 62.0684 6.31836C61.834 6.21289 61.5439 6.16016 61.1982 6.16016C60.8408 6.16016 60.5273 6.2334 60.2578 6.37988C59.9941 6.52051 59.7715 6.7168 59.5898 6.96875C59.4141 7.2207 59.2793 7.51074 59.1855 7.83887C59.0918 8.16699 59.0449 8.52148 59.0449 8.90234ZM71.4639 14.1758C70.7432 14.1758 70.0957 14.0586 69.5215 13.8242C68.9473 13.5898 68.458 13.2646 68.0537 12.8486C67.6553 12.4268 67.3477 11.9375 67.1309 11.3809C66.9199 10.8184 66.8145 10.2148 66.8145 9.57031V9.21875C66.8145 8.48633 66.9199 7.82129 67.1309 7.22363C67.3418 6.62012 67.6406 6.10156 68.0273 5.66797C68.4141 5.23438 68.877 4.90039 69.416 4.66602C69.9551 4.43164 70.5498 4.31445 71.2002 4.31445C71.874 4.31445 72.4688 4.42871 72.9844 4.65723C73.5 4.87988 73.9307 5.19629 74.2764 5.60645C74.6221 6.0166 74.8828 6.50879 75.0586 7.08301C75.2344 7.65137 75.3223 8.28125 75.3223 8.97266V9.94824H67.8691V8.34863H73.0371V8.17285C73.0254 7.80371 72.9551 7.4668 72.8262 7.16211C72.6973 6.85156 72.498 6.60547 72.2285 6.42383C71.959 6.23633 71.6104 6.14258 71.1826 6.14258C70.8369 6.14258 70.5352 6.21875 70.2773 6.37109C70.0254 6.51758 69.8145 6.72852 69.6445 7.00391C69.4805 7.27344 69.3574 7.5957 69.2754 7.9707C69.1934 8.3457 69.1523 8.76172 69.1523 9.21875V9.57031C69.1523 9.96875 69.2051 10.3379 69.3105 10.6777C69.4219 11.0176 69.583 11.3135 69.7939 11.5654C70.0107 11.8115 70.2686 12.0049 70.5674 12.1455C70.8721 12.2803 71.2178 12.3477 71.6045 12.3477C72.0908 12.3477 72.5303 12.2539 72.9229 12.0664C73.3213 11.873 73.667 11.5889 73.96 11.2139L75.1289 12.4268C74.9297 12.7197 74.6602 13.001 74.3203 13.2705C73.9863 13.54 73.582 13.7598 73.1074 13.9297C72.6328 14.0938 72.085 14.1758 71.4639 14.1758ZM82.582 11.9785V0.5H84.9199V14H82.8105L82.582 11.9785ZM76.4736 9.35938V9.1748C76.4736 8.44824 76.5557 7.78906 76.7197 7.19727C76.8896 6.59961 77.1357 6.08691 77.458 5.65918C77.7803 5.23145 78.1699 4.90039 78.627 4.66602C79.0898 4.43164 79.6143 4.31445 80.2002 4.31445C80.7686 4.31445 81.2637 4.42871 81.6855 4.65723C82.1133 4.88574 82.4766 5.21094 82.7754 5.63281C83.0801 6.05469 83.3232 6.55566 83.5049 7.13574C83.6865 7.70996 83.8184 8.34277 83.9004 9.03418V9.53516C83.8184 10.209 83.6865 10.8271 83.5049 11.3896C83.3232 11.9521 83.0801 12.4443 82.7754 12.8662C82.4766 13.2822 82.1133 13.6045 81.6855 13.833C81.2578 14.0615 80.7568 14.1758 80.1826 14.1758C79.6025 14.1758 79.0811 14.0557 78.6182 13.8154C78.1611 13.5752 77.7715 13.2383 77.4492 12.8047C77.1328 12.3711 76.8896 11.8613 76.7197 11.2754C76.5557 10.6895 76.4736 10.0508 76.4736 9.35938ZM78.8027 9.1748V9.35938C78.8027 9.76953 78.8379 10.1533 78.9082 10.5107C78.9785 10.8682 79.0928 11.1846 79.251 11.46C79.4092 11.7295 79.6113 11.9404 79.8574 12.0928C80.1094 12.2451 80.4141 12.3213 80.7715 12.3213C81.2285 12.3213 81.6035 12.2217 81.8965 12.0225C82.1953 11.8174 82.4268 11.5391 82.5908 11.1875C82.7549 10.8301 82.8604 10.4287 82.9072 9.9834V8.60352C82.8838 8.25195 82.8223 7.92676 82.7227 7.62793C82.6289 7.3291 82.4941 7.07129 82.3184 6.85449C82.1484 6.6377 81.9375 6.46777 81.6855 6.34473C81.4336 6.22168 81.1348 6.16016 80.7891 6.16016C80.4316 6.16016 80.127 6.23926 79.875 6.39746C79.623 6.5498 79.418 6.76367 79.2598 7.03906C79.1016 7.31445 78.9844 7.63379 78.9082 7.99707C78.8379 8.36035 78.8027 8.75293 78.8027 9.1748ZM94.5439 14H92.2061V3.61133C92.2061 2.89648 92.3438 2.2959 92.6191 1.80957C92.8945 1.31738 93.2871 0.945313 93.7969 0.693359C94.3066 0.441406 94.9072 0.31543 95.5986 0.31543C95.8271 0.31543 96.0439 0.330078 96.249 0.359375C96.46 0.388672 96.668 0.429688 96.873 0.482422L96.8291 2.24902C96.7178 2.21973 96.5947 2.19922 96.46 2.1875C96.3311 2.17578 96.1875 2.16992 96.0293 2.16992C95.7129 2.16992 95.4434 2.22559 95.2207 2.33691C94.998 2.44824 94.8281 2.6123 94.7109 2.8291C94.5996 3.04004 94.5439 3.30078 94.5439 3.61133V14ZM96.4688 4.49023V6.16016H90.7734V4.49023H96.4688ZM97.4883 9.3418V9.15723C97.4883 8.45996 97.5879 7.81836 97.7871 7.23242C97.9863 6.64062 98.2764 6.12793 98.6572 5.69434C99.0381 5.26074 99.5039 4.92383 100.055 4.68359C100.605 4.4375 101.232 4.31445 101.936 4.31445C102.65 4.31445 103.283 4.4375 103.834 4.68359C104.391 4.92383 104.859 5.26074 105.24 5.69434C105.621 6.12793 105.911 6.64062 106.11 7.23242C106.31 7.81836 106.409 8.45996 106.409 9.15723V9.3418C106.409 10.0332 106.31 10.6748 106.11 11.2666C105.911 11.8525 105.621 12.3652 105.24 12.8047C104.859 13.2383 104.394 13.5752 103.843 13.8154C103.292 14.0557 102.662 14.1758 101.953 14.1758C101.25 14.1758 100.62 14.0557 100.063 13.8154C99.5068 13.5752 99.0381 13.2383 98.6572 12.8047C98.2764 12.3652 97.9863 11.8525 97.7871 11.2666C97.5879 10.6748 97.4883 10.0332 97.4883 9.3418ZM99.8086 9.15723V9.3418C99.8086 9.75781 99.8496 10.1475 99.9316 10.5107C100.014 10.874 100.14 11.1934 100.31 11.4688C100.479 11.7441 100.699 11.9609 100.969 12.1191C101.244 12.2715 101.572 12.3477 101.953 12.3477C102.328 12.3477 102.65 12.2715 102.92 12.1191C103.189 11.9609 103.409 11.7441 103.579 11.4688C103.755 11.1934 103.884 10.874 103.966 10.5107C104.048 10.1475 104.089 9.75781 104.089 9.3418V9.15723C104.089 8.74707 104.048 8.36328 103.966 8.00586C103.884 7.64258 103.755 7.32324 103.579 7.04785C103.409 6.7666 103.187 6.54688 102.911 6.38867C102.642 6.22461 102.316 6.14258 101.936 6.14258C101.561 6.14258 101.238 6.22461 100.969 6.38867C100.699 6.54688 100.479 6.7666 100.31 7.04785C100.14 7.32324 100.014 7.64258 99.9316 8.00586C99.8496 8.36328 99.8086 8.74707 99.8086 9.15723ZM110.417 6.43262V14H108.097V4.49023H110.294L110.417 6.43262ZM113.309 4.42871L113.273 6.59082C113.145 6.56738 112.998 6.5498 112.834 6.53809C112.676 6.52637 112.526 6.52051 112.386 6.52051C112.028 6.52051 111.715 6.57031 111.445 6.66992C111.176 6.76367 110.95 6.90137 110.769 7.08301C110.593 7.26465 110.458 7.4873 110.364 7.75098C110.271 8.00879 110.218 8.30176 110.206 8.62988L109.705 8.56836C109.705 7.96484 109.767 7.40527 109.89 6.88965C110.013 6.37402 110.191 5.92285 110.426 5.53613C110.66 5.14941 110.953 4.85059 111.305 4.63965C111.662 4.42285 112.072 4.31445 112.535 4.31445C112.664 4.31445 112.802 4.32617 112.948 4.34961C113.101 4.36719 113.221 4.39355 113.309 4.42871ZM118.652 9.3418V9.15723C118.652 8.45996 118.752 7.81836 118.951 7.23242C119.15 6.64062 119.44 6.12793 119.821 5.69434C120.202 5.26074 120.668 4.92383 121.219 4.68359C121.77 4.4375 122.396 4.31445 123.1 4.31445C123.814 4.31445 124.447 4.4375 124.998 4.68359C125.555 4.92383 126.023 5.26074 126.404 5.69434C126.785 6.12793 127.075 6.64062 127.274 7.23242C127.474 7.81836 127.573 8.45996 127.573 9.15723V9.3418C127.573 10.0332 127.474 10.6748 127.274 11.2666C127.075 11.8525 126.785 12.3652 126.404 12.8047C126.023 13.2383 125.558 13.5752 125.007 13.8154C124.456 14.0557 123.826 14.1758 123.117 14.1758C122.414 14.1758 121.784 14.0557 121.228 13.8154C120.671 13.5752 120.202 13.2383 119.821 12.8047C119.44 12.3652 119.15 11.8525 118.951 11.2666C118.752 10.6748 118.652 10.0332 118.652 9.3418ZM120.973 9.15723V9.3418C120.973 9.75781 121.014 10.1475 121.096 10.5107C121.178 10.874 121.304 11.1934 121.474 11.4688C121.644 11.7441 121.863 11.9609 122.133 12.1191C122.408 12.2715 122.736 12.3477 123.117 12.3477C123.492 12.3477 123.814 12.2715 124.084 12.1191C124.354 11.9609 124.573 11.7441 124.743 11.4688C124.919 11.1934 125.048 10.874 125.13 10.5107C125.212 10.1475 125.253 9.75781 125.253 9.3418V9.15723C125.253 8.74707 125.212 8.36328 125.13 8.00586C125.048 7.64258 124.919 7.32324 124.743 7.04785C124.573 6.7666 124.351 6.54688 124.075 6.38867C123.806 6.22461 123.48 6.14258 123.1 6.14258C122.725 6.14258 122.402 6.22461 122.133 6.38867C121.863 6.54688 121.644 6.7666 121.474 7.04785C121.304 7.32324 121.178 7.64258 121.096 8.00586C121.014 8.36328 120.973 8.74707 120.973 9.15723ZM134.921 11.7412V4.49023H137.259V14H135.062L134.921 11.7412ZM135.22 9.77246L135.94 9.75488C135.94 10.3936 135.87 10.9824 135.729 11.5215C135.589 12.0605 135.369 12.5293 135.07 12.9277C134.777 13.3203 134.405 13.6279 133.954 13.8506C133.503 14.0674 132.97 14.1758 132.354 14.1758C131.886 14.1758 131.458 14.1113 131.071 13.9824C130.685 13.8477 130.351 13.6396 130.069 13.3584C129.794 13.0713 129.58 12.7051 129.428 12.2598C129.275 11.8086 129.199 11.2666 129.199 10.6338V4.49023H131.52V10.6514C131.52 10.9678 131.555 11.2314 131.625 11.4424C131.701 11.6533 131.804 11.8262 131.933 11.9609C132.067 12.0898 132.223 12.1836 132.398 12.2422C132.58 12.2949 132.773 12.3213 132.979 12.3213C133.541 12.3213 133.983 12.21 134.306 11.9873C134.634 11.7588 134.868 11.4541 135.009 11.0732C135.149 10.6865 135.22 10.2529 135.22 9.77246ZM141.636 6.43262V14H139.315V4.49023H141.513L141.636 6.43262ZM144.527 4.42871L144.492 6.59082C144.363 6.56738 144.217 6.5498 144.053 6.53809C143.895 6.52637 143.745 6.52051 143.604 6.52051C143.247 6.52051 142.934 6.57031 142.664 6.66992C142.395 6.76367 142.169 6.90137 141.987 7.08301C141.812 7.26465 141.677 7.4873 141.583 7.75098C141.489 8.00879 141.437 8.30176 141.425 8.62988L140.924 8.56836C140.924 7.96484 140.985 7.40527 141.108 6.88965C141.231 6.37402 141.41 5.92285 141.645 5.53613C141.879 5.14941 142.172 4.85059 142.523 4.63965C142.881 4.42285 143.291 4.31445 143.754 4.31445C143.883 4.31445 144.021 4.32617 144.167 4.34961C144.319 4.36719 144.439 4.39355 144.527 4.42871ZM155.944 11.7412V4.49023H158.282V14H156.085L155.944 11.7412ZM156.243 9.77246L156.964 9.75488C156.964 10.3936 156.894 10.9824 156.753 11.5215C156.612 12.0605 156.393 12.5293 156.094 12.9277C155.801 13.3203 155.429 13.6279 154.978 13.8506C154.526 14.0674 153.993 14.1758 153.378 14.1758C152.909 14.1758 152.481 14.1113 152.095 13.9824C151.708 13.8477 151.374 13.6396 151.093 13.3584C150.817 13.0713 150.604 12.7051 150.451 12.2598C150.299 11.8086 150.223 11.2666 150.223 10.6338V4.49023H152.543V10.6514C152.543 10.9678 152.578 11.2314 152.648 11.4424C152.725 11.6533 152.827 11.8262 152.956 11.9609C153.091 12.0898 153.246 12.1836 153.422 12.2422C153.604 12.2949 153.797 12.3213 154.002 12.3213C154.564 12.3213 155.007 12.21 155.329 11.9873C155.657 11.7588 155.892 11.4541 156.032 11.0732C156.173 10.6865 156.243 10.2529 156.243 9.77246ZM162.659 6.31836V17.6562H160.33V4.49023H162.483L162.659 6.31836ZM168.768 9.14844V9.33301C168.768 10.0244 168.686 10.666 168.521 11.2578C168.363 11.8438 168.129 12.3564 167.818 12.7959C167.508 13.2295 167.121 13.5693 166.658 13.8154C166.201 14.0557 165.674 14.1758 165.076 14.1758C164.49 14.1758 163.98 14.0645 163.547 13.8418C163.113 13.6133 162.747 13.291 162.448 12.875C162.149 12.459 161.909 11.9756 161.728 11.4248C161.552 10.8682 161.42 10.2617 161.332 9.60547V9.0166C161.42 8.31934 161.552 7.68652 161.728 7.11816C161.909 6.54395 162.149 6.04883 162.448 5.63281C162.747 5.21094 163.11 4.88574 163.538 4.65723C163.972 4.42871 164.479 4.31445 165.059 4.31445C165.662 4.31445 166.192 4.42871 166.649 4.65723C167.112 4.88574 167.502 5.21387 167.818 5.6416C168.135 6.06934 168.372 6.5791 168.53 7.1709C168.688 7.7627 168.768 8.42188 168.768 9.14844ZM166.438 9.33301V9.14844C166.438 8.72656 166.4 8.33691 166.324 7.97949C166.248 7.61621 166.131 7.2998 165.973 7.03027C165.814 6.75488 165.609 6.54102 165.357 6.38867C165.105 6.23633 164.801 6.16016 164.443 6.16016C164.086 6.16016 163.778 6.21875 163.521 6.33594C163.263 6.45312 163.052 6.62012 162.888 6.83691C162.724 7.05371 162.595 7.31152 162.501 7.61035C162.413 7.90332 162.354 8.22852 162.325 8.58594V10.0449C162.378 10.4785 162.48 10.8682 162.633 11.2139C162.785 11.5596 163.008 11.835 163.301 12.04C163.6 12.2451 163.986 12.3477 164.461 12.3477C164.818 12.3477 165.123 12.2686 165.375 12.1104C165.627 11.9521 165.832 11.7354 165.99 11.46C166.148 11.1787 166.263 10.8564 166.333 10.4932C166.403 10.1299 166.438 9.74316 166.438 9.33301ZM174.366 12.3477C174.694 12.3477 174.987 12.2832 175.245 12.1543C175.503 12.0254 175.708 11.8438 175.86 11.6094C176.019 11.375 176.104 11.1025 176.115 10.792H178.304C178.292 11.4365 178.11 12.0137 177.759 12.5234C177.407 13.0332 176.938 13.4375 176.353 13.7363C175.772 14.0293 175.122 14.1758 174.401 14.1758C173.669 14.1758 173.03 14.0527 172.485 13.8066C171.94 13.5605 171.486 13.2178 171.123 12.7783C170.766 12.3389 170.496 11.8291 170.314 11.249C170.139 10.6689 170.051 10.0479 170.051 9.38574V9.10449C170.051 8.44238 170.139 7.82129 170.314 7.24121C170.496 6.66113 170.766 6.15137 171.123 5.71191C171.486 5.27246 171.94 4.92969 172.485 4.68359C173.03 4.4375 173.666 4.31445 174.393 4.31445C175.16 4.31445 175.834 4.46387 176.414 4.7627C177 5.06152 177.457 5.4834 177.785 6.02832C178.119 6.57324 178.292 7.21484 178.304 7.95312H176.115C176.104 7.61328 176.027 7.30859 175.887 7.03906C175.746 6.76953 175.547 6.55273 175.289 6.38867C175.031 6.22461 174.718 6.14258 174.349 6.14258C173.956 6.14258 173.628 6.22461 173.364 6.38867C173.106 6.55273 172.904 6.77832 172.758 7.06543C172.617 7.34668 172.518 7.66309 172.459 8.01465C172.406 8.36035 172.38 8.72363 172.38 9.10449V9.38574C172.38 9.77246 172.406 10.1416 172.459 10.4932C172.518 10.8447 172.617 11.1611 172.758 11.4424C172.904 11.7178 173.106 11.9375 173.364 12.1016C173.628 12.2656 173.962 12.3477 174.366 12.3477ZM179.438 9.3418V9.15723C179.438 8.45996 179.537 7.81836 179.736 7.23242C179.936 6.64062 180.226 6.12793 180.606 5.69434C180.987 5.26074 181.453 4.92383 182.004 4.68359C182.555 4.4375 183.182 4.31445 183.885 4.31445C184.6 4.31445 185.232 4.4375 185.783 4.68359C186.34 4.92383 186.809 5.26074 187.189 5.69434C187.57 6.12793 187.86 6.64062 188.06 7.23242C188.259 7.81836 188.358 8.45996 188.358 9.15723V9.3418C188.358 10.0332 188.259 10.6748 188.06 11.2666C187.86 11.8525 187.57 12.3652 187.189 12.8047C186.809 13.2383 186.343 13.5752 185.792 13.8154C185.241 14.0557 184.611 14.1758 183.902 14.1758C183.199 14.1758 182.569 14.0557 182.013 13.8154C181.456 13.5752 180.987 13.2383 180.606 12.8047C180.226 12.3652 179.936 11.8525 179.736 11.2666C179.537 10.6748 179.438 10.0332 179.438 9.3418ZM181.758 9.15723V9.3418C181.758 9.75781 181.799 10.1475 181.881 10.5107C181.963 10.874 182.089 11.1934 182.259 11.4688C182.429 11.7441 182.648 11.9609 182.918 12.1191C183.193 12.2715 183.521 12.3477 183.902 12.3477C184.277 12.3477 184.6 12.2715 184.869 12.1191C185.139 11.9609 185.358 11.7441 185.528 11.4688C185.704 11.1934 185.833 10.874 185.915 10.5107C185.997 10.1475 186.038 9.75781 186.038 9.3418V9.15723C186.038 8.74707 185.997 8.36328 185.915 8.00586C185.833 7.64258 185.704 7.32324 185.528 7.04785C185.358 6.7666 185.136 6.54688 184.86 6.38867C184.591 6.22461 184.266 6.14258 183.885 6.14258C183.51 6.14258 183.188 6.22461 182.918 6.38867C182.648 6.54688 182.429 6.7666 182.259 7.04785C182.089 7.32324 181.963 7.64258 181.881 8.00586C181.799 8.36328 181.758 8.74707 181.758 9.15723ZM192.357 6.44141V14H190.037V4.49023H192.226L192.357 6.44141ZM192.015 8.90234H191.303C191.303 8.24023 191.382 7.63086 191.54 7.07422C191.704 6.51758 191.944 6.03418 192.261 5.62402C192.577 5.20801 192.967 4.88574 193.43 4.65723C193.898 4.42871 194.44 4.31445 195.056 4.31445C195.483 4.31445 195.876 4.37891 196.233 4.50781C196.591 4.63086 196.898 4.82715 197.156 5.09668C197.42 5.36035 197.622 5.70605 197.763 6.13379C197.903 6.55566 197.974 7.0625 197.974 7.6543V14H195.653V7.8916C195.653 7.44629 195.589 7.09766 195.46 6.8457C195.337 6.59375 195.158 6.41797 194.924 6.31836C194.689 6.21289 194.408 6.16016 194.08 6.16016C193.717 6.16016 193.403 6.2334 193.14 6.37988C192.882 6.52051 192.668 6.7168 192.498 6.96875C192.334 7.2207 192.211 7.51074 192.129 7.83887C192.053 8.16699 192.015 8.52148 192.015 8.90234ZM197.798 8.47168L196.84 8.64746C196.846 8.0498 196.928 7.49023 197.086 6.96875C197.244 6.44141 197.476 5.98145 197.78 5.58887C198.091 5.19043 198.475 4.87988 198.932 4.65723C199.395 4.42871 199.928 4.31445 200.531 4.31445C201 4.31445 201.422 4.38184 201.797 4.5166C202.178 4.64551 202.503 4.85352 202.772 5.14062C203.042 5.42188 203.247 5.78809 203.388 6.23926C203.534 6.69043 203.607 7.24121 203.607 7.8916V14H201.27V7.88281C201.27 7.41992 201.205 7.06543 201.076 6.81934C200.953 6.57324 200.774 6.40332 200.54 6.30957C200.306 6.20996 200.03 6.16016 199.714 6.16016C199.392 6.16016 199.11 6.22168 198.87 6.34473C198.636 6.46191 198.437 6.62598 198.272 6.83691C198.114 7.04785 197.994 7.29395 197.912 7.5752C197.836 7.85059 197.798 8.14941 197.798 8.47168ZM208.151 4.49023V14H205.822V4.49023H208.151ZM205.664 2.00293C205.664 1.65723 205.781 1.37012 206.016 1.1416C206.256 0.913086 206.578 0.798828 206.982 0.798828C207.387 0.798828 207.706 0.913086 207.94 1.1416C208.181 1.37012 208.301 1.65723 208.301 2.00293C208.301 2.34277 208.181 2.62695 207.94 2.85547C207.706 3.08398 207.387 3.19824 206.982 3.19824C206.578 3.19824 206.256 3.08398 206.016 2.85547C205.781 2.62695 205.664 2.34277 205.664 2.00293ZM212.643 6.52051V14H210.322V4.49023H212.502L212.643 6.52051ZM212.273 8.90234H211.588C211.594 8.21094 211.688 7.58398 211.869 7.02148C212.051 6.45898 212.306 5.97559 212.634 5.57129C212.968 5.16699 213.363 4.85645 213.82 4.63965C214.277 4.42285 214.787 4.31445 215.35 4.31445C215.807 4.31445 216.22 4.37891 216.589 4.50781C216.958 4.63672 217.274 4.8418 217.538 5.12305C217.808 5.4043 218.013 5.77344 218.153 6.23047C218.3 6.68164 218.373 7.23828 218.373 7.90039V14H216.035V7.88281C216.035 7.44922 215.971 7.10645 215.842 6.85449C215.719 6.60254 215.537 6.42383 215.297 6.31836C215.062 6.21289 214.772 6.16016 214.427 6.16016C214.069 6.16016 213.756 6.2334 213.486 6.37988C213.223 6.52051 213 6.7168 212.818 6.96875C212.643 7.2207 212.508 7.51074 212.414 7.83887C212.32 8.16699 212.273 8.52148 212.273 8.90234ZM226.468 4.49023H228.577V13.71C228.577 14.5713 228.39 15.3008 228.015 15.8984C227.646 16.502 227.127 16.959 226.459 17.2695C225.791 17.5859 225.015 17.7441 224.13 17.7441C223.749 17.7441 223.336 17.6914 222.891 17.5859C222.451 17.4805 222.026 17.3135 221.616 17.085C221.212 16.8623 220.875 16.5723 220.605 16.2148L221.651 14.8438C221.968 15.2129 222.325 15.4912 222.724 15.6787C223.122 15.8721 223.553 15.9688 224.016 15.9688C224.484 15.9688 224.883 15.8809 225.211 15.7051C225.545 15.5352 225.8 15.2832 225.976 14.9492C226.157 14.6211 226.248 14.2168 226.248 13.7363V6.66113L226.468 4.49023ZM220.043 9.35938V9.1748C220.043 8.44824 220.131 7.78906 220.307 7.19727C220.482 6.59961 220.734 6.08691 221.062 5.65918C221.396 5.23145 221.798 4.90039 222.267 4.66602C222.741 4.43164 223.274 4.31445 223.866 4.31445C224.493 4.31445 225.021 4.42871 225.448 4.65723C225.882 4.88574 226.239 5.21094 226.521 5.63281C226.808 6.05469 227.03 6.55566 227.188 7.13574C227.353 7.70996 227.479 8.34277 227.566 9.03418V9.53516C227.484 10.209 227.353 10.8271 227.171 11.3896C226.995 11.9521 226.761 12.4443 226.468 12.8662C226.175 13.2822 225.812 13.6045 225.378 13.833C224.944 14.0615 224.435 14.1758 223.849 14.1758C223.263 14.1758 222.735 14.0557 222.267 13.8154C221.798 13.5752 221.396 13.2383 221.062 12.8047C220.734 12.3711 220.482 11.8613 220.307 11.2754C220.131 10.6895 220.043 10.0508 220.043 9.35938ZM222.363 9.1748V9.35938C222.363 9.76953 222.404 10.1533 222.486 10.5107C222.568 10.8682 222.694 11.1846 222.864 11.46C223.034 11.7295 223.248 11.9404 223.506 12.0928C223.764 12.2451 224.071 12.3213 224.429 12.3213C224.909 12.3213 225.302 12.2217 225.606 12.0225C225.917 11.8174 226.151 11.5391 226.31 11.1875C226.474 10.8301 226.579 10.4287 226.626 9.9834V8.60352C226.597 8.25195 226.532 7.92676 226.433 7.62793C226.339 7.3291 226.207 7.07129 226.037 6.85449C225.867 6.6377 225.65 6.46777 225.387 6.34473C225.123 6.22168 224.81 6.16016 224.446 6.16016C224.095 6.16016 223.787 6.23926 223.523 6.39746C223.26 6.5498 223.043 6.76367 222.873 7.03906C222.703 7.31445 222.574 7.63379 222.486 7.99707C222.404 8.36035 222.363 8.75293 222.363 9.1748ZM240.855 11.9785V0.5H243.193V14H241.084L240.855 11.9785ZM234.747 9.35938V9.1748C234.747 8.44824 234.829 7.78906 234.993 7.19727C235.163 6.59961 235.409 6.08691 235.731 5.65918C236.054 5.23145 236.443 4.90039 236.9 4.66602C237.363 4.43164 237.888 4.31445 238.474 4.31445C239.042 4.31445 239.537 4.42871 239.959 4.65723C240.387 4.88574 240.75 5.21094 241.049 5.63281C241.354 6.05469 241.597 6.55566 241.778 7.13574C241.96 7.70996 242.092 8.34277 242.174 9.03418V9.53516C242.092 10.209 241.96 10.8271 241.778 11.3896C241.597 11.9521 241.354 12.4443 241.049 12.8662C240.75 13.2822 240.387 13.6045 239.959 13.833C239.531 14.0615 239.03 14.1758 238.456 14.1758C237.876 14.1758 237.354 14.0557 236.892 13.8154C236.435 13.5752 236.045 13.2383 235.723 12.8047C235.406 12.3711 235.163 11.8613 234.993 11.2754C234.829 10.6895 234.747 10.0508 234.747 9.35938ZM237.076 9.1748V9.35938C237.076 9.76953 237.111 10.1533 237.182 10.5107C237.252 10.8682 237.366 11.1846 237.524 11.46C237.683 11.7295 237.885 11.9404 238.131 12.0928C238.383 12.2451 238.688 12.3213 239.045 12.3213C239.502 12.3213 239.877 12.2217 240.17 12.0225C240.469 11.8174 240.7 11.5391 240.864 11.1875C241.028 10.8301 241.134 10.4287 241.181 9.9834V8.60352C241.157 8.25195 241.096 7.92676 240.996 7.62793C240.902 7.3291 240.768 7.07129 240.592 6.85449C240.422 6.6377 240.211 6.46777 239.959 6.34473C239.707 6.22168 239.408 6.16016 239.062 6.16016C238.705 6.16016 238.4 6.23926 238.148 6.39746C237.896 6.5498 237.691 6.76367 237.533 7.03906C237.375 7.31445 237.258 7.63379 237.182 7.99707C237.111 8.36035 237.076 8.75293 237.076 9.1748ZM249.565 14.1758C248.845 14.1758 248.197 14.0586 247.623 13.8242C247.049 13.5898 246.56 13.2646 246.155 12.8486C245.757 12.4268 245.449 11.9375 245.232 11.3809C245.021 10.8184 244.916 10.2148 244.916 9.57031V9.21875C244.916 8.48633 245.021 7.82129 245.232 7.22363C245.443 6.62012 245.742 6.10156 246.129 5.66797C246.516 5.23438 246.979 4.90039 247.518 4.66602C248.057 4.43164 248.651 4.31445 249.302 4.31445C249.976 4.31445 250.57 4.42871 251.086 4.65723C251.602 4.87988 252.032 5.19629 252.378 5.60645C252.724 6.0166 252.984 6.50879 253.16 7.08301C253.336 7.65137 253.424 8.28125 253.424 8.97266V9.94824H245.971V8.34863H251.139V8.17285C251.127 7.80371 251.057 7.4668 250.928 7.16211C250.799 6.85156 250.6 6.60547 250.33 6.42383C250.061 6.23633 249.712 6.14258 249.284 6.14258C248.938 6.14258 248.637 6.21875 248.379 6.37109C248.127 6.51758 247.916 6.72852 247.746 7.00391C247.582 7.27344 247.459 7.5957 247.377 7.9707C247.295 8.3457 247.254 8.76172 247.254 9.21875V9.57031C247.254 9.96875 247.307 10.3379 247.412 10.6777C247.523 11.0176 247.685 11.3135 247.896 11.5654C248.112 11.8115 248.37 12.0049 248.669 12.1455C248.974 12.2803 249.319 12.3477 249.706 12.3477C250.192 12.3477 250.632 12.2539 251.024 12.0664C251.423 11.873 251.769 11.5889 252.062 11.2139L253.23 12.4268C253.031 12.7197 252.762 13.001 252.422 13.2705C252.088 13.54 251.684 13.7598 251.209 13.9297C250.734 14.0938 250.187 14.1758 249.565 14.1758ZM257.291 6.44141V14H254.971V4.49023H257.159L257.291 6.44141ZM256.948 8.90234H256.236C256.236 8.24023 256.315 7.63086 256.474 7.07422C256.638 6.51758 256.878 6.03418 257.194 5.62402C257.511 5.20801 257.9 4.88574 258.363 4.65723C258.832 4.42871 259.374 4.31445 259.989 4.31445C260.417 4.31445 260.81 4.37891 261.167 4.50781C261.524 4.63086 261.832 4.82715 262.09 5.09668C262.354 5.36035 262.556 5.70605 262.696 6.13379C262.837 6.55566 262.907 7.0625 262.907 7.6543V14H260.587V7.8916C260.587 7.44629 260.522 7.09766 260.394 6.8457C260.271 6.59375 260.092 6.41797 259.857 6.31836C259.623 6.21289 259.342 6.16016 259.014 6.16016C258.65 6.16016 258.337 6.2334 258.073 6.37988C257.815 6.52051 257.602 6.7168 257.432 6.96875C257.268 7.2207 257.145 7.51074 257.062 7.83887C256.986 8.16699 256.948 8.52148 256.948 8.90234ZM262.731 8.47168L261.773 8.64746C261.779 8.0498 261.861 7.49023 262.02 6.96875C262.178 6.44141 262.409 5.98145 262.714 5.58887C263.024 5.19043 263.408 4.87988 263.865 4.65723C264.328 4.42871 264.861 4.31445 265.465 4.31445C265.934 4.31445 266.355 4.38184 266.73 4.5166C267.111 4.64551 267.437 4.85352 267.706 5.14062C267.976 5.42188 268.181 5.78809 268.321 6.23926C268.468 6.69043 268.541 7.24121 268.541 7.8916V14H266.203V7.88281C266.203 7.41992 266.139 7.06543 266.01 6.81934C265.887 6.57324 265.708 6.40332 265.474 6.30957C265.239 6.20996 264.964 6.16016 264.647 6.16016C264.325 6.16016 264.044 6.22168 263.804 6.34473C263.569 6.46191 263.37 6.62598 263.206 6.83691C263.048 7.04785 262.928 7.29395 262.846 7.5752C262.77 7.85059 262.731 8.14941 262.731 8.47168ZM270.211 9.3418V9.15723C270.211 8.45996 270.311 7.81836 270.51 7.23242C270.709 6.64062 270.999 6.12793 271.38 5.69434C271.761 5.26074 272.227 4.92383 272.777 4.68359C273.328 4.4375 273.955 4.31445 274.658 4.31445C275.373 4.31445 276.006 4.4375 276.557 4.68359C277.113 4.92383 277.582 5.26074 277.963 5.69434C278.344 6.12793 278.634 6.64062 278.833 7.23242C279.032 7.81836 279.132 8.45996 279.132 9.15723V9.3418C279.132 10.0332 279.032 10.6748 278.833 11.2666C278.634 11.8525 278.344 12.3652 277.963 12.8047C277.582 13.2383 277.116 13.5752 276.565 13.8154C276.015 14.0557 275.385 14.1758 274.676 14.1758C273.973 14.1758 273.343 14.0557 272.786 13.8154C272.229 13.5752 271.761 13.2383 271.38 12.8047C270.999 12.3652 270.709 11.8525 270.51 11.2666C270.311 10.6748 270.211 10.0332 270.211 9.3418ZM272.531 9.15723V9.3418C272.531 9.75781 272.572 10.1475 272.654 10.5107C272.736 10.874 272.862 11.1934 273.032 11.4688C273.202 11.7441 273.422 11.9609 273.691 12.1191C273.967 12.2715 274.295 12.3477 274.676 12.3477C275.051 12.3477 275.373 12.2715 275.643 12.1191C275.912 11.9609 276.132 11.7441 276.302 11.4688C276.478 11.1934 276.606 10.874 276.688 10.5107C276.771 10.1475 276.812 9.75781 276.812 9.3418V9.15723C276.812 8.74707 276.771 8.36328 276.688 8.00586C276.606 7.64258 276.478 7.32324 276.302 7.04785C276.132 6.7666 275.909 6.54688 275.634 6.38867C275.364 6.22461 275.039 6.14258 274.658 6.14258C274.283 6.14258 273.961 6.22461 273.691 6.38867C273.422 6.54688 273.202 6.7666 273.032 7.04785C272.862 7.32324 272.736 7.64258 272.654 8.00586C272.572 8.36328 272.531 8.74707 272.531 9.15723Z" fill="white"/>
</svg>
