<svg width="267" height="43" viewBox="0 0 267 43" fill="none" xmlns="http://www.w3.org/2000/svg">
<path d="M1.22168 1.20312H5.87109C6.84375 1.20312 7.67871 1.34961 8.37598 1.64258C9.07324 1.93555 9.60938 2.36914 9.98438 2.94336C10.3594 3.51758 10.5469 4.22363 10.5469 5.06152C10.5469 5.72363 10.4297 6.29785 10.1953 6.78418C9.96094 7.27051 9.62988 7.67773 9.20215 8.00586C8.78027 8.33398 8.28223 8.5918 7.70801 8.7793L6.95215 9.16602H2.84766L2.83008 7.25879H5.89746C6.39551 7.25879 6.80859 7.1709 7.13672 6.99512C7.46484 6.81934 7.71094 6.57617 7.875 6.26562C8.04492 5.95508 8.12988 5.60059 8.12988 5.20215C8.12988 4.77441 8.04785 4.40527 7.88379 4.09473C7.71973 3.77832 7.4707 3.53516 7.13672 3.36523C6.80273 3.19531 6.38086 3.11035 5.87109 3.11035H3.63867V14H1.22168V1.20312ZM8.44629 14L5.48438 8.26953L8.04199 8.26074L11.0391 13.877V14H8.44629ZM16.7607 14.1758C16.04 14.1758 15.3926 14.0586 14.8184 13.8242C14.2441 13.5898 13.7549 13.2646 13.3506 12.8486C12.9521 12.4268 12.6445 11.9375 12.4277 11.3809C12.2168 10.8184 12.1113 10.2148 12.1113 9.57031V9.21875C12.1113 8.48633 12.2168 7.82129 12.4277 7.22363C12.6387 6.62012 12.9375 6.10156 13.3242 5.66797C13.7109 5.23438 14.1738 4.90039 14.7129 4.66602C15.252 4.43164 15.8467 4.31445 16.4971 4.31445C17.1709 4.31445 17.7656 4.42871 18.2812 4.65723C18.7969 4.87988 19.2275 5.19629 19.5732 5.60645C19.9189 6.0166 20.1797 6.50879 20.3555 7.08301C20.5312 7.65137 20.6191 8.28125 20.6191 8.97266V9.94824H13.166V8.34863H18.334V8.17285C18.3223 7.80371 18.252 7.4668 18.123 7.16211C17.9941 6.85156 17.7949 6.60547 17.5254 6.42383C17.2559 6.23633 16.9072 6.14258 16.4795 6.14258C16.1338 6.14258 15.832 6.21875 15.5742 6.37109C15.3223 6.51758 15.1113 6.72852 14.9414 7.00391C14.7773 7.27344 14.6543 7.5957 14.5723 7.9707C14.4902 8.3457 14.4492 8.76172 14.4492 9.21875V9.57031C14.4492 9.96875 14.502 10.3379 14.6074 10.6777C14.7188 11.0176 14.8799 11.3135 15.0908 11.5654C15.3076 11.8115 15.5654 12.0049 15.8643 12.1455C16.1689 12.2803 16.5146 12.3477 16.9014 12.3477C17.3877 12.3477 17.8271 12.2539 18.2197 12.0664C18.6182 11.873 18.9639 11.5889 19.2568 11.2139L20.4258 12.4268C20.2266 12.7197 19.957 13.001 19.6172 13.2705C19.2832 13.54 18.8789 13.7598 18.4043 13.9297C17.9297 14.0938 17.3818 14.1758 16.7607 14.1758ZM27.4131 11.9785V7.59277C27.4131 7.27051 27.3574 6.99219 27.2461 6.75781C27.1348 6.52344 26.9648 6.3418 26.7363 6.21289C26.5078 6.08398 26.2178 6.01953 25.8662 6.01953C25.5557 6.01953 25.2832 6.07227 25.0488 6.17773C24.8203 6.2832 24.6445 6.43262 24.5215 6.62598C24.3984 6.81348 24.3369 7.03027 24.3369 7.27637H22.0078C22.0078 6.88379 22.1016 6.51172 22.2891 6.16016C22.4766 5.80273 22.7432 5.48633 23.0889 5.21094C23.4404 4.92969 23.8594 4.70996 24.3457 4.55176C24.8379 4.39355 25.3887 4.31445 25.998 4.31445C26.7188 4.31445 27.3604 4.4375 27.9229 4.68359C28.4912 4.92383 28.9365 5.28711 29.2588 5.77344C29.5869 6.25977 29.751 6.87207 29.751 7.61035V11.7588C29.751 12.2334 29.7803 12.6406 29.8389 12.9805C29.9033 13.3145 29.9971 13.6045 30.1201 13.8506V14H27.7559C27.6445 13.7598 27.5596 13.4551 27.501 13.0859C27.4424 12.7109 27.4131 12.3418 27.4131 11.9785ZM27.7383 8.20801L27.7559 9.58789H26.2881C25.9248 9.58789 25.6055 9.62598 25.3301 9.70215C25.0547 9.77246 24.8291 9.87793 24.6533 10.0186C24.4775 10.1533 24.3457 10.3174 24.2578 10.5107C24.1699 10.6982 24.126 10.9121 24.126 11.1523C24.126 11.3867 24.1787 11.5977 24.2842 11.7852C24.3955 11.9727 24.5537 12.1221 24.7588 12.2334C24.9697 12.3389 25.2158 12.3916 25.4971 12.3916C25.9072 12.3916 26.2646 12.3096 26.5693 12.1455C26.874 11.9756 27.1113 11.7705 27.2812 11.5303C27.4512 11.29 27.542 11.0615 27.5537 10.8447L28.2217 11.8467C28.1396 12.0869 28.0166 12.3418 27.8525 12.6113C27.6885 12.8809 27.4775 13.1328 27.2197 13.3672C26.9619 13.6016 26.6514 13.7949 26.2881 13.9473C25.9248 14.0996 25.5029 14.1758 25.0225 14.1758C24.4072 14.1758 23.8564 14.0527 23.3701 13.8066C22.8838 13.5605 22.5 13.2236 22.2188 12.7959C21.9375 12.3682 21.7969 11.8818 21.7969 11.3369C21.7969 10.833 21.8906 10.3877 22.0781 10.001C22.2656 9.61426 22.5439 9.28906 22.9131 9.02539C23.2822 8.75586 23.7393 8.55371 24.2842 8.41895C24.835 8.27832 25.4648 8.20801 26.1738 8.20801H27.7383ZM37.5469 11.9785V0.5H39.8848V14H37.7754L37.5469 11.9785ZM31.4385 9.35938V9.1748C31.4385 8.44824 31.5205 7.78906 31.6846 7.19727C31.8545 6.59961 32.1006 6.08691 32.4229 5.65918C32.7451 5.23145 33.1348 4.90039 33.5918 4.66602C34.0547 4.43164 34.5791 4.31445 35.165 4.31445C35.7334 4.31445 36.2285 4.42871 36.6504 4.65723C37.0781 4.88574 37.4414 5.21094 37.7402 5.63281C38.0449 6.05469 38.2881 6.55566 38.4697 7.13574C38.6514 7.70996 38.7832 8.34277 38.8652 9.03418V9.53516C38.7832 10.209 38.6514 10.8271 38.4697 11.3896C38.2881 11.9521 38.0449 12.4443 37.7402 12.8662C37.4414 13.2822 37.0781 13.6045 36.6504 13.833C36.2227 14.0615 35.7217 14.1758 35.1475 14.1758C34.5674 14.1758 34.0459 14.0557 33.583 13.8154C33.126 13.5752 32.7363 13.2383 32.4141 12.8047C32.0977 12.3711 31.8545 11.8613 31.6846 11.2754C31.5205 10.6895 31.4385 10.0508 31.4385 9.35938ZM33.7676 9.1748V9.35938C33.7676 9.76953 33.8027 10.1533 33.873 10.5107C33.9434 10.8682 34.0576 11.1846 34.2158 11.46C34.374 11.7295 34.5762 11.9404 34.8223 12.0928C35.0742 12.2451 35.3789 12.3213 35.7363 12.3213C36.1934 12.3213 36.5684 12.2217 36.8613 12.0225C37.1602 11.8174 37.3916 11.5391 37.5557 11.1875C37.7197 10.8301 37.8252 10.4287 37.8721 9.9834V8.60352C37.8486 8.25195 37.7871 7.92676 37.6875 7.62793C37.5938 7.3291 37.459 7.07129 37.2832 6.85449C37.1133 6.6377 36.9023 6.46777 36.6504 6.34473C36.3984 6.22168 36.0996 6.16016 35.7539 6.16016C35.3965 6.16016 35.0918 6.23926 34.8398 6.39746C34.5879 6.5498 34.3828 6.76367 34.2246 7.03906C34.0664 7.31445 33.9492 7.63379 33.873 7.99707C33.8027 8.36035 33.7676 8.75293 33.7676 9.1748ZM44.7715 12.9453L47.3203 4.49023H49.8076L45.9932 15.4414C45.9053 15.6758 45.791 15.9307 45.6504 16.2061C45.5156 16.4814 45.334 16.7422 45.1055 16.9883C44.877 17.2402 44.5898 17.4453 44.2441 17.6035C43.9043 17.7617 43.4912 17.8408 43.0049 17.8408C42.7939 17.8408 42.6064 17.8262 42.4424 17.7969C42.2783 17.7676 42.1055 17.7295 41.9238 17.6826V15.9424C41.9824 15.9482 42.0498 15.9512 42.126 15.9512C42.208 15.957 42.2783 15.96 42.3369 15.96C42.6768 15.96 42.958 15.9189 43.1807 15.8369C43.4033 15.7607 43.582 15.6348 43.7168 15.459C43.8574 15.2891 43.9746 15.0664 44.0684 14.791L44.7715 12.9453ZM43.5146 4.49023L45.668 11.4951L46.0459 13.9473L44.4463 14.2373L41.0098 4.49023H43.5146ZM59.915 4.49023V6.16016H54.4658V4.49023H59.915ZM55.9248 2.15234H58.2539V11.2578C58.2539 11.5391 58.292 11.7559 58.3682 11.9082C58.4443 12.0605 58.5586 12.1631 58.7109 12.2158C58.8633 12.2686 59.0449 12.2949 59.2559 12.2949C59.4082 12.2949 59.5488 12.2861 59.6777 12.2686C59.8066 12.251 59.915 12.2334 60.0029 12.2158L60.0117 13.9561C59.8184 14.0205 59.5986 14.0732 59.3525 14.1143C59.1123 14.1553 58.8398 14.1758 58.5352 14.1758C58.0137 14.1758 57.5566 14.0879 57.1641 13.9121C56.7715 13.7305 56.4668 13.4404 56.25 13.042C56.0332 12.6377 55.9248 12.1045 55.9248 11.4424V2.15234ZM60.8203 9.3418V9.15723C60.8203 8.45996 60.9199 7.81836 61.1191 7.23242C61.3184 6.64062 61.6084 6.12793 61.9893 5.69434C62.3701 5.26074 62.8359 4.92383 63.3867 4.68359C63.9375 4.4375 64.5645 4.31445 65.2676 4.31445C65.9824 4.31445 66.6152 4.4375 67.166 4.68359C67.7227 4.92383 68.1914 5.26074 68.5723 5.69434C68.9531 6.12793 69.2432 6.64062 69.4424 7.23242C69.6416 7.81836 69.7412 8.45996 69.7412 9.15723V9.3418C69.7412 10.0332 69.6416 10.6748 69.4424 11.2666C69.2432 11.8525 68.9531 12.3652 68.5723 12.8047C68.1914 13.2383 67.7256 13.5752 67.1748 13.8154C66.624 14.0557 65.9941 14.1758 65.2852 14.1758C64.582 14.1758 63.9521 14.0557 63.3955 13.8154C62.8389 13.5752 62.3701 13.2383 61.9893 12.8047C61.6084 12.3652 61.3184 11.8525 61.1191 11.2666C60.9199 10.6748 60.8203 10.0332 60.8203 9.3418ZM63.1406 9.15723V9.3418C63.1406 9.75781 63.1816 10.1475 63.2637 10.5107C63.3457 10.874 63.4717 11.1934 63.6416 11.4688C63.8115 11.7441 64.0312 11.9609 64.3008 12.1191C64.5762 12.2715 64.9043 12.3477 65.2852 12.3477C65.6602 12.3477 65.9824 12.2715 66.252 12.1191C66.5215 11.9609 66.7412 11.7441 66.9111 11.4688C67.0869 11.1934 67.2158 10.874 67.2979 10.5107C67.3799 10.1475 67.4209 9.75781 67.4209 9.3418V9.15723C67.4209 8.74707 67.3799 8.36328 67.2979 8.00586C67.2158 7.64258 67.0869 7.32324 66.9111 7.04785C66.7412 6.7666 66.5186 6.54688 66.2432 6.38867C65.9736 6.22461 65.6484 6.14258 65.2676 6.14258C64.8926 6.14258 64.5703 6.22461 64.3008 6.38867C64.0312 6.54688 63.8115 6.7666 63.6416 7.04785C63.4717 7.32324 63.3457 7.64258 63.2637 8.00586C63.1816 8.36328 63.1406 8.74707 63.1406 9.15723ZM81.1406 11.3984C81.1406 11.1992 81.0879 11.0205 80.9824 10.8623C80.877 10.7041 80.6777 10.5605 80.3848 10.4316C80.0977 10.2969 79.6758 10.1709 79.1191 10.0537C78.627 9.94824 78.1729 9.81641 77.7568 9.6582C77.3408 9.5 76.9834 9.30957 76.6846 9.08691C76.3857 8.8584 76.1514 8.5918 75.9814 8.28711C75.8174 7.97656 75.7354 7.61914 75.7354 7.21484C75.7354 6.82227 75.8203 6.45312 75.9902 6.10742C76.1602 5.75586 76.4062 5.44824 76.7285 5.18457C77.0508 4.91504 77.4434 4.7041 77.9062 4.55176C78.3691 4.39355 78.8906 4.31445 79.4707 4.31445C80.2793 4.31445 80.9736 4.44629 81.5537 4.70996C82.1396 4.97363 82.5879 5.33691 82.8984 5.7998C83.209 6.25684 83.3643 6.77246 83.3643 7.34668H81.0439C81.0439 7.09473 80.9854 6.86621 80.8682 6.66113C80.7568 6.45605 80.584 6.29199 80.3496 6.16895C80.1152 6.04004 79.8193 5.97559 79.4619 5.97559C79.1396 5.97559 78.8672 6.02832 78.6445 6.13379C78.4277 6.23926 78.2637 6.37695 78.1523 6.54688C78.041 6.7168 77.9854 6.9043 77.9854 7.10938C77.9854 7.26172 78.0146 7.39941 78.0732 7.52246C78.1377 7.63965 78.2402 7.74805 78.3809 7.84766C78.5215 7.94727 78.7119 8.03809 78.9521 8.12012C79.1982 8.20215 79.5 8.28125 79.8574 8.35742C80.5664 8.49805 81.1846 8.68555 81.7119 8.91992C82.2451 9.14844 82.6611 9.45312 82.96 9.83398C83.2588 10.2148 83.4082 10.7012 83.4082 11.293C83.4082 11.7148 83.3174 12.1016 83.1357 12.4531C82.9541 12.7988 82.6904 13.1006 82.3447 13.3584C81.999 13.6162 81.5859 13.8184 81.1055 13.9648C80.625 14.1055 80.083 14.1758 79.4795 14.1758C78.6064 14.1758 77.8682 14.0205 77.2646 13.71C76.6611 13.3936 76.2041 12.9951 75.8936 12.5146C75.583 12.0283 75.4277 11.5244 75.4277 11.0029H77.6514C77.6689 11.3721 77.7686 11.668 77.9502 11.8906C78.1318 12.1133 78.3604 12.2744 78.6357 12.374C78.917 12.4678 79.2129 12.5146 79.5234 12.5146C79.875 12.5146 80.1709 12.4678 80.4111 12.374C80.6514 12.2744 80.833 12.1426 80.9561 11.9785C81.0791 11.8086 81.1406 11.6152 81.1406 11.3984ZM89.4463 14.1758C88.7256 14.1758 88.0781 14.0586 87.5039 13.8242C86.9297 13.5898 86.4404 13.2646 86.0361 12.8486C85.6377 12.4268 85.3301 11.9375 85.1133 11.3809C84.9023 10.8184 84.7969 10.2148 84.7969 9.57031V9.21875C84.7969 8.48633 84.9023 7.82129 85.1133 7.22363C85.3242 6.62012 85.623 6.10156 86.0098 5.66797C86.3965 5.23438 86.8594 4.90039 87.3984 4.66602C87.9375 4.43164 88.5322 4.31445 89.1826 4.31445C89.8564 4.31445 90.4512 4.42871 90.9668 4.65723C91.4824 4.87988 91.9131 5.19629 92.2588 5.60645C92.6045 6.0166 92.8652 6.50879 93.041 7.08301C93.2168 7.65137 93.3047 8.28125 93.3047 8.97266V9.94824H85.8516V8.34863H91.0195V8.17285C91.0078 7.80371 90.9375 7.4668 90.8086 7.16211C90.6797 6.85156 90.4805 6.60547 90.2109 6.42383C89.9414 6.23633 89.5928 6.14258 89.165 6.14258C88.8193 6.14258 88.5176 6.21875 88.2598 6.37109C88.0078 6.51758 87.7969 6.72852 87.627 7.00391C87.4629 7.27344 87.3398 7.5957 87.2578 7.9707C87.1758 8.3457 87.1348 8.76172 87.1348 9.21875V9.57031C87.1348 9.96875 87.1875 10.3379 87.293 10.6777C87.4043 11.0176 87.5654 11.3135 87.7764 11.5654C87.9932 11.8115 88.251 12.0049 88.5498 12.1455C88.8545 12.2803 89.2002 12.3477 89.5869 12.3477C90.0732 12.3477 90.5127 12.2539 90.9053 12.0664C91.3037 11.873 91.6494 11.5889 91.9424 11.2139L93.1113 12.4268C92.9121 12.7197 92.6426 13.001 92.3027 13.2705C91.9688 13.54 91.5645 13.7598 91.0898 13.9297C90.6152 14.0938 90.0674 14.1758 89.4463 14.1758ZM99.1318 14.1758C98.4111 14.1758 97.7637 14.0586 97.1895 13.8242C96.6152 13.5898 96.126 13.2646 95.7217 12.8486C95.3232 12.4268 95.0156 11.9375 94.7988 11.3809C94.5879 10.8184 94.4824 10.2148 94.4824 9.57031V9.21875C94.4824 8.48633 94.5879 7.82129 94.7988 7.22363C95.0098 6.62012 95.3086 6.10156 95.6953 5.66797C96.082 5.23438 96.5449 4.90039 97.084 4.66602C97.623 4.43164 98.2178 4.31445 98.8682 4.31445C99.542 4.31445 100.137 4.42871 100.652 4.65723C101.168 4.87988 101.599 5.19629 101.944 5.60645C102.29 6.0166 102.551 6.50879 102.727 7.08301C102.902 7.65137 102.99 8.28125 102.99 8.97266V9.94824H95.5371V8.34863H100.705V8.17285C100.693 7.80371 100.623 7.4668 100.494 7.16211C100.365 6.85156 100.166 6.60547 99.8965 6.42383C99.627 6.23633 99.2783 6.14258 98.8506 6.14258C98.5049 6.14258 98.2031 6.21875 97.9453 6.37109C97.6934 6.51758 97.4824 6.72852 97.3125 7.00391C97.1484 7.27344 97.0254 7.5957 96.9434 7.9707C96.8613 8.3457 96.8203 8.76172 96.8203 9.21875V9.57031C96.8203 9.96875 96.873 10.3379 96.9785 10.6777C97.0898 11.0176 97.251 11.3135 97.4619 11.5654C97.6787 11.8115 97.9365 12.0049 98.2354 12.1455C98.54 12.2803 98.8857 12.3477 99.2725 12.3477C99.7588 12.3477 100.198 12.2539 100.591 12.0664C100.989 11.873 101.335 11.5889 101.628 11.2139L102.797 12.4268C102.598 12.7197 102.328 13.001 101.988 13.2705C101.654 13.54 101.25 13.7598 100.775 13.9297C100.301 14.0938 99.7529 14.1758 99.1318 14.1758ZM108.615 9.3418V9.15723C108.615 8.45996 108.715 7.81836 108.914 7.23242C109.113 6.64062 109.403 6.12793 109.784 5.69434C110.165 5.26074 110.631 4.92383 111.182 4.68359C111.732 4.4375 112.359 4.31445 113.062 4.31445C113.777 4.31445 114.41 4.4375 114.961 4.68359C115.518 4.92383 115.986 5.26074 116.367 5.69434C116.748 6.12793 117.038 6.64062 117.237 7.23242C117.437 7.81836 117.536 8.45996 117.536 9.15723V9.3418C117.536 10.0332 117.437 10.6748 117.237 11.2666C117.038 11.8525 116.748 12.3652 116.367 12.8047C115.986 13.2383 115.521 13.5752 114.97 13.8154C114.419 14.0557 113.789 14.1758 113.08 14.1758C112.377 14.1758 111.747 14.0557 111.19 13.8154C110.634 13.5752 110.165 13.2383 109.784 12.8047C109.403 12.3652 109.113 11.8525 108.914 11.2666C108.715 10.6748 108.615 10.0332 108.615 9.3418ZM110.936 9.15723V9.3418C110.936 9.75781 110.977 10.1475 111.059 10.5107C111.141 10.874 111.267 11.1934 111.437 11.4688C111.606 11.7441 111.826 11.9609 112.096 12.1191C112.371 12.2715 112.699 12.3477 113.08 12.3477C113.455 12.3477 113.777 12.2715 114.047 12.1191C114.316 11.9609 114.536 11.7441 114.706 11.4688C114.882 11.1934 115.011 10.874 115.093 10.5107C115.175 10.1475 115.216 9.75781 115.216 9.3418V9.15723C115.216 8.74707 115.175 8.36328 115.093 8.00586C115.011 7.64258 114.882 7.32324 114.706 7.04785C114.536 6.7666 114.313 6.54688 114.038 6.38867C113.769 6.22461 113.443 6.14258 113.062 6.14258C112.688 6.14258 112.365 6.22461 112.096 6.38867C111.826 6.54688 111.606 6.7666 111.437 7.04785C111.267 7.32324 111.141 7.64258 111.059 8.00586C110.977 8.36328 110.936 8.74707 110.936 9.15723ZM124.884 11.7412V4.49023H127.222V14H125.024L124.884 11.7412ZM125.183 9.77246L125.903 9.75488C125.903 10.3936 125.833 10.9824 125.692 11.5215C125.552 12.0605 125.332 12.5293 125.033 12.9277C124.74 13.3203 124.368 13.6279 123.917 13.8506C123.466 14.0674 122.933 14.1758 122.317 14.1758C121.849 14.1758 121.421 14.1113 121.034 13.9824C120.647 13.8477 120.313 13.6396 120.032 13.3584C119.757 13.0713 119.543 12.7051 119.391 12.2598C119.238 11.8086 119.162 11.2666 119.162 10.6338V4.49023H121.482V10.6514C121.482 10.9678 121.518 11.2314 121.588 11.4424C121.664 11.6533 121.767 11.8262 121.896 11.9609C122.03 12.0898 122.186 12.1836 122.361 12.2422C122.543 12.2949 122.736 12.3213 122.941 12.3213C123.504 12.3213 123.946 12.21 124.269 11.9873C124.597 11.7588 124.831 11.4541 124.972 11.0732C125.112 10.6865 125.183 10.2529 125.183 9.77246ZM131.599 6.43262V14H129.278V4.49023H131.476L131.599 6.43262ZM134.49 4.42871L134.455 6.59082C134.326 6.56738 134.18 6.5498 134.016 6.53809C133.857 6.52637 133.708 6.52051 133.567 6.52051C133.21 6.52051 132.896 6.57031 132.627 6.66992C132.357 6.76367 132.132 6.90137 131.95 7.08301C131.774 7.26465 131.64 7.4873 131.546 7.75098C131.452 8.00879 131.399 8.30176 131.388 8.62988L130.887 8.56836C130.887 7.96484 130.948 7.40527 131.071 6.88965C131.194 6.37402 131.373 5.92285 131.607 5.53613C131.842 5.14941 132.135 4.85059 132.486 4.63965C132.844 4.42285 133.254 4.31445 133.717 4.31445C133.846 4.31445 133.983 4.32617 134.13 4.34961C134.282 4.36719 134.402 4.39355 134.49 4.42871ZM145.951 11.9785V0.5H148.289V14H146.18L145.951 11.9785ZM139.843 9.35938V9.1748C139.843 8.44824 139.925 7.78906 140.089 7.19727C140.259 6.59961 140.505 6.08691 140.827 5.65918C141.149 5.23145 141.539 4.90039 141.996 4.66602C142.459 4.43164 142.983 4.31445 143.569 4.31445C144.138 4.31445 144.633 4.42871 145.055 4.65723C145.482 4.88574 145.846 5.21094 146.145 5.63281C146.449 6.05469 146.692 6.55566 146.874 7.13574C147.056 7.70996 147.188 8.34277 147.27 9.03418V9.53516C147.188 10.209 147.056 10.8271 146.874 11.3896C146.692 11.9521 146.449 12.4443 146.145 12.8662C145.846 13.2822 145.482 13.6045 145.055 13.833C144.627 14.0615 144.126 14.1758 143.552 14.1758C142.972 14.1758 142.45 14.0557 141.987 13.8154C141.53 13.5752 141.141 13.2383 140.818 12.8047C140.502 12.3711 140.259 11.8613 140.089 11.2754C139.925 10.6895 139.843 10.0508 139.843 9.35938ZM142.172 9.1748V9.35938C142.172 9.76953 142.207 10.1533 142.277 10.5107C142.348 10.8682 142.462 11.1846 142.62 11.46C142.778 11.7295 142.98 11.9404 143.227 12.0928C143.479 12.2451 143.783 12.3213 144.141 12.3213C144.598 12.3213 144.973 12.2217 145.266 12.0225C145.564 11.8174 145.796 11.5391 145.96 11.1875C146.124 10.8301 146.229 10.4287 146.276 9.9834V8.60352C146.253 8.25195 146.191 7.92676 146.092 7.62793C145.998 7.3291 145.863 7.07129 145.688 6.85449C145.518 6.6377 145.307 6.46777 145.055 6.34473C144.803 6.22168 144.504 6.16016 144.158 6.16016C143.801 6.16016 143.496 6.23926 143.244 6.39746C142.992 6.5498 142.787 6.76367 142.629 7.03906C142.471 7.31445 142.354 7.63379 142.277 7.99707C142.207 8.36035 142.172 8.75293 142.172 9.1748ZM154.661 14.1758C153.94 14.1758 153.293 14.0586 152.719 13.8242C152.145 13.5898 151.655 13.2646 151.251 12.8486C150.853 12.4268 150.545 11.9375 150.328 11.3809C150.117 10.8184 150.012 10.2148 150.012 9.57031V9.21875C150.012 8.48633 150.117 7.82129 150.328 7.22363C150.539 6.62012 150.838 6.10156 151.225 5.66797C151.611 5.23438 152.074 4.90039 152.613 4.66602C153.152 4.43164 153.747 4.31445 154.397 4.31445C155.071 4.31445 155.666 4.42871 156.182 4.65723C156.697 4.87988 157.128 5.19629 157.474 5.60645C157.819 6.0166 158.08 6.50879 158.256 7.08301C158.432 7.65137 158.52 8.28125 158.52 8.97266V9.94824H151.066V8.34863H156.234V8.17285C156.223 7.80371 156.152 7.4668 156.023 7.16211C155.895 6.85156 155.695 6.60547 155.426 6.42383C155.156 6.23633 154.808 6.14258 154.38 6.14258C154.034 6.14258 153.732 6.21875 153.475 6.37109C153.223 6.51758 153.012 6.72852 152.842 7.00391C152.678 7.27344 152.555 7.5957 152.473 7.9707C152.391 8.3457 152.35 8.76172 152.35 9.21875V9.57031C152.35 9.96875 152.402 10.3379 152.508 10.6777C152.619 11.0176 152.78 11.3135 152.991 11.5654C153.208 11.8115 153.466 12.0049 153.765 12.1455C154.069 12.2803 154.415 12.3477 154.802 12.3477C155.288 12.3477 155.728 12.2539 156.12 12.0664C156.519 11.873 156.864 11.5889 157.157 11.2139L158.326 12.4268C158.127 12.7197 157.857 13.001 157.518 13.2705C157.184 13.54 156.779 13.7598 156.305 13.9297C155.83 14.0938 155.282 14.1758 154.661 14.1758ZM162.387 6.44141V14H160.066V4.49023H162.255L162.387 6.44141ZM162.044 8.90234H161.332C161.332 8.24023 161.411 7.63086 161.569 7.07422C161.733 6.51758 161.974 6.03418 162.29 5.62402C162.606 5.20801 162.996 4.88574 163.459 4.65723C163.928 4.42871 164.47 4.31445 165.085 4.31445C165.513 4.31445 165.905 4.37891 166.263 4.50781C166.62 4.63086 166.928 4.82715 167.186 5.09668C167.449 5.36035 167.651 5.70605 167.792 6.13379C167.933 6.55566 168.003 7.0625 168.003 7.6543V14H165.683V7.8916C165.683 7.44629 165.618 7.09766 165.489 6.8457C165.366 6.59375 165.188 6.41797 164.953 6.31836C164.719 6.21289 164.438 6.16016 164.109 6.16016C163.746 6.16016 163.433 6.2334 163.169 6.37988C162.911 6.52051 162.697 6.7168 162.527 6.96875C162.363 7.2207 162.24 7.51074 162.158 7.83887C162.082 8.16699 162.044 8.52148 162.044 8.90234ZM167.827 8.47168L166.869 8.64746C166.875 8.0498 166.957 7.49023 167.115 6.96875C167.273 6.44141 167.505 5.98145 167.81 5.58887C168.12 5.19043 168.504 4.87988 168.961 4.65723C169.424 4.42871 169.957 4.31445 170.561 4.31445C171.029 4.31445 171.451 4.38184 171.826 4.5166C172.207 4.64551 172.532 4.85352 172.802 5.14062C173.071 5.42188 173.276 5.78809 173.417 6.23926C173.563 6.69043 173.637 7.24121 173.637 7.8916V14H171.299V7.88281C171.299 7.41992 171.234 7.06543 171.105 6.81934C170.982 6.57324 170.804 6.40332 170.569 6.30957C170.335 6.20996 170.06 6.16016 169.743 6.16016C169.421 6.16016 169.14 6.22168 168.899 6.34473C168.665 6.46191 168.466 6.62598 168.302 6.83691C168.144 7.04785 168.023 7.29395 167.941 7.5752C167.865 7.85059 167.827 8.14941 167.827 8.47168ZM175.307 9.3418V9.15723C175.307 8.45996 175.406 7.81836 175.605 7.23242C175.805 6.64062 176.095 6.12793 176.476 5.69434C176.856 5.26074 177.322 4.92383 177.873 4.68359C178.424 4.4375 179.051 4.31445 179.754 4.31445C180.469 4.31445 181.102 4.4375 181.652 4.68359C182.209 4.92383 182.678 5.26074 183.059 5.69434C183.439 6.12793 183.729 6.64062 183.929 7.23242C184.128 7.81836 184.228 8.45996 184.228 9.15723V9.3418C184.228 10.0332 184.128 10.6748 183.929 11.2666C183.729 11.8525 183.439 12.3652 183.059 12.8047C182.678 13.2383 182.212 13.5752 181.661 13.8154C181.11 14.0557 180.48 14.1758 179.771 14.1758C179.068 14.1758 178.438 14.0557 177.882 13.8154C177.325 13.5752 176.856 13.2383 176.476 12.8047C176.095 12.3652 175.805 11.8525 175.605 11.2666C175.406 10.6748 175.307 10.0332 175.307 9.3418ZM177.627 9.15723V9.3418C177.627 9.75781 177.668 10.1475 177.75 10.5107C177.832 10.874 177.958 11.1934 178.128 11.4688C178.298 11.7441 178.518 11.9609 178.787 12.1191C179.062 12.2715 179.391 12.3477 179.771 12.3477C180.146 12.3477 180.469 12.2715 180.738 12.1191C181.008 11.9609 181.228 11.7441 181.397 11.4688C181.573 11.1934 181.702 10.874 181.784 10.5107C181.866 10.1475 181.907 9.75781 181.907 9.3418V9.15723C181.907 8.74707 181.866 8.36328 181.784 8.00586C181.702 7.64258 181.573 7.32324 181.397 7.04785C181.228 6.7666 181.005 6.54688 180.729 6.38867C180.46 6.22461 180.135 6.14258 179.754 6.14258C179.379 6.14258 179.057 6.22461 178.787 6.38867C178.518 6.54688 178.298 6.7666 178.128 7.04785C177.958 7.32324 177.832 7.64258 177.75 8.00586C177.668 8.36328 177.627 8.74707 177.627 9.15723ZM192.858 4.49023V14H190.529V4.49023H192.858ZM190.371 2.00293C190.371 1.65723 190.488 1.37012 190.723 1.1416C190.963 0.913086 191.285 0.798828 191.689 0.798828C192.094 0.798828 192.413 0.913086 192.647 1.1416C192.888 1.37012 193.008 1.65723 193.008 2.00293C193.008 2.34277 192.888 2.62695 192.647 2.85547C192.413 3.08398 192.094 3.19824 191.689 3.19824C191.285 3.19824 190.963 3.08398 190.723 2.85547C190.488 2.62695 190.371 2.34277 190.371 2.00293ZM197.35 6.52051V14H195.029V4.49023H197.209L197.35 6.52051ZM196.98 8.90234H196.295C196.301 8.21094 196.395 7.58398 196.576 7.02148C196.758 6.45898 197.013 5.97559 197.341 5.57129C197.675 5.16699 198.07 4.85645 198.527 4.63965C198.984 4.42285 199.494 4.31445 200.057 4.31445C200.514 4.31445 200.927 4.37891 201.296 4.50781C201.665 4.63672 201.981 4.8418 202.245 5.12305C202.515 5.4043 202.72 5.77344 202.86 6.23047C203.007 6.68164 203.08 7.23828 203.08 7.90039V14H200.742V7.88281C200.742 7.44922 200.678 7.10645 200.549 6.85449C200.426 6.60254 200.244 6.42383 200.004 6.31836C199.77 6.21289 199.479 6.16016 199.134 6.16016C198.776 6.16016 198.463 6.2334 198.193 6.37988C197.93 6.52051 197.707 6.7168 197.525 6.96875C197.35 7.2207 197.215 7.51074 197.121 7.83887C197.027 8.16699 196.98 8.52148 196.98 8.90234ZM214.849 11.9785V7.59277C214.849 7.27051 214.793 6.99219 214.682 6.75781C214.57 6.52344 214.4 6.3418 214.172 6.21289C213.943 6.08398 213.653 6.01953 213.302 6.01953C212.991 6.01953 212.719 6.07227 212.484 6.17773C212.256 6.2832 212.08 6.43262 211.957 6.62598C211.834 6.81348 211.772 7.03027 211.772 7.27637H209.443C209.443 6.88379 209.537 6.51172 209.725 6.16016C209.912 5.80273 210.179 5.48633 210.524 5.21094C210.876 4.92969 211.295 4.70996 211.781 4.55176C212.273 4.39355 212.824 4.31445 213.434 4.31445C214.154 4.31445 214.796 4.4375 215.358 4.68359C215.927 4.92383 216.372 5.28711 216.694 5.77344C217.022 6.25977 217.187 6.87207 217.187 7.61035V11.7588C217.187 12.2334 217.216 12.6406 217.274 12.9805C217.339 13.3145 217.433 13.6045 217.556 13.8506V14H215.191C215.08 13.7598 214.995 13.4551 214.937 13.0859C214.878 12.7109 214.849 12.3418 214.849 11.9785ZM215.174 8.20801L215.191 9.58789H213.724C213.36 9.58789 213.041 9.62598 212.766 9.70215C212.49 9.77246 212.265 9.87793 212.089 10.0186C211.913 10.1533 211.781 10.3174 211.693 10.5107C211.605 10.6982 211.562 10.9121 211.562 11.1523C211.562 11.3867 211.614 11.5977 211.72 11.7852C211.831 11.9727 211.989 12.1221 212.194 12.2334C212.405 12.3389 212.651 12.3916 212.933 12.3916C213.343 12.3916 213.7 12.3096 214.005 12.1455C214.31 11.9756 214.547 11.7705 214.717 11.5303C214.887 11.29 214.978 11.0615 214.989 10.8447L215.657 11.8467C215.575 12.0869 215.452 12.3418 215.288 12.6113C215.124 12.8809 214.913 13.1328 214.655 13.3672C214.397 13.6016 214.087 13.7949 213.724 13.9473C213.36 14.0996 212.938 14.1758 212.458 14.1758C211.843 14.1758 211.292 14.0527 210.806 13.8066C210.319 13.5605 209.936 13.2236 209.654 12.7959C209.373 12.3682 209.232 11.8818 209.232 11.3369C209.232 10.833 209.326 10.3877 209.514 10.001C209.701 9.61426 209.979 9.28906 210.349 9.02539C210.718 8.75586 211.175 8.55371 211.72 8.41895C212.271 8.27832 212.9 8.20801 213.609 8.20801H215.174ZM223.181 12.3477C223.509 12.3477 223.802 12.2832 224.06 12.1543C224.317 12.0254 224.522 11.8438 224.675 11.6094C224.833 11.375 224.918 11.1025 224.93 10.792H227.118C227.106 11.4365 226.925 12.0137 226.573 12.5234C226.222 13.0332 225.753 13.4375 225.167 13.7363C224.587 14.0293 223.937 14.1758 223.216 14.1758C222.483 14.1758 221.845 14.0527 221.3 13.8066C220.755 13.5605 220.301 13.2178 219.938 12.7783C219.58 12.3389 219.311 11.8291 219.129 11.249C218.953 10.6689 218.865 10.0479 218.865 9.38574V9.10449C218.865 8.44238 218.953 7.82129 219.129 7.24121C219.311 6.66113 219.58 6.15137 219.938 5.71191C220.301 5.27246 220.755 4.92969 221.3 4.68359C221.845 4.4375 222.48 4.31445 223.207 4.31445C223.975 4.31445 224.648 4.46387 225.229 4.7627C225.814 5.06152 226.271 5.4834 226.6 6.02832C226.934 6.57324 227.106 7.21484 227.118 7.95312H224.93C224.918 7.61328 224.842 7.30859 224.701 7.03906C224.561 6.76953 224.361 6.55273 224.104 6.38867C223.846 6.22461 223.532 6.14258 223.163 6.14258C222.771 6.14258 222.442 6.22461 222.179 6.38867C221.921 6.55273 221.719 6.77832 221.572 7.06543C221.432 7.34668 221.332 7.66309 221.273 8.01465C221.221 8.36035 221.194 8.72363 221.194 9.10449V9.38574C221.194 9.77246 221.221 10.1416 221.273 10.4932C221.332 10.8447 221.432 11.1611 221.572 11.4424C221.719 11.7178 221.921 11.9375 222.179 12.1016C222.442 12.2656 222.776 12.3477 223.181 12.3477ZM233.165 4.49023V6.16016H227.716V4.49023H233.165ZM229.175 2.15234H231.504V11.2578C231.504 11.5391 231.542 11.7559 231.618 11.9082C231.694 12.0605 231.809 12.1631 231.961 12.2158C232.113 12.2686 232.295 12.2949 232.506 12.2949C232.658 12.2949 232.799 12.2861 232.928 12.2686C233.057 12.251 233.165 12.2334 233.253 12.2158L233.262 13.9561C233.068 14.0205 232.849 14.0732 232.603 14.1143C232.362 14.1553 232.09 14.1758 231.785 14.1758C231.264 14.1758 230.807 14.0879 230.414 13.9121C230.021 13.7305 229.717 13.4404 229.5 13.042C229.283 12.6377 229.175 12.1045 229.175 11.4424V2.15234ZM237.173 4.49023V14H234.844V4.49023H237.173ZM234.686 2.00293C234.686 1.65723 234.803 1.37012 235.037 1.1416C235.277 0.913086 235.6 0.798828 236.004 0.798828C236.408 0.798828 236.728 0.913086 236.962 1.1416C237.202 1.37012 237.322 1.65723 237.322 2.00293C237.322 2.34277 237.202 2.62695 236.962 2.85547C236.728 3.08398 236.408 3.19824 236.004 3.19824C235.6 3.19824 235.277 3.08398 235.037 2.85547C234.803 2.62695 234.686 2.34277 234.686 2.00293ZM238.975 9.3418V9.15723C238.975 8.45996 239.074 7.81836 239.273 7.23242C239.473 6.64062 239.763 6.12793 240.144 5.69434C240.524 5.26074 240.99 4.92383 241.541 4.68359C242.092 4.4375 242.719 4.31445 243.422 4.31445C244.137 4.31445 244.77 4.4375 245.32 4.68359C245.877 4.92383 246.346 5.26074 246.727 5.69434C247.107 6.12793 247.397 6.64062 247.597 7.23242C247.796 7.81836 247.896 8.45996 247.896 9.15723V9.3418C247.896 10.0332 247.796 10.6748 247.597 11.2666C247.397 11.8525 247.107 12.3652 246.727 12.8047C246.346 13.2383 245.88 13.5752 245.329 13.8154C244.778 14.0557 244.148 14.1758 243.439 14.1758C242.736 14.1758 242.106 14.0557 241.55 13.8154C240.993 13.5752 240.524 13.2383 240.144 12.8047C239.763 12.3652 239.473 11.8525 239.273 11.2666C239.074 10.6748 238.975 10.0332 238.975 9.3418ZM241.295 9.15723V9.3418C241.295 9.75781 241.336 10.1475 241.418 10.5107C241.5 10.874 241.626 11.1934 241.796 11.4688C241.966 11.7441 242.186 11.9609 242.455 12.1191C242.73 12.2715 243.059 12.3477 243.439 12.3477C243.814 12.3477 244.137 12.2715 244.406 12.1191C244.676 11.9609 244.896 11.7441 245.065 11.4688C245.241 11.1934 245.37 10.874 245.452 10.5107C245.534 10.1475 245.575 9.75781 245.575 9.3418V9.15723C245.575 8.74707 245.534 8.36328 245.452 8.00586C245.37 7.64258 245.241 7.32324 245.065 7.04785C244.896 6.7666 244.673 6.54688 244.397 6.38867C244.128 6.22461 243.803 6.14258 243.422 6.14258C243.047 6.14258 242.725 6.22461 242.455 6.38867C242.186 6.54688 241.966 6.7666 241.796 7.04785C241.626 7.32324 241.5 7.64258 241.418 8.00586C241.336 8.36328 241.295 8.74707 241.295 9.15723ZM251.859 6.52051V14H249.539V4.49023H251.719L251.859 6.52051ZM251.49 8.90234H250.805C250.811 8.21094 250.904 7.58398 251.086 7.02148C251.268 6.45898 251.522 5.97559 251.851 5.57129C252.185 5.16699 252.58 4.85645 253.037 4.63965C253.494 4.42285 254.004 4.31445 254.566 4.31445C255.023 4.31445 255.437 4.37891 255.806 4.50781C256.175 4.63672 256.491 4.8418 256.755 5.12305C257.024 5.4043 257.229 5.77344 257.37 6.23047C257.517 6.68164 257.59 7.23828 257.59 7.90039V14H255.252V7.88281C255.252 7.44922 255.188 7.10645 255.059 6.85449C254.936 6.60254 254.754 6.42383 254.514 6.31836C254.279 6.21289 253.989 6.16016 253.644 6.16016C253.286 6.16016 252.973 6.2334 252.703 6.37988C252.439 6.52051 252.217 6.7168 252.035 6.96875C251.859 7.2207 251.725 7.51074 251.631 7.83887C251.537 8.16699 251.49 8.52148 251.49 8.90234ZM263.769 10.1592H261.668C261.674 9.62598 261.718 9.16895 261.8 8.78809C261.888 8.40723 262.031 8.06445 262.23 7.75977C262.43 7.44922 262.699 7.13281 263.039 6.81055C263.309 6.55859 263.549 6.32129 263.76 6.09863C263.977 5.87012 264.146 5.63281 264.27 5.38672C264.393 5.13477 264.454 4.85059 264.454 4.53418C264.454 4.17676 264.396 3.87793 264.278 3.6377C264.167 3.39746 264 3.21582 263.777 3.09277C263.561 2.96387 263.288 2.89941 262.96 2.89941C262.69 2.89941 262.436 2.95508 262.195 3.06641C261.955 3.17773 261.762 3.35059 261.615 3.58496C261.469 3.81348 261.39 4.1123 261.378 4.48145H259.049C259.066 3.71387 259.248 3.0752 259.594 2.56543C259.939 2.0498 260.405 1.66602 260.991 1.41406C261.577 1.15625 262.233 1.02734 262.96 1.02734C263.763 1.02734 264.448 1.16211 265.017 1.43164C265.591 1.69531 266.027 2.08203 266.326 2.5918C266.631 3.10156 266.783 3.7168 266.783 4.4375C266.783 4.95312 266.684 5.41602 266.484 5.82617C266.285 6.23047 266.021 6.6084 265.693 6.95996C265.365 7.31152 265.011 7.66602 264.63 8.02344C264.296 8.32227 264.07 8.6416 263.953 8.98145C263.836 9.32129 263.774 9.71387 263.769 10.1592ZM261.448 12.8926C261.448 12.541 261.565 12.248 261.8 12.0137C262.04 11.7793 262.362 11.6621 262.767 11.6621C263.171 11.6621 263.49 11.7793 263.725 12.0137C263.965 12.248 264.085 12.541 264.085 12.8926C264.085 13.2324 263.965 13.5195 263.725 13.7539C263.49 13.9883 263.171 14.1055 262.767 14.1055C262.362 14.1055 262.04 13.9883 261.8 13.7539C261.565 13.5195 261.448 13.2324 261.448 12.8926ZM6.3457 31.3916L2.86523 42H0.0615234L4.81641 29.2031H6.60059L6.3457 31.3916ZM9.2373 42L5.74805 31.3916L5.4668 29.2031H7.26855L12.0498 42H9.2373ZM9.0791 37.2363V39.3018H2.32031V37.2363H9.0791ZM17.0068 40.1982C17.3174 40.1982 17.5928 40.1396 17.833 40.0225C18.0732 39.8994 18.2607 39.7295 18.3955 39.5127C18.5361 39.29 18.6094 39.0293 18.6152 38.7305H20.9971C20.9912 39.3984 20.8125 39.9932 20.4609 40.5146C20.1094 41.0303 19.6377 41.4375 19.0459 41.7363C18.4541 42.0293 17.792 42.1758 17.0596 42.1758C16.3213 42.1758 15.6768 42.0527 15.126 41.8066C14.5811 41.5605 14.127 41.2207 13.7637 40.7871C13.4004 40.3477 13.1279 39.8379 12.9463 39.2578C12.7646 38.6719 12.6738 38.0449 12.6738 37.377V37.1221C12.6738 36.4482 12.7646 35.8213 12.9463 35.2412C13.1279 34.6553 13.4004 34.1455 13.7637 33.7119C14.127 33.2725 14.5811 32.9297 15.126 32.6836C15.6709 32.4375 16.3096 32.3145 17.042 32.3145C17.8213 32.3145 18.5039 32.4639 19.0898 32.7627C19.6816 33.0615 20.1445 33.4893 20.4785 34.0459C20.8184 34.5967 20.9912 35.25 20.9971 36.0059H18.6152C18.6094 35.6895 18.542 35.4023 18.4131 35.1445C18.29 34.8867 18.1084 34.6816 17.8682 34.5293C17.6338 34.3711 17.3438 34.292 16.998 34.292C16.6289 34.292 16.3271 34.3711 16.0928 34.5293C15.8584 34.6816 15.6768 34.8926 15.5479 35.1621C15.4189 35.4258 15.3281 35.7275 15.2754 36.0674C15.2285 36.4014 15.2051 36.7529 15.2051 37.1221V37.377C15.2051 37.7461 15.2285 38.1006 15.2754 38.4404C15.3223 38.7803 15.4102 39.082 15.5391 39.3457C15.6738 39.6094 15.8584 39.8174 16.0928 39.9697C16.3271 40.1221 16.6318 40.1982 17.0068 40.1982ZM26.3936 40.1982C26.7041 40.1982 26.9795 40.1396 27.2197 40.0225C27.46 39.8994 27.6475 39.7295 27.7822 39.5127C27.9229 39.29 27.9961 39.0293 28.002 38.7305H30.3838C30.3779 39.3984 30.1992 39.9932 29.8477 40.5146C29.4961 41.0303 29.0244 41.4375 28.4326 41.7363C27.8408 42.0293 27.1787 42.1758 26.4463 42.1758C25.708 42.1758 25.0635 42.0527 24.5127 41.8066C23.9678 41.5605 23.5137 41.2207 23.1504 40.7871C22.7871 40.3477 22.5146 39.8379 22.333 39.2578C22.1514 38.6719 22.0605 38.0449 22.0605 37.377V37.1221C22.0605 36.4482 22.1514 35.8213 22.333 35.2412C22.5146 34.6553 22.7871 34.1455 23.1504 33.7119C23.5137 33.2725 23.9678 32.9297 24.5127 32.6836C25.0576 32.4375 25.6963 32.3145 26.4287 32.3145C27.208 32.3145 27.8906 32.4639 28.4766 32.7627C29.0684 33.0615 29.5312 33.4893 29.8652 34.0459C30.2051 34.5967 30.3779 35.25 30.3838 36.0059H28.002C27.9961 35.6895 27.9287 35.4023 27.7998 35.1445C27.6768 34.8867 27.4951 34.6816 27.2549 34.5293C27.0205 34.3711 26.7305 34.292 26.3848 34.292C26.0156 34.292 25.7139 34.3711 25.4795 34.5293C25.2451 34.6816 25.0635 34.8926 24.9346 35.1621C24.8057 35.4258 24.7148 35.7275 24.6621 36.0674C24.6152 36.4014 24.5918 36.7529 24.5918 37.1221V37.377C24.5918 37.7461 24.6152 38.1006 24.6621 38.4404C24.709 38.7803 24.7969 39.082 24.9258 39.3457C25.0605 39.6094 25.2451 39.8174 25.4795 39.9697C25.7139 40.1221 26.0186 40.1982 26.3936 40.1982ZM36.2285 42.1758C35.4902 42.1758 34.8281 42.0586 34.2422 41.8242C33.6562 41.584 33.1582 41.2529 32.748 40.8311C32.3438 40.4092 32.0332 39.9199 31.8164 39.3633C31.5996 38.8008 31.4912 38.2031 31.4912 37.5703V37.2188C31.4912 36.498 31.5938 35.8389 31.7988 35.2412C32.0039 34.6436 32.2969 34.125 32.6777 33.6855C33.0645 33.2461 33.5332 32.9092 34.084 32.6748C34.6348 32.4346 35.2559 32.3145 35.9473 32.3145C36.6211 32.3145 37.2188 32.4258 37.7402 32.6484C38.2617 32.8711 38.6982 33.1875 39.0498 33.5977C39.4072 34.0078 39.6768 34.5 39.8584 35.0742C40.04 35.6426 40.1309 36.2754 40.1309 36.9727V38.0273H32.5723V36.3398H37.6436V36.1465C37.6436 35.7949 37.5791 35.4814 37.4502 35.2061C37.3271 34.9248 37.1396 34.7021 36.8877 34.5381C36.6357 34.374 36.3135 34.292 35.9209 34.292C35.5869 34.292 35.2998 34.3652 35.0596 34.5117C34.8193 34.6582 34.623 34.8633 34.4707 35.127C34.3242 35.3906 34.2129 35.7012 34.1367 36.0586C34.0664 36.4102 34.0312 36.7969 34.0312 37.2188V37.5703C34.0312 37.9512 34.084 38.3027 34.1895 38.625C34.3008 38.9473 34.4561 39.2256 34.6553 39.46C34.8604 39.6943 35.1064 39.876 35.3936 40.0049C35.6865 40.1338 36.0176 40.1982 36.3867 40.1982C36.8438 40.1982 37.2686 40.1104 37.6611 39.9346C38.0596 39.7529 38.4023 39.4805 38.6895 39.1172L39.9199 40.4531C39.7207 40.7402 39.4482 41.0156 39.1025 41.2793C38.7627 41.543 38.3525 41.7598 37.8721 41.9297C37.3916 42.0938 36.8438 42.1758 36.2285 42.1758ZM46.7139 39.3721C46.7139 39.1904 46.6611 39.0264 46.5557 38.8799C46.4502 38.7334 46.2539 38.5986 45.9668 38.4756C45.6855 38.3467 45.2783 38.2295 44.7451 38.124C44.2646 38.0186 43.8164 37.8867 43.4004 37.7285C42.9902 37.5645 42.6328 37.3682 42.3281 37.1396C42.0293 36.9111 41.7949 36.6416 41.625 36.3311C41.4551 36.0146 41.3701 35.6543 41.3701 35.25C41.3701 34.8516 41.4551 34.4766 41.625 34.125C41.8008 33.7734 42.0498 33.4629 42.3721 33.1934C42.7002 32.918 43.0986 32.7041 43.5674 32.5518C44.042 32.3936 44.5752 32.3145 45.167 32.3145C45.9932 32.3145 46.7021 32.4463 47.2939 32.71C47.8916 32.9736 48.3486 33.3369 48.665 33.7998C48.9873 34.2568 49.1484 34.7783 49.1484 35.3643H46.6172C46.6172 35.1182 46.5645 34.8984 46.459 34.7051C46.3594 34.5059 46.2012 34.3506 45.9844 34.2393C45.7734 34.1221 45.498 34.0635 45.1582 34.0635C44.877 34.0635 44.6338 34.1133 44.4287 34.2129C44.2236 34.3066 44.0654 34.4355 43.9541 34.5996C43.8486 34.7578 43.7959 34.9336 43.7959 35.127C43.7959 35.2734 43.8252 35.4053 43.8838 35.5225C43.9482 35.6338 44.0508 35.7363 44.1914 35.8301C44.332 35.9238 44.5137 36.0117 44.7363 36.0938C44.9648 36.1699 45.2461 36.2402 45.5801 36.3047C46.2656 36.4453 46.8779 36.6299 47.417 36.8584C47.9561 37.0811 48.3838 37.3857 48.7002 37.7725C49.0166 38.1533 49.1748 38.6543 49.1748 39.2754C49.1748 39.6973 49.0811 40.084 48.8936 40.4355C48.7061 40.7871 48.4365 41.0947 48.085 41.3584C47.7334 41.6162 47.3115 41.8184 46.8193 41.9648C46.333 42.1055 45.7852 42.1758 45.1758 42.1758C44.291 42.1758 43.541 42.0176 42.9258 41.7012C42.3164 41.3848 41.8535 40.9834 41.5371 40.4971C41.2266 40.0049 41.0713 39.501 41.0713 38.9854H43.4707C43.4824 39.3311 43.5703 39.6094 43.7344 39.8203C43.9043 40.0312 44.1182 40.1836 44.376 40.2773C44.6396 40.3711 44.9238 40.418 45.2285 40.418C45.5566 40.418 45.8291 40.374 46.0459 40.2861C46.2627 40.1924 46.4268 40.0693 46.5381 39.917C46.6553 39.7588 46.7139 39.5771 46.7139 39.3721ZM55.96 39.3721C55.96 39.1904 55.9072 39.0264 55.8018 38.8799C55.6963 38.7334 55.5 38.5986 55.2129 38.4756C54.9316 38.3467 54.5244 38.2295 53.9912 38.124C53.5107 38.0186 53.0625 37.8867 52.6465 37.7285C52.2363 37.5645 51.8789 37.3682 51.5742 37.1396C51.2754 36.9111 51.041 36.6416 50.8711 36.3311C50.7012 36.0146 50.6162 35.6543 50.6162 35.25C50.6162 34.8516 50.7012 34.4766 50.8711 34.125C51.0469 33.7734 51.2959 33.4629 51.6182 33.1934C51.9463 32.918 52.3447 32.7041 52.8135 32.5518C53.2881 32.3936 53.8213 32.3145 54.4131 32.3145C55.2393 32.3145 55.9482 32.4463 56.54 32.71C57.1377 32.9736 57.5947 33.3369 57.9111 33.7998C58.2334 34.2568 58.3945 34.7783 58.3945 35.3643H55.8633C55.8633 35.1182 55.8105 34.8984 55.7051 34.7051C55.6055 34.5059 55.4473 34.3506 55.2305 34.2393C55.0195 34.1221 54.7441 34.0635 54.4043 34.0635C54.123 34.0635 53.8799 34.1133 53.6748 34.2129C53.4697 34.3066 53.3115 34.4355 53.2002 34.5996C53.0947 34.7578 53.042 34.9336 53.042 35.127C53.042 35.2734 53.0713 35.4053 53.1299 35.5225C53.1943 35.6338 53.2969 35.7363 53.4375 35.8301C53.5781 35.9238 53.7598 36.0117 53.9824 36.0938C54.2109 36.1699 54.4922 36.2402 54.8262 36.3047C55.5117 36.4453 56.124 36.6299 56.6631 36.8584C57.2021 37.0811 57.6299 37.3857 57.9463 37.7725C58.2627 38.1533 58.4209 38.6543 58.4209 39.2754C58.4209 39.6973 58.3271 40.084 58.1396 40.4355C57.9521 40.7871 57.6826 41.0947 57.3311 41.3584C56.9795 41.6162 56.5576 41.8184 56.0654 41.9648C55.5791 42.1055 55.0312 42.1758 54.4219 42.1758C53.5371 42.1758 52.7871 42.0176 52.1719 41.7012C51.5625 41.3848 51.0996 40.9834 50.7832 40.4971C50.4727 40.0049 50.3174 39.501 50.3174 38.9854H52.7168C52.7285 39.3311 52.8164 39.6094 52.9805 39.8203C53.1504 40.0312 53.3643 40.1836 53.6221 40.2773C53.8857 40.3711 54.1699 40.418 54.4746 40.418C54.8027 40.418 55.0752 40.374 55.292 40.2861C55.5088 40.1924 55.6729 40.0693 55.7842 39.917C55.9014 39.7588 55.96 39.5771 55.96 39.3721ZM69.2051 32.4902V34.2832H63.668V32.4902H69.2051ZM65.0391 30.1436H67.5703V39.1348C67.5703 39.4102 67.6055 39.6211 67.6758 39.7676C67.752 39.9141 67.8633 40.0166 68.0098 40.0752C68.1562 40.1279 68.3408 40.1543 68.5635 40.1543C68.7217 40.1543 68.8623 40.1484 68.9854 40.1367C69.1143 40.1191 69.2227 40.1016 69.3105 40.084L69.3193 41.9473C69.1025 42.0176 68.8682 42.0732 68.6162 42.1143C68.3643 42.1553 68.0859 42.1758 67.7812 42.1758C67.2246 42.1758 66.7383 42.085 66.3223 41.9033C65.9121 41.7158 65.5957 41.417 65.373 41.0068C65.1504 40.5967 65.0391 40.0576 65.0391 39.3896V30.1436ZM73.1162 28.5V42H70.585V28.5H73.1162ZM72.7559 36.9111H72.0615C72.0674 36.249 72.1553 35.6396 72.3252 35.083C72.4951 34.5205 72.7383 34.0342 73.0547 33.624C73.3711 33.208 73.749 32.8857 74.1885 32.6572C74.6338 32.4287 75.126 32.3145 75.665 32.3145C76.1338 32.3145 76.5586 32.3818 76.9395 32.5166C77.3262 32.6455 77.6572 32.8564 77.9326 33.1494C78.2139 33.4365 78.4307 33.8145 78.583 34.2832C78.7354 34.752 78.8115 35.3203 78.8115 35.9883V42H76.2627V35.9707C76.2627 35.5488 76.2012 35.2178 76.0781 34.9775C75.9609 34.7314 75.7881 34.5586 75.5596 34.459C75.3369 34.3535 75.0615 34.3008 74.7334 34.3008C74.3701 34.3008 74.0596 34.3682 73.8018 34.5029C73.5498 34.6377 73.3477 34.8252 73.1953 35.0654C73.043 35.2998 72.9316 35.5752 72.8613 35.8916C72.791 36.208 72.7559 36.5479 72.7559 36.9111ZM85.1133 42.1758C84.375 42.1758 83.7129 42.0586 83.127 41.8242C82.541 41.584 82.043 41.2529 81.6328 40.8311C81.2285 40.4092 80.918 39.9199 80.7012 39.3633C80.4844 38.8008 80.376 38.2031 80.376 37.5703V37.2188C80.376 36.498 80.4785 35.8389 80.6836 35.2412C80.8887 34.6436 81.1816 34.125 81.5625 33.6855C81.9492 33.2461 82.418 32.9092 82.9688 32.6748C83.5195 32.4346 84.1406 32.3145 84.832 32.3145C85.5059 32.3145 86.1035 32.4258 86.625 32.6484C87.1465 32.8711 87.583 33.1875 87.9346 33.5977C88.292 34.0078 88.5615 34.5 88.7432 35.0742C88.9248 35.6426 89.0156 36.2754 89.0156 36.9727V38.0273H81.457V36.3398H86.5283V36.1465C86.5283 35.7949 86.4639 35.4814 86.335 35.2061C86.2119 34.9248 86.0244 34.7021 85.7725 34.5381C85.5205 34.374 85.1982 34.292 84.8057 34.292C84.4717 34.292 84.1846 34.3652 83.9443 34.5117C83.7041 34.6582 83.5078 34.8633 83.3555 35.127C83.209 35.3906 83.0977 35.7012 83.0215 36.0586C82.9512 36.4102 82.916 36.7969 82.916 37.2188V37.5703C82.916 37.9512 82.9688 38.3027 83.0742 38.625C83.1855 38.9473 83.3408 39.2256 83.54 39.46C83.7451 39.6943 83.9912 39.876 84.2783 40.0049C84.5713 40.1338 84.9023 40.1982 85.2715 40.1982C85.7285 40.1982 86.1533 40.1104 86.5459 39.9346C86.9443 39.7529 87.2871 39.4805 87.5742 39.1172L88.8047 40.4531C88.6055 40.7402 88.333 41.0156 87.9873 41.2793C87.6475 41.543 87.2373 41.7598 86.7568 41.9297C86.2764 42.0938 85.7285 42.1758 85.1133 42.1758ZM100.556 39.9258V28.5H103.104V42H100.811L100.556 39.9258ZM94.5439 37.3594V37.1748C94.5439 36.4482 94.626 35.7891 94.79 35.1973C94.9541 34.5996 95.1943 34.0869 95.5107 33.6592C95.8271 33.2314 96.2168 32.9004 96.6797 32.666C97.1426 32.4316 97.6699 32.3145 98.2617 32.3145C98.8184 32.3145 99.3047 32.4316 99.7207 32.666C100.143 32.9004 100.5 33.2344 100.793 33.668C101.092 34.0957 101.332 34.6025 101.514 35.1885C101.695 35.7686 101.827 36.4043 101.909 37.0957V37.5C101.827 38.1621 101.695 38.7773 101.514 39.3457C101.332 39.9141 101.092 40.4121 100.793 40.8398C100.5 41.2617 100.143 41.5898 99.7207 41.8242C99.2988 42.0586 98.8066 42.1758 98.2441 42.1758C97.6523 42.1758 97.125 42.0557 96.6621 41.8154C96.2051 41.5752 95.8184 41.2383 95.502 40.8047C95.1914 40.3711 94.9541 39.8613 94.79 39.2754C94.626 38.6895 94.5439 38.0508 94.5439 37.3594ZM97.0752 37.1748V37.3594C97.0752 37.752 97.1045 38.1182 97.1631 38.458C97.2275 38.7979 97.3301 39.0996 97.4707 39.3633C97.6172 39.6211 97.8047 39.8232 98.0332 39.9697C98.2676 40.1104 98.5518 40.1807 98.8857 40.1807C99.3193 40.1807 99.6768 40.084 99.958 39.8906C100.239 39.6914 100.453 39.4189 100.6 39.0732C100.752 38.7275 100.84 38.3291 100.863 37.8779V36.7266C100.846 36.3574 100.793 36.0264 100.705 35.7334C100.623 35.4346 100.5 35.1797 100.336 34.9688C100.178 34.7578 99.9785 34.5938 99.7383 34.4766C99.5039 34.3594 99.2256 34.3008 98.9033 34.3008C98.5752 34.3008 98.2939 34.377 98.0596 34.5293C97.8252 34.6758 97.6348 34.8779 97.4883 35.1357C97.3477 35.3936 97.2422 35.6982 97.1719 36.0498C97.1074 36.3955 97.0752 36.7705 97.0752 37.1748ZM109.459 42.1758C108.721 42.1758 108.059 42.0586 107.473 41.8242C106.887 41.584 106.389 41.2529 105.979 40.8311C105.574 40.4092 105.264 39.9199 105.047 39.3633C104.83 38.8008 104.722 38.2031 104.722 37.5703V37.2188C104.722 36.498 104.824 35.8389 105.029 35.2412C105.234 34.6436 105.527 34.125 105.908 33.6855C106.295 33.2461 106.764 32.9092 107.314 32.6748C107.865 32.4346 108.486 32.3145 109.178 32.3145C109.852 32.3145 110.449 32.4258 110.971 32.6484C111.492 32.8711 111.929 33.1875 112.28 33.5977C112.638 34.0078 112.907 34.5 113.089 35.0742C113.271 35.6426 113.361 36.2754 113.361 36.9727V38.0273H105.803V36.3398H110.874V36.1465C110.874 35.7949 110.81 35.4814 110.681 35.2061C110.558 34.9248 110.37 34.7021 110.118 34.5381C109.866 34.374 109.544 34.292 109.151 34.292C108.817 34.292 108.53 34.3652 108.29 34.5117C108.05 34.6582 107.854 34.8633 107.701 35.127C107.555 35.3906 107.443 35.7012 107.367 36.0586C107.297 36.4102 107.262 36.7969 107.262 37.2188V37.5703C107.262 37.9512 107.314 38.3027 107.42 38.625C107.531 38.9473 107.687 39.2256 107.886 39.46C108.091 39.6943 108.337 39.876 108.624 40.0049C108.917 40.1338 109.248 40.1982 109.617 40.1982C110.074 40.1982 110.499 40.1104 110.892 39.9346C111.29 39.7529 111.633 39.4805 111.92 39.1172L113.15 40.4531C112.951 40.7402 112.679 41.0156 112.333 41.2793C111.993 41.543 111.583 41.7598 111.103 41.9297C110.622 42.0938 110.074 42.1758 109.459 42.1758ZM117.334 34.459V42H114.794V32.4902H117.176L117.334 34.459ZM116.982 36.9111H116.279C116.279 36.249 116.358 35.6396 116.517 35.083C116.681 34.5205 116.918 34.0342 117.229 33.624C117.545 33.208 117.935 32.8857 118.397 32.6572C118.86 32.4287 119.396 32.3145 120.006 32.3145C120.428 32.3145 120.814 32.3789 121.166 32.5078C121.518 32.6309 121.819 32.8271 122.071 33.0967C122.329 33.3604 122.528 33.7061 122.669 34.1338C122.81 34.5557 122.88 35.0625 122.88 35.6543V42H120.349V35.9355C120.349 35.502 120.29 35.168 120.173 34.9336C120.056 34.6992 119.889 34.5352 119.672 34.4414C119.461 34.3477 119.206 34.3008 118.907 34.3008C118.579 34.3008 118.292 34.3682 118.046 34.5029C117.806 34.6377 117.606 34.8252 117.448 35.0654C117.29 35.2998 117.173 35.5752 117.097 35.8916C117.021 36.208 116.982 36.5479 116.982 36.9111ZM122.643 36.6211L121.737 36.7354C121.737 36.1143 121.813 35.5371 121.966 35.0039C122.124 34.4707 122.355 34.002 122.66 33.5977C122.971 33.1934 123.354 32.8799 123.812 32.6572C124.269 32.4287 124.796 32.3145 125.394 32.3145C125.851 32.3145 126.267 32.3818 126.642 32.5166C127.017 32.6455 127.336 32.8535 127.6 33.1406C127.869 33.4219 128.074 33.791 128.215 34.248C128.361 34.7051 128.435 35.2646 128.435 35.9268V42H125.895V35.9268C125.895 35.4873 125.836 35.1533 125.719 34.9248C125.607 34.6904 125.443 34.5293 125.227 34.4414C125.016 34.3477 124.764 34.3008 124.471 34.3008C124.166 34.3008 123.899 34.3623 123.671 34.4854C123.442 34.6025 123.252 34.7666 123.1 34.9775C122.947 35.1885 122.833 35.4346 122.757 35.7158C122.681 35.9912 122.643 36.293 122.643 36.6211ZM129.99 37.3418V37.1572C129.99 36.46 130.09 35.8184 130.289 35.2324C130.488 34.6406 130.778 34.1279 131.159 33.6943C131.54 33.2607 132.009 32.9238 132.565 32.6836C133.122 32.4375 133.761 32.3145 134.481 32.3145C135.202 32.3145 135.844 32.4375 136.406 32.6836C136.969 32.9238 137.44 33.2607 137.821 33.6943C138.208 34.1279 138.501 34.6406 138.7 35.2324C138.899 35.8184 138.999 36.46 138.999 37.1572V37.3418C138.999 38.0332 138.899 38.6748 138.7 39.2666C138.501 39.8525 138.208 40.3652 137.821 40.8047C137.44 41.2383 136.972 41.5752 136.415 41.8154C135.858 42.0557 135.22 42.1758 134.499 42.1758C133.778 42.1758 133.137 42.0557 132.574 41.8154C132.018 41.5752 131.546 41.2383 131.159 40.8047C130.778 40.3652 130.488 39.8525 130.289 39.2666C130.09 38.6748 129.99 38.0332 129.99 37.3418ZM132.521 37.1572V37.3418C132.521 37.7402 132.557 38.1123 132.627 38.458C132.697 38.8037 132.809 39.1084 132.961 39.3721C133.119 39.6299 133.324 39.832 133.576 39.9785C133.828 40.125 134.136 40.1982 134.499 40.1982C134.851 40.1982 135.152 40.125 135.404 39.9785C135.656 39.832 135.858 39.6299 136.011 39.3721C136.163 39.1084 136.274 38.8037 136.345 38.458C136.421 38.1123 136.459 37.7402 136.459 37.3418V37.1572C136.459 36.7705 136.421 36.4072 136.345 36.0674C136.274 35.7217 136.16 35.417 136.002 35.1533C135.85 34.8838 135.647 34.6729 135.396 34.5205C135.144 34.3682 134.839 34.292 134.481 34.292C134.124 34.292 133.819 34.3682 133.567 34.5205C133.321 34.6729 133.119 34.8838 132.961 35.1533C132.809 35.417 132.697 35.7217 132.627 36.0674C132.557 36.4072 132.521 36.7705 132.521 37.1572Z" fill="white"/>
</svg>
