<svg width="131" height="17" viewBox="0 0 131 17" fill="none" xmlns="http://www.w3.org/2000/svg">
<path d="M5.14355 8.33301H1.84766V6.43457H5.14355C5.68262 6.43457 6.11914 6.34668 6.45312 6.1709C6.79297 5.98926 7.04199 5.74316 7.2002 5.43262C7.3584 5.11621 7.4375 4.75586 7.4375 4.35156C7.4375 3.95898 7.3584 3.59277 7.2002 3.25293C7.04199 2.91309 6.79297 2.6377 6.45312 2.42676C6.11914 2.21582 5.68262 2.11035 5.14355 2.11035H2.63867V13H0.22168V0.203125H5.14355C6.13965 0.203125 6.98926 0.381836 7.69238 0.739258C8.40137 1.09082 8.94043 1.58008 9.30957 2.20703C9.68457 2.82812 9.87207 3.53711 9.87207 4.33398C9.87207 5.16016 9.68457 5.87207 9.30957 6.46973C8.94043 7.06738 8.40137 7.52734 7.69238 7.84961C6.98926 8.17188 6.13965 8.33301 5.14355 8.33301ZM16.7275 10.9785V6.59277C16.7275 6.27051 16.6719 5.99219 16.5605 5.75781C16.4492 5.52344 16.2793 5.3418 16.0508 5.21289C15.8223 5.08398 15.5322 5.01953 15.1807 5.01953C14.8701 5.01953 14.5977 5.07227 14.3633 5.17773C14.1348 5.2832 13.959 5.43262 13.8359 5.62598C13.7129 5.81348 13.6514 6.03027 13.6514 6.27637H11.3223C11.3223 5.88379 11.416 5.51172 11.6035 5.16016C11.791 4.80273 12.0576 4.48633 12.4033 4.21094C12.7549 3.92969 13.1738 3.70996 13.6602 3.55176C14.1523 3.39355 14.7031 3.31445 15.3125 3.31445C16.0332 3.31445 16.6748 3.4375 17.2373 3.68359C17.8057 3.92383 18.251 4.28711 18.5732 4.77344C18.9014 5.25977 19.0654 5.87207 19.0654 6.61035V10.7588C19.0654 11.2334 19.0947 11.6406 19.1533 11.9805C19.2178 12.3145 19.3115 12.6045 19.4346 12.8506V13H17.0703C16.959 12.7598 16.874 12.4551 16.8154 12.0859C16.7568 11.7109 16.7275 11.3418 16.7275 10.9785ZM17.0527 7.20801L17.0703 8.58789H15.6025C15.2393 8.58789 14.9199 8.62598 14.6445 8.70215C14.3691 8.77246 14.1436 8.87793 13.9678 9.01855C13.792 9.15332 13.6602 9.31738 13.5723 9.51074C13.4844 9.69824 13.4404 9.91211 13.4404 10.1523C13.4404 10.3867 13.4932 10.5977 13.5986 10.7852C13.71 10.9727 13.8682 11.1221 14.0732 11.2334C14.2842 11.3389 14.5303 11.3916 14.8115 11.3916C15.2217 11.3916 15.5791 11.3096 15.8838 11.1455C16.1885 10.9756 16.4258 10.7705 16.5957 10.5303C16.7656 10.29 16.8564 10.0615 16.8682 9.84473L17.5361 10.8467C17.4541 11.0869 17.3311 11.3418 17.167 11.6113C17.0029 11.8809 16.792 12.1328 16.5342 12.3672C16.2764 12.6016 15.9658 12.7949 15.6025 12.9473C15.2393 13.0996 14.8174 13.1758 14.3369 13.1758C13.7217 13.1758 13.1709 13.0527 12.6846 12.8066C12.1982 12.5605 11.8145 12.2236 11.5332 11.7959C11.252 11.3682 11.1113 10.8818 11.1113 10.3369C11.1113 9.83301 11.2051 9.3877 11.3926 9.00098C11.5801 8.61426 11.8584 8.28906 12.2275 8.02539C12.5967 7.75586 13.0537 7.55371 13.5986 7.41895C14.1494 7.27832 14.7793 7.20801 15.4883 7.20801H17.0527ZM23.4775 5.43262V13H21.1572V3.49023H23.3545L23.4775 5.43262ZM26.3691 3.42871L26.334 5.59082C26.2051 5.56738 26.0586 5.5498 25.8945 5.53809C25.7363 5.52637 25.5869 5.52051 25.4463 5.52051C25.0889 5.52051 24.7754 5.57031 24.5059 5.66992C24.2363 5.76367 24.0107 5.90137 23.8291 6.08301C23.6533 6.26465 23.5186 6.4873 23.4248 6.75098C23.3311 7.00879 23.2783 7.30176 23.2666 7.62988L22.7656 7.56836C22.7656 6.96484 22.8271 6.40527 22.9502 5.88965C23.0732 5.37402 23.252 4.92285 23.4863 4.53613C23.7207 4.14941 24.0137 3.85059 24.3652 3.63965C24.7227 3.42285 25.1328 3.31445 25.5957 3.31445C25.7246 3.31445 25.8623 3.32617 26.0088 3.34961C26.1611 3.36719 26.2812 3.39355 26.3691 3.42871ZM31.7393 13.1758C31.0186 13.1758 30.3711 13.0586 29.7969 12.8242C29.2227 12.5898 28.7334 12.2646 28.3291 11.8486C27.9307 11.4268 27.623 10.9375 27.4062 10.3809C27.1953 9.81836 27.0898 9.21484 27.0898 8.57031V8.21875C27.0898 7.48633 27.1953 6.82129 27.4062 6.22363C27.6172 5.62012 27.916 5.10156 28.3027 4.66797C28.6895 4.23438 29.1523 3.90039 29.6914 3.66602C30.2305 3.43164 30.8252 3.31445 31.4756 3.31445C32.1494 3.31445 32.7441 3.42871 33.2598 3.65723C33.7754 3.87988 34.2061 4.19629 34.5518 4.60645C34.8975 5.0166 35.1582 5.50879 35.334 6.08301C35.5098 6.65137 35.5977 7.28125 35.5977 7.97266V8.94824H28.1445V7.34863H33.3125V7.17285C33.3008 6.80371 33.2305 6.4668 33.1016 6.16211C32.9727 5.85156 32.7734 5.60547 32.5039 5.42383C32.2344 5.23633 31.8857 5.14258 31.458 5.14258C31.1123 5.14258 30.8105 5.21875 30.5527 5.37109C30.3008 5.51758 30.0898 5.72852 29.9199 6.00391C29.7559 6.27344 29.6328 6.5957 29.5508 6.9707C29.4688 7.3457 29.4277 7.76172 29.4277 8.21875V8.57031C29.4277 8.96875 29.4805 9.33789 29.5859 9.67773C29.6973 10.0176 29.8584 10.3135 30.0693 10.5654C30.2861 10.8115 30.5439 11.0049 30.8428 11.1455C31.1475 11.2803 31.4932 11.3477 31.8799 11.3477C32.3662 11.3477 32.8057 11.2539 33.1982 11.0664C33.5967 10.873 33.9424 10.5889 34.2354 10.2139L35.4043 11.4268C35.2051 11.7197 34.9355 12.001 34.5957 12.2705C34.2617 12.54 33.8574 12.7598 33.3828 12.9297C32.9082 13.0938 32.3604 13.1758 31.7393 13.1758ZM39.4297 5.52051V13H37.1094V3.49023H39.2891L39.4297 5.52051ZM39.0605 7.90234H38.375C38.3809 7.21094 38.4746 6.58398 38.6562 6.02148C38.8379 5.45898 39.0928 4.97559 39.4209 4.57129C39.7549 4.16699 40.1504 3.85645 40.6074 3.63965C41.0645 3.42285 41.5742 3.31445 42.1367 3.31445C42.5938 3.31445 43.0068 3.37891 43.376 3.50781C43.7451 3.63672 44.0615 3.8418 44.3252 4.12305C44.5947 4.4043 44.7998 4.77344 44.9404 5.23047C45.0869 5.68164 45.1602 6.23828 45.1602 6.90039V13H42.8223V6.88281C42.8223 6.44922 42.7578 6.10645 42.6289 5.85449C42.5059 5.60254 42.3242 5.42383 42.084 5.31836C41.8496 5.21289 41.5596 5.16016 41.2139 5.16016C40.8564 5.16016 40.543 5.2334 40.2734 5.37988C40.0098 5.52051 39.7871 5.7168 39.6055 5.96875C39.4297 6.2207 39.2949 6.51074 39.2012 6.83887C39.1074 7.16699 39.0605 7.52148 39.0605 7.90234ZM51.708 3.49023V5.16016H46.2588V3.49023H51.708ZM47.7178 1.15234H50.0469V10.2578C50.0469 10.5391 50.085 10.7559 50.1611 10.9082C50.2373 11.0605 50.3516 11.1631 50.5039 11.2158C50.6562 11.2686 50.8379 11.2949 51.0488 11.2949C51.2012 11.2949 51.3418 11.2861 51.4707 11.2686C51.5996 11.251 51.708 11.2334 51.7959 11.2158L51.8047 12.9561C51.6113 13.0205 51.3916 13.0732 51.1455 13.1143C50.9053 13.1553 50.6328 13.1758 50.3281 13.1758C49.8066 13.1758 49.3496 13.0879 48.957 12.9121C48.5645 12.7305 48.2598 12.4404 48.043 12.042C47.8262 11.6377 47.7178 11.1045 47.7178 10.4424V1.15234ZM61.6396 11.3477C61.9678 11.3477 62.2607 11.2832 62.5186 11.1543C62.7764 11.0254 62.9814 10.8438 63.1338 10.6094C63.292 10.375 63.377 10.1025 63.3887 9.79199H65.5771C65.5654 10.4365 65.3838 11.0137 65.0322 11.5234C64.6807 12.0332 64.2119 12.4375 63.626 12.7363C63.0459 13.0293 62.3955 13.1758 61.6748 13.1758C60.9424 13.1758 60.3037 13.0527 59.7588 12.8066C59.2139 12.5605 58.7598 12.2178 58.3965 11.7783C58.0391 11.3389 57.7695 10.8291 57.5879 10.249C57.4121 9.66895 57.3242 9.04785 57.3242 8.38574V8.10449C57.3242 7.44238 57.4121 6.82129 57.5879 6.24121C57.7695 5.66113 58.0391 5.15137 58.3965 4.71191C58.7598 4.27246 59.2139 3.92969 59.7588 3.68359C60.3037 3.4375 60.9395 3.31445 61.666 3.31445C62.4336 3.31445 63.1074 3.46387 63.6875 3.7627C64.2734 4.06152 64.7305 4.4834 65.0586 5.02832C65.3926 5.57324 65.5654 6.21484 65.5771 6.95312H63.3887C63.377 6.61328 63.3008 6.30859 63.1602 6.03906C63.0195 5.76953 62.8203 5.55273 62.5625 5.38867C62.3047 5.22461 61.9912 5.14258 61.6221 5.14258C61.2295 5.14258 60.9014 5.22461 60.6377 5.38867C60.3799 5.55273 60.1777 5.77832 60.0312 6.06543C59.8906 6.34668 59.791 6.66309 59.7324 7.01465C59.6797 7.36035 59.6533 7.72363 59.6533 8.10449V8.38574C59.6533 8.77246 59.6797 9.1416 59.7324 9.49316C59.791 9.84473 59.8906 10.1611 60.0312 10.4424C60.1777 10.7178 60.3799 10.9375 60.6377 11.1016C60.9014 11.2656 61.2354 11.3477 61.6396 11.3477ZM66.7109 8.3418V8.15723C66.7109 7.45996 66.8105 6.81836 67.0098 6.23242C67.209 5.64062 67.499 5.12793 67.8799 4.69434C68.2607 4.26074 68.7266 3.92383 69.2773 3.68359C69.8281 3.4375 70.4551 3.31445 71.1582 3.31445C71.873 3.31445 72.5059 3.4375 73.0566 3.68359C73.6133 3.92383 74.082 4.26074 74.4629 4.69434C74.8438 5.12793 75.1338 5.64062 75.333 6.23242C75.5322 6.81836 75.6318 7.45996 75.6318 8.15723V8.3418C75.6318 9.0332 75.5322 9.6748 75.333 10.2666C75.1338 10.8525 74.8438 11.3652 74.4629 11.8047C74.082 12.2383 73.6162 12.5752 73.0654 12.8154C72.5146 13.0557 71.8848 13.1758 71.1758 13.1758C70.4727 13.1758 69.8428 13.0557 69.2861 12.8154C68.7295 12.5752 68.2607 12.2383 67.8799 11.8047C67.499 11.3652 67.209 10.8525 67.0098 10.2666C66.8105 9.6748 66.7109 9.0332 66.7109 8.3418ZM69.0312 8.15723V8.3418C69.0312 8.75781 69.0723 9.14746 69.1543 9.51074C69.2363 9.87402 69.3623 10.1934 69.5322 10.4688C69.7021 10.7441 69.9219 10.9609 70.1914 11.1191C70.4668 11.2715 70.7949 11.3477 71.1758 11.3477C71.5508 11.3477 71.873 11.2715 72.1426 11.1191C72.4121 10.9609 72.6318 10.7441 72.8018 10.4688C72.9775 10.1934 73.1064 9.87402 73.1885 9.51074C73.2705 9.14746 73.3115 8.75781 73.3115 8.3418V8.15723C73.3115 7.74707 73.2705 7.36328 73.1885 7.00586C73.1064 6.64258 72.9775 6.32324 72.8018 6.04785C72.6318 5.7666 72.4092 5.54688 72.1338 5.38867C71.8643 5.22461 71.5391 5.14258 71.1582 5.14258C70.7832 5.14258 70.4609 5.22461 70.1914 5.38867C69.9219 5.54688 69.7021 5.7666 69.5322 6.04785C69.3623 6.32324 69.2363 6.64258 69.1543 7.00586C69.0723 7.36328 69.0312 7.74707 69.0312 8.15723ZM79.6309 5.44141V13H77.3105V3.49023H79.499L79.6309 5.44141ZM79.2881 7.90234H78.5762C78.5762 7.24023 78.6553 6.63086 78.8135 6.07422C78.9775 5.51758 79.2178 5.03418 79.5342 4.62402C79.8506 4.20801 80.2402 3.88574 80.7031 3.65723C81.1719 3.42871 81.7139 3.31445 82.3291 3.31445C82.7568 3.31445 83.1494 3.37891 83.5068 3.50781C83.8643 3.63086 84.1719 3.82715 84.4297 4.09668C84.6934 4.36035 84.8955 4.70605 85.0361 5.13379C85.1768 5.55566 85.2471 6.0625 85.2471 6.6543V13H82.9268V6.8916C82.9268 6.44629 82.8623 6.09766 82.7334 5.8457C82.6104 5.59375 82.4316 5.41797 82.1973 5.31836C81.9629 5.21289 81.6816 5.16016 81.3535 5.16016C80.9902 5.16016 80.6768 5.2334 80.4131 5.37988C80.1553 5.52051 79.9414 5.7168 79.7715 5.96875C79.6074 6.2207 79.4844 6.51074 79.4023 6.83887C79.3262 7.16699 79.2881 7.52148 79.2881 7.90234ZM85.0713 7.47168L84.1133 7.64746C84.1191 7.0498 84.2012 6.49023 84.3594 5.96875C84.5176 5.44141 84.749 4.98145 85.0537 4.58887C85.3643 4.19043 85.748 3.87988 86.2051 3.65723C86.668 3.42871 87.2012 3.31445 87.8047 3.31445C88.2734 3.31445 88.6953 3.38184 89.0703 3.5166C89.4512 3.64551 89.7764 3.85352 90.0459 4.14062C90.3154 4.42188 90.5205 4.78809 90.6611 5.23926C90.8076 5.69043 90.8809 6.24121 90.8809 6.8916V13H88.543V6.88281C88.543 6.41992 88.4785 6.06543 88.3496 5.81934C88.2266 5.57324 88.0479 5.40332 87.8135 5.30957C87.5791 5.20996 87.3037 5.16016 86.9873 5.16016C86.665 5.16016 86.3838 5.22168 86.1436 5.34473C85.9092 5.46191 85.71 5.62598 85.5459 5.83691C85.3877 6.04785 85.2676 6.29395 85.1855 6.5752C85.1094 6.85059 85.0713 7.14941 85.0713 7.47168ZM95.2842 5.31836V16.6562H92.9551V3.49023H95.1084L95.2842 5.31836ZM101.393 8.14844V8.33301C101.393 9.02441 101.311 9.66602 101.146 10.2578C100.988 10.8438 100.754 11.3564 100.443 11.7959C100.133 12.2295 99.7461 12.5693 99.2832 12.8154C98.8262 13.0557 98.2988 13.1758 97.7012 13.1758C97.1152 13.1758 96.6055 13.0645 96.1719 12.8418C95.7383 12.6133 95.3721 12.291 95.0732 11.875C94.7744 11.459 94.5342 10.9756 94.3525 10.4248C94.1768 9.86816 94.0449 9.26172 93.957 8.60547V8.0166C94.0449 7.31934 94.1768 6.68652 94.3525 6.11816C94.5342 5.54395 94.7744 5.04883 95.0732 4.63281C95.3721 4.21094 95.7354 3.88574 96.1631 3.65723C96.5967 3.42871 97.1035 3.31445 97.6836 3.31445C98.2871 3.31445 98.8174 3.42871 99.2744 3.65723C99.7373 3.88574 100.127 4.21387 100.443 4.6416C100.76 5.06934 100.997 5.5791 101.155 6.1709C101.313 6.7627 101.393 7.42188 101.393 8.14844ZM99.0635 8.33301V8.14844C99.0635 7.72656 99.0254 7.33691 98.9492 6.97949C98.873 6.61621 98.7559 6.2998 98.5977 6.03027C98.4395 5.75488 98.2344 5.54102 97.9824 5.38867C97.7305 5.23633 97.4258 5.16016 97.0684 5.16016C96.7109 5.16016 96.4033 5.21875 96.1455 5.33594C95.8877 5.45312 95.6768 5.62012 95.5127 5.83691C95.3486 6.05371 95.2197 6.31152 95.126 6.61035C95.0381 6.90332 94.9795 7.22852 94.9502 7.58594V9.04492C95.0029 9.47852 95.1055 9.86816 95.2578 10.2139C95.4102 10.5596 95.6328 10.835 95.9258 11.04C96.2246 11.2451 96.6113 11.3477 97.0859 11.3477C97.4434 11.3477 97.748 11.2686 98 11.1104C98.252 10.9521 98.457 10.7354 98.6152 10.46C98.7734 10.1787 98.8877 9.85645 98.958 9.49316C99.0283 9.12988 99.0635 8.74316 99.0635 8.33301ZM108.327 10.9785V6.59277C108.327 6.27051 108.271 5.99219 108.16 5.75781C108.049 5.52344 107.879 5.3418 107.65 5.21289C107.422 5.08398 107.132 5.01953 106.78 5.01953C106.47 5.01953 106.197 5.07227 105.963 5.17773C105.734 5.2832 105.559 5.43262 105.436 5.62598C105.312 5.81348 105.251 6.03027 105.251 6.27637H102.922C102.922 5.88379 103.016 5.51172 103.203 5.16016C103.391 4.80273 103.657 4.48633 104.003 4.21094C104.354 3.92969 104.773 3.70996 105.26 3.55176C105.752 3.39355 106.303 3.31445 106.912 3.31445C107.633 3.31445 108.274 3.4375 108.837 3.68359C109.405 3.92383 109.851 4.28711 110.173 4.77344C110.501 5.25977 110.665 5.87207 110.665 6.61035V10.7588C110.665 11.2334 110.694 11.6406 110.753 11.9805C110.817 12.3145 110.911 12.6045 111.034 12.8506V13H108.67C108.559 12.7598 108.474 12.4551 108.415 12.0859C108.356 11.7109 108.327 11.3418 108.327 10.9785ZM108.652 7.20801L108.67 8.58789H107.202C106.839 8.58789 106.52 8.62598 106.244 8.70215C105.969 8.77246 105.743 8.87793 105.567 9.01855C105.392 9.15332 105.26 9.31738 105.172 9.51074C105.084 9.69824 105.04 9.91211 105.04 10.1523C105.04 10.3867 105.093 10.5977 105.198 10.7852C105.31 10.9727 105.468 11.1221 105.673 11.2334C105.884 11.3389 106.13 11.3916 106.411 11.3916C106.821 11.3916 107.179 11.3096 107.483 11.1455C107.788 10.9756 108.025 10.7705 108.195 10.5303C108.365 10.29 108.456 10.0615 108.468 9.84473L109.136 10.8467C109.054 11.0869 108.931 11.3418 108.767 11.6113C108.603 11.8809 108.392 12.1328 108.134 12.3672C107.876 12.6016 107.565 12.7949 107.202 12.9473C106.839 13.0996 106.417 13.1758 105.937 13.1758C105.321 13.1758 104.771 13.0527 104.284 12.8066C103.798 12.5605 103.414 12.2236 103.133 11.7959C102.852 11.3682 102.711 10.8818 102.711 10.3369C102.711 9.83301 102.805 9.3877 102.992 9.00098C103.18 8.61426 103.458 8.28906 103.827 8.02539C104.196 7.75586 104.653 7.55371 105.198 7.41895C105.749 7.27832 106.379 7.20801 107.088 7.20801H108.652ZM115.033 5.52051V13H112.713V3.49023H114.893L115.033 5.52051ZM114.664 7.90234H113.979C113.984 7.21094 114.078 6.58398 114.26 6.02148C114.441 5.45898 114.696 4.97559 115.024 4.57129C115.358 4.16699 115.754 3.85645 116.211 3.63965C116.668 3.42285 117.178 3.31445 117.74 3.31445C118.197 3.31445 118.61 3.37891 118.979 3.50781C119.349 3.63672 119.665 3.8418 119.929 4.12305C120.198 4.4043 120.403 4.77344 120.544 5.23047C120.69 5.68164 120.764 6.23828 120.764 6.90039V13H118.426V6.88281C118.426 6.44922 118.361 6.10645 118.232 5.85449C118.109 5.60254 117.928 5.42383 117.688 5.31836C117.453 5.21289 117.163 5.16016 116.817 5.16016C116.46 5.16016 116.146 5.2334 115.877 5.37988C115.613 5.52051 115.391 5.7168 115.209 5.96875C115.033 6.2207 114.898 6.51074 114.805 6.83887C114.711 7.16699 114.664 7.52148 114.664 7.90234ZM125.598 11.9453L128.146 3.49023H130.634L126.819 14.4414C126.731 14.6758 126.617 14.9307 126.477 15.2061C126.342 15.4814 126.16 15.7422 125.932 15.9883C125.703 16.2402 125.416 16.4453 125.07 16.6035C124.73 16.7617 124.317 16.8408 123.831 16.8408C123.62 16.8408 123.433 16.8262 123.269 16.7969C123.104 16.7676 122.932 16.7295 122.75 16.6826V14.9424C122.809 14.9482 122.876 14.9512 122.952 14.9512C123.034 14.957 123.104 14.96 123.163 14.96C123.503 14.96 123.784 14.9189 124.007 14.8369C124.229 14.7607 124.408 14.6348 124.543 14.459C124.684 14.2891 124.801 14.0664 124.895 13.791L125.598 11.9453ZM124.341 3.49023L126.494 10.4951L126.872 12.9473L125.272 13.2373L121.836 3.49023H124.341Z" fill="white"/>
</svg>
