<svg width="181" height="17" viewBox="0 0 181 17" fill="none" xmlns="http://www.w3.org/2000/svg">
<path d="M5.01562 4.54688V6.14062H0.09375V4.54688H5.01562ZM1.3125 2.46094H3.5625V10.4531C3.5625 10.6979 3.59375 10.8854 3.65625 11.0156C3.72396 11.1458 3.82292 11.237 3.95312 11.2891C4.08333 11.3359 4.2474 11.3594 4.44531 11.3594C4.58594 11.3594 4.71094 11.3542 4.82031 11.3438C4.9349 11.3281 5.03125 11.3125 5.10938 11.2969L5.11719 12.9531C4.92448 13.0156 4.71615 13.0651 4.49219 13.1016C4.26823 13.138 4.02083 13.1562 3.75 13.1562C3.25521 13.1562 2.82292 13.0755 2.45312 12.9141C2.08854 12.7474 1.80729 12.4818 1.60938 12.1172C1.41146 11.7526 1.3125 11.2734 1.3125 10.6797V2.46094ZM10.1875 13.1562C9.53125 13.1562 8.94271 13.0521 8.42188 12.8438C7.90104 12.6302 7.45833 12.3359 7.09375 11.9609C6.73438 11.5859 6.45833 11.151 6.26562 10.6562C6.07292 10.1562 5.97656 9.625 5.97656 9.0625V8.75C5.97656 8.10938 6.06771 7.52344 6.25 6.99219C6.43229 6.46094 6.69271 6 7.03125 5.60938C7.375 5.21875 7.79167 4.91927 8.28125 4.71094C8.77083 4.4974 9.32292 4.39062 9.9375 4.39062C10.5365 4.39062 11.0677 4.48958 11.5312 4.6875C11.9948 4.88542 12.3828 5.16667 12.6953 5.53125C13.013 5.89583 13.2526 6.33333 13.4141 6.84375C13.5755 7.34896 13.6562 7.91146 13.6562 8.53125V9.46875H6.9375V7.96875H11.4453V7.79688C11.4453 7.48438 11.388 7.20573 11.2734 6.96094C11.1641 6.71094 10.9974 6.51302 10.7734 6.36719C10.5495 6.22135 10.263 6.14844 9.91406 6.14844C9.61719 6.14844 9.36198 6.21354 9.14844 6.34375C8.9349 6.47396 8.76042 6.65625 8.625 6.89062C8.49479 7.125 8.39583 7.40104 8.32812 7.71875C8.26562 8.03125 8.23438 8.375 8.23438 8.75V9.0625C8.23438 9.40104 8.28125 9.71354 8.375 10C8.47396 10.2865 8.61198 10.5339 8.78906 10.7422C8.97135 10.9505 9.1901 11.112 9.44531 11.2266C9.70573 11.3411 10 11.3984 10.3281 11.3984C10.7344 11.3984 11.112 11.3203 11.4609 11.1641C11.8151 11.0026 12.1198 10.7604 12.375 10.4375L13.4688 11.625C13.2917 11.8802 13.0495 12.125 12.7422 12.3594C12.4401 12.5938 12.0755 12.7865 11.6484 12.9375C11.2214 13.0833 10.7344 13.1562 10.1875 13.1562ZM18.4297 11.3984C18.7057 11.3984 18.9505 11.3464 19.1641 11.2422C19.3776 11.1328 19.5443 10.9818 19.6641 10.7891C19.7891 10.5911 19.8542 10.3594 19.8594 10.0938H21.9766C21.9714 10.6875 21.8125 11.2161 21.5 11.6797C21.1875 12.138 20.7682 12.5 20.2422 12.7656C19.7161 13.026 19.1276 13.1562 18.4766 13.1562C17.8203 13.1562 17.2474 13.0469 16.7578 12.8281C16.2734 12.6094 15.8698 12.3073 15.5469 11.9219C15.224 11.5312 14.9818 11.0781 14.8203 10.5625C14.6589 10.0417 14.5781 9.48438 14.5781 8.89062V8.66406C14.5781 8.0651 14.6589 7.50781 14.8203 6.99219C14.9818 6.47135 15.224 6.01823 15.5469 5.63281C15.8698 5.24219 16.2734 4.9375 16.7578 4.71875C17.2422 4.5 17.8099 4.39062 18.4609 4.39062C19.1536 4.39062 19.7604 4.52344 20.2812 4.78906C20.8073 5.05469 21.2188 5.4349 21.5156 5.92969C21.8177 6.41927 21.9714 7 21.9766 7.67188H19.8594C19.8542 7.39062 19.7943 7.13542 19.6797 6.90625C19.5703 6.67708 19.4089 6.49479 19.1953 6.35938C18.987 6.21875 18.7292 6.14844 18.4219 6.14844C18.0938 6.14844 17.8255 6.21875 17.6172 6.35938C17.4089 6.49479 17.2474 6.68229 17.1328 6.92188C17.0182 7.15625 16.9375 7.42448 16.8906 7.72656C16.849 8.02344 16.8281 8.33594 16.8281 8.66406V8.89062C16.8281 9.21875 16.849 9.53385 16.8906 9.83594C16.9323 10.138 17.0104 10.4062 17.125 10.6406C17.2448 10.875 17.4089 11.0599 17.6172 11.1953C17.8255 11.3307 18.0964 11.3984 18.4297 11.3984ZM25.4766 1V13H23.2266V1H25.4766ZM25.1562 8.47656H24.5391C24.5443 7.88802 24.6224 7.34635 24.7734 6.85156C24.9245 6.35156 25.1406 5.91927 25.4219 5.55469C25.7031 5.1849 26.0391 4.89844 26.4297 4.69531C26.8255 4.49219 27.263 4.39062 27.7422 4.39062C28.1589 4.39062 28.5365 4.45052 28.875 4.57031C29.2188 4.6849 29.513 4.8724 29.7578 5.13281C30.0078 5.38802 30.2005 5.72396 30.3359 6.14062C30.4714 6.55729 30.5391 7.0625 30.5391 7.65625V13H28.2734V7.64062C28.2734 7.26562 28.2188 6.97135 28.1094 6.75781C28.0052 6.53906 27.8516 6.38542 27.6484 6.29688C27.4505 6.20312 27.2057 6.15625 26.9141 6.15625C26.5911 6.15625 26.3151 6.21615 26.0859 6.33594C25.862 6.45573 25.6823 6.6224 25.5469 6.83594C25.4115 7.04427 25.3125 7.28906 25.25 7.57031C25.1875 7.85156 25.1562 8.15365 25.1562 8.47656ZM37.2422 11.1562V1H39.5078V13H37.4688L37.2422 11.1562ZM31.8984 8.875V8.71094C31.8984 8.0651 31.9714 7.47917 32.1172 6.95312C32.263 6.42188 32.4766 5.96615 32.7578 5.58594C33.0391 5.20573 33.3854 4.91146 33.7969 4.70312C34.2083 4.49479 34.6771 4.39062 35.2031 4.39062C35.6979 4.39062 36.1302 4.49479 36.5 4.70312C36.875 4.91146 37.1927 5.20833 37.4531 5.59375C37.7188 5.97396 37.9323 6.42448 38.0938 6.94531C38.2552 7.46094 38.3724 8.02604 38.4453 8.64062V9C38.3724 9.58854 38.2552 10.1354 38.0938 10.6406C37.9323 11.1458 37.7188 11.5885 37.4531 11.9688C37.1927 12.3438 36.875 12.6354 36.5 12.8438C36.125 13.0521 35.6875 13.1562 35.1875 13.1562C34.6615 13.1562 34.1927 13.0495 33.7812 12.8359C33.375 12.6224 33.0312 12.3229 32.75 11.9375C32.474 11.5521 32.263 11.099 32.1172 10.5781C31.9714 10.0573 31.8984 9.48958 31.8984 8.875ZM34.1484 8.71094V8.875C34.1484 9.22396 34.1745 9.54948 34.2266 9.85156C34.2839 10.1536 34.375 10.4219 34.5 10.6562C34.6302 10.8854 34.7969 11.0651 35 11.1953C35.2083 11.3203 35.4609 11.3828 35.7578 11.3828C36.1432 11.3828 36.4609 11.2969 36.7109 11.125C36.9609 10.9479 37.151 10.7057 37.2812 10.3984C37.4167 10.0911 37.4948 9.73698 37.5156 9.33594V8.3125C37.5 7.98438 37.4531 7.6901 37.375 7.42969C37.3021 7.16406 37.1927 6.9375 37.0469 6.75C36.9062 6.5625 36.7292 6.41667 36.5156 6.3125C36.3073 6.20833 36.0599 6.15625 35.7734 6.15625C35.4818 6.15625 35.2318 6.22396 35.0234 6.35938C34.8151 6.48958 34.6458 6.66927 34.5156 6.89844C34.3906 7.1276 34.2969 7.39844 34.2344 7.71094C34.1771 8.01823 34.1484 8.35156 34.1484 8.71094ZM45.8281 11.0938V7.32812C45.8281 7.05729 45.7839 6.82552 45.6953 6.63281C45.6068 6.4349 45.4688 6.28125 45.2812 6.17188C45.099 6.0625 44.862 6.00781 44.5703 6.00781C44.3203 6.00781 44.1042 6.05208 43.9219 6.14062C43.7396 6.22396 43.599 6.34635 43.5 6.50781C43.401 6.66406 43.3516 6.84896 43.3516 7.0625H41.1016C41.1016 6.70312 41.1849 6.36198 41.3516 6.03906C41.5182 5.71615 41.7604 5.43229 42.0781 5.1875C42.3958 4.9375 42.7734 4.74219 43.2109 4.60156C43.6536 4.46094 44.1484 4.39062 44.6953 4.39062C45.3516 4.39062 45.9349 4.5 46.4453 4.71875C46.9557 4.9375 47.3568 5.26562 47.6484 5.70312C47.9453 6.14062 48.0938 6.6875 48.0938 7.34375V10.9609C48.0938 11.4245 48.1224 11.8047 48.1797 12.1016C48.237 12.3932 48.3203 12.6484 48.4297 12.8672V13H46.1562C46.0469 12.7708 45.9635 12.4844 45.9062 12.1406C45.8542 11.7917 45.8281 11.4427 45.8281 11.0938ZM46.125 7.85156L46.1406 9.125H44.8828C44.5859 9.125 44.3281 9.15885 44.1094 9.22656C43.8906 9.29427 43.7109 9.39062 43.5703 9.51562C43.4297 9.63542 43.3255 9.77604 43.2578 9.9375C43.1953 10.099 43.1641 10.276 43.1641 10.4688C43.1641 10.6615 43.2083 10.8359 43.2969 10.9922C43.3854 11.1432 43.513 11.263 43.6797 11.3516C43.8464 11.4349 44.0417 11.4766 44.2656 11.4766C44.6042 11.4766 44.8984 11.4089 45.1484 11.2734C45.3984 11.138 45.5911 10.9714 45.7266 10.7734C45.8672 10.5755 45.9401 10.388 45.9453 10.2109L46.5391 11.1641C46.4557 11.3776 46.3411 11.599 46.1953 11.8281C46.0547 12.0573 45.875 12.2734 45.6562 12.4766C45.4375 12.6745 45.1745 12.8385 44.8672 12.9688C44.5599 13.0938 44.1953 13.1562 43.7734 13.1562C43.237 13.1562 42.75 13.0495 42.3125 12.8359C41.8802 12.6172 41.5365 12.3177 41.2812 11.9375C41.0312 11.5521 40.9062 11.1146 40.9062 10.625C40.9062 10.1823 40.9896 9.78906 41.1562 9.44531C41.3229 9.10156 41.5677 8.8125 41.8906 8.57812C42.2188 8.33854 42.6276 8.15885 43.1172 8.03906C43.6068 7.91406 44.1745 7.85156 44.8203 7.85156H46.125ZM53.9688 4.54688V6.14062H49.0469V4.54688H53.9688ZM50.2656 2.46094H52.5156V10.4531C52.5156 10.6979 52.5469 10.8854 52.6094 11.0156C52.6771 11.1458 52.776 11.237 52.9062 11.2891C53.0365 11.3359 53.2005 11.3594 53.3984 11.3594C53.5391 11.3594 53.6641 11.3542 53.7734 11.3438C53.888 11.3281 53.9844 11.3125 54.0625 11.2969L54.0703 12.9531C53.8776 13.0156 53.6693 13.0651 53.4453 13.1016C53.2214 13.138 52.974 13.1562 52.7031 13.1562C52.2083 13.1562 51.776 13.0755 51.4062 12.9141C51.0417 12.7474 50.7604 12.4818 50.5625 12.1172C50.3646 11.7526 50.2656 11.2734 50.2656 10.6797V2.46094ZM59.8125 11.0938V7.32812C59.8125 7.05729 59.7682 6.82552 59.6797 6.63281C59.5911 6.4349 59.4531 6.28125 59.2656 6.17188C59.0833 6.0625 58.8464 6.00781 58.5547 6.00781C58.3047 6.00781 58.0885 6.05208 57.9062 6.14062C57.724 6.22396 57.5833 6.34635 57.4844 6.50781C57.3854 6.66406 57.3359 6.84896 57.3359 7.0625H55.0859C55.0859 6.70312 55.1693 6.36198 55.3359 6.03906C55.5026 5.71615 55.7448 5.43229 56.0625 5.1875C56.3802 4.9375 56.7578 4.74219 57.1953 4.60156C57.638 4.46094 58.1328 4.39062 58.6797 4.39062C59.3359 4.39062 59.9193 4.5 60.4297 4.71875C60.9401 4.9375 61.3411 5.26562 61.6328 5.70312C61.9297 6.14062 62.0781 6.6875 62.0781 7.34375V10.9609C62.0781 11.4245 62.1068 11.8047 62.1641 12.1016C62.2214 12.3932 62.3047 12.6484 62.4141 12.8672V13H60.1406C60.0312 12.7708 59.9479 12.4844 59.8906 12.1406C59.8385 11.7917 59.8125 11.4427 59.8125 11.0938ZM60.1094 7.85156L60.125 9.125H58.8672C58.5703 9.125 58.3125 9.15885 58.0938 9.22656C57.875 9.29427 57.6953 9.39062 57.5547 9.51562C57.4141 9.63542 57.3099 9.77604 57.2422 9.9375C57.1797 10.099 57.1484 10.276 57.1484 10.4688C57.1484 10.6615 57.1927 10.8359 57.2812 10.9922C57.3698 11.1432 57.4974 11.263 57.6641 11.3516C57.8307 11.4349 58.026 11.4766 58.25 11.4766C58.5885 11.4766 58.8828 11.4089 59.1328 11.2734C59.3828 11.138 59.5755 10.9714 59.7109 10.7734C59.8516 10.5755 59.9245 10.388 59.9297 10.2109L60.5234 11.1641C60.4401 11.3776 60.3255 11.599 60.1797 11.8281C60.0391 12.0573 59.8594 12.2734 59.6406 12.4766C59.4219 12.6745 59.1589 12.8385 58.8516 12.9688C58.5443 13.0938 58.1797 13.1562 57.7578 13.1562C57.2214 13.1562 56.7344 13.0495 56.2969 12.8359C55.8646 12.6172 55.5208 12.3177 55.2656 11.9375C55.0156 11.5521 54.8906 11.1146 54.8906 10.625C54.8906 10.1823 54.974 9.78906 55.1406 9.44531C55.3073 9.10156 55.5521 8.8125 55.875 8.57812C56.2031 8.33854 56.612 8.15885 57.1016 8.03906C57.5911 7.91406 58.1589 7.85156 58.8047 7.85156H60.1094ZM66.6797 13H64.4141V3.89844C64.4141 3.23698 64.5521 2.67969 64.8281 2.22656C65.1042 1.76823 65.5026 1.42188 66.0234 1.1875C66.5443 0.953125 67.1719 0.835938 67.9062 0.835938C68.2135 0.835938 68.5964 0.851562 69.0547 0.882812C69.5182 0.908854 69.9896 0.942708 70.4688 0.984375C70.9531 1.02083 71.3776 1.0599 71.7422 1.10156L70.8047 2.875C70.3359 2.79167 69.8854 2.72656 69.4531 2.67969C69.0208 2.63281 68.6094 2.60938 68.2188 2.60938C67.8854 2.60938 67.6042 2.65885 67.375 2.75781C67.1458 2.85677 66.9714 3.0026 66.8516 3.19531C66.737 3.38281 66.6797 3.61719 66.6797 3.89844V13ZM69.4922 13V1.10156H71.7422V13H69.4922ZM68.3672 4.54688V6.14062H63.1562V4.54688H68.3672ZM73.2656 8.85938V8.69531C73.2656 8.07552 73.3542 7.50521 73.5312 6.98438C73.7083 6.45833 73.9661 6.0026 74.3047 5.61719C74.6432 5.23177 75.0599 4.93229 75.5547 4.71875C76.0495 4.5 76.6172 4.39062 77.2578 4.39062C77.8984 4.39062 78.4688 4.5 78.9688 4.71875C79.4688 4.93229 79.888 5.23177 80.2266 5.61719C80.5703 6.0026 80.8307 6.45833 81.0078 6.98438C81.1849 7.50521 81.2734 8.07552 81.2734 8.69531V8.85938C81.2734 9.47396 81.1849 10.0443 81.0078 10.5703C80.8307 11.0911 80.5703 11.5469 80.2266 11.9375C79.888 12.3229 79.4714 12.6224 78.9766 12.8359C78.4818 13.0495 77.9141 13.1562 77.2734 13.1562C76.6328 13.1562 76.0625 13.0495 75.5625 12.8359C75.0677 12.6224 74.6484 12.3229 74.3047 11.9375C73.9661 11.5469 73.7083 11.0911 73.5312 10.5703C73.3542 10.0443 73.2656 9.47396 73.2656 8.85938ZM75.5156 8.69531V8.85938C75.5156 9.21354 75.5469 9.54427 75.6094 9.85156C75.6719 10.1589 75.7708 10.4297 75.9062 10.6641C76.0469 10.8932 76.2292 11.0729 76.4531 11.2031C76.6771 11.3333 76.9505 11.3984 77.2734 11.3984C77.5859 11.3984 77.8542 11.3333 78.0781 11.2031C78.3021 11.0729 78.4818 10.8932 78.6172 10.6641C78.7526 10.4297 78.8516 10.1589 78.9141 9.85156C78.9818 9.54427 79.0156 9.21354 79.0156 8.85938V8.69531C79.0156 8.35156 78.9818 8.02865 78.9141 7.72656C78.8516 7.41927 78.75 7.14844 78.6094 6.91406C78.474 6.67448 78.2943 6.48698 78.0703 6.35156C77.8464 6.21615 77.5755 6.14844 77.2578 6.14844C76.9401 6.14844 76.6693 6.21615 76.4453 6.35156C76.2266 6.48698 76.0469 6.67448 75.9062 6.91406C75.7708 7.14844 75.6719 7.41927 75.6094 7.72656C75.5469 8.02865 75.5156 8.35156 75.5156 8.69531ZM85.0703 10.8125L86.8281 4.54688H88.2578L87.7969 7.00781L86.0391 13H84.8438L85.0703 10.8125ZM84.1797 4.54688L85.4375 10.8047L85.5547 13H84.1484L82.0078 4.54688H84.1797ZM89.8672 10.7031L91.0938 4.54688H93.2734L91.1328 13H89.7344L89.8672 10.7031ZM88.4531 4.54688L90.2031 10.7656L90.4453 13H89.2422L87.4844 7.01562L87.0391 4.54688H88.4531ZM107.195 8.82031C107.174 9.35156 107.096 9.875 106.961 10.3906C106.826 10.9062 106.62 11.3724 106.344 11.7891C106.073 12.2057 105.727 12.5391 105.305 12.7891C104.883 13.0391 104.372 13.1641 103.773 13.1641C103.435 13.1641 103.13 13.1042 102.859 12.9844C102.589 12.8646 102.359 12.6953 102.172 12.4766C101.984 12.2526 101.846 11.9844 101.758 11.6719C101.669 11.3594 101.638 11.0078 101.664 10.6172L102.062 6.11719H103.625L103.234 10.6172C103.203 10.888 103.206 11.1094 103.242 11.2812C103.284 11.4531 103.346 11.5859 103.43 11.6797C103.518 11.7734 103.617 11.8411 103.727 11.8828C103.841 11.9193 103.953 11.9375 104.062 11.9375C104.312 11.9375 104.542 11.8594 104.75 11.7031C104.958 11.5469 105.138 11.3307 105.289 11.0547C105.44 10.7786 105.56 10.4557 105.648 10.0859C105.737 9.71094 105.786 9.30729 105.797 8.875C105.833 8.18229 105.799 7.54167 105.695 6.95312C105.596 6.36458 105.424 5.83854 105.18 5.375C104.94 4.90625 104.628 4.51042 104.242 4.1875C103.857 3.85938 103.398 3.60938 102.867 3.4375C102.336 3.26042 101.729 3.17188 101.047 3.17188C100.406 3.17188 99.8151 3.27083 99.2734 3.46875C98.737 3.66667 98.2552 3.95052 97.8281 4.32031C97.4062 4.6901 97.0417 5.13281 96.7344 5.64844C96.4323 6.15885 96.1927 6.72917 96.0156 7.35938C95.8438 7.98438 95.7422 8.65625 95.7109 9.375C95.6745 10.1302 95.7135 10.8177 95.8281 11.4375C95.9479 12.0573 96.138 12.6016 96.3984 13.0703C96.6641 13.5443 96.9948 13.9401 97.3906 14.2578C97.7865 14.5755 98.2474 14.8151 98.7734 14.9766C99.2995 15.138 99.8854 15.2188 100.531 15.2188C100.984 15.2188 101.445 15.1667 101.914 15.0625C102.388 14.9635 102.786 14.8359 103.109 14.6797L103.406 15.8438C103.042 16.0781 102.586 16.2526 102.039 16.3672C101.497 16.4818 100.984 16.5391 100.5 16.5391C99.6719 16.5391 98.9167 16.4375 98.2344 16.2344C97.5573 16.0365 96.9583 15.7396 96.4375 15.3438C95.9167 14.9531 95.4818 14.4688 95.1328 13.8906C94.7891 13.3125 94.5339 12.6458 94.3672 11.8906C94.2057 11.1354 94.1432 10.2969 94.1797 9.375C94.2161 8.52083 94.349 7.71615 94.5781 6.96094C94.8073 6.20573 95.1198 5.52083 95.5156 4.90625C95.9115 4.29167 96.3854 3.76302 96.9375 3.32031C97.4948 2.8724 98.1198 2.52865 98.8125 2.28906C99.5052 2.04948 100.26 1.92969 101.078 1.92969C101.891 1.92969 102.628 2.03646 103.289 2.25C103.956 2.46354 104.539 2.77083 105.039 3.17188C105.539 3.56771 105.956 4.04948 106.289 4.61719C106.622 5.17969 106.865 5.8151 107.016 6.52344C107.167 7.23177 107.227 7.9974 107.195 8.82031ZM99.3047 9.64062C99.2786 9.98438 99.2812 10.2891 99.3125 10.5547C99.3438 10.8203 99.4036 11.0443 99.4922 11.2266C99.5807 11.4089 99.6953 11.5469 99.8359 11.6406C99.9818 11.7292 100.154 11.7734 100.352 11.7734C100.461 11.7734 100.581 11.7474 100.711 11.6953C100.841 11.638 100.974 11.5443 101.109 11.4141C101.245 11.2839 101.372 11.1042 101.492 10.875C101.617 10.6406 101.721 10.3464 101.805 9.99219L102.469 10.7812C102.349 11.1719 102.201 11.5156 102.023 11.8125C101.846 12.1042 101.643 12.349 101.414 12.5469C101.19 12.7448 100.945 12.8932 100.68 12.9922C100.414 13.0911 100.128 13.1406 99.8203 13.1406C99.4401 13.1406 99.1016 13.0599 98.8047 12.8984C98.5078 12.7318 98.2604 12.4948 98.0625 12.1875C97.8646 11.8802 97.7214 11.513 97.6328 11.0859C97.5495 10.6536 97.5339 10.1719 97.5859 9.64062C97.6432 9.10938 97.7474 8.61719 97.8984 8.16406C98.0495 7.71094 98.237 7.30729 98.4609 6.95312C98.6849 6.59375 98.9401 6.28906 99.2266 6.03906C99.5182 5.78385 99.8333 5.59115 100.172 5.46094C100.51 5.33073 100.865 5.26562 101.234 5.26562C101.833 5.26562 102.305 5.35156 102.648 5.52344C102.992 5.69531 103.318 5.89323 103.625 6.11719L102.828 7.1875C102.677 7.05208 102.479 6.92188 102.234 6.79688C101.995 6.66667 101.708 6.60156 101.375 6.60156C101.068 6.60156 100.797 6.66667 100.562 6.79688C100.333 6.92708 100.133 7.1224 99.9609 7.38281C99.7943 7.63802 99.6562 7.95573 99.5469 8.33594C99.4375 8.71094 99.3568 9.14583 99.3047 9.64062ZM112.891 4.54688V6.14062H107.969V4.54688H112.891ZM109.188 2.46094H111.438V10.4531C111.438 10.6979 111.469 10.8854 111.531 11.0156C111.599 11.1458 111.698 11.237 111.828 11.2891C111.958 11.3359 112.122 11.3594 112.32 11.3594C112.461 11.3594 112.586 11.3542 112.695 11.3438C112.81 11.3281 112.906 11.3125 112.984 11.2969L112.992 12.9531C112.799 13.0156 112.591 13.0651 112.367 13.1016C112.143 13.138 111.896 13.1562 111.625 13.1562C111.13 13.1562 110.698 13.0755 110.328 12.9141C109.964 12.7474 109.682 12.4818 109.484 12.1172C109.286 11.7526 109.188 11.2734 109.188 10.6797V2.46094ZM116.367 1V13H114.117V1H116.367ZM116.047 8.47656H115.43C115.435 7.88802 115.513 7.34635 115.664 6.85156C115.815 6.35156 116.031 5.91927 116.312 5.55469C116.594 5.1849 116.93 4.89844 117.32 4.69531C117.716 4.49219 118.154 4.39062 118.633 4.39062C119.049 4.39062 119.427 4.45052 119.766 4.57031C120.109 4.6849 120.404 4.8724 120.648 5.13281C120.898 5.38802 121.091 5.72396 121.227 6.14062C121.362 6.55729 121.43 7.0625 121.43 7.65625V13H119.164V7.64062C119.164 7.26562 119.109 6.97135 119 6.75781C118.896 6.53906 118.742 6.38542 118.539 6.29688C118.341 6.20312 118.096 6.15625 117.805 6.15625C117.482 6.15625 117.206 6.21615 116.977 6.33594C116.753 6.45573 116.573 6.6224 116.438 6.83594C116.302 7.04427 116.203 7.28906 116.141 7.57031C116.078 7.85156 116.047 8.15365 116.047 8.47656ZM127.031 13.1562C126.375 13.1562 125.786 13.0521 125.266 12.8438C124.745 12.6302 124.302 12.3359 123.938 11.9609C123.578 11.5859 123.302 11.151 123.109 10.6562C122.917 10.1562 122.82 9.625 122.82 9.0625V8.75C122.82 8.10938 122.911 7.52344 123.094 6.99219C123.276 6.46094 123.536 6 123.875 5.60938C124.219 5.21875 124.635 4.91927 125.125 4.71094C125.615 4.4974 126.167 4.39062 126.781 4.39062C127.38 4.39062 127.911 4.48958 128.375 4.6875C128.839 4.88542 129.227 5.16667 129.539 5.53125C129.857 5.89583 130.096 6.33333 130.258 6.84375C130.419 7.34896 130.5 7.91146 130.5 8.53125V9.46875H123.781V7.96875H128.289V7.79688C128.289 7.48438 128.232 7.20573 128.117 6.96094C128.008 6.71094 127.841 6.51302 127.617 6.36719C127.393 6.22135 127.107 6.14844 126.758 6.14844C126.461 6.14844 126.206 6.21354 125.992 6.34375C125.779 6.47396 125.604 6.65625 125.469 6.89062C125.339 7.125 125.24 7.40104 125.172 7.71875C125.109 8.03125 125.078 8.375 125.078 8.75V9.0625C125.078 9.40104 125.125 9.71354 125.219 10C125.318 10.2865 125.456 10.5339 125.633 10.7422C125.815 10.9505 126.034 11.112 126.289 11.2266C126.549 11.3411 126.844 11.3984 127.172 11.3984C127.578 11.3984 127.956 11.3203 128.305 11.1641C128.659 11.0026 128.964 10.7604 129.219 10.4375L130.312 11.625C130.135 11.8802 129.893 12.125 129.586 12.3594C129.284 12.5938 128.919 12.7865 128.492 12.9375C128.065 13.0833 127.578 13.1562 127.031 13.1562ZM134.031 6.17188V16.25H131.781V4.54688H133.867L134.031 6.17188ZM139.383 8.67969V8.84375C139.383 9.45833 139.31 10.0286 139.164 10.5547C139.023 11.0807 138.815 11.5391 138.539 11.9297C138.263 12.3151 137.919 12.6172 137.508 12.8359C137.102 13.0495 136.633 13.1562 136.102 13.1562C135.586 13.1562 135.138 13.0521 134.758 12.8438C134.378 12.6354 134.057 12.3438 133.797 11.9688C133.542 11.5885 133.336 11.1484 133.18 10.6484C133.023 10.1484 132.904 9.61198 132.82 9.03906V8.60938C132.904 7.99479 133.023 7.43229 133.18 6.92188C133.336 6.40625 133.542 5.96094 133.797 5.58594C134.057 5.20573 134.375 4.91146 134.75 4.70312C135.13 4.49479 135.576 4.39062 136.086 4.39062C136.622 4.39062 137.094 4.49219 137.5 4.69531C137.911 4.89844 138.255 5.1901 138.531 5.57031C138.812 5.95052 139.023 6.40365 139.164 6.92969C139.31 7.45573 139.383 8.03906 139.383 8.67969ZM137.125 8.84375V8.67969C137.125 8.32031 137.094 7.98958 137.031 7.6875C136.974 7.38021 136.88 7.11198 136.75 6.88281C136.625 6.65365 136.458 6.47656 136.25 6.35156C136.047 6.22135 135.799 6.15625 135.508 6.15625C135.201 6.15625 134.938 6.20573 134.719 6.30469C134.505 6.40365 134.331 6.54688 134.195 6.73438C134.06 6.92188 133.958 7.14583 133.891 7.40625C133.823 7.66667 133.781 7.96094 133.766 8.28906V9.375C133.792 9.76042 133.865 10.1068 133.984 10.4141C134.104 10.7161 134.289 10.9557 134.539 11.1328C134.789 11.3099 135.117 11.3984 135.523 11.3984C135.82 11.3984 136.07 11.3333 136.273 11.2031C136.477 11.0677 136.641 10.8828 136.766 10.6484C136.896 10.4141 136.987 10.1432 137.039 9.83594C137.096 9.52865 137.125 9.19792 137.125 8.84375ZM140.422 8.85938V8.69531C140.422 8.07552 140.51 7.50521 140.688 6.98438C140.865 6.45833 141.122 6.0026 141.461 5.61719C141.799 5.23177 142.216 4.93229 142.711 4.71875C143.206 4.5 143.773 4.39062 144.414 4.39062C145.055 4.39062 145.625 4.5 146.125 4.71875C146.625 4.93229 147.044 5.23177 147.383 5.61719C147.727 6.0026 147.987 6.45833 148.164 6.98438C148.341 7.50521 148.43 8.07552 148.43 8.69531V8.85938C148.43 9.47396 148.341 10.0443 148.164 10.5703C147.987 11.0911 147.727 11.5469 147.383 11.9375C147.044 12.3229 146.628 12.6224 146.133 12.8359C145.638 13.0495 145.07 13.1562 144.43 13.1562C143.789 13.1562 143.219 13.0495 142.719 12.8359C142.224 12.6224 141.805 12.3229 141.461 11.9375C141.122 11.5469 140.865 11.0911 140.688 10.5703C140.51 10.0443 140.422 9.47396 140.422 8.85938ZM142.672 8.69531V8.85938C142.672 9.21354 142.703 9.54427 142.766 9.85156C142.828 10.1589 142.927 10.4297 143.062 10.6641C143.203 10.8932 143.385 11.0729 143.609 11.2031C143.833 11.3333 144.107 11.3984 144.43 11.3984C144.742 11.3984 145.01 11.3333 145.234 11.2031C145.458 11.0729 145.638 10.8932 145.773 10.6641C145.909 10.4297 146.008 10.1589 146.07 9.85156C146.138 9.54427 146.172 9.21354 146.172 8.85938V8.69531C146.172 8.35156 146.138 8.02865 146.07 7.72656C146.008 7.41927 145.906 7.14844 145.766 6.91406C145.63 6.67448 145.451 6.48698 145.227 6.35156C145.003 6.21615 144.732 6.14844 144.414 6.14844C144.096 6.14844 143.826 6.21615 143.602 6.35156C143.383 6.48698 143.203 6.67448 143.062 6.91406C142.927 7.14844 142.828 7.41927 142.766 7.72656C142.703 8.02865 142.672 8.35156 142.672 8.69531ZM152.188 4.54688V13H149.93V4.54688H152.188ZM149.789 2.34375C149.789 2.01562 149.904 1.74479 150.133 1.53125C150.362 1.31771 150.669 1.21094 151.055 1.21094C151.435 1.21094 151.74 1.31771 151.969 1.53125C152.203 1.74479 152.32 2.01562 152.32 2.34375C152.32 2.67188 152.203 2.94271 151.969 3.15625C151.74 3.36979 151.435 3.47656 151.055 3.47656C150.669 3.47656 150.362 3.36979 150.133 3.15625C149.904 2.94271 149.789 2.67188 149.789 2.34375ZM156.25 6.35156V13H154V4.54688H156.109L156.25 6.35156ZM155.922 8.47656H155.312C155.312 7.85156 155.393 7.28906 155.555 6.78906C155.716 6.28385 155.943 5.85417 156.234 5.5C156.526 5.14062 156.872 4.86719 157.273 4.67969C157.68 4.48698 158.133 4.39062 158.633 4.39062C159.029 4.39062 159.391 4.44792 159.719 4.5625C160.047 4.67708 160.328 4.85938 160.562 5.10938C160.802 5.35938 160.984 5.6901 161.109 6.10156C161.24 6.51302 161.305 7.01562 161.305 7.60938V13H159.039V7.60156C159.039 7.22656 158.987 6.9349 158.883 6.72656C158.779 6.51823 158.625 6.3724 158.422 6.28906C158.224 6.20052 157.979 6.15625 157.688 6.15625C157.385 6.15625 157.122 6.21615 156.898 6.33594C156.68 6.45573 156.497 6.6224 156.352 6.83594C156.211 7.04427 156.104 7.28906 156.031 7.57031C155.958 7.85156 155.922 8.15365 155.922 8.47656ZM167.156 4.54688V6.14062H162.234V4.54688H167.156ZM163.453 2.46094H165.703V10.4531C165.703 10.6979 165.734 10.8854 165.797 11.0156C165.865 11.1458 165.964 11.237 166.094 11.2891C166.224 11.3359 166.388 11.3594 166.586 11.3594C166.727 11.3594 166.852 11.3542 166.961 11.3438C167.076 11.3281 167.172 11.3125 167.25 11.2969L167.258 12.9531C167.065 13.0156 166.857 13.0651 166.633 13.1016C166.409 13.138 166.161 13.1562 165.891 13.1562C165.396 13.1562 164.964 13.0755 164.594 12.9141C164.229 12.7474 163.948 12.4818 163.75 12.1172C163.552 11.7526 163.453 11.2734 163.453 10.6797V2.46094ZM168.547 11.9141C168.547 11.5807 168.661 11.3021 168.891 11.0781C169.125 10.8542 169.435 10.7422 169.82 10.7422C170.206 10.7422 170.513 10.8542 170.742 11.0781C170.977 11.3021 171.094 11.5807 171.094 11.9141C171.094 12.2474 170.977 12.526 170.742 12.75C170.513 12.974 170.206 13.0859 169.82 13.0859C169.435 13.0859 169.125 12.974 168.891 12.75C168.661 12.526 168.547 12.2474 168.547 11.9141ZM175.891 13H173.633V4.16406C173.633 3.44531 173.779 2.83854 174.07 2.34375C174.367 1.84896 174.789 1.47396 175.336 1.21875C175.888 0.963542 176.555 0.835938 177.336 0.835938C177.779 0.835938 178.208 0.880208 178.625 0.96875C179.042 1.05208 179.471 1.16146 179.914 1.29688L179.586 3.10156C179.299 3.01302 178.992 2.92969 178.664 2.85156C178.336 2.77344 177.94 2.73438 177.477 2.73438C176.956 2.73438 176.56 2.85677 176.289 3.10156C176.023 3.34115 175.891 3.69531 175.891 4.16406V13ZM177.57 4.54688V6.14062H172.375V4.54688H177.57ZM180.961 4.54688V13H178.703V4.54688H180.961Z" fill="white"/>
</svg>
