<svg width="1325" height="628" xmlns="http://www.w3.org/2000/svg" xmlns:xlink="http://www.w3.org/1999/xlink" xml:space="preserve" overflow="hidden"><g transform="translate(-146 -435)"><g><g><g><g><path d="M341.813 1.30509C344.769 2.25462 347.835 2.95504 350.666 4.19523 365.799 10.8285 374.613 22.2859 375.844 38.8914 376.418 46.6319 376.069 54.446 376.029 62.2262 375.832 99.6424 375.648 137.059 375.297 174.474 375.264 178.157 376.225 180.34 379.484 182.39 404.17 197.91 428.706 213.668 453.285 229.359 462.209 235.055 462.239 239.589 453.366 245.108 428.859 260.354 404.392 275.663 379.774 290.724 376.037 293.01 374.518 295.356 374.515 299.874 374.489 339.386 374.127 378.897 373.954 418.409 373.878 436.034 366.625 449.453 350.562 457.085 345.463 459.509 339.381 460.87 333.726 460.939 309.935 461.231 286.135 460.867 262.338 460.7 257.343 460.664 254.466 458.192 254.375 454.121 254.281 449.844 257.262 447.234 262.479 447.259 285.527 447.363 308.574 447.542 331.623 447.643 348.772 447.718 360.236 436.695 360.399 419.534 360.755 381.97 360.89 344.404 361.094 306.837 361.1 305.711 360.893 304.582 360.716 302.754 355.31 306.083 350.442 309.193 345.463 312.114 341.096 314.676 336.491 313.38 335.026 309.219 333.666 305.353 335.322 302.583 338.628 300.538 345.241 296.451 351.924 292.461 358.366 288.117 359.782 287.164 361.11 284.903 361.129 283.229 361.474 252.251 361.664 221.27 361.663 190.29 361.662 188.528 360.138 186.175 358.614 185.11 352.49 180.832 346.071 176.977 339.793 172.919 335.371 170.059 334.187 166.324 336.479 162.789 338.708 159.352 342.672 158.89 347.102 161.646 351.754 164.54 356.358 167.511 361.913 171.039L361.946 165.344C362.182 125.233 362.435 85.1236 362.65 45.0136 362.754 25.7425 352.014 14.8413 332.875 14.727 265.078 14.3222 197.28 13.9212 129.482 13.5261 110.59 13.416 99.6769 24.2147 99.5084 43.1603 99.459 48.6977 99.5228 54.2378 99.3699 59.772 99.2306 64.8192 96.7166 67.5602 92.5803 67.5144 88.4637 67.4688 85.9748 64.6825 85.9671 59.6229 85.956 52.1426 85.8543 44.6409 86.3529 37.1859 87.4906 20.1731 99.3165 6.09117 115.806 1.56604 117.506 1.09927 119.178 0.524609 120.863 1.44278e-05 194.513 0.435041 268.162 0.870068 341.813 1.30511ZM440.528 237.219C418.633 223.25 397.422 209.721 375.586 195.791 375.423 223.43 375.265 250.204 375.101 277.866 397.046 264.232 418.419 250.954 440.528 237.219Z" fill="#FFFFFF" fill-rule="nonzero" fill-opacity="1" transform="matrix(1 0 0 1.00121 151 597.197)"/><path d="M0.0318421 231.921C2.36561 230.135 4.57113 228.142 7.05297 226.593 31.7866 211.151 56.5313 195.725 81.3778 180.466 84.3302 178.654 85.326 176.694 85.3277 173.307 85.341 147.716 85.5522 122.124 85.7125 96.5332 85.7227 94.8893 85.6806 93.2255 85.9112 91.6063 86.4558 87.7816 88.7801 85.7142 92.6274 85.7805 96.2555 85.8429 98.4779 87.865 99.0028 91.4794 99.2375 93.0964 99.1918 94.7617 99.183 96.4048 99.0633 118.704 98.9278 141.002 98.796 163.301 98.7859 165.025 98.7757 166.749 98.7597 169.463 104.564 165.884 109.475 162.858 114.383 159.83 117.732 157.762 120.948 157.762 123.694 160.778 126.565 163.929 125.738 168.456 121.661 171.108 115.144 175.345 108.543 179.463 101.855 183.423 99.5174 184.809 98.5959 186.385 98.5879 189.128 98.4964 219.809 98.3119 250.488 98.0487 281.167 98.0256 283.863 98.7873 285.527 101.162 286.956 107.567 290.807 113.831 294.895 120.094 298.977 124.545 301.879 125.698 305.595 123.427 309.128 121.22 312.564 117.197 313.047 112.803 310.306 108.156 307.407 103.559 304.429 98.2277 301.032 98.107 303.437 97.9686 304.999 97.9588 306.562 97.7311 343.227 97.495 379.894 97.3101 416.559 97.2149 435.434 108.089 446.325 127.038 446.442 160.262 446.644 193.485 446.833 226.71 447.041 228.202 447.05 229.77 446.915 231.168 447.316 234.385 448.237 236.228 450.493 236.156 453.921 236.082 457.347 234.131 459.459 230.898 460.33 229.913 460.596 228.818 460.509 227.773 460.503 193.203 460.307 158.631 460.199 124.062 459.854 104.575 459.661 88.6295 446.49 84.7086 427.509 83.9005 423.596 83.8437 419.477 83.861 415.454 84.0295 376.095 84.2323 336.735 84.6082 297.377 84.644 293.63 83.5447 291.492 80.3547 289.481 55.9415 274.091 31.6417 258.522 7.34913 242.941 4.76036 241.28 2.44316 239.197-2.88556e-05 237.31 0.01059 235.514 0.0211944 233.717 0.0318133 231.921ZM84.3306 276.122C84.4938 248.506 84.6518 221.745 84.8151 194.101 62.8241 207.767 41.4078 221.077 19.4312 234.734 41.3427 248.708 62.5328 262.221 84.3306 276.122Z" fill="#FFFFFF" fill-rule="nonzero" fill-opacity="1" transform="matrix(1 0 0 1.00121 151 597.197)"/><path d="M236.6 323.096C238.243 322.144 239.519 321.45 240.751 320.685 259.553 309.003 278.318 297.26 297.182 285.68 299.792 284.077 300.939 282.337 300.713 279.263 300.462 275.841 300.586 272.377 300.755 268.941 300.964 264.737 303.738 262.079 307.565 262.144 311.366 262.211 314.063 264.932 314.138 269.179 314.239 275.014 314.461 280.889 313.898 286.674 313.673 288.99 312.041 291.98 310.121 293.196 284.725 309.28 259.165 325.106 233.641 340.989 230.667 342.839 227.754 342.703 224.81 340.797 199.949 324.703 175.083 308.621 150.189 292.578 147.246 290.681 146.067 288.162 146.094 284.689 146.345 251.908 146.545 219.126 146.669 186.344 146.682 182.66 148.078 180.156 151.172 178.218 176.013 162.653 200.835 147.054 225.606 131.376 229.092 129.171 232.161 129.237 235.58 131.429 260.383 147.335 285.214 163.196 310.081 179 313.308 181.051 314.761 183.657 314.712 187.521 314.506 203.537 314.493 219.555 314.372 235.571 314.33 240.927 311.936 243.88 307.742 243.945 303.363 244.012 300.899 240.954 300.918 235.345 300.955 224.567 301.037 213.79 301.101 203.012 301.11 201.581 301.118 200.15 301.131 197.91 295.383 201.468 290.335 204.577 285.301 207.713 270.194 217.121 255.049 226.473 240.048 236.05 238.48 237.05 236.828 239.383 236.803 241.12 236.446 267.312 236.349 293.509 236.213 319.705 236.209 320.684 236.431 321.665 236.6 323.096ZM222.151 322.914C222.412 321.874 222.66 321.339 222.664 320.801 222.846 294.025 223.055 267.25 223.046 240.475 223.046 238.966 221.575 236.979 220.219 236.034 214.577 232.11 208.688 228.546 202.95 224.759 198.812 222.028 197.75 218.342 199.929 214.892 202.076 211.493 206.013 210.845 210.116 213.415 215.815 216.985 221.493 220.598 227.053 224.38 229.18 225.827 230.738 225.909 233.005 224.481 252.609 212.136 272.307 199.943 291.969 187.693 292.942 187.087 293.848 186.374 294.855 185.661 294.357 185.184 294.077 184.813 293.71 184.578 273.438 171.613 253.127 158.71 232.925 145.637 230.568 144.112 229.149 145.066 227.366 146.19 208.277 158.228 189.173 170.247 170.079 182.279 168.866 183.044 167.7 183.888 166.179 184.921 170.938 188.009 175.315 190.848 179.692 193.687 185.72 197.6 187.279 201.213 184.628 205.13 182.122 208.835 178.328 208.816 172.435 205.059 168.52 202.562 164.61 200.056 160.12 197.185 159.951 225.652 159.742 253.022 159.763 280.391 159.765 281.82 161.45 283.695 162.845 284.607 179.352 295.412 195.953 306.074 212.533 316.768 215.631 318.766 218.746 320.739 222.151 322.914Z" fill="#FFFFFF" fill-rule="nonzero" fill-opacity="1" transform="matrix(1 0 0 1.00121 151 597.197)"/><path d="M263.964 110.852C263.812 117.961 258.276 120.709 253.128 117.594 246.734 113.725 240.422 109.706 234.232 105.517 231.801 103.871 230.009 103.632 227.435 105.362 221.358 109.446 215.052 113.193 208.79 116.995 204.615 119.529 200.676 118.965 198.511 115.69 196.185 112.171 197.346 108.314 201.74 105.548 209.838 100.449 218.031 95.5005 226.098 90.3545 229.434 88.2271 232.422 88.3757 235.675 90.4988 243.563 95.6462 251.631 100.523 259.426 105.804 261.561 107.249 262.99 109.736 263.964 110.852Z" fill="#FFFFFF" fill-rule="nonzero" fill-opacity="1" transform="matrix(1 0 0 1.00121 151 597.197)"/><path d="M201.734 352.05C204.474 353.368 206.287 354.049 207.902 355.052 213.999 358.838 220.118 362.604 226.047 366.642 228.422 368.259 230.149 368.125 232.461 366.606 238.455 362.663 244.603 358.949 250.719 355.191 255.209 352.432 259.13 352.853 261.372 356.244 263.77 359.865 262.525 363.661 257.786 366.646 249.813 371.666 241.768 376.568 233.795 381.585 231.038 383.319 228.272 383.952 225.385 382.123 216.669 376.6 207.972 371.047 199.298 365.457 196.483 363.644 194.934 360.8 196.342 357.785 197.392 355.531 199.874 353.946 201.734 352.05Z" fill="#FFFFFF" fill-rule="nonzero" fill-opacity="1" transform="matrix(1 0 0 1.00121 151 597.197)"/><path d="M219.525 41.001C212.645 40.9604 205.766 40.9563 198.889 40.867 193.758 40.8005 190.652 38.1148 190.751 33.972 190.847 29.9742 193.871 27.4102 198.759 27.4233 212.814 27.4609 226.871 27.5483 240.927 27.6692 246.063 27.7133 249.174 30.417 249.068 34.5554 248.963 38.6712 245.857 41.1205 240.608 41.1168 233.58 41.1117 226.552 41.0427 219.525 41.001Z" fill="#FFFFFF" fill-rule="nonzero" fill-opacity="1" transform="matrix(1 0 0 1.00121 151 597.197)"/><path d="M319.378 326.048C318.649 326.954 317.505 329.363 315.599 330.577 306.529 336.358 297.289 341.881 288.026 347.355 284.147 349.647 280.228 348.64 278.301 345.224 276.487 342.012 277.464 338.186 281.04 335.97 290.315 330.226 299.613 324.516 309.042 319.033 314.022 316.138 319.33 319.108 319.378 326.048Z" fill="#FFFFFF" fill-rule="nonzero" fill-opacity="1" transform="matrix(1 0 0 1.00121 151 597.197)"/><path d="M146.109 154.441C144.631 153.141 141.655 151.759 141.167 149.766 140.613 147.504 141.451 143.48 143.13 142.328 152.731 135.742 162.665 129.618 172.704 123.708 175.842 121.86 179.261 122.874 181.219 126.244 183.126 129.527 182.633 132.912 179.47 134.973 169.832 141.252 160.011 147.25 150.224 153.294 149.378 153.816 148.243 153.867 146.109 154.441Z" fill="#FFFFFF" fill-rule="nonzero" fill-opacity="1" transform="matrix(1 0 0 1.00121 151 597.197)"/><path d="M145.112 316.244C147.63 317.332 149.355 317.839 150.824 318.755 159.446 324.128 168.03 329.561 176.58 335.049 181.036 337.909 182.201 341.621 179.959 345.162 177.748 348.655 173.79 349.154 169.348 346.368 160.49 340.81 151.661 335.205 142.836 329.596 139.808 327.67 138.413 324.69 139.871 321.523 140.843 319.415 143.301 317.991 145.112 316.244Z" fill="#FFFFFF" fill-rule="nonzero" fill-opacity="1" transform="matrix(1 0 0 1.00121 151 597.197)"/><path d="M320.28 146.999C320.134 152.995 314.947 156.404 310.669 153.881 300.798 148.055 291.111 141.902 281.534 135.603 278.397 133.541 277.999 130.116 279.938 126.872 281.944 123.519 285.383 122.62 288.479 124.457 298.336 130.309 308 136.495 317.572 142.805 319.087 143.804 319.736 146.115 320.28 146.999Z" fill="#FFFFFF" fill-rule="nonzero" fill-opacity="1" transform="matrix(1 0 0 1.00121 151 597.197)"/><path d="M264.629 41.2229C260.869 41.097 257.892 37.8429 258.131 34.1191 258.359 30.5501 261.435 27.7382 264.998 27.8406 268.76 27.9485 271.743 31.2102 271.488 34.9343 271.241 38.5372 268.181 41.342 264.629 41.2229Z" fill="#FFFFFF" fill-rule="nonzero" fill-opacity="1" transform="matrix(1 0 0 1.00121 151 597.197)"/></g></g></g><g><g><g><path d="M415 341.119C413.154 350.05 410.417 358.813 404.059 365.463 397.388 372.441 390.073 378.898 382.457 384.838 377.006 389.087 370.596 392.107 363.76 396.185 363.76 393.643 363.76 392.099 363.76 390.556 363.76 359.094 363.701 327.629 363.848 296.168 363.862 292.928 362.776 291.413 359.964 290.112 334.517 278.336 307.599 271.805 280.067 267.398 276.759 266.868 273.444 266.386 269.786 265.829 269.998 263.703 270.155 261.857 270.372 260.019 270.591 258.162 270.871 256.311 271.194 253.946 275.435 254.462 279.497 254.957 284.125 255.521L284.125 143.635 310.918 143.635 310.918 54.3921 380.455 54.3921C380.567 54.1268 380.68 53.8614 380.79 53.5961 379.245 52.463 377.749 51.2561 376.147 50.2077 356.822 37.5527 335.361 29.9888 313.172 24.4262 271.08 13.8739 228.264 10.7761 184.999 12.735 153.068 14.1806 121.586 18.4461 90.8642 27.4858 71.3765 33.2201 52.5639 40.5342 35.824 52.3686 28.604 57.4728 22.1099 63.3356 17.4411 70.9608 10.5351 82.24 10.8142 93.4797 18.0553 104.456 24.9258 114.872 34.6692 122.156 45.4644 127.926 49.993 130.346 51.7281 133.025 51.4526 138.217 50.9555 147.585 51.312 156.998 51.312 167.083 59.0798 161.928 66.8685 159.477 75.7591 161.053 76.1542 159.879 76.5663 158.774 76.9003 157.646 81.1125 143.417 94.7328 133.974 108.812 135.534 124.331 137.253 135.957 149.088 136.324 164.525 136.731 181.663 136.672 198.823 136.337 215.965 136.089 228.693 127.945 239.209 115.77 243.203 112.915 244.14 111.901 245.371 112.109 248.281 112.348 251.619 112.165 254.989 112.165 258.855 122.832 257.105 133.11 255.419 143.822 253.662 144.38 257.841 144.874 261.519 145.434 265.703 138.597 266.834 131.992 267.84 125.421 269.031 101.33 273.402 77.8167 279.684 55.4708 289.949 52.3269 291.393 51.2056 293.073 51.2228 296.588 51.3762 327.781 51.312 358.974 51.312 390.166 51.312 391.776 51.312 393.388 51.312 395.696 49.1304 394.586 47.387 393.755 45.6949 392.831 34.1543 386.523 23.2167 379.401 14.2716 369.58 4.98792 359.388 0.1076 347.657 0.134003 333.628 0.284467 253.688 0.493077 173.747 0.00138133 93.81-0.118262 74.3586 7.55574 59.7545 21.8696 47.7908 39.1604 33.3389 59.4665 24.6879 80.6476 17.9058 113.632 7.34428 147.598 2.39426 182.102 0.688247 183.835 0.602648 185.551 0.235862 187.275 0 200.782 0 214.289 0 227.795 0 228.98 0.213286 230.155 0.502415 231.348 0.628504 249.98 2.59801 268.722 3.85015 287.226 6.66341 314.777 10.8523 341.615 18.1203 366.59 30.8183 389.137 42.283 409.731 55.9298 415 83.4565L415 341.119ZM296.741 155.9C296.617 156.88 296.434 157.656 296.433 158.433 296.417 190.551 296.453 222.672 296.355 254.79 296.347 257.552 297.581 258.105 299.869 258.557 320.95 262.708 341.502 268.621 361.203 277.302 361.881 277.601 362.656 277.676 363.449 277.87L363.449 155.9 296.741 155.9ZM39.1428 374.846 39.1428 368.997C39.1428 294.623 39.0841 220.248 39.2667 145.875 39.2797 140.577 37.8078 137.573 33.2445 134.644 25.9622 129.969 19.4406 124.109 12.3746 118.576L12.3746 122.275C12.3747 193.005 12.3726 263.734 12.3861 334.464 12.3865 336.351 12.4003 338.257 12.6702 340.118 15.0015 356.175 26.2609 365.448 39.1428 374.846ZM402.696 117.696C401.515 118.734 400.974 119.248 400.392 119.712 393.457 125.259 386.684 131.031 379.488 136.218 376.846 138.122 375.861 139.85 375.864 143.017 375.947 218.607 375.927 294.196 375.937 369.786 375.937 371.193 376.067 372.6 376.189 375.084 381.116 370.923 385.475 367.571 389.451 363.815 398.526 355.239 402.864 344.879 402.818 332.083 402.564 262.298 402.696 192.513 402.696 122.726 402.696 121.303 402.696 119.88 402.696 117.696ZM363.76 143.321C363.76 140.934 364.013 139.017 363.708 137.194 362.971 132.783 364.925 130.528 368.761 128.468 379.047 122.943 388.445 116.138 395.522 106.627 404.569 94.4666 404.873 81.7696 396.712 69.4077 395.296 67.2632 393.802 66.3882 391.158 66.4032 369.826 66.5228 348.493 66.4671 327.162 66.4786 325.98 66.4793 324.799 66.6019 323.467 66.6763L323.467 143.321 363.76 143.321ZM124.33 190.341C124.33 182.659 124.39 174.975 124.294 167.293 124.265 165.027 124.107 162.674 123.472 160.519 120.96 151.999 112.32 146.461 103.867 147.732 94.3346 149.163 87.9466 156.487 87.861 166.567 87.7282 182.202 87.7397 197.839 87.8509 213.474 87.9316 224.811 95.7338 232.768 106.369 232.676 116.811 232.585 124.197 224.705 124.315 213.391 124.395 205.709 124.33 198.025 124.33 190.341ZM84.0766 235.338C76.6218 227.67 75.3785 218.235 75.5995 208.241 75.8231 198.118 75.6487 187.987 75.6487 177.86 75.6487 176.422 75.6487 174.983 75.6487 173.689 63.0325 170.454 52.3685 178.76 52.1623 191.618 51.9956 202.013 52.0971 212.412 52.1568 222.81 52.1669 224.548 52.3598 226.344 52.8288 228.013 54.8304 235.132 59.5229 239.776 66.7156 241.237 73.3045 242.576 79.2397 240.875 84.0766 235.338ZM76.4696 268.358C84.0764 266.263 90.9597 264.467 97.7523 262.378 98.7227 262.08 99.8167 260.389 99.8872 259.281 100.143 255.254 100.128 251.192 99.901 247.16 99.8367 246.02 98.9556 244.419 97.9986 243.951 96.3784 243.16 94.796 242.311 92.5575 244.038 88.2647 247.35 83.3282 249.819 78.7397 252.764 77.8003 253.367 76.6256 254.491 76.5718 255.432 76.3351 259.57 76.4696 263.73 76.4696 268.358ZM51.4699 278.276C55.6632 276.551 59.3928 275.129 62.9949 273.437 63.6835 273.113 64.2095 271.727 64.2302 270.818 64.3466 265.7 64.3477 260.576 64.2251 255.459 64.2043 254.587 63.611 253.278 62.9137 252.947 59.2177 251.195 55.4039 249.691 51.4699 248.032L51.4699 278.276Z" fill="#FFFFFF" fill-rule="nonzero" fill-opacity="1" transform="matrix(1.00241 0 0 1 701 625.201)"/><path d="M238.794 306.061C253.285 309.16 267.373 312.169 281.459 315.187 303.384 319.885 315.065 334.316 315.078 356.727 315.087 374.416 315.08 392.104 315.08 409.794L315.08 414.525 302.907 414.525C302.907 413.039 302.907 411.6 302.907 410.161 302.907 392.202 302.92 374.244 302.902 356.283 302.888 340.126 295.096 330.569 279.328 327.217 264.687 324.103 250.064 320.903 235.414 317.831 233.059 317.337 230.606 317.159 228.191 317.113 222.791 317.009 217.371 317.359 211.988 317.031 191.983 315.81 172.452 318.544 153.116 323.434 146.979 324.986 140.728 326.093 134.53 327.406 120.64 330.35 112.277 340.42 112.192 354.668 112.084 372.897 112.165 391.127 112.164 409.357 112.164 410.971 112.164 412.585 112.164 414.525L99.9918 414.525 99.9918 410.194C99.9918 392.1 99.9682 374.006 99.9979 355.911 100.034 334.274 112.374 319.436 133.607 315.176 146.696 312.55 159.729 309.648 172.804 306.96 175.259 306.456 176.738 305.558 176.306 302.748 176.124 301.561 176.183 300.314 176.292 299.108 177.167 289.47 175.84 281.531 167.266 274.44 157.932 266.723 153.584 255.003 153.176 242.696 152.696 228.136 152.335 213.503 153.243 198.983 154.919 172.124 177.34 150.93 204.681 149.254 231.086 147.634 255.772 166.569 261.032 192.544 261.593 195.311 262.094 198.15 262.107 200.959 262.167 214.861 262.546 228.788 261.872 242.661 261.134 257.844 254.138 270.329 242.459 279.965 239.616 282.309 238.588 284.641 238.729 288.158 238.964 294.059 238.794 299.977 238.794 306.061ZM250.138 206.274C250.138 205.599 250.163 204.923 250.136 204.25 249.374 185.468 240.747 171.65 223.237 164.595 206.381 157.804 190.81 161.312 177.675 173.788 166.392 184.507 163.882 198.262 165.226 213.194 167.388 237.209 190.891 255.185 214.609 250.787 236.345 246.758 250.192 229.418 250.138 206.274ZM165.7 244.515C168.644 265.907 187.527 281.251 209.468 280.466 229.505 279.749 248.051 263.117 249.147 244.881 226.118 270.087 188.482 269.5 165.7 244.515ZM226.45 289.486C213.591 293.849 201.196 293.577 188.743 289.623L188.743 304.566 226.45 304.566 226.45 289.486Z" fill="#FFFFFF" fill-rule="nonzero" fill-opacity="1" transform="matrix(1.00241 0 0 1 701 625.201)"/><path d="M114.036 113.495C105.268 113.495 96.4981 113.597 87.732 113.469 76.2082 113.3 67.7959 107.898 63.2955 97.3523 58.9187 87.0969 60.7084 77.3478 68.3375 69.2456 76.0774 61.0255 85.6727 58.9879 96.5066 62.3569 98.2432 62.8969 100.321 62.5428 102.213 62.3376 105.804 61.9478 109.495 60.562 112.924 61.0721 117.073 61.6893 119.831 60.5318 123.083 58.1895 133.694 50.5478 147.795 50.9532 158.23 58.6793 168.787 66.4956 173.168 80.1487 169.103 92.5585 165.076 104.855 153.771 113.267 140.744 113.456 131.843 113.585 122.938 113.481 114.036 113.481L114.036 113.495ZM99.471 78.1435C97.9006 77.1088 96.5839 76.1918 95.2201 75.3515 89.6691 71.9312 83.5127 72.2338 78.6079 76.1392 73.967 79.8347 72.135 86.1589 74.0649 91.8226 75.9702 97.4141 81.1349 101.27 87.3338 101.298 105.15 101.378 122.967 101.415 140.783 101.273 149.094 101.207 156.244 95.1662 157.987 87.2763 159.84 78.8789 155.715 70.3285 148.044 66.6695 140.449 63.0468 131.455 65.0611 126.093 71.6358 124.74 73.2953 123.518 75.0625 122.05 77.0302 114.227 71.6693 106.621 71.4227 99.471 78.1435Z" fill="#FFFFFF" fill-rule="nonzero" fill-opacity="1" transform="matrix(1.00241 0 0 1 701 625.201)"/><path d="M244.04 102.943C229.509 102.945 217.799 91.2805 217.738 76.7414 217.674 62.0956 229.614 50.1749 244.242 50.2776 258.665 50.3788 270.477 62.3304 270.396 76.739 270.314 91.2386 258.544 102.941 244.04 102.943ZM244.127 90.7783C251.957 90.7392 258.285 84.352 258.221 76.5512 258.157 68.7699 251.708 62.3927 243.953 62.4401 236.16 62.4877 229.873 68.886 229.915 76.7259 229.958 84.6009 236.245 90.8176 244.127 90.7783Z" fill="#FFFFFF" fill-rule="nonzero" fill-opacity="1" transform="matrix(1.00241 0 0 1 701 625.201)"/><path d="M140.784 366.432 152.525 366.432 152.525 414.574 140.784 414.574 140.784 366.432Z" fill="#FFFFFF" fill-rule="nonzero" fill-opacity="1" transform="matrix(1.00241 0 0 1 701 625.201)"/><path d="M262.668 366.343 274.179 366.343 274.179 414.597 262.668 414.597 262.668 366.343Z" fill="#FFFFFF" fill-rule="nonzero" fill-opacity="1" transform="matrix(1.00241 0 0 1 701 625.201)"/><path d="M220.598 108.447C217.995 110.954 215.231 113.616 212.532 116.218 209.835 113.599 207.077 110.92 204.172 108.098 206.911 105.42 209.657 102.737 212.221 100.231 214.979 102.936 217.715 105.619 220.598 108.447Z" fill="#FFFFFF" fill-rule="nonzero" fill-opacity="1" transform="matrix(1.00241 0 0 1 701 625.201)"/><path d="M193.646 70.6449 205.193 70.6449 205.193 82.4585 193.646 82.4585 193.646 70.6449Z" fill="#FFFFFF" fill-rule="nonzero" fill-opacity="1" transform="matrix(1.00241 0 0 1 701 625.201)"/><path d="M283.499 108.574C281.024 111.082 278.408 113.732 275.938 116.234 273.179 113.508 270.464 110.824 267.556 107.949 270.103 105.641 272.932 103.079 275.988 100.312 278.169 102.711 280.748 105.548 283.499 108.574Z" fill="#FFFFFF" fill-rule="nonzero" fill-opacity="1" transform="matrix(1.00241 0 0 1 701 625.201)"/><path d="M274.989 52.7764C272.762 50.5799 270.093 47.9479 267.274 45.1673 270.097 42.4574 272.857 39.8082 275.752 37.0298 278.192 39.6704 280.735 42.4193 283.469 45.3775 280.956 47.5706 278.064 50.093 274.989 52.7764Z" fill="#FFFFFF" fill-rule="nonzero" fill-opacity="1" transform="matrix(1.00241 0 0 1 701 625.201)"/><path d="M211.929 52.6582C209.723 50.4255 207.088 47.7584 204.408 45.044 207.008 42.3987 209.7 39.6594 212.359 36.9544 215.093 39.788 217.687 42.478 220.565 45.4599 217.905 47.677 214.942 50.1471 211.929 52.6582Z" fill="#FFFFFF" fill-rule="nonzero" fill-opacity="1" transform="matrix(1.00241 0 0 1 701 625.201)"/><path d="M282.828 70.6846 294.43 70.6846 294.43 82.408 282.828 82.408 282.828 70.6846Z" fill="#FFFFFF" fill-rule="nonzero" fill-opacity="1" transform="matrix(1.00241 0 0 1 701 625.201)"/><path d="M249.921 26.2385 249.921 37.7885 238.216 37.7885 238.216 26.2385 249.921 26.2385Z" fill="#FFFFFF" fill-rule="nonzero" fill-opacity="1" transform="matrix(1.00241 0 0 1 701 625.201)"/><path d="M238.266 115.339 249.881 115.339 249.881 127.094 238.266 127.094 238.266 115.339Z" fill="#FFFFFF" fill-rule="nonzero" fill-opacity="1" transform="matrix(1.00241 0 0 1 701 625.201)"/><path d="M313.071 184.545 313.071 173.011 324.87 173.011 324.87 184.545 313.071 184.545Z" fill="#FFFFFF" fill-rule="nonzero" fill-opacity="1" transform="matrix(1.00241 0 0 1 701 625.201)"/><path d="M349.085 184.627 337.487 184.627 337.487 172.975 349.085 172.975 349.085 184.627Z" fill="#FFFFFF" fill-rule="nonzero" fill-opacity="1" transform="matrix(1.00241 0 0 1 701 625.201)"/><path d="M324.887 217.086 313.177 217.086 313.177 205.431 324.887 205.431 324.887 217.086Z" fill="#FFFFFF" fill-rule="nonzero" fill-opacity="1" transform="matrix(1.00241 0 0 1 701 625.201)"/><path d="M337.559 205.35 349.154 205.35 349.154 217.087 337.559 217.087 337.559 205.35Z" fill="#FFFFFF" fill-rule="nonzero" fill-opacity="1" transform="matrix(1.00241 0 0 1 701 625.201)"/><path d="M324.986 237.928 324.986 249.384 313.225 249.384 313.225 237.928 324.986 237.928Z" fill="#FFFFFF" fill-rule="nonzero" fill-opacity="1" transform="matrix(1.00241 0 0 1 701 625.201)"/><path d="M337.513 237.786 349.21 237.786 349.21 249.432 337.513 249.432 337.513 237.786Z" fill="#FFFFFF" fill-rule="nonzero" fill-opacity="1" transform="matrix(1.00241 0 0 1 701 625.201)"/><path d="M350.783 127.081 339.179 127.081 339.179 115.482 350.783 115.482 350.783 127.081Z" fill="#FFFFFF" fill-rule="nonzero" fill-opacity="1" transform="matrix(1.00241 0 0 1 701 625.201)"/><path d="M375.117 94.6518 363.505 94.6518 363.505 83.0473 375.117 83.0473 375.117 94.6518Z" fill="#FFFFFF" fill-rule="nonzero" fill-opacity="1" transform="matrix(1.00241 0 0 1 701 625.201)"/><path d="M339.087 94.6377 339.087 82.9863 350.81 82.9863 350.81 94.6377 339.087 94.6377Z" fill="#FFFFFF" fill-rule="nonzero" fill-opacity="1" transform="matrix(1.00241 0 0 1 701 625.201)"/></g></g></g><text fill="#FFFFFF" fill-opacity="1" font-family="Futura,Futura_MSFontService,sans-serif" font-style="normal" font-variant="normal" font-weight="700" font-stretch="normal" font-size="55" text-anchor="start" direction="ltr" writing-mode="lr-tb" unicode-bidi="normal" text-decoration="none" transform="matrix(1 0 0 1 619.497 507)">Techdataflow</text></g></g></svg>