<svg width="692" height="1247" xmlns="http://www.w3.org/2000/svg" xmlns:xlink="http://www.w3.org/1999/xlink" xml:space="preserve" overflow="hidden"><defs><clipPath id="clip0"><rect x="478" y="910" width="221" height="222"/></clipPath><clipPath id="clip1"><rect x="478" y="910" width="221" height="222"/></clipPath><clipPath id="clip2"><rect x="478" y="910" width="221" height="222"/></clipPath><clipPath id="clip3"><rect x="480" y="225" width="243" height="182"/></clipPath><clipPath id="clip4"><rect x="480" y="225" width="243" height="182"/></clipPath><clipPath id="clip5"><rect x="480" y="225" width="243" height="182"/></clipPath></defs><g transform="translate(-36 -224)"><g><g clip-path="url(#clip0)"><g clip-path="url(#clip1)"><g clip-path="url(#clip2)"><path d="M110.551 1.38099C138.963 1.38111 167.375 1.36599 195.788 1.38726 210.786 1.39849 219.606 10.2573 219.611 25.2804 219.624 64.8269 219.628 104.373 219.621 143.92 219.618 157.886 210.485 167.086 196.61 167.089 139.274 167.1 81.9382 167.104 24.6022 167.093 10.3888 167.091 1.38418 158.041 1.38124 143.791 1.37309 104.245 1.37451 64.6988 1.3838 25.1523 1.38731 10.1866 10.241 1.39095 25.3149 1.38443 53.7269 1.37214 82.139 1.38088 110.551 1.381ZM110.389 158.681C139.053 158.681 167.717 158.699 196.379 158.671 205.763 158.663 211.104 153.285 211.103 143.848 211.099 104.052 211.077 64.2553 211.027 24.4591 211.015 15.0547 205.664 9.78996 196.188 9.78823 139.117 9.77777 82.0453 9.77852 24.9738 9.79166 15.1877 9.79391 10.0066 14.9468 10.003 24.6487 9.98812 64.1893 9.98424 103.73 9.98989 143.271 9.99139 153.794 14.9376 158.682 25.5491 158.684 53.8289 158.691 82.1088 158.687 110.389 158.681Z" fill="#FFFFFF" fill-rule="nonzero" fill-opacity="1" transform="matrix(1 0 0 1 478 911.032)"/><path d="M98.1586 168.476C73.6376 168.476 49.1235 168.473 24.6025 168.469 9.66302 168.466 0.00821412 158.78 0.00553111 143.791-0.00253165 104.245-0.00118327 64.6988 0.00821412 25.1525 0.0115851 9.41562 9.47223 0.0154376 25.3146 0.00870944 45.609-0.00068795 65.9009 0.00199505 86.198 0.00334344L110.551 0.00469182 135.225 0.00200881C155.413-0.000674191 175.602-0.00470558 195.788 0.01142 211.561 0.0221657 220.982 9.46938 220.987 25.2801 221 64.8265 221.004 104.373 220.997 143.92 220.994 158.599 211.194 168.462 196.61 168.465 163.795 168.472 130.974 168.476 98.1586 168.476ZM61.8538 2.75379C49.6742 2.75379 37.4955 2.75514 25.3159 2.76051 10.9845 2.76722 2.76338 10.9286 2.76003 25.1524 2.75062 64.6988 2.74928 104.245 2.75734 143.791 2.76003 157.312 11.1303 165.715 24.6025 165.717 81.9381 165.727 139.274 165.726 196.61 165.713 209.75 165.711 218.242 157.157 218.245 143.92 218.252 104.373 218.248 64.8265 218.236 25.2801 218.23 10.981 210.048 2.77394 195.786 2.76319 175.599 2.74707 155.412 2.75244 135.225 2.75378L110.551 2.75646 86.1975 2.75511C78.0831 2.75511 69.9682 2.75377 61.8538 2.75377ZM54.848 160.062C45.0804 160.062 35.3167 160.061 25.5491 160.061 14.1548 160.058 8.61566 154.564 8.61431 143.27 8.60827 103.731 8.6123 64.1896 8.62708 24.6485 8.63044 14.1829 14.4357 8.41863 24.9733 8.41595 82.0462 8.40386 139.117 8.40251 196.188 8.41192 206.48 8.4146 212.391 14.2635 212.403 24.4578 212.453 64.2541 212.475 104.052 212.479 143.848 212.48 153.984 206.462 160.039 196.381 160.047 175.534 160.067 154.688 160.064 133.84 160.061L110.389 160.058C91.8764 160.061 73.3602 160.064 54.848 160.064ZM118.147 11.157C87.0863 11.157 56.0351 11.161 24.9739 11.1677 15.956 11.1704 11.3822 15.7066 11.3789 24.6485 11.3641 64.1896 11.3601 103.731 11.3661 143.27 11.3675 152.977 15.7417 157.307 25.5498 157.309 53.8301 157.313 82.1087 157.309 110.389 157.307L133.841 157.309C154.685 157.309 175.53 157.313 196.378 157.296 204.987 157.289 209.728 152.512 209.727 143.848 209.723 104.052 209.701 64.2567 209.651 24.4605 209.64 15.8879 204.859 11.1664 196.188 11.1637 170.178 11.1597 144.158 11.157 118.147 11.157Z" fill="#FFFFFF" fill-rule="nonzero" fill-opacity="1" transform="matrix(1 0 0 1 478 911.032)"/><path d="M126.354 206.37C97.4441 206.368 68.5341 206.397 39.6244 206.317 37.0215 206.311 35.6416 206.924 34.5034 209.534 31.2372 217.025 23.0239 220.89 15.1264 219.145 7.24 217.402 1.53464 210.294 1.56605 202.25 1.5986 193.914 7.23957 186.948 15.3919 185.175 22.991 183.523 31.237 187.444 34.433 194.759 35.6584 197.564 37.2325 198.028 39.9345 198.024 97.1147 197.955 154.295 197.971 211.476 197.975 213.008 197.975 214.858 197.501 216 198.185 217.524 199.097 219.468 200.951 219.434 202.356 219.401 203.714 217.253 205.292 215.707 206.238 214.771 206.81 213.212 206.371 211.932 206.371 183.406 206.372 154.879 206.372 126.354 206.37ZM27.6088 202.055C27.5309 197.186 23.6236 193.3 18.8297 193.323 13.8896 193.348 10.0217 197.458 10.1552 202.541 10.2818 207.359 14.3285 211.201 19.1269 211.055 23.9651 210.909 27.6874 206.959 27.6088 202.055Z" fill="#FFFFFF" fill-rule="nonzero" fill-opacity="1" transform="matrix(1 0 0 1 478 911.032)"/><path d="M18.9161 220.936C17.5643 220.936 16.1958 220.791 14.8294 220.488 6.31264 218.606 0.156027 210.934 0.190287 202.245 0.225221 193.304 6.35564 185.733 15.0994 183.831 23.4617 182.018 32.3151 186.474 35.6943 194.208 36.6113 196.306 37.5089 196.648 39.908 196.648L39.9335 196.648C89.9657 196.588 140.836 196.593 190.032 196.598L211.476 196.599C211.883 196.599 212.315 196.562 212.747 196.524 214.046 196.419 215.515 196.293 216.706 197.003 218.15 197.869 220.866 200.108 220.81 202.389 220.795 202.978 220.751 204.765 216.425 207.413 215.379 208.05 214.122 207.931 213.011 207.82 212.642 207.784 212.276 207.747 211.932 207.747L106.53 207.748C84.5985 207.753 61.9244 207.755 39.6204 207.695L39.5726 207.695C37.4988 207.695 36.6523 208.048 35.7642 210.085 32.847 216.776 26.1389 220.936 18.916 220.936ZM18.904 186.176C17.8332 186.176 16.7542 186.287 15.6839 186.521 8.21122 188.146 2.97164 194.615 2.94209 202.256 2.91319 209.658 8.16218 216.196 15.4233 217.801 22.8073 219.433 30.3023 215.724 33.2421 208.984 34.7066 205.627 36.7551 204.943 39.5821 204.943L39.6278 204.943C61.9291 205.005 84.6058 205.005 106.53 204.997L211.932 204.995C212.362 204.995 212.819 205.036 213.277 205.082 213.855 205.138 214.73 205.224 214.988 205.064 217.437 203.567 218.04 202.556 218.058 202.319 218.072 201.806 216.915 200.336 215.292 199.364 214.862 199.106 213.86 199.193 212.98 199.267 212.468 199.31 211.957 199.351 211.476 199.351L190.032 199.35C140.837 199.344 89.9677 199.34 39.9362 199.399L39.9147 199.399C36.7759 199.399 34.6658 198.727 33.1722 195.31 30.7395 189.741 24.9478 186.176 18.904 186.176ZM18.8603 212.435C16.2905 212.435 13.8498 211.461 11.9573 209.672 9.97945 207.802 8.85079 205.283 8.78025 202.576 8.70432 199.695 9.73827 196.998 11.6906 194.984 13.5757 193.039 16.1085 191.961 18.8234 191.948 24.3928 191.963 28.8947 196.447 28.9847 202.032 29.0754 207.693 24.7636 212.26 19.1686 212.431 19.0658 212.433 18.9631 212.435 18.8603 212.435ZM18.8711 194.699 18.8367 194.699C16.8684 194.709 15.0322 195.492 13.6664 196.899 12.2334 198.379 11.475 200.368 11.5307 202.503 11.5824 204.474 12.4054 206.309 13.8479 207.671 15.2802 209.024 17.1343 209.737 19.0854 209.679 23.16 209.556 26.2995 206.216 26.2329 202.076 26.1678 198.002 22.8684 194.699 18.871 194.699Z" fill="#FFFFFF" fill-rule="nonzero" fill-opacity="1" transform="matrix(1 0 0 1 478 911.032)"/><path d="M64.906 84.2021C64.9039 69.3598 64.8969 54.5174 64.9074 39.675 64.9115 33.7757 67.8848 31.9392 72.9346 34.779 99.4635 49.698 125.997 64.6095 152.448 79.6644 154.109 80.6093 156.108 82.7551 156.099 84.3313 156.089 85.9047 154.057 88.0022 152.389 88.9495 125.923 103.98 99.3783 118.871 72.8368 133.768 67.9678 136.501 64.9292 134.709 64.9181 129.113 64.8886 114.143 64.908 99.1725 64.906 84.2021ZM73.646 123.574C97.156 110.355 119.999 97.5104 143.528 84.2799 119.816 70.9357 96.9881 58.0894 73.646 44.9538L73.646 123.574Z" fill="#FFFFFF" fill-rule="nonzero" fill-opacity="1" transform="matrix(1 0 0 1 478 911.032)"/><path d="M68.8731 136.4C67.7967 136.4 66.9731 136.11 66.3705 135.758 65.0846 135.007 63.5509 133.245 63.5422 129.116 63.5213 118.707 63.5247 108.298 63.528 97.8897L63.5301 84.2019 63.528 74.4617C63.526 62.8661 63.5233 51.2704 63.5313 39.6734 63.5341 36.1731 64.4947 33.8365 66.388 32.7293 68.2469 31.6436 70.6755 31.9298 73.6094 33.5785L78.0206 36.0603C102.661 49.9173 128.141 64.2473 153.129 78.4686 154.94 79.4992 157.488 82.0023 157.474 84.339 157.461 86.7548 154.765 89.1829 153.069 90.1449 127.66 104.574 101.755 119.115 76.7018 133.177L73.51 134.968C71.6154 136.032 70.0843 136.4 68.8731 136.4ZM68.8683 34.8456C68.4418 34.8456 68.075 34.9316 67.7767 35.1062 66.8152 35.6678 66.2845 37.291 66.2831 39.676 66.2751 51.2716 66.2778 62.8661 66.2798 74.4617L66.2819 84.2019 66.2798 97.8897C66.2765 108.296 66.2731 118.703 66.2939 129.111 66.2987 131.316 66.8186 132.833 67.7585 133.381 68.6903 133.925 70.257 133.638 72.1636 132.568L75.3548 130.777C100.404 116.717 126.307 102.179 151.709 87.7532 153.327 86.8341 154.718 85.0995 154.723 84.3228 154.728 83.5409 153.337 81.7525 151.767 80.8602 126.786 66.6418 101.31 52.3144 76.6716 38.4587L72.2604 35.9782C70.9282 35.2285 69.7666 34.8456 68.8683 34.8456ZM72.2698 125.928 72.2698 42.6011 146.335 84.2799 72.2698 125.928ZM75.0216 47.3066 75.0216 121.222 140.721 84.2799 75.0216 47.3066Z" fill="#FFFFFF" fill-rule="nonzero" fill-opacity="1" transform="matrix(1 0 0 1 478 911.032)"/></g></g></g><g clip-path="url(#clip3)"><g clip-path="url(#clip4)"><g clip-path="url(#clip5)"><path d="M120.28 181.998C85.8163 181.998 51.3524 182.003 16.8886 181.996 5.77102 181.993 0.843741 176.54 0.100467 165.554-0.550054 155.938 1.95309 148.028 7.77585 140.384 14.8203 131.135 20.9823 121.206 27.3242 111.44 28.4902 109.644 29.2491 107.226 29.2582 105.092 29.3825 76.0893 29.3396 47.0861 29.3418 18.0831 29.3427 5.64296 34.8703 0.0219017 47.2108 0.0171501 96.2368-0.00174098 145.263-0.0035012 194.289 0.00450154 205.212 0.006281 211.307 6.20912 211.309 17.2682 211.316 46.3926 211.259 75.5172 211.408 104.641 211.421 107.11 212.252 109.915 213.596 111.982 221.732 124.487 230.194 136.78 238.358 149.267 239.521 151.045 239.998 153.465 240.188 155.641 240.483 159.013 240.288 162.43 240.251 165.828 240.13 176.426 234.564 181.99 224.035 181.994 189.45 182.006 154.866 181.998 120.28 181.998ZM202.926 107.629C203.049 106.456 203.211 105.63 203.212 104.805 203.22 75.5591 203.239 46.3124 203.189 17.0659 203.177 10.4413 200.522 7.99048 193.744 7.9705 189.011 7.95652 184.279 7.97435 179.545 7.97454 135.615 7.97627 91.6841 7.97238 47.7534 7.98274 39.4118 7.98472 37.337 10.0427 37.3362 18.2135 37.3332 46.4893 37.3348 74.7651 37.3346 103.041 37.3346 104.548 37.3346 106.056 37.3346 107.629L202.926 107.629ZM12.0168 148.874 228.437 148.874C227.347 147.209 226.576 146.008 225.781 144.822 220.041 136.259 214.196 127.764 208.612 119.1 206.963 116.543 205.143 115.661 202.125 115.667 150.688 115.758 99.2503 115.724 47.8125 115.744 43.3369 115.746 38.122 114.541 34.5937 116.42 31.0682 118.297 29.1747 123.306 26.6652 127.01 21.8553 134.108 17.1158 141.254 12.0168 148.874ZM232.054 157.419 8.24041 157.419C8.24041 159.979 8.24105 162.26 8.24029 164.541 8.23773 172.163 10.0556 174.012 17.6255 174.013 86.1643 174.023 154.703 174.027 223.242 174.026 224.453 174.026 225.698 174.099 226.868 173.854 229.75 173.25 231.793 171.506 231.997 168.497 232.241 164.901 232.054 161.274 232.054 157.419Z" fill="#FFFFFF" fill-rule="nonzero" fill-opacity="1" transform="matrix(1.00523 0 0 1 481.197 225)"/><path d="M120.234 132.868C124.219 132.867 128.206 132.824 132.191 132.883 134.64 132.919 136.48 133.877 136.554 136.655 136.631 139.573 134.811 140.836 132.197 140.863 124.223 140.946 116.248 140.93 108.275 140.867 105.606 140.846 103.816 139.457 103.89 136.666 103.96 134.03 105.76 132.893 108.273 132.875 112.26 132.846 116.247 132.868 120.234 132.868Z" fill="#FFFFFF" fill-rule="nonzero" fill-opacity="1" transform="matrix(1.00523 0 0 1 481.197 225)"/><path d="M117.953 72.5061C103.633 72.5061 89.3121 72.5131 74.9916 72.4943 73.664 72.4925 72.1017 72.7306 71.0705 72.131 69.8736 71.435 68.4856 69.9868 68.3942 68.7737 68.3023 67.5542 69.4244 65.8199 70.5293 65.0557 71.5858 64.3254 73.3046 64.3858 74.7326 64.3841 103.374 64.3519 132.014 64.3609 160.656 64.3619 161.263 64.3619 161.871 64.3403 162.476 64.3723 165.25 64.5186 167.339 65.7146 167.208 68.7157 167.085 71.5283 165.036 72.485 162.371 72.48 147.565 72.4525 132.759 72.4668 117.953 72.4668L117.953 72.5061Z" fill="#FFFFFF" fill-rule="nonzero" fill-opacity="1" transform="matrix(1.00523 0 0 1 481.197 225)"/><path d="M117.591 47.6426C103.272 47.6426 88.9526 47.6487 74.6333 47.6317 73.4268 47.6303 71.9656 47.8676 71.0768 47.2925 69.9024 46.5323 68.4376 45.0708 68.4505 43.9261 68.4656 42.5911 69.7387 41.0506 70.8594 40.0323 71.5092 39.4419 72.9325 39.5965 74.0078 39.5959 103.253 39.5773 132.498 39.5789 161.744 39.5966 162.699 39.5972 163.982 39.4566 164.539 39.9854 165.656 41.046 167.123 42.5685 167.05 43.8182 166.975 45.0721 165.398 46.5578 164.111 47.318 163.091 47.9205 161.515 47.646 160.185 47.6476 145.988 47.6639 131.789 47.6578 117.591 47.6578L117.591 47.6426Z" fill="#FFFFFF" fill-rule="nonzero" fill-opacity="1" transform="matrix(1.00523 0 0 1 481.197 225)"/></g></g></g><g><g><g><path d="M0 13.4762C0.296513 12.6865 0.591466 11.8964 0.889774 11.1075 3.29988 4.73396 7.84773 1.03458 14.6326 0.17702 15.7178 0.0398537 16.8244 0.0310735 17.9211 0.030968 86.3456 0.0245392 154.77 0.0386553 223.194 0 228.756-0.00314277 233.557 1.51415 237.218 5.85188 239.966 9.10778 241.088 12.9227 241.082 17.1708 241.051 40.244 241.067 63.3173 241.067 86.3908 241.067 108.836 241.072 131.281 241.066 153.727 241.063 164.615 234.369 171.37 223.493 171.379 196.264 171.402 169.036 171.387 141.808 171.387L138.678 171.387C139.577 173.524 140.313 175.302 141.072 177.071 143.327 182.327 145.678 187.544 147.805 192.851 148.513 194.617 149.445 195.238 151.29 195.08 152.999 194.934 154.743 195.033 156.462 195.162 165.736 195.856 172.455 205.164 170.242 214.202 169.474 217.334 167.044 219.514 163.811 219.898 162.881 220.008 161.933 219.995 160.993 219.995 134 220.001 107.006 220.001 80.0133 219.999 73.166 219.998 70.5223 217.286 70.6318 210.39 70.7648 202.015 76.8027 195.639 85.1382 195.128 87.0156 195.012 88.9088 195.144 90.7816 194.997 91.4388 194.945 92.4148 194.555 92.6379 194.05 95.896 186.682 99.0516 179.269 102.383 171.511 101.293 171.461 100.481 171.393 99.6695 171.392 86.5656 171.385 73.4612 171.389 60.357 171.383 59.4954 171.383 58.6195 171.41 57.7751 171.272 55.9825 170.978 55.0176 169.818 54.9375 168.039 54.8575 166.261 55.7098 164.974 57.4685 164.562 58.519 164.317 59.6446 164.332 60.7365 164.332 114.722 164.322 168.709 164.332 222.695 164.292 224.621 164.29 226.686 164.168 228.445 163.483 231.768 162.189 233.713 159.464 233.922 155.896 234.142 152.152 233.971 148.386 233.971 144.206 228.736 147.776 223.013 147.048 217.416 147.049 151.345 147.062 85.2754 147.049 19.2049 147.079 15.0687 147.08 11.0634 146.772 7.47166 144.43 7.47166 148.939 6.99251 153.394 7.60814 157.692 8.20851 161.884 12.0289 164.27 16.6957 164.303 25.0914 164.361 33.4878 164.322 41.8839 164.324 42.59 164.325 43.2991 164.292 44.0018 164.344 46.3972 164.519 47.7996 165.922 47.7185 168.021 47.6409 170.029 46.2883 171.345 43.9476 171.356 34.6104 171.397 25.2704 171.488 15.936 171.317 8.35578 171.179 2.55631 166.419 0.50062 159.113 0.354636 158.594 0.167818 158.087-1.50732e-05 157.574 0 109.542 0 61.5088 0 13.4762ZM120.551 7.08892C86.2679 7.08892 51.9859 7.08507 17.7036 7.09209 10.662 7.09353 7.06459 10.6597 7.06401 17.6082 7.06091 54.9559 7.06003 92.3033 7.06497 129.651 7.06584 136.172 10.7535 139.982 17.1965 139.984 86.075 139.999 154.953 139.999 223.832 139.984 230.285 139.983 234 136.182 234.002 129.688 234.008 92.2611 234.006 54.8353 233.995 17.4091 233.995 16.3958 233.978 15.3545 233.757 14.374 232.689 9.63271 229.059 7.0928 223.397 7.09183 189.115 7.08601 154.833 7.08894 120.551 7.08891ZM77.8525 212.735 163.214 212.735C163.87 205.77 160.611 202.119 153.825 202.113 131.629 202.094 109.432 202.094 87.2364 202.113 80.4466 202.119 77.1984 205.76 77.8525 212.735ZM141.055 194.905C137.729 187.193 134.606 179.85 131.349 172.566 131.081 171.968 129.921 171.451 129.166 171.439 123.522 171.345 117.874 171.454 112.231 171.345 110.63 171.315 109.876 171.852 109.273 173.293 106.525 179.867 103.661 186.391 100.854 192.94 100.598 193.536 100.447 194.177 100.212 194.905L141.055 194.905Z" fill="#FFFFFF" fill-rule="nonzero" fill-opacity="1" transform="matrix(1.00375 0 0 1 481.007 1251)"/><path d="M149.737 85.5256C149.736 90.1523 149.692 94.779 149.757 99.405 149.784 101.345 149.028 102.666 147.36 103.623 139.14 108.339 130.981 113.165 122.687 117.744 121.559 118.366 119.49 118.357 118.36 117.731 110.069 113.145 101.918 108.307 93.6938 103.598 92.0048 102.631 91.3016 101.312 91.3107 99.3839 91.3536 89.9737 91.3536 80.5642 91.3092 71.1544 91.3001 69.296 92.0297 68.0397 93.6109 67.131 101.827 62.4093 110.038 57.6779 118.228 52.909 119.824 51.9792 121.271 51.9942 122.858 52.9168 131.051 57.6792 139.265 62.405 147.477 67.1325 149.051 68.0381 149.784 69.318 149.759 71.1762 149.694 75.9586 149.737 80.7428 149.737 85.5256ZM139.16 70.4975C132.984 66.9288 127.261 63.5674 121.458 60.3508 120.858 60.0184 119.653 60.3186 118.946 60.7143 113.829 63.5801 108.765 66.5415 103.693 69.487 103.191 69.7788 102.744 70.1663 102.132 70.6108 108.04 74.0274 113.711 77.3378 119.43 80.5635 119.982 80.8755 120.989 80.9493 121.515 80.6532 127.296 77.3996 133.022 74.0502 139.16 70.4976ZM98.3928 76.6346C98.3928 81.0684 98.383 85.0478 98.3959 89.0263 98.4057 92.0048 97.4425 95.5711 98.7486 97.799 100.104 100.109 103.649 101.157 106.273 102.695 109.693 104.7 113.15 106.643 116.952 108.82 116.952 101.661 116.986 94.9403 116.891 88.2207 116.883 87.6502 116.123 86.9153 115.53 86.5573 112.513 84.7357 109.436 83.0166 106.382 81.2561 103.83 79.7849 101.283 78.307 98.3928 76.6346ZM142.673 76.6655C136.484 80.2356 130.647 83.554 124.889 87.0043 124.366 87.317 124.146 88.4731 124.133 89.2434 124.06 93.3998 124.098 97.5578 124.098 101.716 124.098 103.95 124.098 106.183 124.098 108.865 130.358 105.265 136.188 101.937 141.973 98.5338 142.375 98.2971 142.64 97.499 142.643 96.9601 142.689 90.3746 142.673 83.7899 142.673 76.6655Z" fill="#FFFFFF" fill-rule="nonzero" fill-opacity="1" transform="matrix(1.00375 0 0 1 481.007 1251)"/><path d="M15.7706 69.0478C15.7703 55.7099 15.7637 42.3719 15.7732 29.0339 15.7777 22.7469 18.1293 20.4295 24.4673 20.4231 29.0171 20.4185 33.5672 20.3961 38.1168 20.43 43.2461 20.4684 45.8877 22.9978 45.893 28.0506 45.9222 55.3541 45.9213 82.6579 45.8943 109.962 45.8893 115.022 43.2253 117.601 38.1588 117.627 33.3737 117.651 28.5884 117.644 23.8031 117.629 18.3265 117.613 15.7898 115.086 15.7793 109.533 15.7537 96.0377 15.771 82.5426 15.7707 69.0478ZM23.0183 27.6301 23.0183 110.418 38.7053 110.418 38.7053 27.6301 23.0183 27.6301Z" fill="#FFFFFF" fill-rule="nonzero" fill-opacity="1" transform="matrix(1.00375 0 0 1 481.007 1251)"/><path d="M197.022 15.8476C204.158 15.8478 211.294 15.839 218.431 15.8508 223.287 15.8588 225.533 18.0564 225.538 22.8256 225.55 34.9041 225.55 46.9827 225.538 59.0613 225.533 63.7667 223.34 66.039 218.668 66.049 204.239 66.08 189.81 66.0798 175.381 66.0491 170.702 66.0391 168.529 63.7843 168.524 59.0647 168.512 46.9861 168.513 34.9075 168.524 22.829 168.529 18.0279 170.74 15.8585 175.613 15.8506 182.749 15.839 189.886 15.8476 197.022 15.8477ZM218.371 23.0765 175.692 23.0765 175.692 58.8522 218.371 58.8522 218.371 23.0765Z" fill="#FFFFFF" fill-rule="nonzero" fill-opacity="1" transform="matrix(1.00375 0 0 1 481.007 1251)"/><path d="M124.066 32.0804C124.066 36.1209 124.116 39.7095 124.035 43.295 124.012 44.3527 123.962 45.7843 123.314 46.3638 122.395 47.1864 120.712 47.997 119.724 47.6763 118.618 47.3172 117.303 45.7608 117.17 44.6003 116.806 41.4303 117.016 38.1945 117 34.9848 116.996 34.1632 116.999 33.3417 116.999 32.121 115.163 33.1325 113.757 33.9386 112.322 34.689 110.09 35.8565 108.028 35.3937 107.042 33.5453 106.091 31.7635 106.738 29.8027 108.787 28.6069 111.962 26.7548 115.104 24.8184 118.414 23.2412 119.565 22.6923 121.401 22.6276 122.533 23.1648 125.916 24.7693 129.129 26.7406 132.361 28.6492 134.379 29.8408 134.976 31.8818 133.977 33.6292 132.983 35.3672 130.956 35.8351 128.858 34.7471 127.413 33.9973 126.009 33.1663 124.066 32.0804Z" fill="#FFFFFF" fill-rule="nonzero" fill-opacity="1" transform="matrix(1.00375 0 0 1 481.007 1251)"/><path d="M164.884 115.022C161.303 112.955 158.04 111.094 154.799 109.192 152.545 107.869 151.864 106.011 152.876 104.129 153.914 102.199 156.004 101.793 158.375 103.126 161.624 104.953 164.848 106.823 168.495 108.911 168.495 106.766 168.456 105.076 168.505 103.388 168.571 101.059 169.799 99.6914 171.811 99.6032 173.923 99.5113 175.458 100.905 175.517 103.268 175.612 107.108 175.704 110.964 175.445 114.79 175.365 115.983 174.418 117.497 173.406 118.178 170.228 120.316 166.86 122.182 163.505 124.044 161.553 125.128 159.632 124.566 158.605 122.836 157.601 121.145 158.125 119.229 159.988 117.976 160.767 117.452 161.612 117.029 162.418 116.546 163.148 116.109 163.866 115.652 164.884 115.022Z" fill="#FFFFFF" fill-rule="nonzero" fill-opacity="1" transform="matrix(1.00375 0 0 1 481.007 1251)"/><path d="M76.2005 115.04C77.8571 116.031 79.338 116.882 80.7835 117.789 82.8772 119.103 83.5012 120.939 82.517 122.739 81.4852 124.626 79.4556 125.113 77.2511 123.869 73.9766 122.022 70.6603 120.222 67.557 118.114 66.5664 117.442 65.7095 115.887 65.6313 114.682 65.383 110.855 65.4534 107.001 65.5556 103.161 65.6152 100.927 67.1196 99.5738 69.1246 99.5972 71.1574 99.6206 72.4745 100.982 72.556 103.26 72.617 104.968 72.568 106.679 72.568 108.911 75.1873 107.42 77.4606 106.13 79.7307 104.833 80.7511 104.25 81.7512 103.63 82.783 103.068 85.041 101.837 87.063 102.209 88.1265 104.021 89.2095 105.866 88.5854 107.819 86.3757 109.135 83.0875 111.092 79.7578 112.981 76.2005 115.04Z" fill="#FFFFFF" fill-rule="nonzero" fill-opacity="1" transform="matrix(1.00375 0 0 1 481.007 1251)"/><path d="M30.9316 82.327C29.3754 81.5952 27.7457 81.2553 26.77 80.2688 25.3875 78.8707 25.7275 77.0733 27.1404 75.6805 28.626 74.2165 33.1272 74.2427 34.5782 75.7204 35.9694 77.1373 36.2592 78.9114 34.8765 80.3208 33.9492 81.2651 32.4106 81.6095 30.9316 82.327Z" fill="#FFFFFF" fill-rule="nonzero" fill-opacity="1" transform="matrix(1.00375 0 0 1 481.007 1251)"/><path d="M30.9587 56.1315C31.9224 56.3393 32.9949 56.3595 33.8504 56.8007 35.3957 57.5976 36.0556 59.0124 35.5266 60.7348 34.6905 63.4577 32.428 63.3808 30.1784 63.3697 28.1567 63.3597 26.6284 62.641 26.1062 60.5953 25.6674 58.8762 26.3586 57.4608 27.9559 56.7315 28.8379 56.3289 29.9031 56.3274 30.9587 56.1315Z" fill="#FFFFFF" fill-rule="nonzero" fill-opacity="1" transform="matrix(1.00375 0 0 1 481.007 1251)"/><path d="M30.734 100.729C29.2588 100.021 27.7189 99.6839 26.7944 98.7425 25.4081 97.3309 25.7143 95.5568 27.109 94.149 28.6054 92.6394 33.0239 92.6243 34.5424 94.1256 35.9511 95.5176 36.2941 97.3174 34.9021 98.7101 33.9231 99.6891 32.2894 100.014 30.734 100.729Z" fill="#FFFFFF" fill-rule="nonzero" fill-opacity="1" transform="matrix(1.00375 0 0 1 481.007 1251)"/><path d="M30.9151 37.9018C33.0622 37.7155 35.0828 38.1449 35.4559 40.5103 35.6352 41.647 34.9637 43.2363 34.145 44.1364 32.9596 45.4401 28.7771 45.457 27.565 44.161 26.734 43.2723 26.0272 41.6774 26.2094 40.5509 26.6138 38.0505 28.7451 37.7101 30.9151 37.9018Z" fill="#FFFFFF" fill-rule="nonzero" fill-opacity="1" transform="matrix(1.00375 0 0 1 481.007 1251)"/><path d="M197.282 43.58C200.808 43.5795 204.334 43.553 207.861 43.5887 210.244 43.6129 211.79 44.974 211.841 46.982 211.892 48.9983 210.372 50.5894 208.045 50.6095 200.679 50.6729 193.313 50.6756 185.947 50.6053 183.611 50.583 182.144 48.9865 182.223 46.9317 182.299 44.9728 183.755 43.6217 185.999 43.5935 189.759 43.5461 193.521 43.5805 197.282 43.58Z" fill="#FFFFFF" fill-rule="nonzero" fill-opacity="1" transform="matrix(1.00375 0 0 1 481.007 1251)"/><path d="M191.247 31.3398C192.97 31.3393 194.694 31.2931 196.414 31.3512 198.49 31.4212 199.932 32.745 200.065 34.5892 200.197 36.4204 198.876 38.2122 196.893 38.2947 193.065 38.4541 189.22 38.4558 185.392 38.2967 183.379 38.2131 182.107 36.4843 182.226 34.6027 182.343 32.7367 183.754 31.4224 185.845 31.3526 187.644 31.2927 189.446 31.3402 191.247 31.3398Z" fill="#FFFFFF" fill-rule="nonzero" fill-opacity="1" transform="matrix(1.00375 0 0 1 481.007 1251)"/></g></g></g><g><g><g><path d="M261.97 22.727C259.694 22.8043 257.384 22.7852 255.153 22.769 252.903 22.75 250.576 22.7324 248.297 22.8137 247.196 22.8449 245.978 22.7866 245.216 22.0128 244.616 21.4068 244.379 20.5029 244.448 19.0853 244.627 15.3296 244.576 11.49 244.525 7.77644L244.496 5.45071C244.471 3.26052 243.907 1.71138 242.823 0.843977 241.749-0.0112277 240.146-0.218586 238.046 0.231368 226.312 2.75091 214.578 5.27587 202.845 7.80082 181.376 12.4225 159.909 17.0428 138.434 21.6264 136.413 22.0575 133.793 22.4884 131.462 21.9938 107.627 16.941 83.4132 11.7299 59.9945 6.68946 50.0113 4.53995 40.028 2.39177 30.0434 0.249021 27.8775-0.215852 26.2417-0.0166264 25.171 0.842645 24.08 1.71682 23.5175 3.32288 23.4985 5.61607L23.489 6.78436C23.4538 10.9655 23.4171 15.2889 23.5297 19.5312 23.5527 20.4338 23.4863 21.4449 22.8181 22.1103 22.2949 22.6308 21.5238 22.8463 20.3243 22.8097 17.0255 22.7079 13.6575 22.7311 10.4007 22.75 9.15787 22.7582 7.91504 22.7662 6.67357 22.7676 1.24687 22.773-1.38785e-05 24.001-1.38785e-05 29.3369L-1.38785e-05 208.468C-1.38785e-05 213.831 1.30109 215.141 6.63156 215.143L43.0381 215.143C55.1615 215.141 67.297 215.141 79.4218 215.141 140.11 215.141 200.788 215.148 261.476 215.191L261.49 215.191C264.679 215.191 266.639 214.243 268 212.027L268 26.0828C266.862 23.6608 264.975 22.5941 261.97 22.727ZM9.28393 205.863 9.28393 32.0625 23.489 32.0625 23.4904 185.111C23.4904 190.843 24.0109 191.48 29.6815 192.693 43.9828 195.757 58.2773 198.848 72.5719 201.939L80.7702 203.712C81.2121 203.807 81.6444 203.941 82.2652 204.136 82.5973 204.24 82.9875 204.362 83.4673 204.503L88.0333 205.863 9.28393 205.863ZM129.354 203.05 129.265 204.793 122.284 203.301C117.48 202.276 112.745 201.263 108.011 200.241L90.7481 196.509C72.5949 192.585 53.8237 188.525 35.348 184.597 33.0711 184.115 32.6266 182.957 32.628 181.122 32.6523 136.686 32.6537 92.2521 32.6564 47.818L32.6578 13.2574C32.6578 12.8548 32.6809 12.4523 32.7106 11.9359L32.7973 10.212 37.2008 11.139C39.5672 11.6364 41.8754 12.1216 44.1793 12.6204L62.4965 16.582C83.4158 21.1087 105.048 25.7899 126.337 30.3276 128.585 30.8074 129.38 31.7927 129.379 34.0913 129.363 78.5092 129.383 122.926 129.404 167.342L129.419 201.428C129.419 201.947 129.39 202.467 129.354 203.05ZM258.693 205.865 185.126 205.865 184.629 204.399 189.111 203.388C191.748 202.788 194.385 202.188 197.027 201.618 206.027 199.676 215.03 197.743 224.033 195.811L239.14 192.566C243.653 191.596 244.507 190.529 244.508 185.851 244.515 168.047 244.512 150.244 244.507 132.44 244.507 131.506 244.508 130.682 244.403 129.908 244.106 127.737 242.453 126.189 240.288 126.055 238.055 125.92 236.181 127.21 235.665 129.273 235.384 130.389 235.359 131.654 235.358 132.75 235.337 148.53 235.318 164.847 235.383 180.896 235.39 183.217 234.599 184.209 232.36 184.686 209.602 189.545 186.477 194.547 164.113 199.386L141.213 204.337C140.829 204.422 140.451 204.438 140.017 204.459 139.805 204.469 139.573 204.48 139.316 204.498L138.568 204.556 138.557 175.743C138.539 129.483 138.52 81.6467 138.431 34.5982 138.427 31.8768 139.327 30.7668 142.002 30.1989 164.943 25.3238 188.252 20.2982 210.794 15.4381L232.911 10.6714C233.211 10.6077 233.523 10.5874 233.933 10.5684 234.124 10.5589 234.343 10.5481 234.597 10.5277L235.344 10.4708 235.344 23.9265C235.344 42.9443 235.343 61.9635 235.355 80.9827 235.355 82.17 235.373 83.2351 235.584 84.2341 236.051 86.4391 237.998 87.9476 240.206 87.8107 242.462 87.6739 244.157 86.0393 244.421 83.7448 244.514 82.9547 244.511 82.1171 244.508 81.308L244.511 32.1722 258.693 32.1722 258.693 205.865Z" fill="#FFFFFF" fill-rule="nonzero" fill-opacity="1" transform="matrix(1 0 0 1.00356 458 553.021)"/><path d="M221.377 101.51C221.364 99.2917 220.795 97.7154 219.684 96.8223 218.966 96.2462 218.025 95.9575 216.869 95.9575 216.283 95.9575 215.642 96.0322 214.948 96.1812 194.769 100.51 174.587 104.907 157.505 108.637 154.61 109.268 153.481 110.693 153.475 113.72 153.436 133.939 153.438 150.309 153.481 165.238 153.486 167.131 154.057 168.589 155.129 169.453 156.23 170.339 157.827 170.586 159.747 170.174 178.56 166.125 197.37 162.066 216.178 157.99 220.552 157.04 221.381 156.002 221.389 151.449 221.396 145.781 221.395 140.113 221.392 134.445L221.391 127.004 221.396 119.268C221.403 113.349 221.41 107.429 221.377 101.51ZM209.483 150.168C199.822 152.223 190.166 154.306 180.51 156.389L165.585 159.607C165.151 159.698 164.721 159.722 164.221 159.747 163.969 159.759 163.687 159.774 163.368 159.799L162.618 159.861 162.626 147.203C162.638 138.333 162.649 129.16 162.561 120.142 162.534 117.354 163.73 116.576 165.946 116.115 176.305 113.958 186.819 111.664 196.988 109.447 200.841 108.605 204.694 107.765 208.55 106.93 209.122 106.805 209.702 106.715 210.328 106.619L211.989 106.349 212.048 107.104C212.07 107.378 212.095 107.634 212.12 107.88 212.171 108.402 212.217 108.879 212.217 109.356L212.217 120.191C212.213 128.88 212.209 137.865 212.268 146.702 212.282 148.741 211.476 149.745 209.483 150.168Z" fill="#FFFFFF" fill-rule="nonzero" fill-opacity="1" transform="matrix(1 0 0 1.00356 458 553.021)"/><path d="M158.249 64.9696 158.255 64.9696 158.897 64.872C159.43 64.7934 160.015 64.7067 160.591 64.5833 178.964 60.6135 197.335 56.6357 215.707 52.6564 218.3 52.0941 220.018 51.1818 220.812 49.9432 221.381 49.0568 221.511 47.9738 221.217 46.6321 220.738 44.4568 219.188 43.3631 216.596 43.3631 215.757 43.3631 214.808 43.4783 213.752 43.7073 205.99 45.3974 198.223 47.0698 190.457 48.7423L171.6 52.8083C166.846 53.8289 161.928 54.8846 157.118 56.0136 154.485 56.6316 153.128 58.6591 153.576 61.3048 153.937 63.4353 155.898 64.9696 158.249 64.9696Z" fill="#FFFFFF" fill-rule="nonzero" fill-opacity="1" transform="matrix(1 0 0 1.00356 458 553.021)"/><path d="M216.532 69.6603C216.013 69.6603 215.472 69.7158 214.914 69.8312 210.205 70.8028 205.507 71.8356 200.808 72.8671 198.334 73.4104 195.858 73.9539 193.383 74.488L180.274 77.3111C172.849 78.9077 165.426 80.5043 158.006 82.1197 155.027 82.7703 153.599 84.1989 153.51 86.6154 153.46 87.9626 153.958 89.204 154.909 90.1094 155.857 91.0093 157.11 91.4322 158.452 91.3224 159.157 91.2601 159.856 91.1083 160.597 90.9456L195.929 83.3124C202.814 81.827 209.699 80.3402 216.587 78.8684 219.403 78.2666 220.743 77.2027 221.209 75.1955 221.589 73.5596 221.242 72.0891 220.233 71.0536 219.341 70.1401 218.039 69.6603 216.532 69.6603Z" fill="#FFFFFF" fill-rule="nonzero" fill-opacity="1" transform="matrix(1 0 0 1.00356 458 553.021)"/><path d="M239.986 102.322C238.773 102.322 237.642 102.767 236.786 103.585 235.91 104.42 235.423 105.553 235.413 106.773 235.391 109.206 237.43 111.313 239.864 111.376 242.322 111.498 244.371 109.465 244.444 106.975L244.444 106.974C244.521 104.422 242.687 102.423 240.178 102.326 240.114 102.324 240.05 102.322 239.986 102.322Z" fill="#FFFFFF" fill-rule="nonzero" fill-opacity="1" transform="matrix(1 0 0 1.00356 458 553.021)"/><path d="M110.744 55.8077C93.6688 52.0927 73.5166 47.7218 53.5202 43.4742 51.4561 43.0337 49.8839 43.2424 48.8362 44.0787 47.7411 44.9555 47.1732 46.5562 47.1489 48.8372 47.1191 51.5574 47.1259 54.2774 47.1339 56.9976L47.1407 60.6624 47.1339 64.6009C47.1271 67.4932 47.1191 70.3853 47.1529 73.2776 47.1908 76.6294 48.3184 78.0592 51.4615 78.7423 69.4791 82.6497 88.8534 86.8403 108.435 91.0121 110.639 91.4851 112.307 91.2749 113.401 90.3939 114.492 89.5157 115.05 87.9327 115.061 85.6869 115.102 77.8858 115.101 69.6603 115.058 61.2383 115.042 57.8758 113.954 56.5056 110.744 55.8075ZM105.901 76.216C105.906 77.5347 105.911 78.8751 105.911 80.2453L105.911 81.1047 93.128 78.3506C82.6378 76.0913 72.3279 73.8699 62.0208 71.6309 56.5642 70.4464 56.2972 70.1049 56.3067 64.3271 56.3122 61.2546 56.3406 58.1848 56.3718 55.1164 56.3745 54.8684 56.464 54.6745 56.5588 54.4685 56.6022 54.375 56.6551 54.2584 56.7174 54.1053L56.9342 53.5605 79.564 58.4504C87.3286 60.1337 95.3589 61.8753 103.269 63.5166 105.238 63.9246 105.987 64.8435 105.944 66.7979 105.876 69.8893 105.888 72.9619 105.901 76.216Z" fill="#FFFFFF" fill-rule="nonzero" fill-opacity="1" transform="matrix(1 0 0 1.00356 458 553.021)"/><path d="M51.1687 105.027C69.6255 109.035 88.6649 113.135 109.378 117.56 111.924 118.11 114.302 116.732 114.894 114.363 115.535 111.79 114.172 109.517 111.502 108.708 110.95 108.54 110.384 108.424 109.82 108.307L109.255 108.188 64.3302 98.4744C60.763 97.6951 57.1958 96.9171 53.6204 96.1826 51.6336 95.772 49.8798 96.0795 48.6871 97.0405 47.7142 97.8265 47.1925 98.9932 47.1801 100.412 47.1601 102.825 48.5763 104.464 51.1687 105.027Z" fill="#FFFFFF" fill-rule="nonzero" fill-opacity="1" transform="matrix(1 0 0 1.00356 458 553.021)"/><path d="M109.245 134.522C101.642 132.89 94.0415 131.25 86.4409 129.61L70.7748 126.234C66.6343 125.344 62.491 124.46 58.5077 123.61L52.65 122.361C52.5267 122.355 52.4061 122.352 52.2855 122.352 49.4515 122.352 47.5812 123.732 47.2505 126.099 46.7503 129.677 49.3905 131.021 51.6933 131.52L107.34 143.551C109.964 144.115 112.032 143.964 113.325 143.109 114.171 142.549 114.714 141.664 114.939 140.483 115.343 138.364 115.06 135.77 109.245 134.522Z" fill="#FFFFFF" fill-rule="nonzero" fill-opacity="1" transform="matrix(1 0 0 1.00356 458 553.021)"/><path d="M110.585 161.244C91.5302 157.092 72.4729 152.964 53.4091 148.854 52.875 148.738 52.3532 148.681 51.8545 148.681 50.7987 148.681 49.8459 148.937 49.0829 149.435 48.1531 150.043 47.5351 150.987 47.2952 152.162 46.7042 155.06 48.2819 157.135 51.62 157.854L76.4155 163.205C87.2134 165.535 98.0113 167.866 108.812 170.185 110.639 170.582 112.291 170.282 113.459 169.351 114.455 168.561 114.993 167.401 115.018 165.995 115.061 163.423 113.653 161.915 110.584 161.244Z" fill="#FFFFFF" fill-rule="nonzero" fill-opacity="1" transform="matrix(1 0 0 1.00356 458 553.021)"/></g></g></g><text fill="#FFFFFF" fill-opacity="1" font-family="Arial,Arial_MSFontService,sans-serif" font-style="normal" font-variant="normal" font-weight="700" font-stretch="normal" font-size="46" text-anchor="start" direction="ltr" writing-mode="lr-tb" unicode-bidi="normal" text-decoration="none" transform="matrix(1 0 0 1 90.2808 339)">Technical data</text><text fill="#FFFFFF" fill-opacity="1" font-family="Arial,Arial_MSFontService,sans-serif" font-style="normal" font-variant="normal" font-weight="700" font-stretch="normal" font-size="46" text-anchor="start" direction="ltr" writing-mode="lr-tb" unicode-bidi="normal" text-decoration="none" transform="matrix(1 0 0 1 174.521 605)">Brochures</text><text fill="#FFFFFF" fill-opacity="1" font-family="Arial,Arial_MSFontService,sans-serif" font-style="normal" font-variant="normal" font-weight="700" font-stretch="normal" font-size="46" text-anchor="start" direction="ltr" writing-mode="lr-tb" unicode-bidi="normal" text-decoration="none" transform="matrix(1 0 0 1 160.083 677)">Datasheets </text><text fill="#FFFFFF" fill-opacity="1" font-family="Arial,Arial_MSFontService,sans-serif" font-style="normal" font-variant="normal" font-weight="700" font-stretch="normal" font-size="46" text-anchor="start" direction="ltr" writing-mode="lr-tb" unicode-bidi="normal" text-decoration="none" transform="matrix(1 0 0 1 209.583 744)">Catalogs</text><text fill="#FFFFFF" fill-opacity="1" font-family="Arial,Arial_MSFontService,sans-serif" font-style="normal" font-variant="normal" font-weight="700" font-stretch="normal" font-size="46" text-anchor="start" direction="ltr" writing-mode="lr-tb" unicode-bidi="normal" text-decoration="none" transform="matrix(1 0 0 1 102.885 948)">Presentations </text><text fill="#FFFFFF" fill-opacity="1" font-family="Arial,Arial_MSFontService,sans-serif" font-style="normal" font-variant="normal" font-weight="700" font-stretch="normal" font-size="46" text-anchor="start" direction="ltr" writing-mode="lr-tb" unicode-bidi="normal" text-decoration="none" transform="matrix(1 0 0 1 252.073 1014)">Videos </text><text fill="#FFFFFF" fill-opacity="1" font-family="Arial,Arial_MSFontService,sans-serif" font-style="normal" font-variant="normal" font-weight="700" font-stretch="normal" font-size="46" text-anchor="start" direction="ltr" writing-mode="lr-tb" unicode-bidi="normal" text-decoration="none" transform="matrix(1 0 0 1 154.219 1079)">Animations</text><text fill="#FFFFFF" fill-opacity="1" font-family="Arial,Arial_MSFontService,sans-serif" font-style="normal" font-variant="normal" font-weight="700" font-stretch="normal" font-size="46" text-anchor="start" direction="ltr" writing-mode="lr-tb" unicode-bidi="normal" text-decoration="none" transform="matrix(1 0 0 1 171.063 1357)">3D</text><text fill="#FFFFFF" fill-opacity="1" font-family="Arial,Arial_MSFontService,sans-serif" font-style="normal" font-variant="normal" font-weight="700" font-stretch="normal" font-size="46" text-anchor="start" direction="ltr" writing-mode="lr-tb" unicode-bidi="normal" text-decoration="none" transform="matrix(1 0 0 1 243.709 1357)">models</text></g></g></svg>